<svg width="22" height="21" viewBox="0 0 22 21" fill="none" xmlns="http://www.w3.org/2000/svg">
<g clip-path="url(#clip0)">
<path d="M22 10.5781C21.9289 16.4671 16.918 21.0572 10.8907 20.9946C4.74861 20.9321 -0.0546715 16.1437 -2.66453e-05 10.4216C0.0546182 4.50657 5.14205 -0.0575134 11.0819 -0.000136335C17.2841 0.0572407 22.0437 4.89256 22 10.5781ZM2.13112 10.4634C2.13112 15.1735 6.08741 18.976 10.9727 18.9656C15.9071 18.9552 19.8798 15.1787 19.8688 10.5103C19.8524 5.81581 15.8852 2.01328 11.0273 2.03414C6.08741 2.05501 2.13112 5.80538 2.13112 10.4634Z" fill="#484A51" fill-opacity="0.3"/>
<path d="M15.6065 9.50374C15.601 10.187 15.601 10.8391 15.5956 11.5224C15.5027 11.5276 15.4043 11.5328 15.3114 11.5328C14.3278 11.5276 13.3442 11.5328 12.3606 11.5119C12.0983 11.5067 12.0436 11.5902 12.0436 11.8197C12.0491 12.7429 12.0382 13.661 12.0327 14.5842C12.0327 14.6781 12.0327 14.772 12.0327 14.8867C11.3278 14.8815 10.6393 14.8815 9.9125 14.8763C9.9125 14.7824 9.9125 14.6938 9.9125 14.5999C9.91796 13.687 9.92342 12.7742 9.92889 11.8614C9.92889 11.5015 9.92889 11.5015 9.56823 11.5015C8.62288 11.4963 7.67206 11.4911 6.7267 11.4859C6.62834 11.4859 6.52998 11.4859 6.4043 11.4859C6.40976 10.8078 6.40976 10.1453 6.41523 9.45679C6.52452 9.45679 6.61741 9.45679 6.71577 9.45679C7.69938 9.46201 8.68299 9.46201 9.66659 9.47766C9.87971 9.48287 9.95075 9.42028 9.95075 9.21685C9.94528 8.27796 9.95621 7.33906 9.96168 6.40016C9.96168 6.30627 9.96168 6.21238 9.96168 6.10284C10.6775 6.10806 11.3606 6.10806 12.0819 6.11328C12.0819 6.2176 12.0819 6.30627 12.0819 6.40016C12.0764 7.33906 12.0764 8.27796 12.06 9.21685C12.0546 9.44115 12.1311 9.49331 12.3551 9.49331C13.3278 9.48809 14.3059 9.49852 15.2786 9.50374C15.3715 9.50374 15.4753 9.50374 15.6065 9.50374Z" fill="#484A51" fill-opacity="0.3"/>
</g>
<defs>
<clipPath id="clip0">
<rect width="22" height="21" fill="white"/>
</clipPath>
</defs>
</svg>
