<svg width="16" height="17" viewBox="0 0 16 17" fill="none" xmlns="http://www.w3.org/2000/svg">
<path d="M5.81316 2.68789L2.9031 7.39727C2.84411 7.51468 2.73269 7.57991 2.60816 7.57991C2.56228 7.57991 2.50984 7.56686 2.46397 7.54729C2.29356 7.4625 2.11659 7.42336 1.93963 7.42336C1.5005 7.42336 1.08759 7.6647 0.877852 8.08215L0.700889 8.43438C0.412505 9.0149 0.648455 9.72587 1.23833 10.0129L12.0265 15.3354C12.1969 15.4202 12.3739 15.4593 12.5509 15.4593C12.99 15.4593 13.4029 15.218 13.6126 14.8005L13.7896 14.4483C14.078 13.8678 13.842 13.1568 13.2522 12.8698C13.0883 12.7915 13.0228 12.5959 13.1014 12.4328L15.107 7.27986C16.0836 4.78167 14.9759 1.95082 12.564 0.763692C11.8233 0.398422 11.0303 0.222309 10.2569 0.222309C8.49382 0.209263 6.78973 1.10287 5.81316 2.68789Z" fill="#1A518E"/>
<path d="M7.78647 16.7834C8.55331 17.1226 9.26771 16.7965 9.64786 16.3399L7.01307 15.0419C6.81645 15.7137 7.13105 16.4573 7.78647 16.7834Z" fill="#1A518E"/>
</svg>
