<svg width="28" height="28" viewBox="0 0 28 28" fill="none" xmlns="http://www.w3.org/2000/svg">
<path d="M3.88911 5.44446C3.68283 5.44446 3.485 5.5264 3.33913 5.67226C3.19327 5.81813 3.11133 6.01596 3.11133 6.22224V23.3333C3.11133 23.5396 3.19327 23.7375 3.33913 23.8833C3.485 24.0292 3.68283 24.1111 3.88911 24.1111C4.09539 24.1111 4.29322 24.0292 4.43908 23.8833C4.58494 23.7375 4.66688 23.5396 4.66688 23.3333V6.22224C4.66688 6.01596 4.58494 5.81813 4.43908 5.67226C4.29322 5.5264 4.09539 5.44446 3.88911 5.44446Z" fill="#484A51" fill-opacity="0.3"/>
<path d="M6.99995 5.44446C6.79367 5.44446 6.59584 5.5264 6.44997 5.67226C6.30411 5.81813 6.22217 6.01596 6.22217 6.22224V20.2222C6.22217 20.4285 6.30411 20.6263 6.44997 20.7722C6.59584 20.9181 6.79367 21 6.99995 21C7.20623 21 7.40406 20.9181 7.54992 20.7722C7.69578 20.6263 7.77772 20.4285 7.77772 20.2222V6.22224C7.77772 6.01596 7.69578 5.81813 7.54992 5.67226C7.40406 5.5264 7.20623 5.44446 6.99995 5.44446Z" fill="#484A51" fill-opacity="0.3"/>
<path d="M10.1113 5.44446C9.90499 5.44446 9.70716 5.5264 9.5613 5.67226C9.41544 5.81813 9.3335 6.01596 9.3335 6.22224V20.2222C9.3335 20.4285 9.41544 20.6263 9.5613 20.7722C9.70716 20.9181 9.90499 21 10.1113 21C10.3176 21 10.5154 20.9181 10.6612 20.7722C10.8071 20.6263 10.8891 20.4285 10.8891 20.2222V6.22224C10.8891 6.01596 10.8071 5.81813 10.6612 5.67226C10.5154 5.5264 10.3176 5.44446 10.1113 5.44446Z" fill="#484A51" fill-opacity="0.3"/>
<path d="M13.2221 5.44446C13.0158 5.44446 12.818 5.5264 12.6721 5.67226C12.5263 5.81813 12.4443 6.01596 12.4443 6.22224V20.2222C12.4443 20.4285 12.5263 20.6263 12.6721 20.7722C12.818 20.9181 13.0158 21 13.2221 21C13.4284 21 13.6262 20.9181 13.7721 20.7722C13.9179 20.6263 13.9999 20.4285 13.9999 20.2222V6.22224C13.9999 6.01596 13.9179 5.81813 13.7721 5.67226C13.6262 5.5264 13.4284 5.44446 13.2221 5.44446Z" fill="#484A51" fill-opacity="0.3"/>
<path d="M16.3334 5.44446C16.1272 5.44446 15.9293 5.5264 15.7835 5.67226C15.6376 5.81813 15.5557 6.01596 15.5557 6.22224V20.2222C15.5557 20.4285 15.6376 20.6263 15.7835 20.7722C15.9293 20.9181 16.1272 21 16.3334 21C16.5397 21 16.7376 20.9181 16.8834 20.7722C17.0293 20.6263 17.1112 20.4285 17.1112 20.2222V6.22224C17.1112 6.01596 17.0293 5.81813 16.8834 5.67226C16.7376 5.5264 16.5397 5.44446 16.3334 5.44446Z" fill="#484A51" fill-opacity="0.3"/>
<path d="M19.4443 5.44446C19.238 5.44446 19.0402 5.5264 18.8943 5.67226C18.7484 5.81813 18.6665 6.01596 18.6665 6.22224V20.2222C18.6665 20.4285 18.7484 20.6263 18.8943 20.7722C19.0402 20.9181 19.238 21 19.4443 21C19.6506 21 19.8484 20.9181 19.9943 20.7722C20.1401 20.6263 20.2221 20.4285 20.2221 20.2222V6.22224C20.2221 6.01596 20.1401 5.81813 19.9943 5.67226C19.8484 5.5264 19.6506 5.44446 19.4443 5.44446Z" fill="#484A51" fill-opacity="0.3"/>
<path d="M22.5556 5.44446C22.3493 5.44446 22.1515 5.5264 22.0056 5.67226C21.8598 5.81813 21.7778 6.01596 21.7778 6.22224V20.2222C21.7778 20.4285 21.8598 20.6263 22.0056 20.7722C22.1515 20.9181 22.3493 21 22.5556 21C22.7619 21 22.9597 20.9181 23.1056 20.7722C23.2514 20.6263 23.3334 20.4285 23.3334 20.2222V6.22224C23.3334 6.01596 23.2514 5.81813 23.1056 5.67226C22.9597 5.5264 22.7619 5.44446 22.5556 5.44446Z" fill="#484A51" fill-opacity="0.3"/>
<path d="M25.6664 5.44446C25.4602 5.44446 25.2623 5.5264 25.1165 5.67226C24.9706 5.81813 24.8887 6.01596 24.8887 6.22224V23.3333C24.8887 23.5396 24.9706 23.7375 25.1165 23.8833C25.2623 24.0292 25.4602 24.1111 25.6664 24.1111C25.8727 24.1111 26.0706 24.0292 26.2164 23.8833C26.3623 23.7375 26.4442 23.5396 26.4442 23.3333V6.22224C26.4442 6.01596 26.3623 5.81813 26.2164 5.67226C26.0706 5.5264 25.8727 5.44446 25.6664 5.44446Z" fill="#484A51" fill-opacity="0.3"/>
</svg>
