<?xml version="1.0" standalone="no"?>
<!DOCTYPE svg PUBLIC "-//W3C//DTD SVG 20010904//EN"
 "http://www.w3.org/TR/2001/REC-SVG-20010904/DTD/svg10.dtd">
<svg version="1.0" xmlns="http://www.w3.org/2000/svg"
 width="83.000000pt" height="70.000000pt" viewBox="0 0 83.000000 70.000000"
 preserveAspectRatio="xMidYMid meet">

<g transform="translate(0.000000,70.000000) scale(0.100000,-0.100000)"
fill="#000000" stroke="none">
<path d="M70 345 c0 -183 4 -285 10 -285 6 0 10 102 10 285 0 183 -4 285 -10
285 -6 0 -10 -102 -10 -285z"/>
<path d="M110 345 l0 -285 30 0 30 0 0 285 0 285 -30 0 -30 0 0 -285z"/>
<path d="M210 345 c0 -183 4 -285 10 -285 6 0 10 102 10 285 0 183 -4 285 -10
285 -6 0 -10 -102 -10 -285z"/>
<path d="M270 345 c0 -183 4 -285 10 -285 6 0 10 102 10 285 0 183 -4 285 -10
285 -6 0 -10 -102 -10 -285z"/>
<path d="M310 345 c0 -183 4 -285 10 -285 6 0 10 102 10 285 0 183 -4 285 -10
285 -6 0 -10 -102 -10 -285z"/>
<path d="M350 345 c0 -183 4 -285 10 -285 6 0 10 102 10 285 0 183 -4 285 -10
285 -6 0 -10 -102 -10 -285z"/>
<path d="M390 345 c0 -183 4 -285 10 -285 6 0 10 102 10 285 0 183 -4 285 -10
285 -6 0 -10 -102 -10 -285z"/>
<path d="M450 345 l0 -285 30 0 30 0 0 285 0 285 -30 0 -30 0 0 -285z"/>
<path d="M530 345 c0 -183 4 -285 10 -285 6 0 10 102 10 285 0 183 -4 285 -10
285 -6 0 -10 -102 -10 -285z"/>
<path d="M570 345 l0 -285 30 0 30 0 0 285 0 285 -30 0 -30 0 0 -285z"/>
<path d="M670 345 c0 -183 4 -285 10 -285 6 0 10 102 10 285 0 183 -4 285 -10
285 -6 0 -10 -102 -10 -285z"/>
<path d="M730 345 c0 -183 4 -285 10 -285 6 0 10 102 10 285 0 183 -4 285 -10
285 -6 0 -10 -102 -10 -285z"/>
</g>
</svg>
