<?xml version="1.0" standalone="no"?>
<!DOCTYPE svg PUBLIC "-//W3C//DTD SVG 20010904//EN"
 "http://www.w3.org/TR/2001/REC-SVG-20010904/DTD/svg10.dtd">
<svg version="1.0" xmlns="http://www.w3.org/2000/svg"
 width="512.000000pt" height="512.000000pt" viewBox="0 0 512.000000 512.000000"
 preserveAspectRatio="xMidYMid meet">

<g transform="translate(0.000000,512.000000) scale(0.100000,-0.100000)"
fill="#F2F2F2" stroke="none">
<path d="M17 4452 c-16 -17 -17 -163 -17 -1894 0 -1804 1 -1876 18 -1891 16
-15 45 -17 204 -17 166 0 187 2 201 18 16 17 17 163 17 1894 0 1804 -1 1876
-18 1891 -16 15 -45 17 -204 17 -166 0 -187 -2 -201 -18z"/>
<path d="M686 4448 c-14 -20 -16 -216 -16 -1888 0 -1672 2 -1868 16 -1888 14
-21 22 -22 153 -22 121 0 140 2 154 18 16 17 17 163 17 1894 0 1804 -1 1876
-18 1891 -15 14 -42 17 -155 17 -129 0 -137 -1 -151 -22z"/>
<path d="M1229 4453 c-20 -23 -26 -3734 -6 -3773 11 -22 20 -25 69 -28 41 -2
60 1 72 13 15 15 16 178 16 1895 0 1694 -2 1880 -16 1894 -22 22 -117 22 -135
-1z"/>
<path d="M1626 4454 c-14 -14 -16 -200 -16 -1894 0 -1694 2 -1880 16 -1894 23
-23 275 -23 298 0 14 14 16 200 16 1894 0 1694 -2 1880 -16 1894 -23 23 -275
23 -298 0z"/>
<path d="M2186 4454 c-14 -14 -16 -200 -16 -1894 0 -1694 2 -1880 16 -1894 24
-25 195 -23 217 2 16 17 17 163 17 1894 0 1804 -1 1876 -18 1891 -26 24 -193
24 -216 1z"/>
<path d="M2646 4454 c-14 -14 -16 -200 -16 -1894 0 -1694 2 -1880 16 -1894 12
-13 41 -16 145 -16 72 0 139 5 150 10 19 11 19 42 19 1900 0 1858 0 1889 -19
1900 -11 5 -78 10 -150 10 -104 0 -133 -3 -145 -16z"/>
<path d="M3206 4454 c-14 -14 -16 -200 -16 -1894 0 -1694 2 -1880 16 -1894 12
-13 41 -16 150 -16 75 0 144 5 155 10 19 11 19 42 19 1900 0 1858 0 1889 -19
1900 -11 5 -80 10 -155 10 -109 0 -138 -3 -150 -16z"/>
<path d="M3706 4448 c-14 -20 -16 -216 -16 -1888 0 -1672 2 -1868 16 -1888 17
-24 61 -30 95 -12 19 11 19 42 19 1900 0 1858 0 1889 -19 1900 -34 18 -78 12
-95 -12z"/>
<path d="M3997 4452 c-16 -17 -17 -163 -17 -1894 0 -1804 1 -1876 18 -1891 13
-12 37 -17 85 -17 57 0 68 3 81 22 14 20 16 216 16 1888 0 1672 -2 1868 -16
1888 -13 19 -24 22 -83 22 -53 0 -72 -4 -84 -18z"/>
<path d="M4357 4452 c-16 -17 -17 -150 -17 -1894 0 -1818 1 -1875 19 -1892 15
-14 36 -16 122 -14 99 3 104 4 116 28 19 37 19 3723 0 3760 -12 24 -17 25
-118 28 -92 2 -107 0 -122 -16z"/>
<path d="M4799 4453 c-20 -23 -26 -3734 -6 -3773 12 -25 15 -25 151 -28 119
-2 141 0 157 14 18 17 19 77 19 1894 0 1806 -1 1878 -18 1893 -27 25 -283 25
-303 0z"/>
</g>
</svg>
