<svg width="24" height="22" viewBox="0 0 24 22" fill="none" xmlns="http://www.w3.org/2000/svg">
<path d="M12 13.75C13.5878 13.75 14.875 12.5188 14.875 11C14.875 9.48122 13.5878 8.25 12 8.25C10.4122 8.25 9.125 9.48122 9.125 11C9.125 12.5188 10.4122 13.75 12 13.75Z" fill="white"/>
<path d="M19.6667 3.66671H16.6288L15.4405 2.42921C15.2619 2.24165 15.0444 2.09179 14.8018 1.98919C14.5592 1.8866 14.297 1.83353 14.0317 1.83337H9.96841C9.43175 1.83337 8.91425 2.05337 8.55008 2.42921L7.37133 3.66671H4.33341C3.27925 3.66671 2.41675 4.49171 2.41675 5.50004V16.5C2.41675 17.5084 3.27925 18.3334 4.33341 18.3334H19.6667C20.7209 18.3334 21.5834 17.5084 21.5834 16.5V5.50004C21.5834 4.49171 20.7209 3.66671 19.6667 3.66671ZM12.0001 15.5834C9.35508 15.5834 7.20841 13.53 7.20841 11C7.20841 8.47004 9.35508 6.41671 12.0001 6.41671C14.6451 6.41671 16.7917 8.47004 16.7917 11C16.7917 13.53 14.6451 15.5834 12.0001 15.5834Z" fill="white"/>
</svg>
