<svg width="9" height="9" viewBox="0 0 9 9" fill="none" xmlns="http://www.w3.org/2000/svg">
<g clip-path="url(#clip0)">
<path d="M2.85635 6.63506C3.21331 6.92813 3.64197 7.13152 4.10404 7.22458C4.65131 7.33479 5.22016 7.28512 5.73791 7.08203C6.25564 6.87895 6.69842 6.53182 7.01021 6.08546C7.32187 5.6393 7.48865 5.11405 7.48977 4.57663C7.48848 4.44216 7.47695 4.30796 7.45525 4.17511L7.45504 4.17385L7.45505 4.17385C7.44233 4.08915 7.4651 4.00347 7.51747 3.93575C7.51747 3.93575 7.51747 3.93575 7.51747 3.93575L7.59623 3.99667L2.85635 6.63506ZM2.85635 6.63506H3.79642C3.88122 6.63506 3.96323 6.60257 4.02422 6.54368C4.08534 6.48467 4.12035 6.40388 4.12035 6.31886C4.12035 6.23384 4.08534 6.15305 4.02422 6.09404C3.96323 6.03515 3.88122 6.00266 3.79642 6.00266H1.78107H1.68107V6.10266V8.04848C1.68107 8.1335 1.71608 8.21429 1.7772 8.2733C1.83819 8.33219 1.9202 8.36468 2.005 8.36468C2.0898 8.36468 2.1718 8.33219 2.2328 8.2733C2.29391 8.21429 2.32892 8.1335 2.32892 8.04848V7.02916C2.80808 7.45832 3.40437 7.7485 4.04933 7.86408C4.7738 7.99392 5.52237 7.8968 6.1859 7.58667C6.84947 7.27652 7.39364 6.76936 7.73839 6.13863C8.08313 5.50789 8.21018 4.78694 8.10065 4.08116C8.10063 4.08109 8.10062 4.08102 8.10061 4.08095L8.0018 4.09629C7.99319 4.03895 7.96133 3.98727 7.91325 3.9526C7.86517 3.91793 7.80479 3.90313 7.7454 3.91144L2.85635 6.63506Z" fill="#1A518E" stroke="#1A518E" stroke-width="0.2"/>
<path d="M7.38504 0.813764L7.38503 0.813877C7.46649 0.818605 7.5437 0.853233 7.60061 0.911685C7.65762 0.97024 7.68988 1.04832 7.68973 1.1301M7.38504 0.813764L7.58973 1.12991M7.38504 0.813764L7.38027 0.813714C7.29461 0.812833 7.21133 0.844013 7.14804 0.901652C7.08465 0.959391 7.04622 1.03934 7.04199 1.12499L7.04187 1.12498V1.12991V2.15085M7.38504 0.813764L7.14187 2.24678C7.10918 2.2141 7.07583 2.18212 7.04187 2.15085M7.68973 1.1301L7.58973 1.12991M7.68973 1.1301V1.12991H7.58973M7.68973 1.1301V3.07573V3.17573H7.58973H5.58781C5.50301 3.17573 5.42101 3.14324 5.36001 3.08435C5.29889 3.02534 5.26388 2.94455 5.26388 2.85953C5.26388 2.77451 5.29889 2.69372 5.36001 2.63471C5.42101 2.57582 5.50301 2.54333 5.58781 2.54333H6.54011M7.58973 1.12991V2.97573V3.07573H7.48973H5.58781C5.52842 3.07573 5.47146 3.05296 5.42947 3.01241C5.38747 2.97186 5.36388 2.91687 5.36388 2.85953C5.36388 2.80219 5.38747 2.7472 5.42947 2.70665C5.47146 2.66611 5.52842 2.64333 5.58781 2.64333H6.65054C6.61465 2.609 6.57782 2.57566 6.54011 2.54333M6.54011 2.54333C6.31826 2.35313 6.06577 2.19797 5.79193 2.08426C5.44059 1.93837 5.06176 1.86388 4.67909 1.86555L4.67866 1.86555C3.93201 1.86555 3.21661 2.15195 2.68968 2.6607C2.16287 3.16934 1.86759 3.85843 1.86759 4.57618H1.76759C1.76759 3.83075 2.07429 3.11586 2.62022 2.58876C3.16616 2.06167 3.9066 1.76555 4.67866 1.76555C5.07456 1.76383 5.46658 1.84088 5.83028 1.9919C6.14933 2.12439 6.44059 2.31131 6.69024 2.54333H6.54011ZM1.58902 5.39397C1.58925 5.39397 1.58947 5.39397 1.58969 5.39397L1.58845 5.29397V5.39397H1.58902ZM1.58902 5.39397C1.51259 5.39477 1.4379 5.36914 1.37855 5.321C1.31897 5.27268 1.27864 5.20469 1.26592 5.12901C1.23488 4.94632 1.21943 4.76147 1.21973 4.57632C1.2167 3.90208 1.42549 3.24311 1.81808 2.68639C2.21069 2.12962 2.76855 1.70143 3.4176 1.45776C4.06663 1.21409 4.77675 1.16621 5.45441 1.32032C6.05168 1.45616 6.59938 1.74338 7.04187 2.15085M1.58902 5.39397L1.36452 5.11236C1.3344 4.93512 1.31942 4.75579 1.31974 4.57618C1.31673 3.92287 1.51899 3.28405 1.8998 2.74402C2.28062 2.20399 2.82209 1.78814 3.45275 1.55138C4.08341 1.31461 4.7736 1.26804 5.43223 1.41783C6.04364 1.55688 6.60117 1.85907 7.04187 2.28858V2.15085" fill="#1A518E" stroke="#1A518E" stroke-width="0.2"/>
</g>
<defs>
<clipPath id="clip0">
<rect width="8.06142" height="7.78329" fill="white" transform="translate(0.647949 0.69751)"/>
</clipPath>
</defs>
</svg>
