<?xml version="1.0" standalone="no"?>
<!DOCTYPE svg PUBLIC "-//W3C//DTD SVG 20010904//EN"
 "http://www.w3.org/TR/2001/REC-SVG-20010904/DTD/svg10.dtd">
<svg version="1.0" xmlns="http://www.w3.org/2000/svg"
 width="512.000000pt" height="512.000000pt" viewBox="0 0 512.000000 512.000000"
 preserveAspectRatio="xMidYMid meet">

<g transform="translate(0.000000,512.000000) scale(0.100000,-0.100000)"
fill="#000000" stroke="none">
<path d="M2404 5109 c-165 -9 -307 -31 -477 -74 -177 -44 -300 -90 -493 -185
-258 -126 -476 -282 -679 -485 -411 -411 -673 -954 -735 -1525 -15 -135 -15
-425 0 -560 62 -571 323 -1113 735 -1525 639 -639 1562 -895 2435 -675 347 87
704 266 986 496 120 97 331 316 422 436 251 334 426 740 486 1128 46 294 36
655 -24 950 -98 472 -345 925 -695 1275 -521 521 -1216 785 -1961 744z m239
-346 c22 -15 51 -48 64 -72 l23 -44 0 -969 0 -968 273 0 274 0 61 -31 c70 -34
105 -71 139 -146 24 -52 24 -57 32 -500 8 -439 9 -450 35 -548 14 -56 50 -148
80 -210 52 -106 86 -156 223 -332 l65 -83 -884 0 c-970 0 -935 -2 -1060 61
-155 78 -317 317 -386 567 l-27 97 0 450 0 450 24 53 c29 65 104 134 168 156
28 10 80 16 128 16 45 0 164 3 263 7 l182 6 0 954 c0 1043 -3 992 58 1057 68
72 185 86 265 29z m-1293 -1418 l0 -105 105 0 105 0 0 -150 0 -150 -105 0
-105 0 0 -100 0 -100 -150 0 -150 0 0 100 0 100 -105 0 -106 0 3 153 3 152
103 3 102 3 0 99 0 100 150 0 150 0 0 -105z m2490 -1228 c34 -17 70 -74 70
-112 0 -38 -36 -95 -70 -112 -82 -42 -180 19 -180 112 0 95 95 155 180 112z
m-2708 -334 c25 -22 30 -60 14 -92 -17 -32 -34 -41 -77 -41 -56 0 -88 66 -58
121 21 40 83 46 121 12z m2888 -108 l0 -75 70 0 70 0 0 -105 0 -105 -70 0 -70
0 0 -75 0 -75 -110 0 -110 0 0 75 0 75 -70 0 -70 0 0 105 0 105 70 0 70 0 0
75 0 75 110 0 110 0 0 -75z m-2664 -194 c82 -37 114 -124 75 -205 -29 -58 -73
-86 -137 -86 -89 0 -154 63 -154 148 0 77 39 131 109 152 41 13 63 11 107 -9z"/>
</g>
</svg>
