<svg width="165" height="153" viewBox="0 0 165 153" fill="none" xmlns="http://www.w3.org/2000/svg">
<g clip-path="url(#clip0)">
<path d="M34.1818 116.016C33.7261 109.863 29.7028 105.582 20.2891 105.582C19.1418 105.582 17.3502 105.645 15.2915 105.708H15.04L14.2699 105.771C11.9754 105.897 9.47662 106.023 7.48071 106.212C6.83637 106.275 6.2706 106.794 6.20773 107.424L0 151.662C0 151.662 8.15649 152.009 10.1995 144.69L11.6611 134.414C12.4312 134.477 13.3898 134.477 14.6 134.477C29.2471 134.477 34.7476 123.712 34.1818 116.016ZM16.3916 126.403C14.7886 126.403 13.6413 126.34 12.8084 126.277L14.6 113.782C16.0772 113.719 17.4131 113.656 18.3089 113.656C20.9963 113.656 23.8094 114.616 24.2023 118.078C24.4538 122.107 22.1435 126.403 16.3916 126.403Z" fill="#5CABF9"/>
<path d="M51.5791 150.12L51.1862 146.217C51.0605 144.879 50.5419 144.612 50.039 144.801C48.7031 145.178 47.6659 145.509 46.8958 145.509C45.5443 145.509 45.4814 144.36 45.8114 141.527L49.4418 116.284C49.5832 105.519 42.0554 105 42.0554 105L36.6806 142.629C35.4076 151.914 39.368 153.016 43.9098 153.016C47.8859 153.016 49.6775 151.93 50.369 151.536C51.3905 151.017 51.6577 150.639 51.5791 150.12Z" fill="#5CABF9"/>
<path d="M86.154 120.061H79.1133C78.469 120.061 78.4061 120.124 78.2804 120.769L75.2787 142.566C73.6128 143.919 71.6326 145.005 69.511 145.005C68.8037 145.005 64.7805 145.005 65.6763 138.537L68.0494 121.289C68.1751 120.454 67.5308 120.077 66.9021 120.077H60.0343C59.39 120.077 59.2643 120.203 59.2014 120.785L56.3254 140.85C55.3039 148.027 58.3685 153.031 66.3678 153.031C70.2653 153.031 73.3456 151.174 75.5144 149.129C75.8287 151.111 76.5988 152.402 79.349 152.402H82.225C82.8694 152.402 83.8909 151.757 83.7652 150.797C83.6395 148.94 83.6395 146.815 84.0166 144.203L87.1598 121.32C87.3012 120.517 86.7826 120.061 86.154 120.061Z" fill="#5CABF9"/>
<path d="M114.819 119.605C113.405 119.605 108.36 121.588 104.133 124.735L104.196 124.153C104.573 121.588 103.426 120.045 100.282 120.045H97.0763C96.432 120.045 95.7248 120.69 95.7248 121.32L91.3401 152.339C91.3401 152.339 99.0565 152.575 101.272 144.911L102.891 133.438C103.473 130.228 106.726 129.913 112.101 129.268C112.996 129.205 113.641 128.748 113.766 128.119L114.914 120.045C115.071 119.683 115.008 119.605 114.819 119.605Z" fill="#5CABF9"/>
<path d="M131.17 132.368H117.261C113.144 135.075 114.087 139.607 114.134 139.796H128.058C132.238 137.042 131.17 132.368 131.17 132.368Z" fill="#5CABF9"/>
<path d="M161.228 143.258C160.914 142.613 160.144 141.921 159.311 142.361C157.331 143.51 153.873 145.178 151.186 145.115C147.54 145.115 143.626 144.344 144.334 140.3C160.395 140.74 165 136.46 165 130.369C165 125.695 162.061 119.416 153.025 119.416C139.902 119.416 135.549 130.432 135.549 139.151C135.549 149.601 143.359 153 149.756 153C155.508 153 160.254 150.183 162.753 148.641C163.004 148.515 163.397 147.807 163.13 147.303L161.228 143.258ZM152.459 127.3C154.187 127.3 156.356 127.363 156.356 129.803C156.356 133.973 152.254 133.265 145.544 133.265C147.021 128.197 149.19 127.3 152.459 127.3Z" fill="#5CABF9"/>
</g>
<g clip-path="url(#clip1)">
<path d="M119.262 27.8453C118.989 24.5027 117.635 22.1409 115.475 21.1878C113.657 20.3867 111.893 20.4972 110.212 21.5193L110.676 22.9282C111.934 22.0856 113.329 21.8094 114.901 22.5138C116.569 23.2458 117.608 25.1933 117.84 27.9696C118.496 35.9116 112.672 48.4116 101.79 55.5663C101.612 55.6768 101.503 55.8701 101.476 56.0773C101.421 56.4641 96.3627 95 86.9023 101.878C85.7539 102.721 84.6329 103.011 83.4572 102.776C82.3361 102.555 81.5159 101.975 80.928 101.008C80.6136 100.483 80.3128 99.9309 80.0257 99.3922C78.6449 96.7403 77.5102 93.9779 76.3892 91.2154C75.7877 89.7237 75.2681 88.1768 74.6666 86.6851L72.3152 80.7458C71.5496 78.8121 70.784 76.8922 70.0184 74.9585C69.6766 74.0884 69.3349 73.2182 68.9931 72.3619C68.788 72.058 68.4052 71.9613 68.0771 72.127C68.0634 72.1409 67.9131 72.279 67.626 72.5414C67.585 73.0939 67.5029 73.6464 67.4346 74.1436C67.749 73.895 67.9814 73.7293 68.1318 73.674C68.1318 73.674 68.706 75.1381 68.747 75.2072C69.4716 77.058 70.2098 78.895 70.9344 80.7458C70.9617 80.8011 70.9754 80.8701 71.0027 80.9254C72.3288 84.2679 73.6276 87.6105 74.8717 90.9806C76.2388 94.6823 77.6469 98.3839 79.6976 101.768C80.4905 103.08 81.6663 103.895 83.1701 104.199C84.5235 104.475 85.8633 104.213 87.1621 103.425C87.3535 103.315 87.5312 103.191 87.7226 103.052C97.3061 96.0911 102.282 60.663 102.829 56.5884C109.542 52.0856 113.465 46.4088 115.584 42.4033C118.264 37.348 119.604 32.0442 119.262 27.8453Z" fill="#5CABF9"/>
<path d="M84.2227 104.986C83.8399 104.986 83.4434 104.945 83.047 104.876C81.3381 104.53 80.012 103.619 79.1234 102.127C77.0864 98.7707 75.7056 95.2072 74.2428 91.2293C72.8893 87.5552 71.4675 83.9365 70.3875 81.1878C70.3602 81.1326 70.3328 81.0635 70.3191 81.0083C69.5946 79.1713 68.8563 77.3204 68.1318 75.4696L68.0634 75.29C68.0224 75.1657 67.9267 74.9447 67.8447 74.7237L66.5459 75.7597L66.8056 73.9503C66.874 73.4945 66.9424 72.9834 66.9834 72.4862L67.0107 72.2238L67.4209 71.837C67.6806 71.5884 67.7079 71.5608 67.8036 71.5193C68.4325 71.2016 69.1981 71.4088 69.5809 71.9889L69.6219 72.0442L69.6493 72.1132C69.991 72.9834 70.3328 73.8536 70.6746 74.7099L75.3228 86.4365C75.6099 87.1685 75.8833 87.9005 76.1431 88.6188C76.4301 89.3923 76.7172 90.1934 77.0317 90.9668C78.098 93.6188 79.2601 96.4365 80.6409 99.0884C80.969 99.7099 81.2424 100.207 81.5158 100.663C82.008 101.464 82.6642 101.92 83.5938 102.113C84.5782 102.307 85.4941 102.058 86.5058 101.326C90.238 98.605 93.8882 89.9862 97.0599 76.395C99.5071 65.8978 100.792 56.0911 100.806 55.9945C100.861 55.5801 101.093 55.221 101.435 54.9862C112.098 47.9696 117.813 35.7735 117.17 28.0248C116.965 25.511 116.063 23.7707 114.641 23.1353C113.383 22.5829 112.249 22.6934 111.059 23.4945L110.321 23.9917L109.391 21.1878L109.856 20.8978C111.743 19.7652 113.725 19.6409 115.748 20.5248C118.155 21.5884 119.658 24.1574 119.945 27.7624C120.301 32.0856 118.934 37.5414 116.2 42.7072C114.081 46.7127 110.171 52.4033 103.485 56.9613C103.144 59.4613 101.763 69.0331 99.3567 78.8674C96.0756 92.2376 92.3024 100.552 88.1463 103.577C87.9413 103.729 87.7362 103.854 87.5311 103.978C86.4511 104.655 85.3437 104.986 84.2227 104.986ZM76.2251 92.6243C77.4281 95.7873 78.6449 98.6878 80.2991 101.409C80.9826 102.541 82.008 103.26 83.3204 103.522C84.4961 103.757 85.6855 103.522 86.8339 102.831C86.9979 102.735 87.1757 102.61 87.3397 102.486C91.1677 99.6961 94.8725 91.4365 98.0169 78.5635C100.532 68.3287 101.913 58.384 102.159 56.4917L102.2 56.1878L102.46 56.0083C109.063 51.5746 112.918 45.9945 114.983 42.0856C117.594 37.1409 118.906 31.9751 118.565 27.9005C118.305 24.8204 117.116 22.6657 115.174 21.8094C113.725 21.174 112.358 21.174 111.005 21.837L111.032 21.9061C112.358 21.2707 113.739 21.2569 115.147 21.8784C117.061 22.721 118.25 24.8619 118.496 27.9144C119.166 36.0635 113.233 48.8536 102.146 56.1464C102.132 56.1464 102.132 56.1602 102.132 56.174C102.118 56.2707 100.819 66.1464 98.3587 76.7127C95.0776 90.8425 91.3454 99.4889 87.2714 102.445C85.9589 103.398 84.6602 103.729 83.2931 103.453C81.9943 103.191 80.9963 102.5 80.3128 101.381C80.0257 100.898 79.7249 100.373 79.3831 99.7238C78.2074 97.3895 77.1684 94.9586 76.2251 92.6243ZM68.2821 72.9834C68.3915 73.011 68.4872 73.0525 68.5556 73.1077C68.5009 72.9834 68.4599 72.8591 68.4052 72.7486C68.3778 72.7762 68.3505 72.8039 68.3231 72.8315L68.2821 72.8729C68.2821 72.9005 68.2821 72.942 68.2821 72.9834Z" fill="#5CABF9"/>
<path d="M101.462 56.1326C101.448 55.3039 101.503 54.4889 101.571 53.6602C101.64 52.8453 101.749 52.0166 101.845 51.2017C101.954 50.3867 102.064 49.558 102.173 48.7431L102.515 46.2845C102.528 46.2293 102.569 46.1878 102.638 46.2017C102.679 46.2017 102.72 46.2431 102.72 46.2845C102.884 47.1133 102.952 47.9558 103.021 48.7845C103.075 49.6133 103.116 50.4558 103.13 51.2845C103.144 52.1133 103.157 52.942 103.116 53.7707C103.075 54.5994 103.021 55.4282 102.884 56.2431C102.816 56.6436 102.446 56.9061 102.064 56.837C101.722 56.7818 101.476 56.4779 101.462 56.1326Z" fill="#5CABF9"/>
<path d="M102.187 57.5414C102.105 57.5414 102.036 57.5414 101.954 57.5276C101.284 57.4171 100.792 56.837 100.778 56.1602V56.1464C100.765 55.29 100.819 54.4199 100.888 53.6188C100.943 52.8867 101.038 52.1409 101.134 51.4226L101.175 51.1326C101.271 50.4005 101.366 49.6133 101.503 48.6602L101.858 46.1878C101.886 45.9807 101.995 45.8011 102.159 45.6768C102.323 45.5525 102.528 45.4972 102.747 45.5249C103.075 45.5663 103.349 45.8287 103.403 46.1602C103.581 47.058 103.649 47.9696 103.718 48.7431C103.772 49.6133 103.813 50.4696 103.827 51.2845C103.841 52.1823 103.854 52.9972 103.813 53.826C103.786 54.5856 103.731 55.4834 103.581 56.3812C103.458 57.0442 102.856 57.5414 102.187 57.5414ZM102.146 56.1326C102.146 56.1464 102.159 56.1602 102.173 56.1602C102.187 56.1602 102.214 56.1464 102.214 56.1326C102.351 55.3039 102.405 54.4613 102.433 53.7293C102.46 53.1077 102.46 52.4862 102.446 51.8232C102.364 52.4447 102.296 53.0939 102.241 53.7155C102.187 54.4889 102.132 55.3177 102.146 56.1326Z" fill="#5CABF9"/>
<path d="M87.1348 103.439C85.8497 104.213 84.5236 104.475 83.1839 104.199C81.6664 103.895 80.5043 103.08 79.7114 101.768C77.524 98.163 75.487 91.8232 75.8698 90.29C75.9108 90.1105 75.7057 89.8895 75.7741 89.6685C75.8561 89.3784 76.3346 89.1574 76.567 88.9917C77.7017 88.232 78.9595 87.5276 80.2719 87.1271C81.3656 86.7956 82.5003 86.6022 83.635 86.5469C86.3419 86.395 90.4569 86.9751 94.5856 90.511C94.6403 90.5525 94.6676 90.5939 94.695 90.6215C94.8864 90.8149 94.9547 91.1188 94.8454 91.3812C93.2595 95.5939 91.5916 98.7983 89.8691 100.925C88.9668 102.058 88.0645 102.887 87.1348 103.439ZM76.3619 90.4834C76.1979 90.5801 77.3189 93.5912 77.4009 93.7983C77.7017 94.5856 78.0435 95.3453 78.3853 96.1188C79.1372 97.8039 79.9711 99.4613 80.9281 101.036C81.516 102.003 82.3362 102.569 83.4573 102.804C86.8204 103.467 90.1425 99.6271 93.3142 91.3812C87.545 86.6574 82.514 86.8784 76.3619 90.4834Z" fill="#5CABF9"/>
<path d="M84.209 105C83.8262 105 83.4298 104.959 83.047 104.89C81.3381 104.544 80.012 103.633 79.1234 102.141C77.1137 98.826 74.8169 92.3619 75.1724 90.2624C75.1177 90.1105 75.0083 89.8204 75.104 89.4751C75.2407 88.9917 75.7056 88.7155 76.0337 88.5083C76.0884 88.4807 76.1294 88.453 76.1704 88.4254C77.5922 87.4724 78.8499 86.837 80.053 86.4779C81.1877 86.1464 82.3634 85.9392 83.5665 85.8702C86.4101 85.7182 90.6892 86.3122 94.9956 90C95.0503 90.0553 95.1186 90.1105 95.1596 90.1658C95.5287 90.5525 95.6381 91.1326 95.4467 91.6298C93.8335 95.9116 92.1246 99.1851 90.361 101.367C89.4314 102.528 88.4471 103.412 87.4628 104.019C86.4238 104.682 85.3164 105 84.209 105ZM79.1234 99.2265C79.4925 100.014 79.8753 100.76 80.2854 101.423C80.969 102.555 81.9943 103.273 83.3067 103.536C84.4961 103.771 85.6308 103.55 86.7792 102.859C87.6405 102.348 88.4881 101.561 89.322 100.525C90.9899 98.453 92.6168 95.3039 94.189 91.1602C94.189 91.1464 94.189 91.1326 94.189 91.1326C94.1616 91.105 94.1343 91.0774 94.107 91.0497C93.0816 90.1796 92.0699 89.5028 91.0856 88.9641C91.9742 89.4751 92.8492 90.0967 93.7515 90.8287L94.1343 91.1464L93.9566 91.616C92.3434 95.8011 90.6755 98.9089 88.9803 100.884C87.162 102.983 85.2617 103.867 83.3341 103.481C82.0353 103.218 81.0373 102.528 80.3538 101.409C79.9163 100.704 79.5198 99.9862 79.1234 99.2265ZM77.1137 90.8425C77.3051 91.5055 77.7836 92.8453 78.0433 93.5497C78.3304 94.3094 78.6722 95.0691 79.0003 95.8149L79.014 95.8287C79.8343 97.6658 80.6545 99.2403 81.5158 100.677C82.008 101.478 82.6642 101.934 83.5938 102.127C86.4784 102.707 89.5544 99.0608 92.4937 91.6022C87.5448 87.721 83.0333 87.5138 77.1137 90.8425ZM80.9416 87.6658C80.7776 87.7072 80.5998 87.7624 80.4358 87.8039C80.012 87.9282 79.5608 88.1077 79.1097 88.3149C79.7386 88.0663 80.3538 87.8453 80.9416 87.6658Z" fill="#5CABF9"/>
<path d="M93.8882 70.5387C91.6598 71.8784 84.4551 72.3342 83.0333 70.7458C82.3224 69.9447 82.1993 69.3094 82.1173 68.8398C82.0353 68.3978 82.0079 68.2182 81.5431 67.9972C79.5198 67.0304 76.4301 68.0525 73.4498 69.0331C72.7389 69.2679 71.987 69.5166 71.2897 69.7237C71.0847 69.779 70.8659 69.6547 70.7976 69.4475C70.7292 69.2265 70.8386 69.0055 71.0573 68.9503C71.7546 68.7431 72.4518 68.5083 73.19 68.2735C76.3207 67.2375 79.5471 66.174 81.8576 67.279C82.7052 67.6934 82.8145 68.2458 82.8966 68.7293C82.9786 69.1574 83.0606 69.5994 83.6075 70.221C84.6738 71.4088 92.1246 71.0359 93.6831 69.7099C94.394 69.116 94.435 68.6464 94.5034 68.1077C94.5717 67.5138 94.6538 66.837 95.6107 66.1602C97.0872 65.1243 100.368 65.1657 100.505 65.1657C100.724 65.1657 100.901 65.3591 100.901 65.5801C100.901 65.8011 100.737 65.9806 100.519 65.9806C100.491 65.9806 97.347 65.953 96.0619 66.837C95.392 67.3066 95.351 67.6933 95.2826 68.232C95.2143 68.8121 95.1322 69.5442 94.1889 70.3453C94.1069 70.3867 94.0112 70.4696 93.8882 70.5387Z" fill="#5CABF9"/>
<path d="M87.4627 72.4447C85.3027 72.4447 83.3204 72.0856 82.5274 71.2017C81.6798 70.2624 81.5431 69.4751 81.4474 68.9641C81.4337 68.8674 81.4064 68.7569 81.3927 68.7017C81.3791 68.6878 81.338 68.6602 81.2423 68.6188C79.4651 67.7624 76.5121 68.7431 73.6548 69.6823C72.9303 69.9171 72.192 70.1657 71.4675 70.3729C70.9069 70.5387 70.3054 70.2072 70.1277 69.6409C70.0457 69.3646 70.073 69.047 70.2097 68.7983C70.3464 68.5359 70.5788 68.3564 70.8523 68.2735C71.5221 68.0801 72.2194 67.8453 72.9576 67.5967H72.9713C76.225 66.5193 79.5881 65.4144 82.1446 66.6298C83.3067 67.1823 83.4707 68.0525 83.5664 68.5773C83.6348 68.9641 83.6895 69.2541 84.1133 69.7238C84.3594 69.9862 85.9042 70.3177 88.447 70.1796C90.9489 70.0552 92.7535 69.558 93.2456 69.1436C93.7378 68.7293 93.7651 68.4807 93.8335 67.9972C93.9018 67.3619 94.0112 66.4088 95.2279 65.5663C96.8548 64.4337 100.15 64.4475 100.519 64.4475C101.093 64.4613 101.585 64.9448 101.599 65.5387C101.599 65.8287 101.489 66.1188 101.284 66.326C101.079 66.5332 100.806 66.6436 100.519 66.6436C99.3293 66.6298 97.2649 66.8232 96.4583 67.3757C96.0345 67.6657 96.0209 67.7901 95.9662 68.2735C95.8978 68.9088 95.7885 69.8619 94.6401 70.8287C94.5307 70.9254 94.394 71.0221 94.2436 71.105C92.9312 71.9199 90.0739 72.4447 87.4627 72.4447Z" fill="#5CABF9"/>
<path d="M110.95 21.3398C110.048 17.0304 106.972 13.9641 103.827 14.0194L104.647 15.5249C106.835 15.9531 108.872 18.384 109.555 21.6298C110.253 25 109.255 28.163 107.272 29.3508C106.972 29.5304 106.657 29.6685 106.315 29.7514L105.974 31.2707C106.151 31.2569 106.329 31.2293 106.507 31.1879C107.026 31.0774 107.518 30.884 107.97 30.6077C110.471 29.1022 111.77 25.3177 110.95 21.3398Z" fill="#5CABF9"/>
<path d="M105.345 31.8094L105.905 29.3508L106.192 29.2818C106.479 29.2127 106.766 29.0884 107.026 28.9365C108.858 27.8315 109.719 24.8066 109.077 21.7265C108.462 18.7569 106.602 16.4088 104.552 15.9945L104.333 15.953L103.021 13.5497L103.813 13.5359C107.218 13.453 110.485 16.768 111.415 21.2293C112.276 25.3453 110.95 29.3646 108.216 31.0221C107.71 31.326 107.163 31.547 106.602 31.6575C106.411 31.6989 106.206 31.7265 106.001 31.7542L105.345 31.8094ZM106.712 30.1381L106.589 30.6768C106.985 30.5801 107.368 30.4144 107.723 30.1934C110.116 28.7569 111.251 25.1519 110.471 21.4365C109.719 17.8039 107.3 15.0138 104.661 14.5718L104.962 15.1105C107.313 15.7044 109.337 18.2597 110.02 21.5332C110.758 25.0553 109.719 28.4392 107.518 29.7652C107.259 29.9171 106.985 30.0414 106.712 30.1381Z" fill="#5CABF9"/>
<path d="M104.142 12.5C97.0599 0.51104 81.133 -3.12156 68.6375 4.40607C61.5012 8.70165 57.0034 15.7182 55.7729 23.1906L57.2494 23.0663C58.4935 16.1326 62.7316 9.64087 69.3758 5.63535C81.2013 -1.49172 96.2396 1.91988 102.911 13.232C109.583 24.5442 105.399 39.5442 93.5874 46.6574C81.7618 53.7845 66.7236 50.3729 60.052 39.0608C59.9563 38.895 59.847 38.7155 59.7649 38.5497L58.4115 38.9779C58.4115 38.9779 58.3841 38.9641 58.3431 38.9226C58.5072 39.2127 58.6712 39.5166 58.8353 39.8066C65.917 51.7956 81.8439 55.442 94.3393 47.9005C106.807 40.3867 111.223 24.5028 104.142 12.5Z" fill="#5CABF9"/>
<path d="M80.381 52.3204C78.3987 52.3204 76.4027 52.0994 74.4341 51.6436C67.5985 50.0829 61.8976 45.9668 58.4115 40.0552C58.2337 39.7514 58.0697 39.4475 57.9056 39.1574L56.7299 36.9613L58.5072 38.453L59.9836 37.9834L60.175 38.3287C60.2707 38.4945 60.3664 38.6602 60.4621 38.8259C66.9969 49.9033 81.7618 53.2458 93.355 46.2569C98.9601 42.8729 103.007 37.5967 104.743 31.395C106.466 25.2072 105.686 18.8398 102.515 13.4945C99.3429 8.13534 94.1752 4.41987 87.9685 3.01103C81.7481 1.60219 75.227 2.67954 69.6218 6.06352C63.3331 9.84805 58.9993 16.0911 57.7279 23.163L57.6595 23.5221L55.2124 23.7154L55.3081 23.1077C56.6069 15.1795 61.3781 8.21821 68.3914 3.99169C81.1193 -3.67405 97.3333 0.0414164 104.552 12.2652C111.77 24.4889 107.286 40.663 94.558 48.3287C90.1832 50.9668 85.289 52.3204 80.381 52.3204ZM59.0677 39.2817C59.1224 39.3784 59.177 39.4751 59.2317 39.558C62.5812 45.2486 68.0633 49.1989 74.6391 50.7044C81.2286 52.2099 88.1326 51.0635 94.0659 47.4862C106.329 40.0967 110.663 24.5027 103.718 12.7486C96.7864 0.994455 81.1466 -2.56908 68.8836 4.82042C62.2941 8.78451 57.7552 15.2624 56.3608 22.6519L56.8529 22.6105C58.2611 15.4143 62.7179 9.08838 69.1297 5.22097C74.9536 1.71269 81.7208 0.593902 88.1736 2.05799C94.64 3.52208 100.026 7.40329 103.321 12.9972C106.616 18.5773 107.436 25.2072 105.645 31.6574C103.854 38.0939 99.6574 43.5773 93.8335 47.0856C89.5817 49.6547 84.9062 50.8701 80.3537 50.8701C72.0143 50.8701 64.044 46.7817 59.6419 39.3094C59.6008 39.2541 59.5735 39.1851 59.5325 39.1298L59.0677 39.2817Z" fill="#5CABF9"/>
<path d="M103.116 19.116C101.708 15.1243 98.7824 11.9475 94.7494 10.0138L93.5873 11.0359C97.2786 12.6381 100.314 15.4558 101.776 19.5994C103.143 23.5083 102.897 27.6105 101.052 31.4641C98.8097 36.1602 94.3393 40.0552 89.0895 41.8922C79.9025 45.0967 69.6628 40.8011 66.7235 32.5138C65.3701 28.6878 65.6845 24.1713 67.6121 20.1243C69.116 16.9475 71.4948 14.2817 74.393 12.4309L72.8892 11.7127C70.1003 13.674 67.8172 16.3536 66.3271 19.5027C65.0966 22.0856 64.4814 24.8619 64.4814 27.5552C64.4814 29.4337 64.7822 31.2707 65.3974 32.9972C66.9559 37.3757 70.3464 40.8701 74.9536 42.8315C79.5607 44.7928 84.7558 44.9447 89.568 43.2597C91.0582 42.7348 92.5073 42.058 93.8471 41.2431C97.552 39.0193 100.587 35.7873 102.351 32.0856C104.36 27.8729 104.62 23.384 103.116 19.116Z" fill="#5CABF9"/>
<path d="M82.7598 44.9033C80.0255 44.9033 77.305 44.3646 74.7621 43.2735C70.0182 41.2569 66.5321 37.6657 64.9326 33.1491C64.3037 31.395 63.9893 29.5027 63.9893 27.5414C63.9893 24.7514 64.6455 21.8922 65.8896 19.2817C67.407 16.0911 69.7311 13.3287 72.6158 11.3121L72.8482 11.1464L75.391 12.3619L74.6528 12.8315C71.7955 14.6547 69.4987 17.2375 68.0496 20.3177C66.1903 24.2403 65.8759 28.6188 67.1883 32.3342C70.0456 40.3867 80.0119 44.5442 88.9528 41.4226C94.0795 39.627 98.4543 35.8287 100.642 31.2431C102.433 27.5 102.665 23.5221 101.339 19.7514C100.026 16.0083 97.2922 13.1491 93.4233 11.4641L92.726 11.1602L94.7084 9.41986L94.9955 9.55798C99.1788 11.5607 102.159 14.8066 103.608 18.9364C105.153 23.3287 104.88 27.9558 102.815 32.2928C101.038 36.0221 97.9484 39.3508 94.1342 41.6574C92.7397 42.5 91.2769 43.1906 89.7594 43.7154C87.449 44.5027 85.0975 44.9033 82.7598 44.9033ZM72.9439 12.279C70.3053 14.1989 68.159 16.7541 66.7645 19.7237C65.5888 22.2099 64.9599 24.9171 64.9599 27.569C64.9599 29.4199 65.2607 31.1878 65.8485 32.8453C67.3524 37.0994 70.6608 40.4972 75.1449 42.4033C79.6427 44.3094 84.7147 44.4613 89.4313 42.8177C90.8804 42.3066 92.2886 41.6436 93.6283 40.8425C97.2922 38.6326 100.245 35.4558 101.94 31.8922C103.895 27.79 104.155 23.4392 102.692 19.2817C101.366 15.4972 98.6593 12.5 94.8587 10.5939L94.4896 10.9116C98.2492 12.7348 100.915 15.663 102.241 19.4475C103.649 23.4668 103.403 27.7072 101.503 31.6851C99.2062 36.4917 94.64 40.4834 89.2672 42.3619C79.8341 45.6491 69.321 41.2154 66.286 32.6795C64.8916 28.7293 65.2197 24.0746 67.1883 19.9171C68.6101 16.9337 70.7565 14.3922 73.436 12.5138L72.9439 12.279Z" fill="#5CABF9"/>
<path d="M61.3372 38.895C60.8861 39.1713 60.3939 39.3647 59.8744 39.4751C56.443 40.2072 52.8611 36.9613 51.8768 32.2652C51.412 30.0276 51.5897 27.7901 52.3826 25.9531C53.2166 24.0332 54.611 22.7763 56.3199 22.4171C58.0288 22.058 59.8061 22.6381 61.3372 24.0608C62.8 25.4144 63.8527 27.4033 64.3175 29.6409C65.1378 33.605 63.8391 37.3757 61.3372 38.895ZM53.2712 31.9613C54.0915 35.884 56.9214 38.6188 59.5737 38.0525C59.9564 37.9696 60.3119 37.8315 60.64 37.6243C62.6223 36.4365 63.6203 33.2735 62.9231 29.9033C62.513 27.9558 61.6107 26.2569 60.3666 25.0967C59.1909 24.0055 57.8648 23.5497 56.6207 23.8122C55.3766 24.0746 54.3376 25.0415 53.7087 26.5194C53.0115 28.0801 52.8611 30.0138 53.2712 31.9613Z" fill="#5CABF9"/>
<path d="M58.8901 40.0552C55.5543 40.0552 52.328 36.8508 51.3983 32.3619C50.9062 30.0276 51.1112 27.6796 51.9315 25.7597C52.8201 23.6878 54.3376 22.3343 56.2106 21.9475C58.0698 21.547 59.9975 22.1823 61.638 23.7017C63.1692 25.1243 64.2765 27.1961 64.7687 29.5304C65.63 33.6464 64.3039 37.6657 61.5697 39.3232C61.0638 39.6271 60.517 39.8481 59.9565 39.9586C59.601 40.0138 59.2456 40.0552 58.8901 40.0552ZM57.3043 22.7762C57.0035 22.7762 56.7027 22.8039 56.402 22.8729C54.8571 23.2044 53.572 24.3646 52.8064 26.1326C52.0545 27.8729 51.8768 30.0138 52.328 32.1547C53.2576 36.6022 56.5797 39.6685 59.7514 38.9917C60.2162 38.895 60.6537 38.7155 61.0775 38.4668C63.4699 37.0304 64.6047 33.4254 63.8254 29.7099C63.3743 27.5691 62.3763 25.6768 60.9818 24.3923C59.8608 23.3425 58.5757 22.7762 57.3043 22.7762ZM58.8764 38.6188C56.2106 38.6188 53.5994 35.8702 52.8064 32.058C52.3826 30.0138 52.5467 27.9834 53.2576 26.326C53.9548 24.6961 55.1169 23.6326 56.5113 23.3425C57.9058 23.0525 59.3959 23.5497 60.681 24.7514C61.9935 25.9807 62.9504 27.7762 63.3743 29.8204C64.1125 33.3425 63.0735 36.7265 60.8724 38.0525C60.4896 38.2873 60.0932 38.4392 59.6694 38.5359C59.4096 38.5912 59.1362 38.6188 58.8764 38.6188ZM53.7361 31.8646C54.5017 35.5249 57.0718 38.0939 59.478 37.5829C59.7924 37.5138 60.1068 37.3895 60.3939 37.2238C62.2259 36.1188 63.0872 33.0939 62.4446 30.0138C62.0618 28.163 61.2005 26.547 60.0385 25.4558C58.9858 24.4751 57.7964 24.0608 56.7164 24.2818C55.6364 24.5166 54.7204 25.3729 54.1325 26.7127C53.49 28.1906 53.3533 30.0138 53.7361 31.8646Z" fill="#5CABF9"/>
<path d="M57.3999 37.4447C57.0308 37.6657 56.607 37.7762 56.1695 37.7624C54.2146 37.7072 52.2733 35.1105 51.7537 31.8646C51.412 29.7375 51.7674 27.8315 52.6971 26.7679C53.2029 26.1878 53.8454 25.884 54.5563 25.9116C56.5113 25.9668 58.4526 28.5635 58.9721 31.8094C59.3139 33.9364 58.9585 35.8425 58.0425 36.9061C57.8237 37.1271 57.6187 37.3066 57.3999 37.4447ZM53.1619 31.6436C53.5994 34.3646 55.1169 36.2845 56.2105 36.3259C56.484 36.3398 56.7301 36.2154 56.9625 35.9668C57.5913 35.2486 57.8237 33.7154 57.564 32.058C57.1265 29.337 55.609 27.4171 54.529 27.3757C54.2419 27.3619 54.0095 27.4862 53.7771 27.7348C53.1345 28.453 52.9021 29.9862 53.1619 31.6436Z" fill="#5CABF9"/>
<path d="M56.2379 38.2458C56.2105 38.2458 56.1832 38.2458 56.1558 38.2458C53.9411 38.1768 51.8494 35.4696 51.2889 31.9475C50.9335 29.6823 51.3162 27.6243 52.3416 26.4641C52.9431 25.7735 53.7224 25.4143 54.57 25.442C56.7847 25.511 58.8764 28.2182 59.4369 31.7403C59.7924 34.0055 59.4096 36.0635 58.3842 37.2237C58.1655 37.4862 57.9057 37.6934 57.646 37.8591C57.2085 38.1215 56.73 38.2458 56.2379 38.2458ZM54.4743 26.4088C53.9274 26.4088 53.4489 26.6436 53.0388 27.0994C52.2049 28.0525 51.9041 29.8066 52.2185 31.7956C52.697 34.7652 54.4606 37.2237 56.1695 37.279C56.525 37.2928 56.8531 37.2099 57.1402 37.0304C57.3179 36.9199 57.4956 36.7679 57.6597 36.5884C58.4936 35.6353 58.7944 33.8812 58.4799 31.8922C58.0014 28.9226 56.2379 26.4641 54.529 26.4088C54.5153 26.4088 54.488 26.4088 54.4743 26.4088ZM56.2242 36.8094C56.2105 36.8094 56.1969 36.8094 56.1832 36.8094C54.693 36.7679 53.1208 34.4889 52.6834 31.7265C52.3963 29.9033 52.6697 28.2597 53.3943 27.4171C53.7087 27.058 54.0915 26.8784 54.5153 26.8922C56.0055 26.9337 57.5776 29.2127 58.0151 31.9751C58.3022 33.7983 58.0288 35.442 57.3042 36.2845C57.0035 36.6298 56.6343 36.8094 56.2242 36.8094ZM53.6267 31.5746C54.0368 34.1436 55.4313 35.8287 56.2105 35.8425C56.3062 35.8425 56.4293 35.8287 56.5796 35.6353C57.1128 35.0276 57.3042 33.6188 57.0718 32.1271C56.6617 29.558 55.2672 27.8729 54.488 27.8591C54.3923 27.8591 54.2692 27.8729 54.1188 28.0663C53.5857 28.6602 53.3943 30.069 53.6267 31.5746Z" fill="#5CABF9"/>
<path d="M92.1383 13.2044C83.6758 18.3011 72.9166 15.884 68.1454 7.81769C67.8993 7.40333 67.6669 6.94753 67.4071 6.39504C67.2568 6.06355 67.3661 5.67681 67.6669 5.48344C67.7763 5.41438 67.8993 5.33151 68.0087 5.24863C68.2274 5.0967 68.4598 4.94477 68.7059 4.79283C73.3951 1.96134 78.7132 0.62156 84.0586 0.911616C89.2947 1.18786 94.189 2.99725 98.222 6.13261C98.5091 6.3536 98.5911 6.76797 98.386 7.08565C96.8412 9.54421 94.6811 11.6713 92.1383 13.2044ZM68.9657 6.32598C69.1024 6.60222 69.2391 6.83703 69.3758 7.07184C73.7369 14.4613 83.6212 16.6575 91.4 11.9613C93.5601 10.663 95.4194 8.90885 96.8002 6.86465C89.0213 1.16023 78.098 0.801118 69.4305 6.02211C69.2801 6.1188 69.1297 6.21548 68.9657 6.32598Z" fill="#5CABF9"/>
<path d="M82.6368 16.5608C76.5668 16.5608 70.7702 13.5912 67.5575 8.16299C67.2978 7.721 67.0517 7.25138 66.7919 6.68509C66.5048 6.04973 66.7099 5.29006 67.2841 4.90332C67.3935 4.83426 67.5028 4.75138 67.6122 4.68232C67.8309 4.53039 68.077 4.36464 68.3504 4.1989C73.1627 1.29835 78.6038 -0.0828692 84.0859 0.220998C89.4587 0.497241 94.4897 2.34807 98.6321 5.5663C99.2062 6.00829 99.343 6.82321 98.9602 7.44475C97.3606 10.0138 95.1186 12.2099 92.48 13.7983C89.3767 15.663 85.9726 16.5608 82.6368 16.5608ZM82.6368 1.54696C77.8929 1.54696 73.2174 2.85912 69.0477 5.37293C68.8153 5.51105 68.5965 5.66299 68.3915 5.81492C68.2821 5.89779 68.159 5.98067 68.0497 6.04973C68.036 6.06354 68.036 6.07735 68.036 6.09116C68.2821 6.61602 68.5008 7.05801 68.7469 7.45857C73.3131 15.2072 83.6621 17.5138 91.7965 12.6105L92.1519 13.2044L91.7965 12.6105C94.2436 11.1326 96.3216 9.0884 97.8118 6.71271C97.8255 6.6989 97.8118 6.68509 97.7981 6.67127C93.8745 3.61879 89.1169 1.86464 84.0176 1.5884C83.5528 1.56078 83.1016 1.54696 82.6368 1.54696ZM82.6505 15.1243C81.4201 15.1243 80.176 14.9862 78.9593 14.7238C74.6118 13.7569 70.989 11.1602 68.7879 7.43094C68.6375 7.18232 68.5008 6.9337 68.3641 6.64365L68.0907 6.10498L68.5965 5.75967C68.7469 5.66299 68.911 5.55249 69.0887 5.44199C73.4498 2.81768 78.4261 1.50553 83.4844 1.67127C88.5291 1.82321 93.2866 3.43923 97.2239 6.31216L97.7708 6.71271L97.388 7.2652C95.9388 9.39227 93.9975 11.2293 91.7691 12.5691C88.9392 14.2541 85.8085 15.1243 82.6505 15.1243ZM69.8816 6.56078C69.9089 6.61602 69.9363 6.65746 69.9773 6.71271C71.987 10.1243 75.2817 12.4862 79.2737 13.3702C83.2657 14.2541 87.4627 13.5497 91.0719 11.3674C92.9312 10.2486 94.5854 8.75691 95.8705 7.03039C88.365 1.90608 78.0296 1.6989 69.8816 6.56078Z" fill="#5CABF9"/>
<path d="M116.35 38.163C114.436 39.3232 112.508 39.7237 110.608 39.3784C106.862 38.6878 104.634 35.29 104.538 35.1381C104.333 34.8066 104.415 34.3784 104.743 34.1575C105.071 33.9503 105.495 34.047 105.7 34.3646C105.727 34.4061 107.71 37.4033 110.854 37.9834C112.741 38.3287 114.709 37.7348 116.678 36.2293C116.979 35.9945 117.416 36.0635 117.649 36.3674C117.881 36.6851 117.826 37.1271 117.512 37.3481C117.129 37.6519 116.746 37.9282 116.35 38.163Z" fill="#5CABF9"/>
<path d="M111.934 40.1796C111.456 40.1796 110.977 40.1381 110.485 40.0414C106.438 39.2956 104.06 35.6492 103.964 35.4972C103.554 34.8481 103.732 33.9917 104.36 33.5635C105.017 33.1492 105.851 33.3287 106.261 33.9779C106.274 34.0055 108.134 36.7818 110.964 37.2928C112.659 37.5967 114.436 37.058 116.254 35.663C116.541 35.442 116.911 35.3453 117.266 35.4005C117.635 35.4558 117.963 35.6492 118.182 35.953C118.647 36.5746 118.524 37.4447 117.922 37.9005C117.512 38.2182 117.102 38.4945 116.678 38.7431C115.12 39.7099 113.52 40.1796 111.934 40.1796ZM105.099 34.7376C105.099 34.7376 105.099 34.7376 105.112 34.7514C105.194 34.8895 107.259 38.0525 110.731 38.6878C112.454 39.0055 114.231 38.6326 115.995 37.5552C116.364 37.3343 116.733 37.0718 117.102 36.7956C117.102 36.7956 117.102 36.7818 117.102 36.768C117.088 36.7541 117.088 36.7541 117.088 36.7541C114.956 38.384 112.809 39.0193 110.731 38.6464C107.3 38.0249 105.208 34.8619 105.126 34.7238C105.126 34.7376 105.112 34.7376 105.099 34.7376Z" fill="#5CABF9"/>
<path d="M67.6395 72.5276C66.9012 73.3978 66.204 74.2403 65.4247 75.0829C63.6748 76.9337 61.8566 78.7293 59.9426 80.4282C59.4094 80.8978 58.8626 81.3536 58.3157 81.8094C58.1927 81.9199 58.056 82.0166 57.9193 82.1271C57.8509 82.1823 57.7825 82.2376 57.7142 82.2928C57.6868 82.3204 57.6595 82.3481 57.6185 82.3619C57.5911 82.3757 57.5775 82.4033 57.5501 82.4171C57.6048 82.3757 57.6185 82.3619 57.5775 82.4033C57.3041 82.6105 57.0306 82.8315 56.7435 83.0387C55.7045 83.7983 54.6245 84.5166 53.4761 85.1105C53.2164 85.2486 52.9566 85.3729 52.6832 85.4972C52.6559 85.511 52.4508 85.5939 52.5465 85.5525C52.6422 85.511 52.4508 85.5939 52.4098 85.6077C52.2867 85.663 52.15 85.7044 52.027 85.7597C51.5485 85.9254 51.07 86.0635 50.5642 86.1464C50.3728 86.174 50.7009 86.1326 50.5368 86.1464C50.4821 86.1464 50.4275 86.1602 50.3728 86.1602C50.2634 86.174 50.154 86.174 50.0447 86.174C49.9353 86.174 49.8259 86.174 49.7166 86.1602C49.6755 86.1602 49.6209 86.1464 49.5798 86.1464C49.5525 86.1464 49.5388 86.1464 49.5115 86.1326C49.3748 86.1188 49.6892 86.1602 49.5525 86.1326C49.3474 86.0912 49.156 86.0497 48.951 85.9807C48.91 85.9668 48.8689 85.953 48.8279 85.9392C48.7322 85.9116 48.992 86.0221 48.8279 85.9392C48.7322 85.884 48.6365 85.8425 48.5408 85.7873C48.4588 85.732 48.3768 85.6768 48.2948 85.6215C48.2127 85.5663 48.4178 85.732 48.3084 85.6354C48.2811 85.6215 48.2674 85.5939 48.2401 85.5801C48.1854 85.5387 48.1307 85.4834 48.076 85.4282C47.994 85.3453 47.912 85.2486 47.8299 85.1519C47.8026 85.1243 47.7889 85.0967 47.7616 85.0691C47.7753 85.0829 47.8573 85.2072 47.7889 85.1105C47.7479 85.0552 47.7069 85 47.6659 84.9309C47.5975 84.8343 47.5428 84.7237 47.4882 84.6133C47.4608 84.558 47.4335 84.5028 47.4061 84.4475C47.3241 84.2818 47.4471 84.558 47.3788 84.3785C47.2831 84.1298 47.2147 83.8812 47.16 83.6188C47.1464 83.5635 47.1327 83.4945 47.1327 83.4392C47.1327 83.4116 47.119 83.384 47.119 83.3425C47.0917 83.1906 47.119 83.4668 47.119 83.3702C47.119 83.2182 47.0917 83.0801 47.078 82.9282C47.0644 82.6381 47.0644 82.3342 47.0917 82.0442C47.1054 81.9061 47.1054 81.768 47.1327 81.6298C47.1327 81.6022 47.16 81.3674 47.1464 81.4641C47.1327 81.5884 47.16 81.4088 47.16 81.395C47.1737 81.3398 47.1737 81.2845 47.1874 81.2431C47.2421 80.9254 47.2968 80.6077 47.3788 80.3039C47.5428 79.6271 47.7479 78.9503 47.9803 78.2873C48.1034 77.942 48.2264 77.5967 48.3631 77.2514C48.4041 77.1685 48.4315 77.0856 48.4725 76.989C48.4862 76.9613 48.5272 76.8646 48.4725 76.989C48.4862 76.9475 48.4998 76.9061 48.5272 76.8784C48.6092 76.6989 48.6775 76.5193 48.7596 76.3398C49.3611 74.9862 50.0447 73.674 50.7692 72.3757C51.8356 70.4972 53.0113 68.7017 54.1734 66.8923C55.062 65.4972 55.9916 64.1298 56.9486 62.7901C58.7669 60.2348 60.5031 57.9006 62.4307 55.5111C63.3877 54.337 64.3584 53.1768 65.3837 52.058C65.8212 51.5884 66.2723 51.1188 66.7372 50.6768C66.9422 50.4834 67.1473 50.2901 67.3524 50.0967C67.4481 50.0138 67.5438 49.9309 67.6531 49.8481C67.6941 49.8066 67.7352 49.779 67.7762 49.7376C67.8172 49.6961 68.0086 49.5718 67.8172 49.6961C68.1316 49.4613 68.4461 49.2403 68.7878 49.0746C69.1296 48.9088 69.2116 48.4254 69.0339 48.1215C68.8288 47.7762 68.4187 47.7072 68.0906 47.8729C67.202 48.3011 66.4501 49.0193 65.7392 49.6961C64.7275 50.6768 63.7979 51.7265 62.8819 52.7901C60.7629 55.2762 58.7942 57.8729 56.8666 60.5111C55.6498 62.2376 54.3784 63.9503 53.2574 65.7459C52.3277 67.2514 51.3298 68.7155 50.4138 70.2348C48.8689 72.8039 47.4335 75.4972 46.4765 78.3563C45.7246 80.6354 45.0684 83.6878 46.5859 85.8011C47.2147 86.6713 48.117 87.3204 49.1834 87.5C50.2224 87.6657 51.2887 87.4862 52.2731 87.1409C54.7886 86.2707 57.017 84.6271 59.0676 82.9696C61.214 81.2431 63.2237 79.337 65.1513 77.3619C66.3133 76.174 67.4481 74.9724 68.5281 73.7155C68.5828 73.6602 68.6374 73.5912 68.6785 73.5359C68.9245 73.2459 68.9519 72.8315 68.6785 72.5414C68.4734 72.279 67.8855 72.2376 67.6395 72.5276Z" fill="#5CABF9"/>
<path d="M50.0037 88.2459C49.6893 88.2459 49.3885 88.2182 49.1015 88.1768C47.9257 87.9834 46.832 87.2928 46.0528 86.2017C44.7267 84.3646 44.6583 81.7127 45.8477 78.1354C46.9004 74.9586 48.5409 72.0442 49.8397 69.8757C50.3865 68.9641 50.9744 68.0525 51.5349 67.1823C51.9177 66.5884 52.3142 65.9807 52.6833 65.3867C53.736 63.7017 54.9254 62.0718 56.0737 60.4972L56.3472 60.1243C58.6713 56.9337 60.5305 54.5442 62.3898 52.3619C63.1554 51.4641 64.1807 50.29 65.2881 49.2127C65.958 48.5635 66.8056 47.7486 67.8173 47.2652C68.5145 46.9337 69.2801 47.1547 69.6492 47.79C69.8406 48.1215 69.8816 48.5497 69.7723 48.9226C69.6629 49.2818 69.4305 49.5718 69.1024 49.7238C68.8289 49.8481 68.5829 50.0276 68.3094 50.2348C68.2958 50.2486 68.2958 50.2486 68.2821 50.2624C68.2548 50.2762 68.2274 50.3039 68.2137 50.3177C68.1727 50.3453 68.1317 50.3867 68.0907 50.4144C67.995 50.4972 67.8993 50.5801 67.8036 50.6492C67.6122 50.8149 67.4208 50.9945 67.2021 51.2017C66.7919 51.6022 66.3681 52.0442 65.876 52.5552C64.9873 53.5221 64.0577 54.6133 62.9503 55.9669C61.1868 58.1492 59.4505 60.442 57.4819 63.2044C56.4839 64.6133 55.5816 65.9392 54.7203 67.279L54.2281 68.0387C53.2438 69.558 52.2321 71.1326 51.3299 72.7348C50.5779 74.1436 49.9217 75.4144 49.3749 76.6437C49.2928 76.8232 49.2245 77.0028 49.1425 77.1823L48.9921 77.5414C48.8554 77.8867 48.7323 78.2182 48.6093 78.5497C48.3632 79.2403 48.1718 79.8757 48.0351 80.4972C47.9667 80.8011 47.8984 81.105 47.8574 81.395L47.83 81.5746C47.83 81.5884 47.83 81.6022 47.83 81.6022V81.616C47.83 81.6298 47.83 81.6437 47.83 81.6713L47.8164 81.7542C47.8027 81.8785 47.789 82.0028 47.789 82.1271C47.7753 82.4033 47.7753 82.6796 47.789 82.9282C47.789 82.9834 47.8027 83.0387 47.8027 83.0939C47.8164 83.163 47.8164 83.2459 47.83 83.3287V83.3564C47.8437 83.4116 47.8437 83.453 47.8574 83.5083C47.8984 83.7155 47.9667 83.9227 48.0488 84.1575L48.0761 84.2265C48.0898 84.2542 48.1035 84.2956 48.1171 84.3232C48.1581 84.4061 48.2128 84.5028 48.2675 84.5718C48.2812 84.5995 48.3085 84.6271 48.3222 84.6547C48.3359 84.6685 48.3495 84.6823 48.3495 84.6961L48.3632 84.71C48.4316 84.7928 48.4999 84.8619 48.5683 84.9448C48.6093 84.9862 48.6503 85.0276 48.705 85.0691L48.7187 85.0829C48.7323 85.0967 48.746 85.1105 48.7597 85.1105C48.8144 85.1519 48.869 85.1796 48.9101 85.221C48.9784 85.2624 49.0468 85.3039 49.1288 85.3315C49.1425 85.3315 49.1561 85.3453 49.1698 85.3453L49.1971 85.3591C49.3339 85.4006 49.4706 85.442 49.6483 85.4696H49.6893C49.7167 85.4696 49.744 85.4696 49.7713 85.4696C49.8534 85.4696 49.9491 85.4834 50.0448 85.4696C50.1405 85.4696 50.2362 85.4696 50.3319 85.4558C50.3592 85.4558 50.3729 85.4558 50.4002 85.442C50.4276 85.442 50.4549 85.442 50.4822 85.4282C50.9197 85.3591 51.3709 85.2348 51.8083 85.0691C51.9314 85.0276 52.0408 84.9862 52.1638 84.931L52.2321 84.9033C52.2458 84.9033 52.2595 84.8895 52.2732 84.8895L52.3005 84.8757C52.3142 84.8619 52.3278 84.8619 52.3552 84.8481L52.4099 84.8204C52.656 84.7099 52.902 84.5856 53.1618 84.4475C54.1598 83.9365 55.1578 83.2873 56.3335 82.4309C56.5933 82.2376 56.853 82.0442 57.1538 81.8094L57.2768 81.7127C57.3452 81.6575 57.4135 81.6022 57.4819 81.547C57.6049 81.4503 57.7416 81.3398 57.8647 81.2431C58.3842 80.8149 58.931 80.3591 59.4642 79.8757C61.2278 78.3149 63.0187 76.5884 64.9053 74.5856C65.4658 73.9917 65.9717 73.384 66.5185 72.7486C66.7099 72.5138 66.9013 72.2928 67.1064 72.058L67.1884 71.9613L67.2157 71.9475C67.4345 71.7542 67.7352 71.6436 68.0634 71.6298C68.4872 71.616 68.8973 71.768 69.1707 72.0442C69.6902 72.5691 69.7039 73.3978 69.1981 73.9779C69.1434 74.047 69.0887 74.1022 69.034 74.1575C68.0087 75.3315 66.9013 76.5332 65.6299 77.8315C63.4288 80.0691 61.4192 81.9199 59.4779 83.4945C57.4135 85.1934 55.1168 86.8923 52.5192 87.7901C51.6306 88.0939 50.7967 88.2459 50.0037 88.2459ZM68.4598 48.4945C68.4462 48.4945 68.4188 48.4945 68.3915 48.5083C67.5849 48.895 66.833 49.6271 66.2178 50.2072C65.1514 51.2293 64.1944 52.3204 63.4015 53.2597C61.5696 55.4144 59.7239 57.7901 57.4272 60.9392L57.1538 61.3122C56.0191 62.8729 54.8433 64.4751 53.818 66.1188C53.4352 66.7265 53.0387 67.3481 52.656 67.942C52.0954 68.8122 51.5212 69.6961 50.9881 70.5939C49.7167 72.721 48.1308 75.5387 47.1191 78.5774C46.0801 81.7127 46.0801 83.9365 47.1328 85.4006C47.6933 86.1879 48.4589 86.6851 49.2792 86.8232C50.0994 86.9613 51.0291 86.837 52.0408 86.4917C54.4469 85.663 56.6343 84.047 58.6303 82.4309C60.5305 80.8978 62.4992 79.0746 64.6592 76.8785C65.917 75.5939 67.0107 74.4199 68.0087 73.2597C68.0634 73.2044 68.1044 73.1492 68.1591 73.0801C68.1727 73.0663 68.1864 73.0525 68.1864 73.0387C68.1591 73.0249 68.118 73.0249 68.0907 73.0249L68.036 73.0939C67.872 73.2873 67.7079 73.4807 67.5439 73.674C67.0243 74.2956 66.4775 74.9448 65.8896 75.5663C63.9757 77.5967 62.1574 79.3646 60.3528 80.953C59.7923 81.4503 59.2455 81.9199 58.7123 82.3481C58.5756 82.4586 58.4525 82.5553 58.3158 82.6658C58.2475 82.721 58.1791 82.7763 58.1107 82.8315L57.9877 82.9282L57.9467 82.9558C57.6596 83.1768 57.3862 83.384 57.1264 83.5774C55.896 84.489 54.8297 85.1658 53.777 85.7182C53.4899 85.8702 53.2165 85.9945 52.9567 86.1188L52.8474 86.1602C52.8337 86.1602 52.82 86.174 52.8063 86.174C52.7927 86.174 52.779 86.1879 52.7653 86.1879L52.656 86.2293C52.5192 86.2845 52.3825 86.3398 52.2458 86.3812C51.7537 86.5608 51.2478 86.6989 50.742 86.7818C50.701 86.7956 50.66 86.7956 50.6053 86.8094C50.5643 86.8094 50.5233 86.8094 50.4959 86.8232C50.4686 86.8232 50.4412 86.8232 50.4139 86.837C50.2772 86.8508 50.1541 86.8508 50.0311 86.8508C49.908 86.8508 49.7713 86.8508 49.6483 86.837C49.621 86.837 49.6073 86.837 49.5799 86.837C49.5253 86.837 49.4706 86.837 49.4159 86.8232C49.3475 86.8094 49.2792 86.7956 49.2245 86.7818C49.0604 86.7542 48.8964 86.7127 48.7323 86.6437C48.6913 86.6298 48.6366 86.616 48.5956 86.6022C48.5273 86.5746 48.4726 86.547 48.4179 86.5055C48.3359 86.4641 48.2538 86.4227 48.1718 86.3674C48.1171 86.3398 48.0624 86.2984 48.0078 86.2569C47.9667 86.2293 47.9121 86.2017 47.8574 86.1602C47.83 86.1326 47.789 86.105 47.7617 86.0774C47.6933 86.0221 47.6386 85.9669 47.5703 85.9116C47.4746 85.8149 47.3926 85.7182 47.3105 85.6354C47.2695 85.5939 47.2422 85.5663 47.2148 85.5111L47.1875 85.4834C47.1738 85.4696 47.1601 85.4558 47.1465 85.4282C47.1191 85.3867 47.0918 85.3453 47.0644 85.3039C46.9824 85.1934 46.9141 85.0691 46.8457 84.931C46.8184 84.8895 46.8047 84.8481 46.791 84.8066C46.7637 84.7652 46.75 84.7238 46.7227 84.6823C46.6953 84.6409 46.6953 84.5856 46.6817 84.5442C46.586 84.268 46.5039 84.0055 46.4492 83.7431C46.4356 83.6879 46.4219 83.6326 46.4219 83.5635C46.4082 83.5083 46.3946 83.453 46.3946 83.384C46.3946 83.3287 46.3946 83.2873 46.3946 83.232C46.3946 83.2182 46.3946 83.2044 46.3946 83.1906C46.3809 83.1077 46.3809 83.0249 46.3672 82.942C46.3535 82.6381 46.3535 82.3204 46.3809 81.9751C46.3946 81.837 46.4082 81.6851 46.4219 81.5332L46.4356 81.395V81.3812C46.4356 81.3674 46.4356 81.3674 46.4356 81.3536C46.4356 81.3398 46.4356 81.326 46.4356 81.3122L46.4629 81.105C46.5176 80.7873 46.586 80.4558 46.6543 80.1105C46.8047 79.4475 47.0098 78.7707 47.2695 78.0249C47.3926 77.6796 47.5293 77.3204 47.666 76.9613C47.6933 76.8923 47.7207 76.837 47.748 76.768L47.7753 76.6851C47.7753 76.6851 47.7753 76.6851 47.7753 76.6713L47.8164 76.5608C47.8984 76.3812 47.9804 76.1878 48.0624 76.0083C48.623 74.7514 49.2928 73.4254 50.1131 71.989C51.0291 70.3591 52.0544 68.7707 53.0524 67.2238L53.5446 66.4641C54.4195 65.1105 55.3355 63.7569 56.3472 62.3343C58.3295 59.5442 60.0794 57.2238 61.8566 55.0276C62.9777 53.6464 63.921 52.5276 64.837 51.547C65.3291 51.0083 65.7803 50.5387 66.2178 50.1243C66.4502 49.9033 66.6552 49.7099 66.8603 49.5304C66.956 49.4337 67.0654 49.3508 67.1747 49.268C67.2157 49.2265 67.2704 49.1989 67.3114 49.1575C67.3251 49.1436 67.3525 49.116 67.3798 49.1022L67.4071 49.0884C67.7626 48.9226 68.0907 48.6878 68.4598 48.4945Z" fill="#5CABF9"/>
<path d="M62.4991 79.0608C62.1163 78.2735 61.5695 77.5553 61.0226 76.8923C59.6828 75.2624 58.0286 73.895 56.224 72.8177C54.7886 71.9613 53.2437 71.2984 51.6579 70.7873C50.8103 70.5111 50.4411 71.8646 51.2887 72.1409C52.6422 72.5691 53.941 73.1216 55.185 73.826C55.7319 74.1298 56.2514 74.4613 56.7572 74.8205C56.976 74.9724 57.181 75.1243 57.3998 75.2901C57.3041 75.2072 57.4818 75.3591 57.4818 75.3591C57.5365 75.4006 57.5912 75.442 57.6458 75.4834C57.7552 75.5663 57.8509 75.6492 57.9603 75.7459C58.6575 76.3398 59.3137 77.0028 59.9153 77.7072C60.0246 77.8453 60.134 77.9696 60.2434 78.1077C60.2707 78.1492 60.298 78.1768 60.3254 78.2182C60.4211 78.3425 60.2297 78.0939 60.3254 78.2182C60.3801 78.2873 60.4348 78.3702 60.4894 78.4392C60.6398 78.6464 60.7902 78.8674 60.9269 79.0884C61.0773 79.3094 61.214 79.5442 61.3371 79.7928C61.5011 80.1381 61.9796 80.221 62.2804 80.0414C62.5948 79.8066 62.6632 79.3923 62.4991 79.0608Z" fill="#5CABF9"/>
<path d="M61.8977 80.8011C61.7609 80.8011 61.6106 80.7873 61.4739 80.7321C61.1184 80.6216 60.8313 80.3868 60.6809 80.0691C60.5852 79.8619 60.4485 79.6409 60.3118 79.4475C60.1888 79.2542 60.0384 79.047 59.9017 78.8398C59.8607 78.7845 59.8333 78.7431 59.7923 78.6879L59.6693 78.5359C59.5736 78.4116 59.4642 78.2735 59.3548 78.1492C58.7943 77.4862 58.1654 76.8508 57.4819 76.2707C57.3862 76.1879 57.2905 76.105 57.1811 76.0221C57.1264 75.9807 57.0854 75.9392 57.0307 75.8978L57.0171 75.884C57.0034 75.8702 57.0034 75.8702 56.9897 75.8564L56.9624 75.8425L56.935 75.8287C56.7436 75.6768 56.5522 75.5387 56.3472 75.3867C55.8687 75.0414 55.3492 74.7238 54.8297 74.4199C53.6813 73.7707 52.4235 73.2182 51.0701 72.7901C50.3182 72.5553 49.9354 71.7956 50.1815 71.0221C50.4139 70.2763 51.1248 69.8895 51.8494 70.1243C53.5582 70.663 55.1441 71.3674 56.5659 72.21C58.5346 73.384 60.2024 74.8066 61.5559 76.4503C62.0891 77.1133 62.7043 77.8868 63.1281 78.7569C63.4562 79.4475 63.2374 80.2486 62.6086 80.6077C62.3898 80.7321 62.1437 80.8011 61.8977 80.8011ZM61.884 79.4199C61.884 79.4199 61.8977 79.4199 61.884 79.4199C61.8977 79.4061 61.884 79.3923 61.8703 79.3646C61.5149 78.6326 60.968 77.9282 60.4759 77.3343C59.2318 75.8149 57.6733 74.5028 55.855 73.4116C54.5289 72.6243 53.0524 71.9613 51.4666 71.4641C51.4666 71.4779 51.4666 71.4779 51.4666 71.4917C52.902 71.9475 54.2555 72.5276 55.4859 73.2321C56.0464 73.5497 56.5932 73.895 57.1128 74.268C57.3452 74.4337 57.5639 74.5856 57.769 74.7514L57.8237 74.7928C57.8373 74.8066 57.8373 74.8066 57.851 74.8205C57.9057 74.8619 57.9604 74.9033 58.015 74.9586C58.1244 75.0414 58.2338 75.1381 58.3295 75.221C59.0677 75.8564 59.7513 76.547 60.3665 77.2652C60.4759 77.4033 60.5989 77.5415 60.7083 77.6796L60.7493 77.721C60.763 77.7348 60.7766 77.7624 60.804 77.7763C60.8176 77.8039 60.8313 77.8177 60.845 77.8453L60.8586 77.8591C60.8997 77.9144 60.9407 77.9696 60.9817 78.0249C61.1457 78.2597 61.3098 78.4807 61.4465 78.7017C61.6106 78.9088 61.7609 79.1575 61.884 79.4199Z" fill="#5CABF9"/>
</g>
<defs>
<clipPath id="clip0">
<rect width="165" height="48" fill="white" transform="translate(0 105)"/>
</clipPath>
<clipPath id="clip1">
<rect width="75" height="105" fill="white" transform="translate(45)"/>
</clipPath>
</defs>
</svg>
