<svg width="107" height="148" viewBox="0 0 107 148" fill="none" xmlns="http://www.w3.org/2000/svg">
<path d="M35.3304 70.1835L37.1771 71.4064L31.8217 92.2579C31.8217 92.2579 32.0063 98.0059 31.5754 102.837L35.3304 70.1835Z" fill="#1F1F1F"/>
<path d="M81.9286 80.5176C81.7439 80.6399 81.5592 80.701 81.313 80.6399C80.759 80.5787 80.3281 80.0895 80.3897 79.5392C80.3897 79.4169 81.1283 69.3275 81.0052 65.6586C81.0052 65.1083 81.4361 64.6191 81.9901 64.6191C82.5441 64.6191 83.0366 65.0471 83.0366 65.5974C83.1597 69.3886 82.421 79.2946 82.421 79.7227C82.3595 80.0895 82.1748 80.3953 81.9286 80.5176Z" fill="#1C2777"/>
<path d="M39.7625 98.6785C38.0389 99.7181 34.7148 101.369 31.3292 100.574C29.1132 100.085 27.3281 98.6174 25.9123 96.2938C23.5116 92.3191 24.3118 87.1215 27.9436 83.0246C31.2677 79.2946 35.6997 77.8882 39.27 79.4169C44.1945 81.5571 44.5023 85.8374 43.8867 88.1611C44.7485 89.8732 44.9332 91.6465 44.4407 93.4198C43.8252 95.6211 42.1632 97.3333 40.8705 98.0671C40.8089 98.1282 40.6858 98.1893 40.5627 98.2505C40.3165 98.3728 40.0702 98.4951 39.7625 98.6785ZM32.2526 82.0462C31.2677 82.6577 30.3443 83.4527 29.421 84.431C27.1434 86.9992 25.2967 91.4019 27.6359 95.3154C28.7439 97.1498 30.1597 98.3116 31.7601 98.6785C34.8995 99.4123 38.2851 97.2721 39.3931 96.5995C39.5778 96.4772 39.7009 96.4161 39.824 96.3549C40.5627 95.9269 41.9169 94.7039 42.4094 92.9918C42.7787 91.6465 42.594 90.3012 41.8554 88.956C41.7323 88.7114 41.6707 88.4057 41.7938 88.0999C41.9785 87.6107 43.2096 83.4527 38.4698 81.4348C36.5615 80.5175 34.3455 80.8233 32.2526 82.0462Z" fill="#1C2777"/>
<path d="M59.7067 146.557C57.86 147.658 55.9517 148.025 54.0435 147.658C51.889 147.23 50.1654 146.068 49.0574 144.234C45.918 139.097 47.9494 130.17 48.5034 127.968L47.0876 125.889C46.8414 125.461 46.8414 124.972 47.2107 124.605C47.2723 124.544 47.2723 124.544 47.3338 124.483C47.3954 124.422 47.457 124.361 47.5185 124.361C47.6416 124.3 50.4732 122.893 54.7206 122.649C58.5987 122.465 64.5081 123.26 70.479 128.274C70.5406 128.335 70.6021 128.397 70.6021 128.397C70.9099 128.702 70.9715 129.069 70.8484 129.497C68.5708 135.429 66.1701 140.015 63.7078 143.011C62.3536 144.54 61.0609 145.763 59.7067 146.557ZM49.4268 125.767L50.4117 127.174C50.5963 127.418 50.6579 127.724 50.5348 128.03C50.5348 128.152 47.7032 138.18 50.781 143.133C51.6428 144.478 52.8124 145.335 54.4128 145.64C59.2758 146.557 64.0156 141.176 68.6323 129.497C60.3222 122.771 52.2583 124.728 49.4268 125.767Z" fill="#1C2777"/>
<path d="M70.6022 86.1431C66.7241 88.4668 54.7822 89.3228 52.3815 86.6935C50.9657 85.1648 50.227 83.6361 49.8577 82.6577C47.1492 82.9634 38.4698 84.0641 33.6684 85.4705C33.1144 85.654 32.5604 85.3482 32.3757 84.7979C32.191 84.2476 32.4988 83.6972 33.0528 83.5138C39.0238 81.7405 49.9808 80.5787 50.4733 80.5175C50.9657 80.4564 51.4582 80.8233 51.5813 81.3124C51.5813 81.3124 52.0737 83.2692 53.9204 85.2871C54.4744 85.8986 57.3676 86.4489 61.5534 86.1431C65.3083 85.8986 68.8171 85.0425 69.8635 84.1864C72.2642 82.2297 72.6951 79.1111 72.6951 79.1111C72.7567 78.6831 73.0644 78.3162 73.4953 78.255L81.1283 76.8486C81.6823 76.7263 82.2363 77.0932 82.3594 77.6436C82.4826 78.1939 82.1132 78.7442 81.5592 78.8665L74.6034 80.1506C74.2956 81.4347 73.4338 84.003 71.2178 85.8374C70.9715 85.8986 70.7869 86.0209 70.6022 86.1431Z" fill="#1C2777"/>
<path d="M43.271 89.2004C42.717 89.5062 42.1015 89.3227 41.8553 88.7724C41.8553 88.7112 40.6241 86.4488 38.5928 86.143C37.2385 85.9596 35.7612 86.6934 34.1607 88.4055C33.7914 88.8336 33.1143 88.8335 32.6834 88.4667C32.2525 88.0998 32.2525 87.4271 32.6218 86.9991C34.7147 84.7978 36.8076 83.8806 38.839 84.1251C41.9168 84.5532 43.5788 87.6717 43.6404 87.794C43.9482 88.3444 43.7635 88.9558 43.271 89.2004Z" fill="#1C2777"/>
<path d="M99.2874 45.8464C97.0714 47.1305 94.1782 47.6197 93.0702 47.6197C92.5162 47.6197 92.0237 47.1917 92.0237 46.6414C92.0237 46.091 92.4546 45.6018 93.0086 45.6018C94.486 45.5407 98.1794 44.8069 99.5336 42.9725C100.026 42.361 100.149 41.6884 99.9029 40.8934C99.7798 40.282 99.4105 39.9151 98.918 39.6093C97.1329 38.631 93.6242 39.5482 92.4546 39.9762C91.9006 40.1597 91.3466 39.8539 91.1619 39.3647C90.9773 38.8144 91.2235 38.2641 91.7775 38.0806C92.3315 37.8972 97.0098 36.3073 99.9029 37.836C100.949 38.3864 101.627 39.2424 101.934 40.4043C102.304 41.7495 102.057 43.0948 101.196 44.1954C100.703 44.8681 100.026 45.4184 99.2874 45.8464Z" fill="#1C2777"/>
<path d="M81.9286 80.5176C81.7439 80.6399 81.5592 80.701 81.313 80.6399C80.759 80.5787 80.3281 80.0895 80.3897 79.5392C80.3897 79.4169 81.1283 69.3275 81.0052 65.6586C81.0052 65.1083 81.4361 64.6191 81.9901 64.6191C82.5441 64.6191 83.0366 65.0471 83.0366 65.5974C83.1597 69.3886 82.421 79.2946 82.421 79.7227C82.3595 80.0895 82.1748 80.3953 81.9286 80.5176Z" fill="#1C2777"/>
<path d="M39.7625 98.6785C38.0389 99.7181 34.7148 101.369 31.3292 100.574C29.1132 100.085 27.3281 98.6174 25.9123 96.2938C23.5116 92.3191 24.3118 87.1215 27.9436 83.0246C31.2677 79.2946 35.6997 77.8882 39.27 79.4169C44.1945 81.5571 44.5023 85.8374 43.8867 88.1611C44.7485 89.8732 44.9332 91.6465 44.4407 93.4198C43.8252 95.6211 42.1632 97.3333 40.8705 98.0671C40.8089 98.1282 40.6858 98.1893 40.5627 98.2505C40.3165 98.3728 40.0702 98.4951 39.7625 98.6785ZM32.2526 82.0462C31.2677 82.6577 30.3443 83.4527 29.421 84.431C27.1434 86.9992 25.2967 91.4019 27.6359 95.3154C28.7439 97.1498 30.1597 98.3116 31.7601 98.6785C34.8995 99.4123 38.2851 97.2721 39.3931 96.5995C39.5778 96.4772 39.7009 96.4161 39.824 96.3549C40.5627 95.9269 41.9169 94.7039 42.4094 92.9918C42.7787 91.6465 42.594 90.3012 41.8554 88.956C41.7323 88.7114 41.6707 88.4057 41.7938 88.0999C41.9785 87.6107 43.2096 83.4527 38.4698 81.4348C36.5615 80.5175 34.3455 80.8233 32.2526 82.0462Z" fill="#1C2777"/>
<path d="M59.7067 146.557C57.86 147.658 55.9517 148.025 54.0435 147.658C51.889 147.23 50.1654 146.068 49.0574 144.234C45.918 139.097 47.9494 130.17 48.5034 127.968L47.0876 125.889C46.8414 125.461 46.8414 124.972 47.2107 124.605C47.2723 124.544 47.2723 124.544 47.3338 124.483C47.3954 124.422 47.457 124.361 47.5185 124.361C47.6416 124.3 50.4732 122.893 54.7206 122.649C58.5987 122.465 64.5081 123.26 70.479 128.274C70.5406 128.335 70.6021 128.397 70.6021 128.397C70.9099 128.702 70.9715 129.069 70.8484 129.497C68.5708 135.429 66.1701 140.015 63.7078 143.011C62.3536 144.54 61.0609 145.763 59.7067 146.557ZM49.4268 125.767L50.4117 127.174C50.5963 127.418 50.6579 127.724 50.5348 128.03C50.5348 128.152 47.7032 138.18 50.781 143.133C51.6428 144.478 52.8124 145.335 54.4128 145.64C59.2758 146.557 64.0156 141.176 68.6323 129.497C60.3222 122.771 52.2583 124.728 49.4268 125.767Z" fill="#1C2777"/>
<path d="M70.6022 86.1431C66.7241 88.4668 54.7822 89.3228 52.3815 86.6935C50.9657 85.1648 50.227 83.6361 49.8577 82.6577C47.1492 82.9634 38.4698 84.0641 33.6684 85.4705C33.1144 85.654 32.5604 85.3482 32.3757 84.7979C32.191 84.2476 32.4988 83.6972 33.0528 83.5138C39.0238 81.7405 49.9808 80.5787 50.4733 80.5175C50.9657 80.4564 51.4582 80.8233 51.5813 81.3124C51.5813 81.3124 52.0737 83.2692 53.9204 85.2871C54.4744 85.8986 57.3676 86.4489 61.5534 86.1431C65.3083 85.8986 68.8171 85.0425 69.8635 84.1864C72.2642 82.2297 72.6951 79.1111 72.6951 79.1111C72.7567 78.6831 73.0644 78.3162 73.4953 78.255L81.1283 76.8486C81.6823 76.7263 82.2363 77.0932 82.3594 77.6436C82.4826 78.1939 82.1132 78.7442 81.5592 78.8665L74.6034 80.1506C74.2956 81.4347 73.4338 84.003 71.2178 85.8374C70.9715 85.8986 70.7869 86.0209 70.6022 86.1431Z" fill="#1C2777"/>
<path d="M43.271 89.2004C42.717 89.5062 42.1015 89.3227 41.8553 88.7724C41.8553 88.7112 40.6241 86.4488 38.5928 86.143C37.2385 85.9596 35.7612 86.6934 34.1607 88.4055C33.7914 88.8336 33.1143 88.8335 32.6834 88.4667C32.2525 88.0998 32.2525 87.4271 32.6218 86.9991C34.7147 84.7978 36.8076 83.8806 38.839 84.1251C41.9168 84.5532 43.5788 87.6717 43.6404 87.794C43.9482 88.3444 43.7635 88.9558 43.271 89.2004Z" fill="#1C2777"/>
<path d="M99.2874 45.8464C97.0714 47.1305 94.1782 47.6197 93.0702 47.6197C92.5162 47.6197 92.0237 47.1917 92.0237 46.6414C92.0237 46.091 92.4546 45.6018 93.0086 45.6018C94.486 45.5407 98.1794 44.8069 99.5336 42.9725C100.026 42.361 100.149 41.6884 99.9029 40.8934C99.7798 40.282 99.4105 39.9151 98.918 39.6093C97.1329 38.631 93.6242 39.5482 92.4546 39.9762C91.9006 40.1597 91.3466 39.8539 91.1619 39.3647C90.9773 38.8144 91.2235 38.2641 91.7775 38.0806C92.3315 37.8972 97.0098 36.3073 99.9029 37.836C100.949 38.3864 101.627 39.2424 101.934 40.4043C102.304 41.7495 102.057 43.0948 101.196 44.1954C100.703 44.8681 100.026 45.4184 99.2874 45.8464Z" fill="#1C2777"/>
<path fill-rule="evenodd" clip-rule="evenodd" d="M58.1677 59.9719C67.709 57.7705 78.666 53.3067 83.0365 46.6416C87.407 39.9764 92.27 26.7685 101.011 30.5596C111.352 35.0235 105.443 64.1299 82.2978 79.1112C82.2978 79.1112 72.5719 150.226 54.659 146.68C49.0574 144.417 46.1643 137.508 44.3791 132.188C43.6404 129.925 43.0864 127.663 42.2862 125.461C41.6091 123.627 40.932 121.793 40.2549 120.019C38.6544 115.678 36.9924 111.275 35.3919 106.934C35.3303 106.689 33.6683 102.592 33.7299 102.531C33.7299 102.531 21.8495 114.944 13.2932 119.958C8.92268 122.526 2.8286 125.095 1.78214 119.102C0.427905 111.153 2.45926 109.38 6.46043 102.042C7.38377 100.33 11.4465 95.3766 14.9552 89.4453C18.7101 83.0859 24.9273 76.4207 27.2665 73.9136C34.8379 66.0255 45.6103 62.907 58.1677 59.9719Z" fill="white"/>
<path d="M84.6985 48.4146C84.6985 48.4146 93.5626 61.0111 104.15 51.5332L104.951 40.5877L103.904 35.2678L101.688 32.1492L97.8715 30.5594L94.4244 31.5989C94.4244 31.4766 88.5765 37.7749 84.6985 48.4146Z" fill="white"/>
<g opacity="0.2">
<g opacity="0.2">
<g opacity="0.2">
<path opacity="0.2" fill-rule="evenodd" clip-rule="evenodd" d="M79.2816 68.5935C76.8193 89.5062 65.8007 146.252 49.9192 143.561C50.8425 145.029 52.1968 146.19 54.2281 146.557C72.0795 150.104 81.3129 79.6613 81.3129 79.6613C82.1132 79.111 81.1898 66.2088 81.99 65.6584C81.6207 64.0074 79.7125 64.8024 79.2816 68.5935Z" fill="#1C2777"/>
</g>
</g>
</g>
<path fill-rule="evenodd" clip-rule="evenodd" d="M47.9496 125.278C47.888 125.278 47.888 125.278 47.9496 125.278L43.6406 127.418C43.6406 127.418 45.3026 144.173 54.2283 146.618C60.5071 147.841 65.7393 139.892 69.8636 129.13L69.8021 129.069C58.7219 119.774 47.9496 125.278 47.9496 125.278Z" fill="#5CABF9"/>
<g opacity="0.6">
<g opacity="0.6">
<g opacity="0.6">
<path opacity="0.6" fill-rule="evenodd" clip-rule="evenodd" d="M49.7346 126.195C49.7346 126.195 62.4152 124.911 65.5545 129.803C66.7241 131.576 66.1701 136.04 62.9692 142.216C62.9692 142.216 68.6939 132.616 69.925 128.947C69.925 128.947 52.3199 117.94 46.6567 126.807" fill="#FCFCFC"/>
</g>
</g>
</g>
<g opacity="0.2">
<g opacity="0.2">
<g opacity="0.2">
<path opacity="0.2" fill-rule="evenodd" clip-rule="evenodd" d="M65.6776 126.195C61.2456 137.018 55.9517 144.54 49.9192 143.561C49.9807 143.683 50.0423 143.806 50.1039 143.928C50.1654 144.05 50.2885 144.173 50.3501 144.295C50.5348 144.54 50.781 144.784 51.0272 145.029C51.1503 145.151 51.2119 145.212 51.335 145.334C51.6428 145.579 52.0121 145.824 52.3814 146.007C52.443 146.068 52.5046 146.068 52.5661 146.129C53.0586 146.374 53.551 146.496 54.1666 146.619C54.2897 146.619 54.4128 146.619 54.4744 146.68C54.8437 146.741 55.1515 146.741 55.5208 146.741C55.7055 146.741 55.8902 146.741 56.0748 146.68C56.3826 146.619 56.7519 146.557 57.0597 146.496C57.1828 146.435 57.3675 146.435 57.4906 146.374C57.9831 146.252 58.414 146.007 58.8449 145.763C58.9064 145.701 58.968 145.701 59.0295 145.64C59.3989 145.396 59.7682 145.151 60.1375 144.845C60.2607 144.723 60.4453 144.601 60.5684 144.54C60.6915 144.417 60.8147 144.295 60.9378 144.234C61.4918 143.745 61.9842 143.194 62.5382 142.583C62.6614 142.461 62.7845 142.338 62.846 142.216C64.0771 140.626 65.3083 138.792 66.4163 136.59C67.3396 134.817 68.2014 132.86 69.0632 130.781C69.3094 130.231 69.4941 129.681 69.6788 129.13L69.6172 129.069C68.3861 127.907 67.0318 126.929 65.6776 126.195Z" fill="#1C2777"/>
</g>
</g>
</g>
<g opacity="0.6">
<g opacity="0.6">
<g opacity="0.6">
<path opacity="0.6" fill-rule="evenodd" clip-rule="evenodd" d="M92.8856 31.7214C91.6545 32.5163 90.5465 33.6781 89.5 35.0234C101.688 28.1748 104.766 41.3828 104.766 41.3828C104.828 41.3216 104.828 41.2605 104.889 41.1993C104.828 36.1852 103.227 32.4551 99.9646 31.0487C97.3177 29.8258 94.9785 30.315 92.8856 31.7214Z" fill="#FCFCFC"/>
</g>
</g>
</g>
<path d="M105.936 39.5482C105.566 34.8398 103.596 31.4766 100.457 30.1314C96.9483 28.6027 93.5627 29.3976 90.4234 32.5161C87.838 35.0844 85.6835 38.8755 83.7753 42.2998C82.9135 43.8897 82.0517 45.3572 81.2515 46.6414C77.7428 52.0224 68.694 56.7919 57.0598 59.5436C46.5337 61.9895 39.2085 65.475 33.8531 69.205L35.3304 70.1834C35.6998 69.9388 36.1307 69.6942 36.5616 69.4496C41.6707 66.3922 48.5035 63.6405 57.5523 61.5615C63.4001 60.2162 77.5581 56.1193 83.0366 47.8032C83.8984 46.5191 84.7602 44.9904 85.622 43.3394C89.3153 36.7965 93.5012 29.3364 99.6568 32.027C102.058 33.0665 103.535 35.8181 103.904 39.7316C104.828 50.9829 96.4559 68.6547 80.8206 78.8052C80.5743 78.9887 80.3897 79.2333 80.3897 79.539C80.3281 80.0894 73.0645 134.633 59.399 144.356C57.7369 145.518 56.1365 145.946 54.4745 145.64C52.874 145.334 51.6429 144.539 50.8426 143.133C50.4117 142.399 49.9809 141.604 49.55 140.871C47.5802 137.141 45.9181 133.227 44.3177 129.314C43.4559 127.173 42.7172 125.033 41.8554 122.893L38.4698 114.516C37.3618 111.764 36.2538 109.074 35.1458 106.322C34.6533 105.099 34.1609 103.876 33.6684 102.653C33.3606 102.225 32.8066 102.103 32.3757 102.286C32.3757 102.286 32.1295 102.47 31.7602 102.898C31.6986 103.693 31.5755 104.426 31.4524 105.16C31.8833 104.793 32.2526 104.549 32.4373 104.487C32.4373 104.487 33.2375 106.566 33.2991 106.689C34.3455 109.318 35.392 111.886 36.4385 114.516C36.5 114.577 36.5 114.699 36.5616 114.76C38.4698 119.469 40.3165 124.238 42.1016 129.008C44.0714 134.267 46.1028 139.464 49.0575 144.295C50.2271 146.129 51.8891 147.291 54.0436 147.719C56.0134 148.086 57.9216 147.719 59.7683 146.618C60.0145 146.435 60.3223 146.313 60.5685 146.068C74.3572 136.223 81.5592 86.0819 82.2979 80.3339C91.9623 73.9745 97.6255 65.903 100.642 60.2774C104.52 53.0008 106.428 45.4795 105.936 39.5482Z" fill="#1F1F1F"/>
<path d="M80.3281 79.6003C80.3281 78.4385 80.3897 77.2767 80.4512 76.1149C80.5744 74.9531 80.6975 73.7912 80.8206 72.6294C80.9437 71.4676 81.1284 70.3058 81.313 69.144L81.8055 65.6585C81.8055 65.5974 81.867 65.5363 81.9901 65.5363C82.0517 65.5363 82.1133 65.5974 82.1133 65.6585C82.3595 66.8204 82.421 68.0433 82.5442 69.2051C82.6057 70.367 82.6673 71.5899 82.7288 72.7517C82.7288 73.9135 82.7904 75.0754 82.7288 76.2983C82.6673 77.4601 82.6057 78.6219 82.421 79.7838C82.2979 80.3341 81.8055 80.701 81.2515 80.6398C80.6975 80.5175 80.3281 80.0895 80.3281 79.6003Z" fill="#1F1F1F"/>
<path d="M59.7068 146.557C57.8601 147.658 55.9518 148.025 54.0436 147.658C51.8891 147.23 50.1655 146.068 49.0575 144.234C45.9182 139.097 42.9635 130.17 43.5175 127.968C43.579 127.724 43.2712 127.418 43.3944 127.112C43.5175 126.684 44.1946 126.379 44.5024 126.134C46.1644 125.033 47.9495 124.055 49.7962 123.505C51.3967 123.015 52.9971 122.771 54.6592 122.71C58.5372 122.526 64.4466 123.321 70.4176 128.335C70.4791 128.396 70.5407 128.458 70.5407 128.458C70.8485 128.763 70.91 129.13 70.7869 129.558C68.5093 135.49 66.1086 140.076 63.6464 143.072C62.3537 144.54 61.061 145.762 59.7068 146.557ZM44.1946 128.213C43.9484 128.335 45.5488 132.616 45.6719 132.921C46.1028 134.022 46.5953 135.123 47.0877 136.223C48.1957 138.608 49.3653 140.932 50.7196 143.194C51.5813 144.54 52.7509 145.396 54.3514 145.701C59.2143 146.619 63.9542 141.238 68.5709 129.558C60.3223 122.771 53.0587 123.077 44.1946 128.213Z" fill="#1F1F1F"/>
<path d="M68.7555 100.391C65.3084 102.408 54.3514 103.265 52.2585 100.941C51.212 99.7791 51.0273 98.8619 50.9042 98.1892C50.7811 97.5777 50.7195 97.272 50.0424 96.9663C46.9646 95.621 42.2863 97.1497 37.7312 98.6784C36.6232 99.0453 35.5151 99.4122 34.4071 99.7179C34.0993 99.8402 33.73 99.6568 33.6684 99.351C33.5453 99.0453 33.73 98.6784 34.0378 98.6173C35.0842 98.3115 36.1923 97.9446 37.3003 97.5777C42.1017 95.9879 47.0262 94.3369 50.5349 95.8656C51.8276 96.4159 51.9507 97.272 52.0738 97.9446C52.1969 98.5561 52.32 99.2287 53.1202 100.085C54.7207 101.797 66.0471 101.063 68.4478 99.0453C69.5558 98.1281 69.6173 97.4554 69.7404 96.6605C69.8636 95.8045 69.9867 94.7649 71.464 93.7866C73.7416 92.2579 78.7277 92.1967 78.9123 92.1967C79.2201 92.1967 79.5279 92.4413 79.5279 92.8082C79.5279 93.1139 79.2817 93.4197 78.9123 93.4197C78.8508 93.4197 74.1109 93.4808 72.1411 94.7649C71.0947 95.4987 71.0331 96.049 70.91 96.844C70.7869 97.7 70.6638 98.8007 69.1864 99.9625C69.0633 100.146 68.9402 100.268 68.7555 100.391Z" fill="#1F1F1F"/>
<g opacity="0.6">
<g opacity="0.6">
<g opacity="0.6">
<path opacity="0.6" fill-rule="evenodd" clip-rule="evenodd" d="M101.073 40.7712C101.073 40.7712 95.5941 38.8145 88.0227 43.0337L88.2689 40.5878C88.2074 40.5878 98.3642 35.2067 101.073 40.7712Z" fill="#FCFCFC"/>
</g>
</g>
</g>
<g opacity="0.2">
<g opacity="0.2">
<g opacity="0.2">
<path opacity="0.2" fill-rule="evenodd" clip-rule="evenodd" d="M89.3769 35.8183C86.8531 39.3649 84.6986 43.7676 82.6672 46.8861C78.2967 53.5512 67.3397 58.0151 57.7985 60.2164C44.8101 63.2126 34.5302 67.6765 28.8054 72.6294C40.7474 80.273 57.9831 81.2513 70.9715 73.5467C84.5755 65.4751 91.2851 50.4327 89.3769 35.8183Z" fill="#1C2777"/>
</g>
</g>
</g>
<path fill-rule="evenodd" clip-rule="evenodd" d="M77.0657 33.8614C75.773 27.7466 78.2968 22.0598 82.6673 21.1426C87.0378 20.2254 91.6545 24.4446 92.9472 30.5594C94.2399 36.6742 91.7161 42.361 87.3456 43.2782C82.9751 44.1954 78.3584 39.9762 77.0657 33.8614Z" fill="#5CABF9"/>
<g opacity="0.2">
<g opacity="0.2">
<g opacity="0.2">
<g opacity="0.2">
<path opacity="0.2" fill-rule="evenodd" clip-rule="evenodd" d="M76.8809 32.9443C76.9424 33.1889 76.9424 33.3723 76.9424 33.6169C78.2351 39.7317 82.8518 43.951 87.2223 43.0337C91.5928 42.1165 94.1166 36.4298 92.8239 30.3149C92.4546 28.6639 91.839 27.1352 91.1004 25.8511C92.0853 31.7214 89.623 37.0412 85.4372 37.8973C82.2363 38.5699 78.9122 36.4909 76.8809 32.9443Z" fill="#2B3B68"/>
</g>
</g>
</g>
<g opacity="0.2">
<g opacity="0.2">
<g opacity="0.2">
<path opacity="0.2" d="M89.1305 42.4834C88.5765 42.8503 87.8994 43.0949 87.2223 43.2172C82.7902 44.1344 78.1119 39.8541 76.7577 33.6781C76.7577 33.5558 76.6961 33.4335 76.6961 33.3112C76.6961 33.1889 76.6961 33.1278 76.6346 33.0055L76.5115 32.2717L76.8808 32.9443C78.9737 36.5521 82.2978 38.4477 85.2525 37.8362C89.3768 36.9801 91.839 31.7214 90.8541 25.9123L90.731 25.1785L91.1003 25.8512C91.9006 27.2576 92.5161 28.7863 92.8855 30.3761C93.501 33.3724 93.2548 36.3686 92.2083 38.7534C91.5312 40.4044 90.4848 41.6885 89.1305 42.4834ZM77.0655 33.617C78.3582 39.6706 82.9133 43.8287 87.1607 42.9726C89.2536 42.5446 90.9772 41.0159 92.0237 38.6311C93.0701 36.2463 93.3164 33.3112 92.7008 30.3761C92.393 29.0309 91.9621 27.8079 91.3466 26.5849C92.0237 32.2717 89.4999 37.2247 85.4371 38.0808C82.4824 38.6311 79.2815 36.919 77.0655 33.617Z" fill="#1C2777"/>
</g>
</g>
</g>
</g>
<g opacity="0.6">
<g opacity="0.6">
<g opacity="0.6">
<path opacity="0.6" fill-rule="evenodd" clip-rule="evenodd" d="M81.3129 21.2651C80.328 21.8154 79.4662 22.6103 78.7275 23.6498C87.5917 22.1211 91.7159 27.0741 92.6393 28.2971C90.9157 23.1607 86.7914 19.8587 82.8518 20.7147C82.3594 20.837 81.8054 21.0205 81.3129 21.2651Z" fill="#FCFCFC"/>
</g>
</g>
</g>
<path d="M89.6846 43.4616C89.0075 43.8284 88.3304 44.1342 87.5917 44.2565C82.6672 45.296 77.4965 40.7099 76.0807 34.0448C74.6649 27.3796 77.558 21.1425 82.4825 20.103C87.407 19.0635 92.5778 23.6496 93.9936 30.3147C95.1631 36.0015 93.3165 41.3214 89.6846 43.4616ZM78.112 33.6779C79.2816 39.2423 83.3443 43.0947 87.1608 42.2997C87.7148 42.1774 88.2073 41.994 88.6997 41.6883C91.5313 39.9761 93.0087 35.5123 91.9622 30.7428C90.7926 25.1783 86.7299 21.3259 82.9134 22.1209C79.0969 22.9158 76.9425 28.1134 78.112 33.6779Z" fill="#1F1F1F"/>
<path fill-rule="evenodd" clip-rule="evenodd" d="M19.8182 55.936C9.90762 39.426 16.0633 17.5962 33.6068 7.26213C51.1504 -3.0719 73.3722 1.88109 83.2828 18.3911C93.1933 34.9011 87.0377 56.7309 69.4942 67.065C51.9506 77.399 29.7903 72.5071 19.8182 55.936Z" fill="white"/>
<g opacity="0.6">
<g opacity="0.6">
<g opacity="0.6">
<path opacity="0.6" fill-rule="evenodd" clip-rule="evenodd" d="M33.73 7.20104C24.1272 12.8878 17.9715 21.9989 15.9402 31.7826C18.7718 23.6499 27.6974 9.76926 46.1028 5.67233C47.9495 5.2443 49.6731 5.06085 51.3966 4.93856C51.5198 5.67233 53.3664 6.34496 55.644 6.40611C57.8601 6.46726 59.6452 5.97808 59.953 5.30545C73.0029 7.50678 81.5592 16.3733 83.2828 18.33C73.4954 1.82 51.212 -3.19414 33.73 7.20104Z" fill="#FCFCFC"/>
</g>
</g>
</g>
<path fill-rule="evenodd" clip-rule="evenodd" d="M33.7298 7.20102C33.2373 7.50676 32.7449 7.8125 32.2524 8.17939C32.5602 8.85202 32.868 9.4635 33.2989 10.075C39.8854 21.0205 54.7205 24.2613 66.4162 17.3516C70.048 15.2114 73.0027 12.2763 75.0341 9.03546C63.7077 0.352433 47.3337 -0.870529 33.7298 7.20102Z" fill="#CB5757"/>
<path d="M66.4779 17.4738C54.7206 24.4446 39.7624 21.1426 33.1759 10.136C32.8065 9.58566 32.4988 8.97417 32.1294 8.17925L32.0679 8.1181L32.191 8.05695C32.3757 7.93466 32.4988 7.81236 32.6834 7.75121C32.9912 7.56777 33.299 7.32318 33.6683 7.13973C40.2549 3.22625 47.7647 1.39181 55.2746 1.7587C62.5998 2.12559 69.4941 4.63266 75.1573 8.97417L75.2804 9.03532L75.2189 9.15762C73.0028 12.4596 69.9866 15.3947 66.4779 17.4738ZM32.4372 8.2404C32.745 8.91303 33.0528 9.52451 33.4221 10.0748C39.9471 20.9592 54.7206 24.2001 66.3548 17.2903C69.8019 15.2113 72.7566 12.3985 74.9111 9.09647C63.3385 0.291147 46.8414 -0.381483 33.7914 7.32318C33.4837 7.50662 33.1759 7.75121 32.8681 7.93466C32.6834 8.05695 32.5603 8.1181 32.4372 8.2404Z" fill="#1C2777"/>
<g opacity="0.2">
<g opacity="0.2">
<g opacity="0.2">
<path opacity="0.2" fill-rule="evenodd" clip-rule="evenodd" d="M16.6172 46.3969C17.3559 49.76 18.6485 53.062 20.5568 56.1806C30.4674 72.6905 52.6892 77.6435 70.2327 67.3095C83.4058 59.5437 90.1154 45.2962 88.515 31.7213C86.7914 42.6668 81.9285 55.8137 69.3094 62.4788C47.5185 73.8524 27.6973 64.9859 17.2943 47.6198C17.0481 47.2529 16.8634 46.8249 16.6172 46.3969Z" fill="#1C2777"/>
</g>
</g>
</g>
<path d="M70.0481 67.921C52.0736 78.5607 29.1131 73.4243 18.9563 56.4863C8.79955 39.5482 15.0783 17.0457 33.1143 6.40598C51.1503 -4.23379 74.0493 0.902652 84.2061 17.8407C94.3628 34.7787 88.0225 57.2812 70.0481 67.921ZM34.1608 8.11813C17.1712 18.2076 11.1387 39.4259 20.7415 55.4468C30.3443 71.4676 52.0121 76.2982 69.0016 66.2088C85.9912 56.1194 92.0237 34.901 82.4209 18.8802C72.8181 2.85939 51.1503 -1.91016 34.1608 8.11813Z" fill="#1F1F1F"/>
<path fill-rule="evenodd" clip-rule="evenodd" d="M29.3594 46.5193C24.9274 34.2896 32.4372 19.0638 46.2874 14.2942C60.1376 9.52467 76.9425 14.2331 81.6823 27.5634C86.6684 41.5663 76.6962 55.6303 62.7845 60.3999C48.8728 65.1694 33.7915 58.7489 29.3594 46.5193Z" fill="#2A2A2A"/>
<g opacity="0.2">
<g opacity="0.2">
<g opacity="0.2">
<g opacity="0.2">
<path opacity="0.2" fill-rule="evenodd" clip-rule="evenodd" d="M27.9436 39.4259C27.9436 41.8718 28.3745 44.2566 29.2363 46.5802C33.6683 58.8098 48.8112 65.2304 62.7229 60.4608C75.7729 55.997 85.3757 43.3394 82.3594 30.2537C82.5441 41.6884 73.68 52.0224 62.1689 55.9359C48.3188 60.7054 33.1143 54.2849 28.6823 42.0552C28.3745 41.1992 28.1898 40.3431 27.9436 39.4259Z" fill="#2B3B68"/>
</g>
</g>
</g>
<g opacity="0.2">
<g opacity="0.2">
<g opacity="0.2">
<path opacity="0.2" d="M68.8786 57.8316C66.9704 58.9322 64.939 59.9106 62.7846 60.6444C56.0749 62.968 48.8113 62.7234 42.3479 60.0329C35.946 57.3424 31.2677 52.5728 29.1132 46.6415C28.313 44.379 27.8821 41.9331 27.8206 39.426V38.0807L28.1283 39.3648C28.313 40.2821 28.5592 41.1381 28.867 41.9331C33.2375 54.1015 48.5035 60.4609 62.169 55.7525C74.1109 51.6556 82.421 41.1381 82.2364 30.1926V28.9085L82.5441 30.1926C83.9599 36.4297 82.6057 42.9726 78.7276 48.6593C76.1423 52.3894 72.8182 55.5079 68.8786 57.8316ZM28.1283 40.7712C28.2515 42.7891 28.6823 44.6847 29.3595 46.5803C33.73 58.7488 48.9959 65.1082 62.6614 60.3998C64.8775 59.666 66.9088 58.6876 68.8171 57.5258C78.543 51.7779 84.083 41.5662 82.421 31.599C81.9286 42.1776 73.8031 52.1448 62.169 56.1194C55.4594 58.443 48.1957 58.1984 41.7323 55.5079C35.3304 52.8174 30.5906 48.0479 28.4361 42.1165C28.4361 41.6885 28.313 41.1993 28.1283 40.7712Z" fill="#1C2777"/>
</g>
</g>
</g>
</g>
<path d="M69.371 58.5041C67.4011 59.6659 65.3698 60.6443 63.2153 61.378C56.2594 63.7628 48.8111 63.5182 42.1631 60.7666C35.515 58.0149 30.652 53.0619 28.3744 46.8248C26.22 40.8934 26.7124 33.9225 29.7287 27.7466C33.0527 20.9591 38.9621 15.7004 45.9795 13.3156C53.0585 10.8697 60.9993 10.8086 67.7705 13.1933C75.0341 15.7004 80.328 20.7146 82.6671 27.2574C84.8216 33.3111 84.4523 39.6705 81.5591 45.6018C79.0969 50.7994 74.7264 55.3855 69.371 58.5041ZM30.3442 46.1522C34.5916 57.8926 49.3036 63.9463 62.5382 59.4213C70.1096 56.8531 76.5115 51.2886 79.774 44.6846C82.4209 39.2424 82.7902 33.4334 80.8204 27.8689C76.019 14.4774 59.3988 10.8697 46.7182 15.2112C40.1932 17.4737 34.7147 22.3656 31.6985 28.6027C28.8669 34.3506 28.3744 40.71 30.3442 46.1522Z" fill="#1F1F1F"/>
<path fill-rule="evenodd" clip-rule="evenodd" d="M9.96925 45.6018C8.67657 39.487 11.2004 33.8002 15.5709 32.883C19.9414 31.9658 24.5581 36.185 25.8508 42.2998C27.1435 48.4146 24.6197 54.1014 20.2492 55.0186C15.8787 55.9358 11.2619 51.7166 9.96925 45.6018Z" fill="#5CABF9"/>
<g opacity="0.6">
<g opacity="0.6">
<g opacity="0.6">
<path opacity="0.6" fill-rule="evenodd" clip-rule="evenodd" d="M14.2166 33.6779C10.831 35.4512 9.04589 40.5265 10.1539 45.8464C10.3386 46.6413 10.5232 47.3751 10.7695 48.0477C9.66145 42.0552 12.1237 36.5519 16.4326 35.6346C20.2491 34.8397 24.2503 37.9583 26.097 42.8501C26.097 42.7278 26.097 42.6667 26.0354 42.5444C24.7428 36.4296 20.126 32.2104 15.7555 33.1276C15.2015 33.2499 14.7091 33.4333 14.2166 33.6779Z" fill="#FCFCFC"/>
</g>
</g>
</g>
<path fill-rule="evenodd" clip-rule="evenodd" d="M9.78441 45.1126C9.10729 41.0769 10.4615 37.836 12.7391 37.8972C15.0167 37.9583 17.4174 41.3214 18.0945 45.3572C18.7716 49.393 17.4174 52.6338 15.1398 52.5727C12.8622 52.5115 10.4615 49.1484 9.78441 45.1126Z" fill="white"/>
<g opacity="0.2">
<g opacity="0.2">
<g opacity="0.2">
<path opacity="0.2" fill-rule="evenodd" clip-rule="evenodd" d="M9.53833 43.6451C9.59989 44.3177 9.66144 44.9904 9.84611 45.7241C11.1388 51.8389 15.7555 56.0582 20.126 55.1409C24.4965 54.1626 26.9588 48.4758 25.6661 42.361C25.4814 41.3826 25.1736 40.5265 24.8043 39.6705C25.2352 44.9292 22.8345 49.5153 18.8949 50.3714C15.2631 51.1663 11.385 48.2312 9.53833 43.6451Z" fill="#1C2777"/>
</g>
</g>
</g>
<path d="M22.5882 55.2021C21.9111 55.569 21.2339 55.8747 20.4953 55.997C15.5708 57.0365 10.4 52.4504 8.98423 45.7853C8.30711 42.6056 8.55334 39.4259 9.72291 36.8576C10.8925 34.1671 12.9238 32.3327 15.3861 31.8435C17.8483 31.3543 20.4337 32.1492 22.5882 34.1671C24.6811 36.0627 26.22 38.8755 26.8971 42.0552C28.0667 47.6809 26.1584 53.0619 22.5882 55.2021ZM10.954 45.3572C12.1852 50.9217 16.2479 54.774 20.0644 53.9791C20.6184 53.8568 21.1108 53.6734 21.6033 53.3676C24.4349 51.6555 25.9122 47.1917 24.8658 42.4221C24.3118 39.6705 22.9575 37.2245 21.1724 35.6347C19.5104 34.106 17.5406 33.4334 15.7554 33.8002C13.9703 34.1671 12.4929 35.5124 11.5696 37.6526C10.5847 39.915 10.4 42.6056 10.954 45.3572Z" fill="#1F1F1F"/>
<path fill-rule="evenodd" clip-rule="evenodd" d="M33.73 7.20102C33.2376 7.50676 32.7451 7.8125 32.2527 8.17939C32.5605 8.85202 32.8682 9.4635 33.2991 10.075C37.485 17.107 45.0564 20.9593 52.9972 21.0205C57.4908 21.0816 62.1691 19.8587 66.3549 17.3516C69.9867 15.2114 72.9414 12.2763 74.9728 9.03546C63.708 0.352433 47.334 -0.870528 33.73 7.20102Z" fill="#5CABF9"/>
<path d="M16.9251 53.1232C16.3711 53.429 15.8171 53.6124 15.14 53.5513C12.3084 53.4901 9.53835 49.8212 8.79968 45.2351C8.30723 42.2389 8.79968 39.5484 10.1539 38.0197C10.8926 37.2247 11.8159 36.7967 12.8624 36.7967C15.694 36.8578 18.464 40.5267 19.2027 45.1128C19.6951 48.1091 19.2027 50.7996 17.8485 52.3283C17.5407 52.6952 17.2329 52.9398 16.9251 53.1232ZM10.831 44.9294C11.4466 48.7817 13.6626 51.5334 15.2015 51.5334C15.6324 51.5334 15.9402 51.3499 16.248 51.0442C17.1713 50.0047 17.4791 47.8645 17.1098 45.4797C16.4942 41.6274 14.2782 38.8757 12.7393 38.8757C12.3084 38.8757 12.0006 39.0592 11.6928 39.3649C10.7695 40.4044 10.4617 42.6058 10.831 44.9294Z" fill="#1F1F1F"/>
<g opacity="0.2">
<g opacity="0.2">
<g opacity="0.2">
<path opacity="0.2" fill-rule="evenodd" clip-rule="evenodd" d="M105.012 40.4655C104.704 41.1993 96.3326 65.4751 82.0516 73.1797L81.4976 80.1506C98.1178 69.4497 105.812 51.4722 105.012 40.4655Z" fill="#1C2777"/>
</g>
</g>
</g>
<g opacity="0.2">
<g opacity="0.2">
<g opacity="0.2">
<path opacity="0.2" fill-rule="evenodd" clip-rule="evenodd" d="M2.95166 122.71C3.50567 122.465 20.0028 114.699 27.2664 103.876C28.3744 102.225 30.2827 101.308 32.2525 101.369C33.1143 101.43 33.6067 102.409 33.1143 103.081C24.0039 115.739 11.1387 122.526 2.95166 122.71Z" fill="#1C2777"/>
</g>
</g>
</g>
<g opacity="0.2">
<g opacity="0.2">
<g opacity="0.2">
<g opacity="0.2">
<path opacity="0.2" fill-rule="evenodd" clip-rule="evenodd" d="M32.2527 8.11799C32.2527 8.11799 52.0738 31.1708 73.4954 7.7511L74.9112 9.09636C74.9112 9.09636 72.5105 14.4774 65.6162 17.8405C56.2597 22.4266 40.8706 23.7719 32.2527 8.11799Z" fill="#2B3B68"/>
</g>
</g>
</g>
<g opacity="0.2">
<g opacity="0.2">
<g opacity="0.2">
<path opacity="0.2" d="M67.2167 17.1068C66.7242 17.4126 66.1702 17.6572 65.6162 17.9629C60.1992 20.6534 53.982 21.6318 48.5651 20.7146C41.5477 19.4916 35.946 15.2724 32.0064 8.17921L31.3909 7.0174L32.2527 7.99576C32.4373 8.11806 40.9937 17.9018 52.7509 18.0852C60.0146 18.2075 66.9704 14.6609 73.4338 7.62888L73.557 7.50658L75.0959 9.03528L75.0343 9.09643C74.9728 9.15758 72.8798 13.7437 67.2167 17.1068ZM32.9298 9.03528C41.363 23.0993 55.6441 22.549 65.5546 17.7183C71.8334 14.6609 74.4188 9.76906 74.7265 9.09643L73.4954 7.93462C67.032 14.9666 60.0146 18.5132 52.6894 18.3909C42.9019 18.2075 35.3305 11.4201 32.9298 9.03528Z" fill="#1C2777"/>
</g>
</g>
</g>
</g>
<path d="M101.873 54.1627C99.0411 55.8748 96.148 56.4251 93.3779 55.9359C87.8379 54.9576 84.5754 50.0657 84.3907 49.8211C84.0829 49.332 84.206 48.7205 84.6985 48.4147C85.1909 48.109 85.8065 48.2313 86.1143 48.7205C86.1758 48.7816 89.069 53.1231 93.7473 53.9181C96.5173 54.4072 99.472 53.5512 102.365 51.3498C102.796 50.983 103.473 51.1052 103.781 51.5333C104.15 51.9613 104.027 52.634 103.596 52.9397C103.042 53.4289 102.427 53.8569 101.873 54.1627Z" fill="#1F1F1F"/>
<path d="M31.6986 102.775C30.6521 103.998 29.6672 105.221 28.4976 106.383C25.9738 109.013 23.3885 111.581 20.6184 113.966C19.8797 114.638 19.0795 115.311 18.2793 115.922C18.0946 116.045 17.9099 116.228 17.7253 116.35C17.6022 116.411 17.5406 116.534 17.4175 116.595C17.3559 116.656 17.3559 116.656 17.2944 116.717C17.2328 116.717 17.2328 116.778 17.1713 116.778C17.2328 116.717 17.2944 116.717 17.2328 116.778C16.8635 117.084 16.4326 117.39 16.0633 117.696C14.5859 118.796 12.9854 119.775 11.385 120.631C11.0156 120.814 10.6463 120.998 10.277 121.181C10.2154 121.181 9.96918 121.303 10.0923 121.242C10.2154 121.181 9.96918 121.303 9.90762 121.303C9.72295 121.364 9.53828 121.426 9.35361 121.487C8.6765 121.731 7.99938 121.915 7.2607 122.037C7.01447 122.098 7.44537 122.037 7.19914 122.037C7.13759 122.037 7.01447 122.037 6.95292 122.037C6.76825 122.037 6.64514 122.037 6.46047 122.037C6.2758 122.037 6.15269 122.037 5.96802 122.037C5.90646 122.037 5.8449 122.037 5.78335 122.037C5.72179 122.037 5.72179 122.037 5.66024 122.037C5.47557 122.037 5.90646 122.098 5.72179 122.037C5.41401 121.976 5.16778 121.915 4.86 121.854C4.79845 121.854 4.73689 121.792 4.67533 121.792C4.55222 121.731 4.92156 121.915 4.67533 121.792C4.55222 121.731 4.42911 121.67 4.24444 121.548C4.12133 121.487 3.99821 121.364 3.8751 121.303C3.75199 121.242 4.05977 121.487 3.8751 121.303C3.81355 121.303 3.81355 121.242 3.75199 121.242C3.69043 121.181 3.56732 121.12 3.50576 121.059C3.38265 120.936 3.25954 120.814 3.13643 120.692C3.13643 120.631 3.13643 120.57 3.07487 120.508C3.07487 120.508 3.19798 120.692 3.13643 120.569C3.07487 120.508 3.01331 120.386 2.95176 120.325C2.82864 120.203 2.76709 120.019 2.70553 119.897C2.64398 119.836 2.64398 119.713 2.58242 119.652C2.45931 119.408 2.64398 119.836 2.52086 119.53C2.39775 119.163 2.27464 118.796 2.21308 118.429C2.21308 118.368 2.15152 118.246 2.15152 118.185C2.15152 118.124 2.15152 118.124 2.15152 118.062C2.08997 117.818 2.15152 118.246 2.15152 118.124C2.15152 117.94 2.08997 117.696 2.08997 117.512C2.08997 117.084 2.08997 116.656 2.08997 116.289C2.08997 116.106 2.08997 115.922 2.15152 115.739C2.15152 115.678 2.21308 115.372 2.15152 115.494C2.15152 115.678 2.15152 115.433 2.15152 115.433C2.15152 115.372 2.15152 115.311 2.21308 115.188C2.27464 114.76 2.39775 114.271 2.45931 113.843C2.70553 112.865 3.01331 111.948 3.32109 110.969C3.50576 110.48 3.69043 109.991 3.8751 109.502C3.93666 109.379 3.99821 109.257 3.99821 109.135C3.99821 109.074 4.05977 108.951 3.99821 109.135C3.99821 109.074 4.05977 109.013 4.05977 108.951C4.18288 108.707 4.306 108.462 4.42911 108.156C5.2909 106.261 6.2758 104.365 7.32226 102.531C8.86116 99.9014 10.5232 97.3332 12.2468 94.765C13.5394 92.8083 14.8937 90.8515 16.2479 88.9559C18.8333 85.3482 21.3571 82.0462 24.1271 78.6831C25.4814 77.0321 26.8972 75.3811 28.3745 73.7912C28.9901 73.1186 29.6672 72.446 30.3443 71.8345C30.6521 71.5287 30.9599 71.2841 31.2677 71.0395C31.3908 70.9173 31.5755 70.795 31.6986 70.6727C31.7601 70.6115 31.8217 70.5504 31.8832 70.5504C31.9448 70.4892 32.191 70.3058 31.9448 70.4892C32.3757 70.1835 32.8681 69.8166 33.3606 69.572C33.853 69.3274 33.9761 68.6548 33.7299 68.2267C33.4221 67.7376 32.8681 67.6153 32.3757 67.8598C31.083 68.4713 30.0365 69.4497 28.9901 70.4281C27.5127 71.8345 26.1585 73.302 24.8658 74.8307C21.8496 78.3162 18.9564 82.0462 16.1864 85.7762C14.4012 88.2222 12.5545 90.6069 10.9541 93.1752C9.59984 95.3153 8.18404 97.3944 6.89136 99.5346C4.67533 103.203 2.58242 106.995 1.22818 111.03C0.120166 114.271 -0.803179 118.552 1.41285 121.548C2.33619 122.771 3.62888 123.688 5.16778 123.933C6.64514 124.177 8.18404 123.933 9.59984 123.443C13.2317 122.221 16.4326 119.897 19.3873 117.512C22.4651 115.066 25.3583 112.376 28.1283 109.563C29.7903 107.912 31.4523 106.2 32.9912 104.426C33.0528 104.365 33.1144 104.243 33.2375 104.182C33.6068 103.754 33.6684 103.203 33.2375 102.775C32.8681 102.409 32.0063 102.409 31.6986 102.775Z" fill="#1F1F1F"/>
<path d="M24.2503 112.009C23.6963 110.908 22.8961 109.869 22.0958 108.951C20.1876 106.628 17.7869 104.671 15.2015 103.203C13.1086 101.981 10.8926 101.063 8.61501 100.33C7.38388 99.9626 6.82988 101.858 8.061 102.225C10.0308 102.837 11.8775 103.632 13.6626 104.61C14.4629 105.038 15.2015 105.527 15.9402 106.016C16.248 106.261 16.5558 106.444 16.8636 106.689C16.7404 106.567 16.9867 106.75 16.9867 106.75C17.0482 106.811 17.1098 106.872 17.2329 106.934C17.356 107.056 17.5407 107.178 17.6638 107.3C18.6487 108.156 19.6336 109.074 20.4954 110.052C20.68 110.236 20.8032 110.419 20.9878 110.602C21.0494 110.664 21.0494 110.725 21.1109 110.725C21.2341 110.908 20.9878 110.541 21.1109 110.725C21.1725 110.847 21.2956 110.908 21.3572 111.03C21.6034 111.336 21.7881 111.642 21.9727 111.948C22.1574 112.253 22.4036 112.62 22.5267 112.926C22.773 113.415 23.4501 113.538 23.881 113.293C24.3734 113.109 24.4965 112.498 24.2503 112.009Z" fill="#1F1F1F"/>
<g opacity="0.6">
<g opacity="0.6">
<g opacity="0.6">
<path opacity="0.6" fill-rule="evenodd" clip-rule="evenodd" d="M33.5452 7.20088C33.0527 7.50662 32.5603 7.81236 32.1294 8.17925C32.4372 8.85188 32.745 9.46336 33.1143 10.0748C33.2374 10.2583 33.3605 10.4417 33.4836 10.6252C36.9923 8.48499 41.1782 6.77285 45.918 5.67218C47.7647 5.24414 49.4883 5.0607 51.2119 4.9384C51.335 5.67218 53.1817 6.34481 55.4592 6.40596C57.6753 6.46711 59.4604 5.97792 59.7682 5.30529C65.2467 6.22251 69.8634 8.3627 73.6184 10.6252C73.9877 10.0748 74.4186 9.58566 74.7879 9.03533C74.1108 8.48499 73.3721 7.99581 72.6335 7.50662C70.4174 6.03907 68.0167 4.87726 65.4929 4.02118C64.6927 3.71544 63.954 3.47085 63.1538 3.28741C63.0307 3.22626 62.846 3.22626 62.7229 3.16511C61.9227 2.98167 61.184 2.73707 60.3838 2.61478C60.3222 2.61478 60.3222 2.61478 60.2606 2.61478C58.8448 2.30904 57.4291 2.18674 55.9517 2.06444C55.5824 2.06444 55.213 2.0033 54.8437 2.0033C54.2897 2.0033 53.7357 2.0033 53.1817 2.0033C52.6892 2.0033 52.1968 2.0033 51.7043 2.0033C51.1503 2.0033 50.5347 2.06444 49.9807 2.12559C49.4883 2.18674 48.9958 2.24789 48.5034 2.30904C48.0109 2.37018 47.4569 2.43133 46.9645 2.49248C45.9796 2.67592 44.9947 2.85937 44.0098 3.10396C43.6404 3.16511 43.3326 3.28741 42.9633 3.4097C42.2246 3.59315 41.486 3.83774 40.8088 4.08233C40.3779 4.20463 40.0086 4.38807 39.5777 4.51037C38.9006 4.75496 38.2235 5.0607 37.6079 5.30529C37.2386 5.48874 36.8692 5.61103 36.5615 5.79448C35.515 6.10022 34.5301 6.5894 33.5452 7.20088Z" fill="#FCFCFC"/>
</g>
</g>
</g>
<path d="M66.9088 18.2687C54.7207 25.4842 39.27 22.0599 32.3757 10.6252C32.0064 10.0137 31.6986 9.40225 31.3293 8.60733C31.0831 8.11814 31.2677 7.62896 31.6986 7.32322C31.8833 7.20092 32.0064 7.07862 32.1911 7.01748C32.4988 6.77288 32.8682 6.58944 33.176 6.34485C39.9472 2.37022 47.5801 0.413482 55.2747 0.841519C62.7846 1.20841 69.8635 3.77663 75.6498 8.24044C76.0807 8.54618 76.2038 9.15766 75.8961 9.5857C73.68 13.0711 70.6022 16.0674 66.9088 18.2687ZM33.6069 8.48503C33.7915 8.85192 33.9762 9.21881 34.1609 9.52455C40.4396 19.9809 54.6591 23.0994 65.8624 16.4343C68.9402 14.5998 71.6487 12.0928 73.6185 9.21881C62.4152 1.14726 46.7184 0.658074 34.2224 8.05699C34.0378 8.24044 33.7915 8.36273 33.6069 8.48503Z" fill="#1F1F1F"/>
</svg>
