<svg id="Capa_1" data-name="Capa 1" xmlns="http://www.w3.org/2000/svg" viewBox="0 0 101.45 88.17"><defs><style>.cls-1{fill:#5cabf9;}.cls-1,.cls-11,.cls-12,.cls-3,.cls-6,.cls-8,.cls-9{fill-rule:evenodd;}.cls-11,.cls-2,.cls-3,.cls-4{opacity:0.2;}.cls-3{fill:#2b3b68;}.cls-11,.cls-3,.cls-4,.cls-6{isolation:isolate;}.cls-10,.cls-11,.cls-4{fill:#1c2777;}.cls-5,.cls-6{opacity:0.6;}.cls-6{fill:#fcfcfc;}.cls-7{fill:#1f1f1f;}.cls-8{fill:#fff;}.cls-9{fill:#cb5757;}.cls-12{fill:#2a2a2a;}</style></defs><path class="cls-1" d="M76.09,41.11C74.8,35,77.33,29.3,81.7,28.39s9,3.3,10.28,9.41-1.23,11.81-5.61,12.72S77.39,47.22,76.09,41.11Z"/><g class="cls-2"><g class="cls-2"><g class="cls-2"><g class="cls-2"><path class="cls-3" d="M75.91,40.19a2.54,2.54,0,0,1,.06.67C77.26,47,81.88,51.2,86.25,50.28s6.9-6.61,5.6-12.72a16,16,0,0,0-1.72-4.46c1,5.87-1.48,11.19-5.66,12C81.27,45.81,77.94,43.74,75.91,40.19Z"/></g></g></g><g class="cls-2"><g class="cls-2"><g class="cls-2"><path class="cls-4" d="M88.16,49.73a5.2,5.2,0,0,1-1.91.73c-4.43.92-9.11-3.36-10.46-9.54,0-.12-.06-.24-.06-.36a.49.49,0,0,0-.07-.31l-.12-.73.37.67c2.09,3.61,5.42,5.5,8.37,4.89,4.13-.86,6.59-6.11,5.6-11.92l-.12-.74.37.68a16.51,16.51,0,0,1,1.78,4.52A14.13,14.13,0,0,1,91.24,46,7.56,7.56,0,0,1,88.16,49.73ZM76.09,40.86c1.3,6,5.85,10.21,10.1,9.36a7,7,0,0,0,4.86-4.34,13.7,13.7,0,0,0,.68-8.26,16.77,16.77,0,0,0-1.35-3.79c.67,5.69-1.85,10.64-5.91,11.5C81.51,45.88,78.31,44.16,76.09,40.86Z"/></g></g></g></g><g class="cls-5"><g class="cls-5"><g class="cls-5"><path class="cls-6" d="M80.34,28.51a7.94,7.94,0,0,0-2.58,2.38c8.86-1.52,13,3.43,13.91,4.65C89.94,30.4,85.82,27.1,81.88,28A7.3,7.3,0,0,0,80.34,28.51Z"/></g></g></g><path class="cls-7" d="M88.71,50.71a6.72,6.72,0,0,1-2.09.79c-4.92,1-10.09-3.55-11.51-10.21s1.48-12.9,6.4-13.94S91.61,30.89,93,37.56C94.19,43.25,92.35,48.57,88.71,50.71ZM77.14,40.92c1.17,5.57,5.23,9.42,9,8.62a4.64,4.64,0,0,0,1.54-.61C90.56,47.22,92,42.76,91,38c-1.17-5.57-5.23-9.42-9-8.62S76,35.36,77.14,40.92Z"/><path class="cls-8" d="M18.85,63.18C8.94,46.67,15.09,24.84,32.64,14.51S72.4,9.13,82.31,25.64,86.07,64,68.52,74.31,28.82,79.75,18.85,63.18Z"/><g class="cls-5"><g class="cls-5"><g class="cls-5"><path class="cls-6" d="M32.76,14.45A37.5,37.5,0,0,0,15,39,41.47,41.47,0,0,1,45.13,12.92a34.06,34.06,0,0,1,5.3-.74c.12.74,2,1.41,4.24,1.47s4-.43,4.31-1.1c13.05,2.2,21.61,11.07,23.33,13C72.52,9.06,50.24,4.05,32.76,14.45Z"/></g></g></g><path class="cls-9" d="M32.76,14.45c-.49.3-1,.61-1.48,1a11.34,11.34,0,0,0,1,1.9c6.58,10.94,21.42,14.19,33.12,7.28a25.45,25.45,0,0,0,8.61-8.32C62.74,7.6,46.36,6.37,32.76,14.45Z"/><path class="cls-10" d="M65.51,24.72c-11.76,7-26.72,3.67-33.3-7.34a13.91,13.91,0,0,1-1.05-2l-.06-.06.12-.06a2.16,2.16,0,0,1,.49-.3c.31-.19.62-.43,1-.62A38.63,38.63,0,0,1,54.3,9a35.53,35.53,0,0,1,19.89,7.22l.12.06-.06.12A27.71,27.71,0,0,1,65.51,24.72Zm-34-9.24a11.8,11.8,0,0,0,1,1.84C39,28.2,53.75,31.44,65.38,24.53a26.51,26.51,0,0,0,8.56-8.19c-11.57-8.8-28.07-9.48-41.12-1.77-.31.18-.61.43-.92.61A2.28,2.28,0,0,0,31.47,15.48Z"/><g class="cls-2"><g class="cls-2"><g class="cls-2"><path class="cls-11" d="M15.65,53.64a31.65,31.65,0,0,0,3.94,9.78C29.5,79.93,51.72,84.89,69.26,74.55c13.18-7.76,19.88-22,18.28-35.58C85.82,49.91,81,63.06,68.34,69.72c-21.79,11.38-41.61,2.51-52-14.86C16.08,54.5,15.89,54.07,15.65,53.64Z"/></g></g></g><path class="cls-7" d="M69.08,75.17C51.1,85.8,28.14,80.67,18,63.73S14.11,24.29,32.14,13.65s40.94-5.5,51.1,11.43S87.05,64.53,69.08,75.17ZM33.19,15.36c-17,10.09-23,31.31-13.42,47.33S51,83.54,68,73.45s23-31.3,13.42-47.33S50.18,5.33,33.19,15.36Z"/><path class="cls-12" d="M28.39,53.76C24,41.53,31.47,26.31,45.32,21.54S76,21.48,80.71,34.81c5,14-5,28.06-18.9,32.83S32.82,66,28.39,53.76Z"/><g class="cls-2"><g class="cls-2"><g class="cls-2"><g class="cls-2"><path class="cls-3" d="M27,46.67a20.19,20.19,0,0,0,1.3,7.15C32.7,66.05,47.84,72.47,61.75,67.71c13-4.47,22.65-17.13,19.64-30.21.18,11.43-8.68,21.77-20.19,25.68C47.35,68,32.14,61.53,27.71,49.3,27.4,48.44,27.22,47.59,27,46.67Z"/></g></g></g><g class="cls-2"><g class="cls-2"><g class="cls-2"><path class="cls-4" d="M67.91,65.08a34.92,34.92,0,0,1-6.1,2.81,28.71,28.71,0,0,1-20.43-.61A23.31,23.31,0,0,1,28.14,53.89a23.41,23.41,0,0,1-1.29-7.22V45.32l.31,1.29a15.1,15.1,0,0,0,.74,2.57C32.27,61.35,47.53,67.71,61.2,63c11.94-4.1,20.25-14.62,20.07-25.56V36.15l.3,1.29A23.36,23.36,0,0,1,77.76,55.9,31.44,31.44,0,0,1,67.91,65.08ZM27.16,48a20.57,20.57,0,0,0,1.23,5.8C32.76,66,48,72.35,61.69,67.64a29.66,29.66,0,0,0,6.16-2.87c9.72-5.75,15.26-16,13.6-25.93C81,49.42,72.83,59.39,61.2,63.36a28.68,28.68,0,0,1-20.44-.61A23.37,23.37,0,0,1,27.47,49.36,3.58,3.58,0,0,0,27.16,48Z"/></g></g></g></g><path class="cls-7" d="M68.4,65.75a32.84,32.84,0,0,1-6.16,2.87A29.69,29.69,0,0,1,41.19,68,24.08,24.08,0,0,1,27.4,54.07,24.68,24.68,0,0,1,28.76,35,28.44,28.44,0,0,1,45,20.56a33.62,33.62,0,0,1,21.79-.12C74.06,22.94,79.36,28,81.7,34.5a23.3,23.3,0,0,1-1.11,18.35A30.4,30.4,0,0,1,68.4,65.75Zm-39-12.35c4.25,11.74,19,17.79,32.2,13.27A30.31,30.31,0,0,0,78.8,51.93a21.36,21.36,0,0,0,1-16.82c-4.8-13.39-21.42-17-34.1-12.65a26.4,26.4,0,0,0-15,13.39A22.56,22.56,0,0,0,29.37,53.4Z"/><path class="cls-1" d="M9,52.85C7.71,46.73,10.23,41,14.6,40.13s9,3.3,10.28,9.41-1.23,11.81-5.6,12.72S10.29,59,9,52.85Z"/><g class="cls-5"><g class="cls-5"><g class="cls-5"><path class="cls-6" d="M13.25,40.92C9.86,42.7,8.08,47.77,9.18,53.09a18.72,18.72,0,0,0,.62,2.2c-1.11-6,1.35-11.49,5.66-12.41,3.82-.8,7.82,2.32,9.67,7.21a.48.48,0,0,0-.07-.3c-1.29-6.12-5.9-10.34-10.28-9.42A6.64,6.64,0,0,0,13.25,40.92Z"/></g></g></g><path class="cls-8" d="M8.81,52.36c-.67-4,.68-7.28,3-7.22s4.68,3.43,5.35,7.46-.67,7.28-3,7.22S9.49,56.39,8.81,52.36Z"/><g class="cls-2"><g class="cls-2"><g class="cls-2"><path class="cls-11" d="M8.57,50.89A12.48,12.48,0,0,0,8.88,53c1.29,6.11,5.9,10.33,10.28,9.42S26,55.72,24.7,49.61a12.92,12.92,0,0,0-.87-2.7c.43,5.26-2,9.85-5.91,10.71C14.29,58.41,10.41,55.48,8.57,50.89Z"/></g></g></g><path class="cls-7" d="M21.62,62.45a6.87,6.87,0,0,1-2.1.79C14.6,64.28,9.43,59.69,8,53a14.54,14.54,0,0,1,.74-8.93,8.06,8.06,0,0,1,5.67-5,8.14,8.14,0,0,1,7.2,2.32,14.88,14.88,0,0,1,4.31,7.89C27.1,54.93,25.19,60.31,21.62,62.45ZM10,52.6c1.23,5.57,5.3,9.42,9.11,8.62a4.56,4.56,0,0,0,1.54-.61c2.83-1.71,4.31-6.17,3.27-10.94a12.44,12.44,0,0,0-3.7-6.79A6.28,6.28,0,0,0,14.78,41,6.05,6.05,0,0,0,10.6,44.9,12.91,12.91,0,0,0,10,52.6Z"/><path class="cls-1" d="M32.76,14.45c-.49.3-1,.61-1.48,1a11.34,11.34,0,0,0,1,1.9A22.86,22.86,0,0,0,52,28.26,25.42,25.42,0,0,0,65.38,24.6,25.4,25.4,0,0,0,74,16.28C62.74,7.6,46.36,6.37,32.76,14.45Z"/><path class="cls-7" d="M16,60.37a3,3,0,0,1-1.78.43c-2.83-.07-5.6-3.73-6.34-8.32-.49-3,0-5.69,1.35-7.22A3.65,3.65,0,0,1,11.89,44c2.83.06,5.6,3.73,6.34,8.32.49,3,0,5.68-1.35,7.21A3.68,3.68,0,0,1,16,60.37Zm-6.09-8.2c.62,3.86,2.83,6.61,4.37,6.61a1.45,1.45,0,0,0,1-.49c.92-1,1.23-3.18.86-5.57-.62-3.85-2.83-6.6-4.37-6.6a1.41,1.41,0,0,0-1,.49C9.8,47.65,9.49,49.85,9.86,52.17Z"/><g class="cls-2"><g class="cls-2"><g class="cls-2"><g class="cls-2"><path class="cls-3" d="M31.28,15.36S51.1,38.42,72.52,15l1.42,1.34a20,20,0,0,1-9.29,8.74C55.29,29.67,39.9,31,31.28,15.36Z"/></g></g></g><g class="cls-2"><g class="cls-2"><g class="cls-2"><path class="cls-4" d="M66.25,24.35c-.5.31-1,.55-1.6.86A28.58,28.58,0,0,1,47.59,28C40.58,26.74,35,22.52,31,15.42l-.62-1.16.86,1c.19.12,8.74,9.91,20.5,10.09C59,25.45,66,21.91,72.46,14.87l.13-.12,1.54,1.53-.07.06A20.59,20.59,0,0,1,66.25,24.35ZM32,16.28C40.39,30.34,54.67,29.79,64.58,25a20.19,20.19,0,0,0,9.18-8.62l-1.24-1.16c-6.46,7-13.48,10.58-20.8,10.46C41.93,25.45,34.36,18.66,32,16.28Z"/></g></g></g></g><g class="cls-5"><g class="cls-5"><g class="cls-5"><path class="cls-6" d="M32.57,14.45a11.72,11.72,0,0,0-1.41,1,17.85,17.85,0,0,0,1,1.9l.37.55a42.24,42.24,0,0,1,12.44-5,32.79,32.79,0,0,1,5.29-.74c.12.74,2,1.41,4.25,1.47s4-.43,4.31-1.1a39.51,39.51,0,0,1,13.85,5.32c.37-.55.8-1,1.17-1.59-.68-.55-1.42-1-2.16-1.53a30.28,30.28,0,0,0-7.14-3.48,17.57,17.57,0,0,0-2.34-.74c-.12-.06-.3-.06-.43-.12-.8-.18-1.54-.43-2.34-.55h-.12A32.13,32.13,0,0,0,55,9.31c-.37,0-.74-.06-1.11-.06H50.73A16.57,16.57,0,0,0,49,9.37l-1.48.18L46,9.74c-1,.18-2,.36-3,.61a6.9,6.9,0,0,0-1,.3,22.52,22.52,0,0,0-2.15.68c-.43.12-.8.3-1.23.42-.68.25-1.36.55-2,.8-.37.18-.74.31-1,.49A11.8,11.8,0,0,0,32.57,14.45Z"/></g></g></g><path class="cls-7" d="M65.94,25.51C53.75,32.73,38.3,29.3,31.4,17.87a22,22,0,0,1-1-2,1,1,0,0,1,.37-1.28,2.22,2.22,0,0,1,.49-.31c.31-.24.68-.43,1-.67A39.22,39.22,0,0,1,54.3,8.09a36.11,36.11,0,0,1,20.38,7.39,1,1,0,0,1,.25,1.35A27.07,27.07,0,0,1,65.94,25.51Zm-33.3-9.78c.18.37.37.73.55,1,6.28,10.46,20.5,13.57,31.7,6.91a25,25,0,0,0,7.76-7.22C61.44,8.39,45.75,7.9,33.25,15.3A3.79,3.79,0,0,1,32.64,15.73Z"/></svg>