<?xml version="1.0" standalone="no"?>
<!DOCTYPE svg PUBLIC "-//W3C//DTD SVG 20010904//EN"
 "http://www.w3.org/TR/2001/REC-SVG-20010904/DTD/svg10.dtd">
<svg version="1.0" xmlns="http://www.w3.org/2000/svg"
 width="512.000000pt" height="512.000000pt" viewBox="0 0 512.000000 512.000000"
 preserveAspectRatio="xMidYMid meet">

<g transform="translate(0.000000,512.000000) scale(0.100000,-0.100000)"
fill="#F2F2F2" stroke="none">
<path d="M1320 3739 c-691 -452 -1210 -798 -1217 -811 -18 -33 -18 -738 -1
-760 21 -25 574 -378 593 -378 10 0 59 26 109 58 50 32 168 108 262 169 l171
111 354 -228 354 -227 5 -346 5 -347 25 -23 c53 -50 557 -367 584 -367 18 0
195 109 554 342 290 187 833 539 1207 781 374 241 686 446 693 455 9 12 12
107 12 398 0 327 -2 385 -15 398 -8 8 -297 196 -643 417 -345 222 -888 571
-1207 776 -453 292 -586 373 -610 372 -22 -1 -339 -203 -1235 -790z m2362 -80
c618 -397 1129 -726 1135 -733 10 -9 -18 -32 -128 -103 l-141 -92 -36 23 c-35
22 -325 210 -1684 1090 -296 192 -538 351 -538 355 0 5 258 179 267 181 1 0
507 -324 1125 -721z m-393 -279 c616 -399 1120 -728 1121 -733 0 -12 -234
-161 -255 -161 -11 0 -495 307 -1075 683 -580 377 -1086 704 -1124 729 l-69
44 129 84 c71 46 134 83 141 81 6 -1 515 -328 1132 -727z m-365 -275 c602
-390 1096 -712 1096 -715 0 -10 -245 -164 -260 -164 -12 1 -2227 1429 -2253
1453 -4 4 50 46 120 93 l128 86 36 -22 c20 -11 530 -340 1133 -731z m-428
-235 c621 -402 1130 -732 1132 -734 2 -2 -56 -43 -128 -90 l-131 -86 -452 293
c-249 161 -757 490 -1129 732 -373 241 -678 441 -678 444 0 5 248 170 257 171
1 0 509 -329 1129 -730z m-1023 151 c840 -544 1425 -923 1600 -1036 l169 -108
-129 -84 c-70 -46 -135 -82 -143 -80 -8 2 -260 163 -560 357 -300 194 -711
461 -915 593 -203 132 -463 300 -577 374 l-207 135 127 84 c70 46 131 84 135
84 5 0 230 -143 500 -319z m1094 -1220 c150 -97 273 -178 273 -181 0 -3 -61
-45 -135 -93 l-135 -89 -603 387 c-331 213 -842 541 -1134 729 -293 187 -533
343 -533 346 0 3 64 46 141 96 l141 91 857 -554 c471 -306 979 -635 1128 -732z
m2323 712 l0 -268 -1120 -725 c-617 -399 -1125 -727 -1130 -728 -7 -3 -9 89
-8 259 l3 263 1120 732 c616 403 1123 733 1128 733 4 1 7 -119 7 -266z m-4452
128 l192 -123 0 -260 c0 -209 -3 -259 -13 -256 -7 2 -97 57 -200 123 l-187
120 0 263 c0 145 4 262 8 260 5 -1 95 -59 200 -127z m507 -325 c83 -54 151
-100 152 -104 3 -7 -309 -212 -321 -212 -3 0 -6 95 -6 211 0 165 3 210 13 206
6 -2 80 -48 162 -101z m1360 -873 l184 -118 1 -269 0 -268 -27 18 c-16 10 -98
62 -183 117 -85 55 -163 106 -172 115 -16 14 -18 40 -18 275 0 225 2 258 15
253 8 -3 98 -58 200 -123z"/>
</g>
</svg>
