<?xml version="1.0" encoding="utf-8"?>
<!-- Svg Vector Icons : http://www.onlinewebfonts.com/icon -->
<!DOCTYPE svg PUBLIC "-//W3C//DTD SVG 1.1//EN" "http://www.w3.org/Graphics/SVG/1.1/DTD/svg11.dtd">
<svg version="1.1" xmlns="http://www.w3.org/2000/svg" xmlns:xlink="http://www.w3.org/1999/xlink" x="0px" y="0px" viewBox="0 0 1000 1000" enable-background="new 0 0 1000 1000" xml:space="preserve">
<metadata> Svg Vector Icons : http://www.onlinewebfonts.com/icon </metadata>
<g fill="#F2F2F2" stroke="none"><path d="M232,369.1l247.2,136.1l248.5-136.8L642.6,325l28.8-22.6c3.7-2.7,7-5.8,9.8-9.2L785,346.1c1.8,0.7,3.4,1.6,4.9,2.7l179,12.2v0c7.2,0.5,14.1,4.5,18.1,11.3c6.3,11,2.7,25.1-8.1,31.5L799.5,510.1v255.2h-0.1c0,8.2-4.3,16-11.8,20.2L491.7,948.5l0,0l-0.1,0.1l-0.1,0.1l-0.1,0.1l-0.2,0.1l-0.2,0.1l-0.2,0.1l-0.2,0.1l-0.2,0.1l0,0l-0.1,0.1l-0.2,0.1l-0.1,0.1l0,0l-0.2,0.1l-0.1,0.1l-0.1,0l-0.1,0l-0.2,0.1l-0.4,0.2l-0.2,0.1l-0.2,0.1l-0.2,0.1l-0.2,0.1l-0.1,0l-0.1,0l-0.2,0.1l-0.2,0.1h-0.1l-0.1,0l-0.2,0.1l-0.2,0.1l0,0l-0.2,0.1l-0.2,0.1l-0.1,0.1h-0.1l-0.2,0.1l-0.2,0.1l-0.1,0l-0.1,0l-0.2,0.1l-0.2,0l-0.1,0l-0.2,0l-0.2,0.1l-0.2,0h0l-0.2,0l-0.2,0.1l-0.1,0h-0.1l-0.2,0.1l-0.2,0l0,0l-0.1,0l-0.2,0l-0.2,0h0L483,952h-0.2l-0.1,0h-0.1l-0.2,0l-0.2,0l-0.1,0l-0.1,0l-0.2,0h-0.2l0,0l-0.2,0h-0.2l-0.2,0h0l-0.2,0l-0.2,0h-0.1h-0.1l-0.2,0h-0.2h-0.1h-0.1h-0.4h-0.5h-0.1h-0.1h-0.2l-0.2,0H478h-0.1l-0.2,0l-0.2,0h0l-0.2,0H477l-0.2,0l0,0h-0.2l-0.2,0l-0.1,0l-0.1,0l-0.2,0l-0.2,0h0l-0.2,0h-0.2l-0.2-0.1l0,0l-0.2,0l-0.2,0l-0.1,0l-0.1,0l-0.2,0l-0.2-0.1h-0.1l-0.1,0l-0.2-0.1l-0.2,0h0l-0.2,0l-0.2-0.1l-0.2,0l0,0l-0.2,0l-0.2-0.1l-0.1,0l-0.1,0l-0.2-0.1l-0.2-0.1h-0.1l-0.1-0.1l-0.2-0.1l-0.2-0.1l0,0l-0.2-0.1l-0.2-0.1l-0.1,0h-0.1l-0.2-0.1l-0.2-0.1l-0.1,0l-0.1,0l-0.2-0.1l-0.2-0.1l-0.2-0.1l-0.2-0.1l-0.4-0.2l-0.2-0.1l-0.1,0l-0.1,0l-0.2-0.1l-0.2-0.1l-0.1,0l-0.1-0.1l-0.2-0.1l-0.2-0.1l0,0l-0.2-0.1l-0.2-0.1l-0.2-0.1l-0.2-0.1l-0.2-0.1l-0.1-0.1l-0.1-0.1l-0.2-0.1l0,0L170.8,785.6c-7.6-4.2-11.8-12.1-11.8-20.2h-0.1V367.6c0-2,0.3-4,0.8-5.9L16.8,218.8c-9-8.9-9.1-23.5-0.3-32.6c2.2-2.3,4.8-4,7.5-5.1v0L334.1,49.5c8.8-3.7,18.5-1.4,24.8,5l0,0l34.9,35.4v37.5v13.9v13.9L337.5,98L73,210.2L193.8,331l124-57.7c2.7,10.7,8.8,20.5,18.1,27.7l14.6,11.4L232,369.1L232,369.1z M444.7,62.4c-9.1,0-16.6,7.5-16.6,16.8v164.6h-61.3v0.1c-4.9,0-9.8,2.2-13.1,6.5c-5.6,7.3-4.2,17.8,3,23.4l68.9,54l68.6,53.8c5.8,4.7,14.3,5,20.4,0.2l68.9-54l67.8-53.2c4.5-3,7.5-8.1,7.5-14c0-9.2-7.4-16.8-16.6-16.8h-61.4V79.1c0-9.3-7.4-16.8-16.5-16.8H444.7L444.7,62.4z M548.3,531.2l91.3,20.5L892,401.9l-104.6-7.1L548.3,531.2L548.3,531.2z M204.5,406.3v345.4l251.9,138.7V545C310,464.4,367.8,496.2,204.5,406.3z"/></g>
</svg>