<?xml version="1.0" standalone="no"?>
<!DOCTYPE svg PUBLIC "-//W3C//DTD SVG 20010904//EN"
 "http://www.w3.org/TR/2001/REC-SVG-20010904/DTD/svg10.dtd">
<svg version="1.0" xmlns="http://www.w3.org/2000/svg"
 width="512.000000pt" height="512.000000pt" viewBox="0 0 512.000000 512.000000"
 preserveAspectRatio="xMidYMid meet">

<g transform="translate(0.000000,512.000000) scale(0.100000,-0.100000)"
fill="#000000" stroke="none">
<path d="M2882 3730 c-60 -37 -80 -130 -41 -199 29 -53 75 -79 181 -105 201
-50 362 -152 487 -310 279 -350 250 -857 -65 -1173 -290 -291 -727 -344 -1087
-132 -93 54 -238 200 -296 297 -87 145 -141 365 -126 516 10 112 41 240 54
231 5 -3 39 -56 76 -120 36 -63 79 -125 96 -139 58 -49 139 -43 194 14 22 23
29 42 33 84 l4 55 -142 243 c-78 134 -156 258 -173 276 -73 76 -204 109 -308
78 -30 -8 -160 -78 -289 -154 -258 -151 -280 -171 -280 -249 0 -87 55 -143
140 -143 39 0 67 12 198 89 84 50 152 89 152 88 0 -1 -9 -34 -20 -72 -98 -336
-45 -699 143 -988 339 -519 1000 -696 1550 -415 627 321 840 1100 465 1705
-71 116 -235 283 -351 358 -109 70 -240 128 -365 160 -117 31 -185 32 -230 5z"/>
</g>
</svg>
