<svg width="19" height="19" viewBox="0 0 19 19" fill="none" xmlns="http://www.w3.org/2000/svg">
<path d="M18.7273 2.25786C18.7273 2.73078 18.7369 3.20049 18.7209 3.67341C18.7176 3.78923 18.6598 3.92113 18.5859 4.01443C18.438 4.19781 18.2548 4.35223 18.1005 4.52917C18.0009 4.64178 17.8916 4.67716 17.7469 4.66108C17.3162 4.61604 16.8823 4.58065 16.4516 4.54204C16.3873 4.53561 16.323 4.52918 16.2587 4.52596C16.0626 4.51631 15.9951 4.58708 16.0112 4.78333C16.0498 5.23695 16.0916 5.69057 16.1269 6.14419C16.1462 6.39834 16.0723 6.46269 15.8248 6.44017C15.3812 6.39513 14.9409 6.35652 14.4973 6.31792C14.2723 6.29861 14.2048 6.36617 14.2241 6.59459C14.2594 7.04178 14.3012 7.49218 14.343 7.93936C14.3655 8.16778 14.2916 8.24821 14.0601 8.22569C13.6134 8.18708 13.1634 8.14204 12.7166 8.10344C12.4819 8.08414 12.4112 8.1517 12.4337 8.38977C12.4755 8.86912 12.5205 9.3517 12.5719 9.83105C12.588 9.97904 12.5559 10.0884 12.4466 10.1882C12.2826 10.3394 12.1316 10.5099 11.9676 10.6611C11.8809 10.7415 11.8712 10.8155 11.9001 10.9281C12.4369 13.1222 11.9226 15.03 10.3059 16.6064C9.37692 17.5136 8.23585 18.0155 6.9437 18.1217C3.70692 18.3983 1.18691 16.0884 0.788343 13.2734C0.357628 10.2268 2.37942 7.40853 5.40727 6.85518C6.25585 6.69754 7.10442 6.73615 7.93692 6.97422C8.06549 7.0096 8.13942 6.98387 8.22942 6.89379C10.4023 4.71577 12.5784 2.54097 14.748 0.362955C14.8959 0.214965 15.0469 0.147405 15.2559 0.150622C16.1784 0.160274 17.0976 0.153839 18.0201 0.157057C18.4798 0.157057 18.7241 0.401561 18.7241 0.861614C18.7241 1.3281 18.7241 1.79459 18.7241 2.26108C18.7273 2.25786 18.7273 2.25786 18.7273 2.25786ZM6.32335 14.0713C6.32656 13.2348 5.64835 12.5496 4.81906 12.5463C3.98656 12.5431 3.30192 13.2219 3.29549 14.0552C3.28906 14.9013 3.96727 15.5833 4.80942 15.5833C5.65156 15.5833 6.32335 14.9109 6.32335 14.0713ZM14.5037 3.12649C14.5101 2.91094 14.3719 2.74687 14.2176 2.76295C14.1148 2.77261 13.9991 2.8273 13.9284 2.89808C12.3501 4.47127 10.7751 6.04767 9.20014 7.62408C9.17121 7.65304 9.13906 7.68521 9.11656 7.7206C9.03299 7.84928 9.04263 7.97475 9.13906 8.09057C9.23228 8.20317 9.39299 8.23212 9.51835 8.15491C9.57621 8.11952 9.62764 8.06805 9.67585 8.01979C10.158 7.54044 10.6369 7.05786 11.1191 6.57529C12.1926 5.49754 13.2694 4.42301 14.343 3.34526C14.4201 3.27448 14.4716 3.17475 14.5037 3.12649ZM14.6998 2.29647C14.6901 2.45411 14.8187 2.59245 14.9859 2.60531C15.1562 2.61818 15.3105 2.4895 15.3169 2.32542C15.3234 2.16456 15.198 2.02944 15.0309 2.01979C14.8541 2.00692 14.7094 2.12917 14.6998 2.29647Z" fill="#1A518E"/>
</svg>
