<svg width="306" height="241" viewBox="0 0 306 241" fill="none" xmlns="http://www.w3.org/2000/svg">
<g clip-path="url(#clip0)">
<path d="M140.054 212.304C86.8408 212.304 37.8191 212.304 28.0148 212.304C12.5268 212.304 -10.4921 189.788 5.91953 166.704C22.2601 143.691 43.0055 130.977 36.8955 102.707C30.7856 74.4379 19.1341 46.1685 38.3875 25.9964C63.4667 -0.284158 127.55 38.0003 155.755 24.2917C184.032 10.5832 234.9 -12.359 265.237 8.16825C295.645 28.6955 275.183 95.1783 281.293 112.296C287.403 129.414 299.552 129.059 304.312 156.76C308.859 183.254 296.213 209.889 275.183 209.889C257.919 209.96 140.054 212.304 140.054 212.304Z" fill="#DBF1FE"/>
<path d="M138.491 212.304C86.4855 212.304 38.5295 212.304 28.9384 212.304C19.3472 212.304 -4.87949 189.22 11.1058 166.704C27.0912 144.188 43.5028 132.823 37.6059 105.193C31.6381 77.5632 22.8284 53.5555 41.5845 33.8806C66.0953 8.16825 128.047 37.7161 155.684 24.2917C183.321 10.8673 231.135 -7.24496 260.832 12.7851C290.529 32.8862 270.565 97.8774 276.462 114.569C282.43 131.261 294.295 130.977 298.984 158.039C303.46 183.893 291.098 209.96 270.565 209.96C253.728 209.96 138.491 212.304 138.491 212.304Z" fill="#A4D9F7"/>
<path d="M231.52 76.1901C232.931 67.4371 226.977 59.1981 218.222 57.7876C209.467 56.377 201.226 62.3293 199.815 71.0822C198.404 79.8351 204.358 88.0742 213.113 89.4847C221.868 90.8952 230.109 84.943 231.52 76.1901Z" fill="#0496BE"/>
<path d="M225.6 83.5944C231.094 78.1022 231.094 69.1977 225.6 63.7055C220.107 58.2134 211.2 58.2134 205.707 63.7055C200.213 69.1977 200.213 78.1022 205.707 83.5944C211.2 89.0865 220.107 89.0865 225.6 83.5944Z" fill="white"/>
<path d="M214.794 84.1689V81.6118C213.302 81.6118 211.81 81.1146 210.887 80.4754L211.526 78.7707C212.45 79.41 213.729 79.8361 215.149 79.8361C216.926 79.8361 218.133 78.7707 218.133 77.3501C218.133 75.9296 217.139 75.0772 215.292 74.3669C212.734 73.3725 211.1 72.165 211.1 69.9631C211.1 67.8323 212.592 66.2697 214.936 65.9145V63.3575H216.499V65.8435C217.991 65.9145 219.057 66.2697 219.767 66.6958L219.128 68.4005C218.631 68.1164 217.565 67.5482 215.931 67.5482C214.013 67.5482 213.231 68.6846 213.231 69.7501C213.231 71.0996 214.155 71.7389 216.357 72.6622C218.986 73.7277 220.265 75.0772 220.265 77.2791C220.265 79.2679 218.844 81.1857 216.286 81.6118V84.2399H214.794V84.1689Z" fill="#0496BE"/>
<path d="M266.433 68.6773C269.328 61.6393 265.969 53.5871 258.929 50.6922C251.89 47.7973 243.835 51.1558 240.94 58.1938C238.044 65.2317 241.404 73.2839 248.443 76.1789C255.483 79.0738 263.537 75.7152 266.433 68.6773Z" fill="#0496BE"/>
<path d="M262.219 71.9767C266.935 67.2612 266.935 59.6159 262.219 54.9004C257.502 50.1849 249.855 50.1849 245.138 54.9004C240.422 59.6159 240.422 67.2612 245.138 71.9767C249.855 76.6922 257.502 76.6922 262.219 71.9767Z" fill="white"/>
<path d="M252.946 72.4491V70.2472C251.667 70.2472 250.388 69.8211 249.607 69.3239L250.104 67.9033C250.886 68.4005 252.023 68.8267 253.23 68.8267C254.793 68.8267 255.788 67.9033 255.788 66.6958C255.788 65.4883 254.935 64.778 253.301 64.1388C251.099 63.2864 249.749 62.292 249.749 60.3742C249.749 58.5985 251.028 57.178 253.017 56.8938V54.692H254.367V56.8228C255.646 56.8938 256.569 57.249 257.209 57.6041L256.64 59.0247C256.214 58.7406 255.291 58.3144 253.87 58.3144C252.165 58.3144 251.596 59.3088 251.596 60.1612C251.596 61.2976 252.378 61.8658 254.296 62.6472C256.569 63.5705 257.635 64.707 257.635 66.6248C257.635 68.3295 256.427 69.9631 254.225 70.3183V72.5912H252.946V72.4491Z" fill="#0496BE"/>
<path d="M237.621 37.6041C238.659 31.1756 234.289 25.1228 227.859 24.0849C221.428 23.0469 215.374 27.4167 214.336 33.8452C213.298 40.2737 217.669 46.3265 224.099 47.3645C230.529 48.4025 236.583 44.0326 237.621 37.6041Z" fill="#0496BE"/>
<path d="M234.222 42.0126C237.702 37.4634 236.834 30.955 232.284 27.4757C227.734 23.9963 221.224 24.8636 217.744 29.4128C214.264 33.962 215.131 40.4704 219.681 43.9497C224.232 47.4291 230.742 46.5618 234.222 42.0126Z" fill="white"/>
<path d="M225.38 43.5406V41.6938C224.315 41.6938 223.178 41.3387 222.539 40.8415L222.965 39.563C223.604 39.9891 224.599 40.3443 225.665 40.3443C227.014 40.3443 227.867 39.563 227.867 38.4975C227.867 37.5031 227.157 36.8639 225.736 36.2956C223.817 35.5854 222.681 34.662 222.681 33.0994C222.681 31.5367 223.746 30.4003 225.523 30.1162V28.2694H226.659V30.0451C227.796 30.1162 228.506 30.4003 229.075 30.6844L228.577 31.8919C228.151 31.6788 227.441 31.2526 226.233 31.2526C224.812 31.2526 224.244 32.105 224.244 32.8863C224.244 33.8807 224.954 34.3068 226.517 35.0171C228.435 35.7984 229.43 36.7928 229.43 38.4265C229.43 39.9181 228.435 41.2676 226.517 41.6228V43.5406H225.38Z" fill="#0496BE"/>
<path d="M143.109 104.412L142.967 139.216L142.896 149.16L142.754 183.964C142.754 202.716 134.726 218.058 124.708 218.768C124.495 218.768 124.211 218.768 123.998 218.768H65.1006C70.0738 218.555 74.5497 214.79 77.8178 208.824C81.299 202.502 83.4304 193.695 83.4304 183.964L83.5015 114.711V104.412C83.5015 85.1632 95.8635 69.608 111.138 69.608C118.669 69.608 125.49 73.3725 130.463 79.552C135.578 85.8735 138.775 94.6811 138.775 104.412H143.109Z" fill="#0496BE"/>
<path d="M83.5013 114.711V132.184V136.588V146.532V152.001V161.945V166.349V176.222V181.691V183.893C83.5013 184.603 83.5013 185.385 83.4302 186.095C83.3592 187.942 83.2171 189.788 83.0039 191.564C82.8618 193.056 82.5777 194.547 82.2935 195.968C81.9383 197.886 81.4409 199.732 80.8726 201.437C80.3752 203 79.8069 204.491 79.2385 205.841C78.8122 206.835 78.3149 207.83 77.8176 208.682C77.3203 209.605 76.7519 210.458 76.1835 211.31C74.9757 213.086 73.6259 214.577 72.205 215.714C70.0025 217.49 67.587 218.484 65.1004 218.626C64.9583 218.626 64.8162 218.626 64.6741 218.626C54.3014 218.626 45.918 203.071 45.918 183.822V114.569H83.5013V114.711Z" fill="#DBF1FE"/>
<path d="M83.5014 132.184V136.659H55.083V132.184H83.5014Z" fill="#1A518E"/>
<path d="M83.5014 142.128H55.083V146.532H83.5014V142.128Z" fill="#1A518E"/>
<path d="M83.4303 152.001H55.083V156.405H83.4303V152.001Z" fill="#1A518E"/>
<path d="M83.5014 161.945L83.4303 166.349H55.083V161.945H83.5014Z" fill="#1A518E"/>
<path d="M83.4303 171.818H55.083V176.222H83.4303V171.818Z" fill="#1A518E"/>
<path d="M83.4303 181.762V183.964C83.4303 184.674 83.4303 185.456 83.3593 186.166H55.083V181.762H83.4303Z" fill="#1A518E"/>
<path d="M83.0043 191.635C82.8622 193.127 82.578 194.618 82.2938 196.039H56.291C56.0068 194.618 55.7937 193.127 55.5806 191.635H83.0043Z" fill="#1A518E"/>
<path d="M80.8724 201.579C80.3751 203.142 79.8067 204.633 79.2383 205.983H59.3455C58.7061 204.562 58.2087 203.142 57.7114 201.579H80.8724Z" fill="#1A518E"/>
<path d="M76.1838 211.452C74.976 213.228 73.6261 214.719 72.2052 215.856H66.3794C64.9585 214.719 63.6087 213.228 62.4009 211.452H76.1838Z" fill="#1A518E"/>
<path d="M198.382 104.412H138.775C138.775 94.6811 135.578 85.8736 130.463 79.552C125.489 73.3725 118.669 69.608 111.138 69.608H170.746C186.021 69.537 198.382 85.1633 198.382 104.412Z" fill="#DBF1FE"/>
<path d="M182.468 75.8586H131.173C129.042 74.0118 126.768 72.5202 124.282 71.4548H175.577C177.992 72.5202 180.337 74.0118 182.468 75.8586Z" fill="#1A518E"/>
<path d="M189.928 85.7315H138.633C137.852 84.1689 136.999 82.6773 136.004 81.3278H187.3C188.294 82.7483 189.147 84.1689 189.928 85.7315Z" fill="#1A518E"/>
<path d="M208.401 98.9428V238.798H123.145C122.577 238.798 122.009 238.727 121.44 238.656C120.943 238.585 120.517 238.514 120.019 238.372C114.407 236.951 110.286 231.908 110.286 225.942V166.278C98.9188 158.891 91.459 146.106 91.459 131.545C91.459 111.444 105.81 94.6101 124.78 90.8456C126.485 90.4904 128.19 90.2773 129.895 90.1353C130.889 90.0643 131.884 89.9932 132.95 89.9932H199.52C204.422 90.1353 208.401 94.0419 208.401 98.9428Z" fill="#1A518E"/>
<path d="M209.253 241H130.179C128.474 241 127.124 239.65 127.124 237.946V99.369C127.124 97.6643 128.474 96.3148 130.179 96.3148H209.253C210.958 96.3148 212.308 97.6643 212.308 99.369V237.946C212.308 239.579 210.958 241 209.253 241Z" fill="#263F63"/>
<path d="M208.4 104.412H131.103V226.439H208.4V104.412Z" fill="#DBF1FE"/>
<path d="M169.326 238.869C172.19 238.869 174.512 236.548 174.512 233.684C174.512 230.82 172.19 228.499 169.326 228.499C166.461 228.499 164.139 230.82 164.139 233.684C164.139 236.548 166.461 238.869 169.326 238.869Z" fill="#277EAF"/>
<path d="M178.419 101.784H161.013C160.373 101.784 159.876 101.287 159.876 100.647V100.008C159.876 99.369 160.373 98.8718 161.013 98.8718H178.419C179.058 98.8718 179.556 99.369 179.556 100.008V100.647C179.556 101.287 179.058 101.784 178.419 101.784Z" fill="#277EAF"/>
<path d="M198.596 127.141H198.24C197.033 127.141 196.038 128.136 196.038 129.343V201.437C196.038 202.645 197.033 203.639 198.24 203.639H198.596C199.803 203.639 200.798 202.645 200.798 201.437V129.343C200.798 128.136 199.803 127.141 198.596 127.141Z" fill="#1A518E"/>
<path d="M276.391 141.205V189.575C276.391 192.701 273.905 195.187 270.779 195.187H200.798V135.594H270.779C273.905 135.594 276.391 138.151 276.391 141.205Z" fill="#263F63"/>
<path d="M273.123 170.042H252.236V175.654H273.123V170.042Z" fill="white"/>
<path d="M250.388 170.042H229.501V175.654H250.388V170.042Z" fill="white"/>
<path d="M227.725 170.042H206.837V175.654H227.725V170.042Z" fill="white"/>
<path d="M204.99 170.042H200.798V175.654H204.99V170.042Z" fill="white"/>
<path d="M266.09 154.913H252.52C251.099 154.913 250.033 153.777 250.033 152.427V145.467C250.033 144.046 251.17 142.981 252.52 142.981H266.09C267.511 142.981 268.576 144.117 268.576 145.467V152.427C268.576 153.777 267.511 154.913 266.09 154.913Z" fill="#FEB313"/>
<path d="M129.895 90.2062C128.19 90.3483 126.484 90.5614 124.779 90.9165C121.866 93.0474 119.948 96.4568 119.948 100.363V238.443C120.375 238.585 120.872 238.656 121.369 238.727C121.369 238.656 121.369 238.656 121.369 238.585V100.363C121.369 95.3203 125.064 91.0586 129.895 90.2062Z" fill="#263F63"/>
<path d="M66.5214 89.425C73.4665 89.425 79.0965 83.7963 79.0965 76.8529C79.0965 69.9096 73.4665 64.2809 66.5214 64.2809C59.5764 64.2809 53.9463 69.9096 53.9463 76.8529C53.9463 83.7963 59.5764 89.425 66.5214 89.425Z" fill="#0496BE"/>
<path d="M66.0243 82.7483L59.417 75.1483L62.2588 72.6623L66.3795 77.4212L78.8125 66.3407L81.2991 69.1108L66.0243 82.7483Z" fill="#DBF1FE"/>
<path d="M66.5214 52.6322C73.4665 52.6322 79.0965 47.0035 79.0965 40.0601C79.0965 33.1167 73.4665 27.488 66.5214 27.488C59.5764 27.488 53.9463 33.1167 53.9463 40.0601C53.9463 47.0035 59.5764 52.6322 66.5214 52.6322Z" fill="#0496BE"/>
<path d="M66.0243 45.9554L59.417 38.2843L62.2588 35.8694L66.3795 40.6283L78.8125 29.4768L81.2991 32.2469L66.0243 45.9554Z" fill="#DBF1FE"/>
<path d="M158.157 166.605L159.073 167.212L156.417 177.553C156.417 177.553 156.509 180.404 156.295 182.8L158.157 166.605Z" fill="#1F1F1F"/>
<path d="M181.269 171.731C181.177 171.791 181.085 171.822 180.963 171.791C180.689 171.761 180.475 171.518 180.505 171.245C180.505 171.185 180.872 166.18 180.811 164.361C180.811 164.088 181.024 163.845 181.299 163.845C181.574 163.845 181.818 164.058 181.818 164.33C181.879 166.211 181.513 171.124 181.513 171.336C181.482 171.518 181.391 171.67 181.269 171.731Z" fill="#1C2777"/>
<path d="M160.356 180.738C159.501 181.253 157.852 182.072 156.173 181.678C155.074 181.435 154.189 180.708 153.486 179.555C152.296 177.584 152.693 175.006 154.494 172.974C156.143 171.124 158.341 170.426 160.112 171.185C162.554 172.246 162.707 174.369 162.401 175.521C162.829 176.371 162.92 177.25 162.676 178.13C162.371 179.221 161.546 180.071 160.905 180.435C160.875 180.465 160.814 180.495 160.753 180.526C160.631 180.586 160.508 180.647 160.356 180.738ZM156.631 172.489C156.143 172.792 155.685 173.186 155.227 173.671C154.097 174.945 153.181 177.129 154.341 179.07C154.891 179.98 155.593 180.556 156.387 180.738C157.944 181.102 159.623 180.04 160.173 179.707C160.264 179.646 160.325 179.616 160.386 179.585C160.753 179.373 161.424 178.767 161.669 177.917C161.852 177.25 161.76 176.583 161.394 175.916C161.333 175.794 161.302 175.643 161.363 175.491C161.455 175.248 162.065 173.186 159.715 172.185C158.768 171.73 157.669 171.882 156.631 172.489Z" fill="#1C2777"/>
<path d="M170.247 204.485C169.331 205.031 168.385 205.213 167.438 205.031C166.37 204.818 165.515 204.242 164.965 203.332C163.408 200.785 164.416 196.357 164.691 195.265L163.988 194.234C163.866 194.022 163.866 193.779 164.049 193.597C164.08 193.567 164.08 193.567 164.111 193.536C164.141 193.506 164.172 193.476 164.202 193.476C164.263 193.445 165.668 192.748 167.774 192.627C169.698 192.536 172.629 192.93 175.59 195.417C175.621 195.447 175.651 195.477 175.651 195.477C175.804 195.629 175.834 195.811 175.773 196.023C174.644 198.965 173.453 201.24 172.232 202.726C171.56 203.484 170.919 204.091 170.247 204.485ZM165.149 194.173L165.637 194.871C165.729 194.992 165.759 195.144 165.698 195.295C165.698 195.356 164.294 200.33 165.82 202.786C166.248 203.454 166.828 203.878 167.622 204.03C170.033 204.485 172.384 201.816 174.674 196.023C170.553 192.687 166.553 193.658 165.149 194.173Z" fill="#1C2777"/>
<path d="M175.651 174.521C173.727 175.673 167.804 176.098 166.614 174.794C165.911 174.035 165.545 173.277 165.362 172.792C164.019 172.944 159.714 173.49 157.332 174.187C157.058 174.278 156.783 174.126 156.691 173.854C156.6 173.581 156.752 173.308 157.027 173.217C159.988 172.337 165.423 171.761 165.667 171.731C165.911 171.7 166.156 171.882 166.217 172.125C166.217 172.125 166.461 173.095 167.377 174.096C167.652 174.399 169.087 174.672 171.163 174.521C173.025 174.399 174.765 173.975 175.284 173.55C176.475 172.58 176.689 171.033 176.689 171.033C176.719 170.821 176.872 170.639 177.086 170.608L180.871 169.911C181.146 169.85 181.421 170.032 181.482 170.305C181.543 170.578 181.36 170.851 181.085 170.912L177.635 171.549C177.482 172.185 177.055 173.459 175.956 174.369C175.834 174.399 175.742 174.46 175.651 174.521Z" fill="#1C2777"/>
<path d="M162.095 176.037C161.82 176.189 161.515 176.098 161.393 175.825C161.393 175.794 160.782 174.672 159.775 174.521C159.103 174.43 158.371 174.794 157.577 175.643C157.394 175.855 157.058 175.855 156.844 175.673C156.63 175.491 156.63 175.157 156.813 174.945C157.852 173.853 158.89 173.398 159.897 173.52C161.424 173.732 162.248 175.279 162.278 175.339C162.431 175.612 162.34 175.916 162.095 176.037Z" fill="#1C2777"/>
<path d="M189.878 154.534C188.779 155.171 187.344 155.414 186.795 155.414C186.52 155.414 186.276 155.202 186.276 154.929C186.276 154.656 186.49 154.413 186.764 154.413C187.497 154.383 189.329 154.019 190.001 153.109C190.245 152.806 190.306 152.472 190.184 152.078C190.123 151.774 189.94 151.593 189.695 151.441C188.81 150.956 187.07 151.411 186.49 151.623C186.215 151.714 185.94 151.562 185.848 151.32C185.757 151.047 185.879 150.774 186.154 150.683C186.429 150.592 188.749 149.803 190.184 150.561C190.703 150.834 191.039 151.259 191.191 151.835C191.374 152.502 191.252 153.17 190.825 153.715C190.581 154.049 190.245 154.322 189.878 154.534Z" fill="#1C2777"/>
<path d="M181.269 171.731C181.177 171.791 181.085 171.822 180.963 171.791C180.689 171.761 180.475 171.518 180.505 171.245C180.505 171.185 180.872 166.18 180.811 164.361C180.811 164.088 181.024 163.845 181.299 163.845C181.574 163.845 181.818 164.058 181.818 164.33C181.879 166.211 181.513 171.124 181.513 171.336C181.482 171.518 181.391 171.67 181.269 171.731Z" fill="#1C2777"/>
<path d="M160.356 180.738C159.501 181.253 157.852 182.072 156.173 181.678C155.074 181.435 154.189 180.708 153.486 179.555C152.296 177.584 152.693 175.006 154.494 172.974C156.143 171.124 158.341 170.426 160.112 171.185C162.554 172.246 162.707 174.369 162.401 175.521C162.829 176.371 162.92 177.25 162.676 178.13C162.371 179.221 161.546 180.071 160.905 180.435C160.875 180.465 160.814 180.495 160.753 180.526C160.631 180.586 160.508 180.647 160.356 180.738ZM156.631 172.489C156.143 172.792 155.685 173.186 155.227 173.671C154.097 174.945 153.181 177.129 154.341 179.07C154.891 179.98 155.593 180.556 156.387 180.738C157.944 181.102 159.623 180.04 160.173 179.707C160.264 179.646 160.325 179.616 160.386 179.585C160.753 179.373 161.424 178.767 161.669 177.917C161.852 177.25 161.76 176.583 161.394 175.916C161.333 175.794 161.302 175.643 161.363 175.491C161.455 175.248 162.065 173.186 159.715 172.185C158.768 171.73 157.669 171.882 156.631 172.489Z" fill="#1C2777"/>
<path d="M170.247 204.485C169.331 205.031 168.385 205.213 167.438 205.031C166.37 204.818 165.515 204.242 164.965 203.332C163.408 200.785 164.416 196.357 164.691 195.265L163.988 194.234C163.866 194.022 163.866 193.779 164.049 193.597C164.08 193.567 164.08 193.567 164.111 193.536C164.141 193.506 164.172 193.476 164.202 193.476C164.263 193.445 165.668 192.748 167.774 192.627C169.698 192.536 172.629 192.93 175.59 195.417C175.621 195.447 175.651 195.477 175.651 195.477C175.804 195.629 175.834 195.811 175.773 196.023C174.644 198.965 173.453 201.24 172.232 202.726C171.56 203.484 170.919 204.091 170.247 204.485ZM165.149 194.173L165.637 194.871C165.729 194.992 165.759 195.144 165.698 195.295C165.698 195.356 164.294 200.33 165.82 202.786C166.248 203.454 166.828 203.878 167.622 204.03C170.033 204.485 172.384 201.816 174.674 196.023C170.553 192.687 166.553 193.658 165.149 194.173Z" fill="#1C2777"/>
<path d="M175.651 174.521C173.727 175.673 167.804 176.098 166.614 174.794C165.911 174.035 165.545 173.277 165.362 172.792C164.019 172.944 159.714 173.49 157.332 174.187C157.058 174.278 156.783 174.126 156.691 173.854C156.6 173.581 156.752 173.308 157.027 173.217C159.988 172.337 165.423 171.761 165.667 171.731C165.911 171.7 166.156 171.882 166.217 172.125C166.217 172.125 166.461 173.095 167.377 174.096C167.652 174.399 169.087 174.672 171.163 174.521C173.025 174.399 174.765 173.975 175.284 173.55C176.475 172.58 176.689 171.033 176.689 171.033C176.719 170.821 176.872 170.639 177.086 170.608L180.871 169.911C181.146 169.85 181.421 170.032 181.482 170.305C181.543 170.578 181.36 170.851 181.085 170.912L177.635 171.549C177.482 172.185 177.055 173.459 175.956 174.369C175.834 174.399 175.742 174.46 175.651 174.521Z" fill="#1C2777"/>
<path d="M162.095 176.037C161.82 176.189 161.515 176.098 161.393 175.825C161.393 175.794 160.782 174.672 159.775 174.521C159.103 174.43 158.371 174.794 157.577 175.643C157.394 175.855 157.058 175.855 156.844 175.673C156.63 175.491 156.63 175.157 156.813 174.945C157.852 173.853 158.89 173.398 159.897 173.52C161.424 173.732 162.248 175.279 162.278 175.339C162.431 175.612 162.34 175.916 162.095 176.037Z" fill="#1C2777"/>
<path d="M189.878 154.534C188.779 155.171 187.344 155.414 186.795 155.414C186.52 155.414 186.276 155.202 186.276 154.929C186.276 154.656 186.49 154.413 186.764 154.413C187.497 154.383 189.329 154.019 190.001 153.109C190.245 152.806 190.306 152.472 190.184 152.078C190.123 151.774 189.94 151.593 189.695 151.441C188.81 150.956 187.07 151.411 186.49 151.623C186.215 151.714 185.94 151.562 185.848 151.32C185.757 151.047 185.879 150.774 186.154 150.683C186.429 150.592 188.749 149.803 190.184 150.561C190.703 150.834 191.039 151.259 191.191 151.835C191.374 152.502 191.252 153.17 190.825 153.715C190.581 154.049 190.245 154.322 189.878 154.534Z" fill="#1C2777"/>
<path fill-rule="evenodd" clip-rule="evenodd" d="M169.484 161.54C174.216 160.448 179.65 158.234 181.818 154.929C183.986 151.623 186.397 145.072 190.733 146.952C195.862 149.166 192.931 163.603 181.452 171.033C181.452 171.033 176.628 206.305 167.743 204.545C164.965 203.423 163.53 199.996 162.645 197.358C162.278 196.236 162.004 195.113 161.607 194.022C161.271 193.112 160.935 192.202 160.599 191.322C159.805 189.169 158.981 186.986 158.187 184.832C158.157 184.711 157.332 182.679 157.363 182.649C157.363 182.649 151.471 188.805 147.227 191.292C145.059 192.566 142.037 193.84 141.518 190.868C140.846 186.925 141.853 186.045 143.838 182.406C144.296 181.557 146.311 179.1 148.051 176.158C149.913 173.004 152.997 169.699 154.157 168.455C157.912 164.543 163.255 162.996 169.484 161.54Z" fill="white"/>
<path d="M182.643 155.808C182.643 155.808 187.039 162.056 192.29 157.355L192.687 151.926L192.168 149.288L191.069 147.741L189.176 146.952L187.466 147.468C187.466 147.407 184.566 150.531 182.643 155.808Z" fill="white"/>
<g opacity="0.2">
<g opacity="0.2">
<g opacity="0.2">
<path opacity="0.2" fill-rule="evenodd" clip-rule="evenodd" d="M179.956 165.816C178.735 176.189 173.27 204.333 165.393 202.999C165.851 203.726 166.523 204.303 167.53 204.485C176.384 206.244 180.964 171.306 180.964 171.306C181.361 171.033 180.903 164.634 181.299 164.361C181.116 163.542 180.17 163.936 179.956 165.816Z" fill="#1C2777"/>
</g>
</g>
</g>
<path fill-rule="evenodd" clip-rule="evenodd" d="M164.415 193.931C164.385 193.931 164.385 193.931 164.415 193.931L162.278 194.992C162.278 194.992 163.103 203.302 167.53 204.515C170.644 205.122 173.239 201.179 175.284 195.841L175.254 195.811C169.758 191.201 164.415 193.931 164.415 193.931Z" fill="#5CABF9"/>
<g opacity="0.6">
<g opacity="0.6">
<g opacity="0.6">
<path opacity="0.6" fill-rule="evenodd" clip-rule="evenodd" d="M165.301 194.386C165.301 194.386 171.59 193.749 173.147 196.175C173.727 197.054 173.453 199.268 171.865 202.331C171.865 202.331 174.704 197.57 175.315 195.75C175.315 195.75 166.583 190.291 163.774 194.689" fill="#FCFCFC"/>
</g>
</g>
</g>
<g opacity="0.2">
<g opacity="0.2">
<g opacity="0.2">
<path opacity="0.2" fill-rule="evenodd" clip-rule="evenodd" d="M173.209 194.386C171.011 199.754 168.385 203.484 165.393 202.999C165.424 203.059 165.454 203.12 165.485 203.181C165.515 203.241 165.576 203.302 165.607 203.363C165.698 203.484 165.82 203.605 165.943 203.727C166.004 203.787 166.034 203.818 166.095 203.878C166.248 204 166.431 204.121 166.614 204.212C166.645 204.242 166.675 204.242 166.706 204.273C166.95 204.394 167.194 204.454 167.5 204.515C167.561 204.515 167.622 204.515 167.652 204.545C167.836 204.576 167.988 204.576 168.171 204.576C168.263 204.576 168.355 204.576 168.446 204.545C168.599 204.515 168.782 204.485 168.935 204.454C168.996 204.424 169.087 204.424 169.148 204.394C169.393 204.333 169.606 204.212 169.82 204.091C169.851 204.06 169.881 204.06 169.912 204.03C170.095 203.909 170.278 203.787 170.461 203.636C170.522 203.575 170.614 203.514 170.675 203.484C170.736 203.423 170.797 203.363 170.858 203.332C171.133 203.09 171.377 202.817 171.652 202.513C171.713 202.453 171.774 202.392 171.804 202.332C172.415 201.543 173.026 200.633 173.575 199.541C174.033 198.662 174.461 197.691 174.888 196.66C175.01 196.387 175.102 196.114 175.193 195.841L175.163 195.811C174.552 195.235 173.881 194.749 173.209 194.386Z" fill="#1C2777"/>
</g>
</g>
</g>
<g opacity="0.6">
<g opacity="0.6">
<g opacity="0.6">
<path opacity="0.6" fill-rule="evenodd" clip-rule="evenodd" d="M186.703 147.529C186.092 147.923 185.543 148.499 185.024 149.166C191.069 145.77 192.596 152.32 192.596 152.32C192.626 152.29 192.626 152.26 192.657 152.229C192.626 149.743 191.832 147.893 190.214 147.195C188.901 146.588 187.741 146.831 186.703 147.529Z" fill="#FCFCFC"/>
</g>
</g>
</g>
<path d="M193.175 151.411C192.992 149.075 192.015 147.407 190.458 146.74C188.718 145.982 187.039 146.376 185.482 147.923C184.199 149.197 183.131 151.077 182.184 152.775C181.757 153.564 181.33 154.292 180.933 154.929C179.192 157.598 174.704 159.963 168.934 161.328C163.713 162.541 160.08 164.27 157.424 166.12L158.157 166.605C158.34 166.484 158.554 166.362 158.767 166.241C161.301 164.725 164.69 163.36 169.178 162.329C172.079 161.661 179.101 159.63 181.818 155.505C182.245 154.868 182.673 154.11 183.1 153.291C184.932 150.046 187.008 146.346 190.061 147.68C191.252 148.196 191.985 149.561 192.168 151.502C192.626 157.082 188.474 165.847 180.719 170.881C180.597 170.972 180.505 171.094 180.505 171.245C180.475 171.518 176.872 198.571 170.094 203.393C169.27 203.969 168.476 204.181 167.652 204.03C166.858 203.878 166.247 203.484 165.851 202.786C165.637 202.422 165.423 202.028 165.209 201.664C164.232 199.814 163.408 197.873 162.614 195.932C162.187 194.871 161.82 193.809 161.393 192.748L159.714 188.593C159.164 187.228 158.615 185.894 158.065 184.529C157.821 183.922 157.577 183.316 157.332 182.709C157.18 182.497 156.905 182.436 156.691 182.527C156.691 182.527 156.569 182.618 156.386 182.83C156.356 183.225 156.294 183.589 156.233 183.953C156.447 183.771 156.63 183.649 156.722 183.619C156.722 183.619 157.119 184.65 157.149 184.711C157.668 186.015 158.187 187.289 158.706 188.593C158.737 188.623 158.737 188.684 158.767 188.714C159.714 191.049 160.63 193.415 161.515 195.781C162.492 198.389 163.5 200.967 164.965 203.363C165.545 204.272 166.37 204.849 167.438 205.061C168.415 205.243 169.362 205.061 170.277 204.515C170.4 204.424 170.552 204.363 170.674 204.242C177.513 199.359 181.085 174.49 181.452 171.639C186.245 168.485 189.054 164.482 190.55 161.692C192.473 158.083 193.42 154.352 193.175 151.411Z" fill="#1F1F1F"/>
<path d="M180.475 171.276C180.475 170.699 180.506 170.123 180.536 169.547C180.597 168.971 180.658 168.394 180.719 167.818C180.78 167.242 180.872 166.666 180.964 166.089L181.208 164.361C181.208 164.33 181.238 164.3 181.299 164.3C181.33 164.3 181.36 164.33 181.36 164.361C181.483 164.937 181.513 165.544 181.574 166.12C181.605 166.696 181.635 167.303 181.666 167.879C181.666 168.455 181.696 169.031 181.666 169.638C181.635 170.214 181.605 170.79 181.513 171.367C181.452 171.64 181.208 171.821 180.933 171.791C180.658 171.73 180.475 171.518 180.475 171.276Z" fill="#1F1F1F"/>
<path d="M170.247 204.485C169.331 205.031 168.384 205.213 167.438 205.031C166.369 204.818 165.515 204.242 164.965 203.332C163.408 200.785 161.942 196.357 162.217 195.265C162.248 195.144 162.095 194.992 162.156 194.84C162.217 194.628 162.553 194.477 162.706 194.355C163.53 193.809 164.415 193.324 165.331 193.051C166.125 192.808 166.919 192.687 167.743 192.657C169.667 192.566 172.598 192.96 175.559 195.447C175.59 195.477 175.62 195.508 175.62 195.508C175.773 195.659 175.803 195.841 175.742 196.054C174.613 198.995 173.422 201.27 172.201 202.756C171.56 203.484 170.918 204.091 170.247 204.485ZM162.553 195.386C162.431 195.447 163.225 197.57 163.286 197.722C163.5 198.268 163.744 198.813 163.988 199.359C164.538 200.542 165.118 201.695 165.789 202.817C166.217 203.484 166.797 203.909 167.591 204.06C170.003 204.515 172.353 201.846 174.643 196.054C170.552 192.687 166.949 192.839 162.553 195.386Z" fill="#1F1F1F"/>
<path d="M174.735 181.587C173.025 182.588 167.591 183.012 166.553 181.86C166.034 181.284 165.942 180.829 165.881 180.495C165.82 180.192 165.79 180.04 165.454 179.889C163.927 179.221 161.607 179.98 159.348 180.738C158.798 180.92 158.249 181.102 157.699 181.253C157.546 181.314 157.363 181.223 157.333 181.071C157.272 180.92 157.363 180.738 157.516 180.708C158.035 180.556 158.584 180.374 159.134 180.192C161.515 179.403 163.958 178.585 165.698 179.343C166.339 179.616 166.4 180.04 166.461 180.374C166.522 180.677 166.583 181.011 166.98 181.435C167.774 182.285 173.392 181.921 174.582 180.92C175.132 180.465 175.162 180.131 175.224 179.737C175.285 179.312 175.346 178.797 176.078 178.312C177.208 177.553 179.681 177.523 179.773 177.523C179.925 177.523 180.078 177.644 180.078 177.826C180.078 177.978 179.956 178.13 179.773 178.13C179.742 178.13 177.391 178.16 176.414 178.797C175.895 179.161 175.865 179.434 175.804 179.828C175.743 180.253 175.681 180.799 174.949 181.375C174.888 181.466 174.827 181.526 174.735 181.587Z" fill="#1F1F1F"/>
<g opacity="0.6">
<g opacity="0.6">
<g opacity="0.6">
<path opacity="0.6" fill-rule="evenodd" clip-rule="evenodd" d="M190.763 152.017C190.763 152.017 188.046 151.047 184.291 153.139L184.413 151.926C184.383 151.926 189.42 149.257 190.763 152.017Z" fill="#FCFCFC"/>
</g>
</g>
</g>
<g opacity="0.2">
<g opacity="0.2">
<g opacity="0.2">
<path opacity="0.2" fill-rule="evenodd" clip-rule="evenodd" d="M184.962 149.561C183.711 151.32 182.642 153.503 181.635 155.05C179.467 158.356 174.033 160.57 169.3 161.662C162.858 163.148 157.76 165.362 154.92 167.818C160.843 171.609 169.392 172.094 175.834 168.273C182.581 164.27 185.909 156.809 184.962 149.561Z" fill="#1C2777"/>
</g>
</g>
</g>
<path fill-rule="evenodd" clip-rule="evenodd" d="M178.857 148.59C178.216 145.557 179.468 142.737 181.635 142.282C183.803 141.827 186.093 143.92 186.734 146.952C187.375 149.985 186.123 152.806 183.956 153.261C181.788 153.716 179.498 151.623 178.857 148.59Z" fill="#5CABF9"/>
<g opacity="0.2">
<g opacity="0.2">
<g opacity="0.2">
<g opacity="0.2">
<path opacity="0.2" fill-rule="evenodd" clip-rule="evenodd" d="M178.765 148.136C178.796 148.257 178.796 148.348 178.796 148.469C179.437 151.502 181.727 153.595 183.894 153.14C186.062 152.685 187.314 149.864 186.673 146.832C186.489 146.013 186.184 145.254 185.818 144.618C186.306 147.529 185.085 150.168 183.009 150.592C181.421 150.926 179.773 149.895 178.765 148.136Z" fill="#2B3B68"/>
</g>
</g>
</g>
<g opacity="0.2">
<g opacity="0.2">
<g opacity="0.2">
<path opacity="0.2" d="M184.841 152.866C184.566 153.048 184.23 153.17 183.894 153.23C181.696 153.685 179.376 151.562 178.704 148.499C178.704 148.439 178.674 148.378 178.674 148.317C178.674 148.257 178.674 148.226 178.643 148.166L178.582 147.802L178.765 148.135C179.803 149.925 181.452 150.865 182.917 150.561C184.963 150.137 186.184 147.529 185.696 144.648L185.635 144.284L185.818 144.617C186.215 145.315 186.52 146.073 186.703 146.861C187.008 148.348 186.886 149.834 186.367 151.016C186.031 151.835 185.512 152.472 184.841 152.866ZM178.857 148.469C179.498 151.471 181.757 153.534 183.864 153.109C184.902 152.897 185.757 152.139 186.276 150.956C186.795 149.773 186.917 148.317 186.612 146.861C186.459 146.194 186.245 145.588 185.94 144.981C186.276 147.802 185.024 150.258 183.009 150.683C181.543 150.956 179.956 150.107 178.857 148.469Z" fill="#1C2777"/>
</g>
</g>
</g>
</g>
<g opacity="0.6">
<g opacity="0.6">
<g opacity="0.6">
<path opacity="0.6" fill-rule="evenodd" clip-rule="evenodd" d="M180.963 142.343C180.475 142.616 180.048 143.01 179.681 143.525C184.078 142.767 186.123 145.224 186.581 145.83C185.726 143.283 183.681 141.645 181.727 142.07C181.482 142.13 181.208 142.221 180.963 142.343Z" fill="#FCFCFC"/>
</g>
</g>
</g>
<path d="M185.116 153.352C184.78 153.534 184.444 153.685 184.078 153.746C181.636 154.261 179.071 151.987 178.369 148.681C177.667 145.375 179.102 142.282 181.544 141.766C183.986 141.251 186.551 143.525 187.253 146.831C187.833 149.652 186.917 152.29 185.116 153.352ZM179.376 148.499C179.956 151.259 181.971 153.17 183.864 152.775C184.139 152.715 184.383 152.624 184.628 152.472C186.032 151.623 186.765 149.409 186.246 147.043C185.666 144.283 183.651 142.373 181.758 142.767C179.865 143.161 178.796 145.739 179.376 148.499Z" fill="#1F1F1F"/>
<path fill-rule="evenodd" clip-rule="evenodd" d="M150.463 159.539C145.548 151.35 148.601 140.523 157.302 135.397C166.003 130.272 177.025 132.729 181.94 140.917C186.855 149.106 183.802 159.933 175.101 165.058C166.4 170.184 155.409 167.758 150.463 159.539Z" fill="white"/>
<g opacity="0.6">
<g opacity="0.6">
<g opacity="0.6">
<path opacity="0.6" fill-rule="evenodd" clip-rule="evenodd" d="M157.363 135.367C152.6 138.188 149.547 142.707 148.54 147.559C149.944 143.525 154.371 136.641 163.5 134.609C164.415 134.397 165.27 134.306 166.125 134.245C166.186 134.609 167.102 134.943 168.232 134.973C169.331 135.003 170.216 134.761 170.369 134.427C176.841 135.519 181.085 139.916 181.94 140.887C177.086 132.698 166.034 130.211 157.363 135.367Z" fill="#FCFCFC"/>
</g>
</g>
</g>
<path fill-rule="evenodd" clip-rule="evenodd" d="M157.363 135.367C157.119 135.519 156.875 135.67 156.63 135.852C156.783 136.186 156.936 136.489 157.149 136.793C160.416 142.221 167.774 143.829 173.575 140.402C175.376 139.34 176.842 137.884 177.849 136.277C172.231 131.97 164.11 131.364 157.363 135.367Z" fill="#CB5757"/>
<path d="M173.606 140.462C167.774 143.92 160.355 142.282 157.089 136.823C156.905 136.55 156.753 136.247 156.57 135.852L156.539 135.822L156.6 135.792C156.692 135.731 156.753 135.67 156.844 135.64C156.997 135.549 157.15 135.428 157.333 135.337C160.6 133.396 164.324 132.486 168.049 132.668C171.682 132.85 175.102 134.093 177.91 136.247L177.972 136.277L177.941 136.338C176.842 137.975 175.346 139.431 173.606 140.462ZM156.722 135.883C156.875 136.216 157.028 136.52 157.211 136.793C160.447 142.191 167.774 143.798 173.545 140.371C175.254 139.34 176.72 137.945 177.788 136.307C172.049 131.94 163.866 131.606 157.394 135.428C157.241 135.519 157.089 135.64 156.936 135.731C156.844 135.792 156.783 135.822 156.722 135.883Z" fill="#1C2777"/>
<g opacity="0.2">
<g opacity="0.2">
<g opacity="0.2">
<path opacity="0.2" fill-rule="evenodd" clip-rule="evenodd" d="M148.875 154.807C149.242 156.475 149.883 158.113 150.829 159.66C155.745 167.848 166.766 170.305 175.468 165.18C182.001 161.328 185.329 154.261 184.535 147.529C183.68 152.957 181.268 159.478 175.01 162.784C164.202 168.425 154.371 164.027 149.211 155.414C149.089 155.232 148.998 155.02 148.875 154.807Z" fill="#1C2777"/>
</g>
</g>
</g>
<path d="M175.376 165.483C166.461 170.76 155.073 168.212 150.036 159.812C144.998 151.411 148.112 140.25 157.058 134.973C166.003 129.696 177.361 132.243 182.398 140.644C187.436 149.045 184.291 160.206 175.376 165.483ZM157.577 135.822C149.15 140.826 146.158 151.35 150.921 159.296C155.684 167.242 166.431 169.638 174.857 164.634C183.283 159.63 186.275 149.106 181.513 141.16C176.75 133.214 166.003 130.848 157.577 135.822Z" fill="#1F1F1F"/>
<path fill-rule="evenodd" clip-rule="evenodd" d="M155.195 154.868C152.997 148.802 156.722 141.251 163.591 138.885C170.461 136.52 178.795 138.855 181.146 145.466C183.619 152.411 178.673 159.387 171.773 161.753C164.874 164.118 157.394 160.934 155.195 154.868Z" fill="#2A2A2A"/>
<g opacity="0.2">
<g opacity="0.2">
<g opacity="0.2">
<g opacity="0.2">
<path opacity="0.2" fill-rule="evenodd" clip-rule="evenodd" d="M154.493 151.351C154.493 152.564 154.707 153.747 155.134 154.899C157.333 160.965 164.843 164.149 171.743 161.784C178.215 159.57 182.978 153.292 181.482 146.802C181.574 152.473 177.177 157.598 171.468 159.539C164.599 161.905 157.058 158.721 154.86 152.655C154.707 152.23 154.615 151.806 154.493 151.351Z" fill="#2B3B68"/>
</g>
</g>
</g>
<g opacity="0.2">
<g opacity="0.2">
<g opacity="0.2">
<path opacity="0.2" d="M174.796 160.479C173.85 161.025 172.842 161.51 171.773 161.874C168.446 163.026 164.843 162.905 161.637 161.571C158.462 160.236 156.142 157.871 155.073 154.929C154.676 153.807 154.463 152.593 154.432 151.35V150.683L154.585 151.32C154.676 151.775 154.798 152.199 154.951 152.593C157.119 158.629 164.69 161.783 171.468 159.448C177.391 157.416 181.513 152.199 181.421 146.77V146.134L181.574 146.77C182.276 149.864 181.604 153.109 179.681 155.93C178.399 157.78 176.75 159.326 174.796 160.479ZM154.585 152.017C154.646 153.018 154.86 153.958 155.195 154.898C157.363 160.934 164.935 164.088 171.712 161.753C172.812 161.389 173.819 160.903 174.765 160.327C179.589 157.476 182.337 152.412 181.513 147.468C181.269 152.715 177.238 157.658 171.468 159.63C168.14 160.782 164.538 160.661 161.332 159.326C158.157 157.992 155.806 155.626 154.737 152.684C154.737 152.472 154.676 152.23 154.585 152.017Z" fill="#1C2777"/>
</g>
</g>
</g>
</g>
<path d="M175.04 160.812C174.063 161.389 173.056 161.874 171.987 162.238C168.537 163.421 164.843 163.299 161.546 161.934C158.248 160.57 155.836 158.113 154.707 155.02C153.638 152.078 153.882 148.62 155.378 145.557C157.027 142.191 159.958 139.583 163.439 138.4C166.95 137.187 170.888 137.156 174.246 138.339C177.849 139.583 180.475 142.07 181.635 145.315C182.703 148.317 182.52 151.471 181.085 154.413C179.864 156.991 177.696 159.266 175.04 160.812ZM155.684 154.686C157.79 160.509 165.087 163.512 171.651 161.267C175.407 159.993 178.582 157.234 180.2 153.958C181.513 151.259 181.696 148.378 180.719 145.618C178.337 138.976 170.094 137.187 163.805 139.34C160.569 140.462 157.851 142.888 156.355 145.982C154.951 148.833 154.707 151.987 155.684 154.686Z" fill="#1F1F1F"/>
<path fill-rule="evenodd" clip-rule="evenodd" d="M145.579 154.413C144.937 151.38 146.189 148.56 148.357 148.105C150.525 147.65 152.814 149.743 153.455 152.775C154.097 155.808 152.845 158.629 150.677 159.084C148.51 159.538 146.22 157.446 145.579 154.413Z" fill="#5CABF9"/>
<g opacity="0.6">
<g opacity="0.6">
<g opacity="0.6">
<path opacity="0.6" fill-rule="evenodd" clip-rule="evenodd" d="M147.685 148.499C146.006 149.379 145.12 151.896 145.67 154.534C145.762 154.929 145.853 155.293 145.975 155.626C145.426 152.654 146.647 149.924 148.784 149.47C150.677 149.075 152.661 150.622 153.577 153.048C153.577 152.988 153.577 152.957 153.547 152.897C152.906 149.864 150.616 147.771 148.448 148.226C148.173 148.287 147.929 148.378 147.685 148.499Z" fill="#FCFCFC"/>
</g>
</g>
</g>
<path fill-rule="evenodd" clip-rule="evenodd" d="M145.487 154.17C145.151 152.169 145.823 150.561 146.953 150.592C148.082 150.622 149.273 152.29 149.609 154.292C149.945 156.293 149.273 157.901 148.143 157.87C147.014 157.84 145.823 156.172 145.487 154.17Z" fill="white"/>
<g opacity="0.2">
<g opacity="0.2">
<g opacity="0.2">
<path opacity="0.2" fill-rule="evenodd" clip-rule="evenodd" d="M145.365 153.443C145.395 153.776 145.426 154.11 145.517 154.474C146.159 157.507 148.448 159.599 150.616 159.144C152.784 158.659 154.005 155.838 153.364 152.806C153.272 152.32 153.12 151.896 152.936 151.471C153.15 154.079 151.959 156.354 150.005 156.779C148.204 157.173 146.281 155.717 145.365 153.443Z" fill="#1C2777"/>
</g>
</g>
</g>
<path d="M151.837 159.175C151.501 159.357 151.166 159.508 150.799 159.569C148.357 160.084 145.792 157.81 145.09 154.504C144.754 152.927 144.876 151.35 145.456 150.076C146.036 148.742 147.044 147.832 148.265 147.589C149.486 147.347 150.769 147.741 151.837 148.742C152.875 149.682 153.639 151.077 153.974 152.654C154.554 155.444 153.608 158.113 151.837 159.175ZM146.067 154.292C146.678 157.052 148.693 158.962 150.585 158.568C150.86 158.507 151.105 158.416 151.349 158.265C152.753 157.416 153.486 155.202 152.967 152.836C152.692 151.471 152.02 150.258 151.135 149.47C150.311 148.711 149.334 148.378 148.448 148.56C147.563 148.742 146.83 149.409 146.372 150.47C145.884 151.593 145.792 152.927 146.067 154.292Z" fill="#1F1F1F"/>
<path fill-rule="evenodd" clip-rule="evenodd" d="M157.363 135.367C157.119 135.519 156.875 135.67 156.63 135.852C156.783 136.186 156.936 136.489 157.149 136.793C159.225 140.28 162.981 142.191 166.919 142.221C169.148 142.252 171.468 141.645 173.544 140.402C175.346 139.34 176.811 137.884 177.819 136.277C172.231 131.97 164.11 131.364 157.363 135.367Z" fill="#5CABF9"/>
<path d="M149.028 158.143C148.754 158.295 148.479 158.386 148.143 158.356C146.739 158.325 145.365 156.506 144.998 154.231C144.754 152.745 144.998 151.411 145.67 150.652C146.036 150.258 146.494 150.046 147.013 150.046C148.418 150.076 149.792 151.896 150.158 154.171C150.402 155.657 150.158 156.991 149.486 157.749C149.334 157.931 149.181 158.053 149.028 158.143ZM146.006 154.08C146.311 155.99 147.41 157.355 148.174 157.355C148.387 157.355 148.54 157.264 148.693 157.112C149.15 156.597 149.303 155.535 149.12 154.352C148.815 152.442 147.716 151.077 146.952 151.077C146.739 151.077 146.586 151.168 146.433 151.32C145.975 151.835 145.823 152.927 146.006 154.08Z" fill="#1F1F1F"/>
<g opacity="0.2">
<g opacity="0.2">
<g opacity="0.2">
<path opacity="0.2" fill-rule="evenodd" clip-rule="evenodd" d="M192.717 151.866C192.565 152.229 188.413 164.27 181.329 168.091L181.055 171.548C189.298 166.241 193.114 157.325 192.717 151.866Z" fill="#1C2777"/>
</g>
</g>
</g>
<g opacity="0.2">
<g opacity="0.2">
<g opacity="0.2">
<path opacity="0.2" fill-rule="evenodd" clip-rule="evenodd" d="M142.098 192.657C142.372 192.536 150.555 188.684 154.157 183.316C154.707 182.497 155.653 182.042 156.63 182.072C157.058 182.103 157.302 182.588 157.058 182.922C152.539 189.2 146.158 192.566 142.098 192.657Z" fill="#1C2777"/>
</g>
</g>
</g>
<g opacity="0.2">
<g opacity="0.2">
<g opacity="0.2">
<g opacity="0.2">
<path opacity="0.2" fill-rule="evenodd" clip-rule="evenodd" d="M156.63 135.822C156.63 135.822 166.461 147.256 177.086 135.64L177.788 136.308C177.788 136.308 176.597 138.976 173.178 140.644C168.537 142.919 160.905 143.586 156.63 135.822Z" fill="#2B3B68"/>
</g>
</g>
</g>
<g opacity="0.2">
<g opacity="0.2">
<g opacity="0.2">
<path opacity="0.2" d="M173.971 140.28C173.727 140.432 173.452 140.553 173.178 140.705C170.491 142.039 167.407 142.524 164.721 142.07C161.24 141.463 158.462 139.37 156.508 135.852L156.203 135.276L156.63 135.761C156.722 135.822 160.965 140.674 166.797 140.765C170.399 140.826 173.849 139.067 177.055 135.579L177.116 135.519L177.879 136.277L177.849 136.307C177.818 136.338 176.78 138.612 173.971 140.28ZM156.966 136.277C161.149 143.252 168.232 142.979 173.147 140.583C176.261 139.067 177.544 136.641 177.696 136.307L177.086 135.731C173.88 139.219 170.399 140.978 166.766 140.917C161.912 140.826 158.157 137.46 156.966 136.277Z" fill="#1C2777"/>
</g>
</g>
</g>
</g>
<path d="M191.161 158.659C189.756 159.508 188.321 159.781 186.947 159.538C184.2 159.053 182.582 156.627 182.49 156.506C182.337 156.263 182.398 155.96 182.643 155.808C182.887 155.656 183.192 155.717 183.345 155.96C183.375 155.99 184.81 158.143 187.131 158.538C188.504 158.78 189.97 158.356 191.405 157.264C191.619 157.082 191.954 157.143 192.107 157.355C192.29 157.567 192.229 157.901 192.015 158.052C191.741 158.295 191.435 158.507 191.161 158.659Z" fill="#1F1F1F"/>
<path d="M156.356 182.77C155.837 183.376 155.348 183.983 154.768 184.559C153.516 185.863 152.234 187.137 150.86 188.32C150.494 188.654 150.097 188.987 149.7 189.29C149.608 189.351 149.517 189.442 149.425 189.503C149.364 189.533 149.334 189.594 149.272 189.624C149.242 189.654 149.242 189.654 149.211 189.685C149.181 189.685 149.181 189.715 149.15 189.715C149.181 189.685 149.211 189.685 149.181 189.715C148.998 189.867 148.784 190.018 148.601 190.17C147.868 190.716 147.074 191.201 146.28 191.626C146.097 191.717 145.914 191.808 145.731 191.899C145.7 191.899 145.578 191.959 145.639 191.929C145.7 191.899 145.578 191.959 145.548 191.959C145.456 191.99 145.365 192.02 145.273 192.05C144.937 192.172 144.601 192.263 144.235 192.323C144.113 192.354 144.327 192.323 144.204 192.323C144.174 192.323 144.113 192.323 144.082 192.323C143.991 192.323 143.93 192.323 143.838 192.323C143.746 192.323 143.685 192.323 143.594 192.323C143.563 192.323 143.533 192.323 143.502 192.323C143.472 192.323 143.472 192.323 143.441 192.323C143.35 192.323 143.563 192.354 143.472 192.323C143.319 192.293 143.197 192.263 143.044 192.232C143.014 192.232 142.983 192.202 142.953 192.202C142.892 192.172 143.075 192.263 142.953 192.202C142.892 192.172 142.831 192.141 142.739 192.081C142.678 192.05 142.617 191.99 142.556 191.959C142.495 191.929 142.647 192.05 142.556 191.959C142.525 191.959 142.525 191.929 142.495 191.929C142.464 191.899 142.403 191.868 142.373 191.838C142.312 191.777 142.25 191.717 142.189 191.656C142.189 191.626 142.189 191.595 142.159 191.565C142.159 191.565 142.22 191.656 142.189 191.595C142.159 191.565 142.128 191.504 142.098 191.474C142.037 191.413 142.006 191.322 141.976 191.262C141.945 191.231 141.945 191.171 141.915 191.14C141.854 191.019 141.945 191.231 141.884 191.08C141.823 190.898 141.762 190.716 141.731 190.534C141.731 190.504 141.701 190.443 141.701 190.413C141.701 190.382 141.701 190.382 141.701 190.352C141.67 190.231 141.701 190.443 141.701 190.382C141.701 190.291 141.67 190.17 141.67 190.079C141.67 189.867 141.67 189.654 141.67 189.472C141.67 189.381 141.67 189.29 141.701 189.199C141.701 189.169 141.731 189.017 141.701 189.078C141.701 189.169 141.701 189.048 141.701 189.048C141.701 189.017 141.701 188.987 141.731 188.927C141.762 188.714 141.823 188.472 141.854 188.259C141.976 187.774 142.128 187.319 142.281 186.834C142.373 186.591 142.464 186.349 142.556 186.106C142.586 186.045 142.617 185.985 142.617 185.924C142.617 185.894 142.647 185.833 142.617 185.924C142.617 185.894 142.647 185.863 142.647 185.833C142.708 185.712 142.769 185.59 142.831 185.439C143.258 184.499 143.746 183.558 144.265 182.649C145.029 181.344 145.853 180.071 146.708 178.797C147.349 177.826 148.021 176.856 148.692 175.916C149.975 174.126 151.226 172.489 152.6 170.821C153.272 170.002 153.974 169.183 154.707 168.394C155.012 168.061 155.348 167.727 155.684 167.424C155.837 167.272 155.989 167.151 156.142 167.03C156.203 166.969 156.295 166.908 156.356 166.848C156.386 166.817 156.417 166.787 156.447 166.787C156.478 166.757 156.6 166.666 156.478 166.757C156.691 166.605 156.936 166.423 157.18 166.302C157.424 166.18 157.485 165.847 157.363 165.635C157.21 165.392 156.936 165.331 156.691 165.453C156.05 165.756 155.531 166.241 155.012 166.726C154.279 167.424 153.608 168.152 152.967 168.91C151.471 170.639 150.036 172.489 148.662 174.339C147.776 175.552 146.861 176.735 146.067 178.008C145.395 179.07 144.693 180.101 144.052 181.163C142.953 182.982 141.915 184.863 141.243 186.864C140.693 188.472 140.235 190.595 141.335 192.081C141.792 192.687 142.434 193.142 143.197 193.263C143.93 193.385 144.693 193.263 145.395 193.021C147.196 192.414 148.784 191.262 150.249 190.079C151.776 188.866 153.211 187.531 154.585 186.136C155.409 185.317 156.233 184.468 156.997 183.589C157.027 183.558 157.058 183.498 157.119 183.467C157.302 183.255 157.333 182.982 157.119 182.77C156.936 182.588 156.508 182.588 156.356 182.77Z" fill="#1F1F1F"/>
<path d="M152.661 187.349C152.386 186.804 151.989 186.288 151.593 185.833C150.646 184.681 149.455 183.71 148.173 182.982C147.135 182.376 146.036 181.921 144.906 181.557C144.296 181.375 144.021 182.315 144.632 182.497C145.609 182.8 146.524 183.195 147.41 183.68C147.807 183.892 148.173 184.135 148.54 184.377C148.692 184.499 148.845 184.59 148.997 184.711C148.936 184.65 149.059 184.741 149.059 184.741C149.089 184.772 149.12 184.802 149.181 184.832C149.242 184.893 149.333 184.954 149.394 185.014C149.883 185.439 150.371 185.894 150.799 186.379C150.89 186.47 150.951 186.561 151.043 186.652C151.074 186.682 151.074 186.713 151.104 186.713C151.165 186.804 151.043 186.622 151.104 186.713C151.135 186.773 151.196 186.804 151.226 186.864C151.348 187.016 151.44 187.168 151.532 187.319C151.623 187.471 151.745 187.653 151.806 187.804C151.928 188.047 152.264 188.108 152.478 187.986C152.722 187.895 152.783 187.592 152.661 187.349Z" fill="#1F1F1F"/>
<g opacity="0.6">
<g opacity="0.6">
<g opacity="0.6">
<path opacity="0.6" fill-rule="evenodd" clip-rule="evenodd" d="M157.272 135.367C157.028 135.519 156.784 135.67 156.57 135.852C156.722 136.186 156.875 136.489 157.058 136.792C157.119 136.883 157.18 136.974 157.241 137.065C158.982 136.004 161.058 135.155 163.409 134.609C164.325 134.397 165.179 134.306 166.034 134.245C166.095 134.609 167.011 134.942 168.141 134.973C169.24 135.003 170.125 134.761 170.278 134.427C172.995 134.882 175.285 135.943 177.147 137.065C177.331 136.792 177.544 136.55 177.728 136.277C177.392 136.004 177.025 135.761 176.659 135.519C175.56 134.791 174.369 134.215 173.117 133.79C172.72 133.638 172.354 133.517 171.957 133.426C171.896 133.396 171.805 133.396 171.744 133.365C171.347 133.274 170.98 133.153 170.583 133.092C170.553 133.092 170.553 133.092 170.522 133.092C169.82 132.941 169.118 132.88 168.385 132.82C168.202 132.82 168.019 132.789 167.836 132.789C167.561 132.789 167.286 132.789 167.011 132.789C166.767 132.789 166.523 132.789 166.279 132.789C166.004 132.789 165.698 132.82 165.424 132.85C165.179 132.88 164.935 132.91 164.691 132.941C164.447 132.971 164.172 133.001 163.928 133.032C163.439 133.123 162.951 133.214 162.462 133.335C162.279 133.365 162.126 133.426 161.943 133.487C161.577 133.578 161.21 133.699 160.875 133.82C160.661 133.881 160.478 133.972 160.264 134.033C159.928 134.154 159.592 134.306 159.287 134.427C159.104 134.518 158.921 134.579 158.768 134.67C158.249 134.821 157.761 135.064 157.272 135.367Z" fill="#FCFCFC"/>
</g>
</g>
</g>
<path d="M173.819 140.856C167.774 144.435 160.111 142.737 156.691 137.065C156.508 136.762 156.356 136.459 156.172 136.065C156.05 135.822 156.142 135.579 156.356 135.428C156.447 135.367 156.508 135.306 156.6 135.276C156.752 135.155 156.936 135.064 157.088 134.943C160.447 132.971 164.232 132.001 168.049 132.213C171.773 132.395 175.285 133.669 178.154 135.883C178.368 136.034 178.429 136.338 178.277 136.55C177.177 138.279 175.651 139.765 173.819 140.856ZM157.302 136.004C157.394 136.186 157.485 136.368 157.577 136.52C160.691 141.706 167.743 143.252 173.3 139.947C174.827 139.037 176.17 137.793 177.147 136.368C171.59 132.365 163.805 132.122 157.607 135.792C157.516 135.883 157.394 135.943 157.302 136.004Z" fill="#1F1F1F"/>
</g>
<defs>
<clipPath id="clip0">
<rect width="305" height="241" fill="white" transform="translate(0.23584)"/>
</clipPath>
</defs>
</svg>
