<svg width="25" height="25" viewBox="0 0 25 25" fill="none" xmlns="http://www.w3.org/2000/svg">
<g clip-path="url(#clip0)">
<path d="M22.6481 10.9143C22.6218 10.7391 22.5246 10.5813 22.3777 10.4754C22.2309 10.3696 22.0465 10.3244 21.8651 10.3497C21.6838 10.3751 21.5203 10.469 21.4106 10.6108C21.301 10.7526 21.2542 10.9306 21.2805 11.1057C21.3493 11.5273 21.3859 11.9532 21.3899 12.38C21.3867 14.0849 20.8577 15.7502 19.8704 17.1637C18.883 18.5772 17.4821 19.6747 15.8462 20.3165C14.2102 20.9582 12.4134 21.115 10.6848 20.7668C8.95618 20.4187 7.37411 19.5815 6.14029 18.3618H9.80566C9.98703 18.3618 10.161 18.2923 10.2892 18.1684C10.4175 18.0446 10.4895 17.8767 10.4895 17.7016C10.4895 17.5265 10.4175 17.3585 10.2892 17.2347C10.161 17.1109 9.98703 17.0413 9.80566 17.0413H3.65112V22.9835C3.65112 23.1586 3.72317 23.3266 3.85141 23.4504C3.97966 23.5742 4.1536 23.6438 4.33496 23.6438C4.51633 23.6438 4.69026 23.5742 4.81851 23.4504C4.94675 23.3266 5.0188 23.1586 5.0188 22.9835V19.1541C6.51445 20.6952 8.48119 21.7344 10.6319 22.1198C12.7826 22.5053 15.0045 22.2168 16.9734 21.2966C18.9423 20.3763 20.5549 18.8725 21.5758 17.0047C22.5967 15.1369 22.9724 13.0029 22.6481 10.9143Z" fill="#484A51" fill-opacity="0.3"/>
<path d="M10.7243 20.5708C9.20032 20.2639 7.79356 19.5685 6.64806 18.5618H9.80566C10.0378 18.5618 10.2619 18.4728 10.4281 18.3123C10.5946 18.1516 10.6895 17.932 10.6895 17.7016C10.6895 17.4711 10.5946 17.2516 10.4281 17.0908C10.2619 16.9303 10.0379 16.8413 9.80566 16.8413H3.65112H3.45112V17.0413V22.9835C3.45112 23.214 3.54601 23.4335 3.7125 23.5943C3.87874 23.7548 4.10277 23.8438 4.33496 23.8438C4.56715 23.8438 4.79118 23.7548 4.95743 23.5943C5.12391 23.4335 5.2188 23.214 5.2188 22.9835V19.6312C6.69595 21.017 8.5663 21.9528 10.5966 22.3167C12.7877 22.7094 15.0516 22.4156 17.0581 21.4778C19.0646 20.5399 20.7095 19.0066 21.7513 17.1006C22.793 15.1946 23.1768 13.0163 22.8458 10.8841C22.8112 10.6546 22.684 10.4497 22.4947 10.3132L22.4947 10.3132C22.3055 10.1768 22.0692 10.1192 21.8374 10.1517C21.6056 10.1841 21.3948 10.3044 21.2524 10.4885C21.1099 10.6728 21.0482 10.9056 21.0827 11.1354L21.0827 11.1354L21.0831 11.138C21.1502 11.5492 21.1859 11.9646 21.1899 12.3808C21.1865 14.0439 20.6704 15.6691 19.7064 17.0492C18.7421 18.4297 17.3731 19.5027 15.7731 20.1303C14.1731 20.7579 12.4153 20.9113 10.7243 20.5708Z" stroke="#484A51" stroke-opacity="0.3" stroke-width="0.4"/>
<path d="M20.7469 1.19541C20.5611 1.1935 20.3817 1.26123 20.2466 1.38436C20.1114 1.50749 20.0309 1.67643 20.0221 1.85566V5.70488C18.6329 4.2279 16.8125 3.19235 14.8011 2.73492C12.7898 2.27749 10.6821 2.41968 8.75613 3.14273C6.83022 3.86578 5.17666 5.13569 4.01372 6.78485C2.85077 8.43401 2.23312 10.3849 2.24229 12.38C2.24133 12.9285 2.28708 13.4761 2.37906 14.0174C2.40527 14.1736 2.48874 14.3155 2.61425 14.4173C2.73977 14.5191 2.89898 14.574 3.06289 14.572H3.17231C3.35084 14.5429 3.51014 14.4466 3.61526 14.3043C3.72038 14.1619 3.76274 13.9851 3.73305 13.8127C3.65132 13.3392 3.61015 12.86 3.60996 12.38C3.60996 10.1036 4.54657 7.92039 6.21375 6.31073C7.88093 4.70107 10.1421 3.79678 12.4999 3.79678C13.7089 3.79152 14.906 4.02683 16.0167 4.48803C17.1274 4.94922 18.1277 5.62642 18.9553 6.47737H15.2762C15.0949 6.47737 14.9209 6.54693 14.7927 6.67075C14.6644 6.79457 14.5924 6.96251 14.5924 7.13762C14.5924 7.31272 14.6644 7.48066 14.7927 7.60448C14.9209 7.7283 15.0949 7.79786 15.2762 7.79786H21.3898V1.85566C21.3901 1.6872 21.3237 1.525 21.2042 1.40226C21.0847 1.27952 20.9211 1.20552 20.7469 1.19541Z" fill="#484A51" fill-opacity="0.3"/>
<path d="M21.5898 1.85603C21.5898 1.85591 21.5898 1.85578 21.5898 1.85566C21.5901 1.63411 21.5026 1.42212 21.3475 1.26274C21.1924 1.10348 20.9816 1.00869 20.7585 0.995749L20.7585 0.995522L21.3898 1.85566L21.5898 1.85603ZM21.5898 1.85603L21.5898 7.79786V7.99786H21.3898H15.2762C15.0441 7.99786 14.82 7.90887 14.6538 7.74836C14.4873 7.58762 14.3924 7.36808 14.3924 7.13762C14.3924 6.90715 14.4873 6.68761 14.6538 6.52687C14.82 6.36636 15.0441 6.27737 15.2762 6.27737H18.4622M21.5898 1.85603L18.4622 6.27737M18.4622 6.27737C17.7273 5.60416 16.8737 5.06046 15.94 4.67274C14.8541 4.2218 13.6833 3.99164 12.5007 3.99678L12.4999 3.99678C10.1929 3.99678 7.98185 4.88165 6.35267 6.45462C4.72373 8.02735 3.80996 10.1589 3.80996 12.38C3.81015 12.8486 3.85034 13.3164 3.93014 13.7787L3.93016 13.7788C3.96921 14.0056 3.91324 14.2374 3.77614 14.4231C3.63925 14.6084 3.43325 14.7321 3.20448 14.7694L3.1885 14.772H3.17231H3.06407C2.85463 14.7743 2.65031 14.7041 2.48827 14.5727C2.32579 14.4409 2.21634 14.2559 2.18185 14.0507M18.4622 6.27737L2.24229 12.38L2.04229 12.3796C2.04229 12.3798 2.04229 12.38 2.04229 12.3802C2.04135 12.9398 2.08803 13.4985 2.18185 14.0507M2.18185 14.0507C2.18184 14.0506 2.18182 14.0505 2.18181 14.0505L2.37906 14.0174L2.18188 14.0509C2.18187 14.0508 2.18186 14.0507 2.18185 14.0507ZM20.0221 5.41613V5.70488C19.9564 5.63502 19.8897 5.56614 19.8221 5.49827V5.21762C19.8896 5.28284 19.9563 5.34901 20.0221 5.41613Z" stroke="#484A51" stroke-opacity="0.3" stroke-width="0.4"/>
</g>
<defs>
<clipPath id="clip0">
<rect width="24.6182" height="23.7688" fill="white" transform="translate(0.190918 0.535156)"/>
</clipPath>
</defs>
</svg>
