<?xml version="1.0" standalone="no"?>
<!DOCTYPE svg PUBLIC "-//W3C//DTD SVG 20010904//EN"
 "http://www.w3.org/TR/2001/REC-SVG-20010904/DTD/svg10.dtd">
<svg version="1.0" xmlns="http://www.w3.org/2000/svg"
 width="512.000000pt" height="512.000000pt" viewBox="0 0 512.000000 512.000000"
 preserveAspectRatio="none">

<g transform="translate(0.000000,512.000000) scale(0.100000,-0.100000)"
fill="#F2F2F2" stroke="none">
<path d="M2905 4535 l-25 -24 0 -1656 0 -1655 -147 0 -148 0 -120 80 c-112 75
-124 80 -172 80 l-53 0 0 428 0 427 80 120 80 120 0 148 c0 144 -1 149 -25
172 -21 22 -33 25 -101 25 -75 0 -78 1 -119 38 -57 53 -119 88 -190 106 -141
37 -231 14 -416 -107 -26 -17 -27 -17 -76 22 l-50 40 -1 83 c0 46 -6 100 -14
122 l-14 39 51 51 c59 59 75 102 75 203 l0 70 49 30 c31 20 59 48 77 79 27 45
29 58 33 171 3 120 3 122 -23 147 l-25 26 -220 0 c-262 0 -299 -9 -373 -88
-88 -94 -99 -202 -34 -339 20 -41 36 -87 36 -102 0 -25 -4 -28 -67 -38 -99
-17 -197 -70 -269 -145 -54 -56 -77 -96 -207 -355 -81 -161 -154 -318 -162
-350 -17 -67 -20 -294 -4 -362 5 -25 57 -154 114 -288 l104 -243 -194 -273
c-149 -207 -195 -279 -195 -302 0 -25 32 -61 223 -252 266 -266 253 -260 354
-160 l63 64 0 203 0 203 96 119 c52 65 113 144 135 175 21 31 39 50 39 42 0
-8 11 -133 25 -279 14 -146 25 -327 25 -403 0 -133 1 -139 25 -162 l24 -25
311 0 311 0 24 25 c23 22 25 32 25 120 l0 95 50 0 c39 0 50 -4 50 -16 0 -8 24
-39 53 -67 73 -73 146 -93 241 -65 45 13 146 105 146 132 0 14 30 16 250 16
l250 0 0 -95 c0 -88 2 -98 25 -120 24 -25 26 -25 215 -25 189 0 191 0 215 25
23 22 25 32 25 120 l0 95 560 0 560 0 0 -95 c0 -88 2 -98 25 -120 24 -25 26
-25 215 -25 189 0 191 0 215 25 l25 24 0 1951 0 1951 -25 24 -24 25 -991 0
-991 0 -24 -25z m455 -215 l0 -80 80 0 80 0 0 80 0 80 160 0 160 0 0 -320 0
-320 -400 0 -400 0 0 320 0 320 160 0 160 0 0 -80z m960 0 l0 -80 80 0 80 0 0
80 0 80 160 0 160 0 0 -320 0 -320 -400 0 -400 0 0 320 0 320 160 0 160 0 0
-80z m-2800 -601 c0 -57 -13 -75 -80 -109 -84 -42 -103 -40 -161 20 -55 57
-88 64 -133 29 -22 -17 -26 -18 -26 -4 0 28 29 74 58 89 20 12 65 15 185 16
l157 0 0 -41z m1840 -199 l0 -80 80 0 80 0 0 80 0 80 160 0 160 0 0 -320 0
-320 -400 0 -400 0 0 320 0 320 160 0 160 0 0 -80z m960 0 l0 -80 80 0 80 0 0
80 0 80 160 0 160 0 0 -320 0 -320 -400 0 -400 0 0 320 0 320 160 0 160 0 0
-80z m-3086 -65 c10 -8 43 -20 72 -26 l54 -12 0 -44 c0 -33 -6 -50 -25 -68
-30 -31 -36 -31 -91 1 l-44 26 0 69 c0 38 3 69 8 69 4 0 15 -7 26 -15z m-85
-281 c52 -26 91 -71 106 -123 7 -22 3 -21 -39 14 -26 21 -48 36 -49 34 -2 -2
-24 -30 -50 -62 l-47 -59 100 -80 c67 -53 97 -84 92 -92 -22 -38 -128 -175
-135 -176 -4 0 -51 34 -103 76 -52 42 -96 75 -98 73 -1 -2 -24 -30 -49 -62
l-47 -59 50 -40 c27 -22 50 -44 50 -49 0 -5 -86 -9 -200 -9 l-200 0 125 249
c68 137 138 265 154 283 32 37 116 87 165 99 65 15 121 10 175 -17z m827 -402
c22 -11 46 -28 53 -36 12 -14 6 -16 -61 -16 l-75 0 -114 -86 c-197 -149 -300
-180 -448 -135 -39 12 -71 24 -71 28 0 9 131 183 139 183 3 0 26 -16 50 -35
25 -20 55 -35 70 -35 16 0 66 27 125 66 54 36 115 72 135 80 49 19 146 12 197
-14z m1384 -52 l0 -80 80 0 80 0 0 80 0 80 160 0 160 0 0 -320 0 -320 -400 0
-400 0 0 320 0 320 160 0 160 0 0 -80z m960 0 l0 -80 80 0 80 0 0 80 0 80 160
0 160 0 0 -320 0 -320 -400 0 -400 0 0 320 0 320 160 0 160 0 0 -80z m-2141
-306 l-62 -94 -117 0 -117 0 -25 38 c-14 20 -32 49 -42 64 l-17 27 74 55 74
56 122 0 c113 0 123 2 144 23 l22 22 3 -49 c3 -45 -1 -55 -59 -142z m-972 -38
c114 -57 246 -70 378 -36 43 11 81 16 84 12 3 -5 25 -38 49 -74 l42 -65 -2
-656 -3 -657 -75 50 -75 50 -5 452 c-5 450 -5 453 -29 513 -41 101 -121 171
-343 295 l-187 105 -1 41 c0 62 15 69 69 30 25 -19 70 -45 98 -60z m-327 -29
c0 -29 6 -61 13 -70 6 -10 113 -75 237 -146 239 -136 277 -167 300 -249 6 -23
10 -196 10 -448 l0 -412 -82 -20 c-45 -12 -83 -20 -85 -19 -1 2 -18 180 -38
397 -19 217 -39 405 -44 416 -6 14 -109 77 -293 179 -177 98 -299 172 -325
197 -46 46 -80 114 -90 183 l-6 45 202 0 201 0 0 -53z m1200 -587 l0 -400 -80
0 -80 0 0 400 0 400 80 0 80 0 0 -400z m1280 160 l0 -80 80 0 80 0 0 80 0 80
160 0 160 0 0 -320 0 -320 -400 0 -400 0 0 320 0 320 160 0 160 0 0 -80z m960
0 l0 -80 80 0 80 0 0 80 0 80 160 0 160 0 0 -320 0 -320 -400 0 -400 0 0 320
0 320 160 0 160 0 0 -80z m-3552 -55 l181 -100 7 -43 c9 -60 -3 -140 -30 -198
-13 -27 -72 -109 -131 -182 -89 -113 -110 -133 -128 -128 -12 2 -53 10 -92 17
-38 7 -73 15 -77 18 -4 3 45 78 108 166 63 88 114 169 114 181 0 11 -34 98
-75 194 -41 96 -75 176 -75 178 0 6 4 4 198 -103z m1619 -726 l93 -62 0 -58 0
-59 -50 0 c-39 0 -50 4 -50 16 0 8 -24 39 -52 67 -105 104 -231 104 -335 0
-29 -28 -53 -59 -53 -67 0 -9 -4 -16 -10 -16 -6 0 -10 47 -10 120 l0 120 187
0 187 0 93 -61z m2413 -59 l0 -120 -880 0 -880 0 0 120 0 120 880 0 880 0 0
-120z m-4273 -2 l113 -22 0 -151 0 -150 -147 147 -146 146 17 26 c20 31 21 32
163 4z m2353 -78 l0 -40 -120 0 -120 0 0 40 0 40 120 0 120 0 0 -40z m-665
-65 c50 -49 15 -135 -55 -135 -19 0 -40 9 -55 25 -16 15 -25 36 -25 55 0 19 9
40 25 55 15 16 36 25 55 25 19 0 40 -9 55 -25z m-620 -122 c56 -36 85 -62 85
-75 0 -17 -12 -18 -200 -18 l-200 0 0 49 0 49 98 25 c53 14 105 26 115 26 9 1
55 -24 102 -56z m1605 -53 l0 -40 -80 0 -80 0 0 40 0 40 80 0 80 0 0 -40z
m1600 0 l0 -40 -80 0 -80 0 0 40 0 40 80 0 80 0 0 -40z"/>
</g>
</svg>
