<svg width="23" height="24" viewBox="0 0 23 24" fill="none" xmlns="http://www.w3.org/2000/svg">
<path d="M11.5 23.4434C17.8513 23.4434 23 18.2947 23 11.9434C23 5.59215 17.8513 0.44342 11.5 0.44342C5.14873 0.44342 0 5.59215 0 11.9434C0 18.2947 5.14873 23.4434 11.5 23.4434Z" fill="white"/>
<path d="M19.3322 8.2158H3.66797C3.36002 8.2158 3.11182 7.96759 3.11182 7.65964C3.11182 7.35169 3.36002 7.10349 3.66797 7.10349H19.3322C19.6402 7.10349 19.8884 7.35169 19.8884 7.65964C19.8884 7.96759 19.6402 8.2158 19.3322 8.2158Z" fill="#555569"/>
<path d="M19.3322 12.2192H3.66797C3.36002 12.2192 3.11182 11.971 3.11182 11.6631C3.11182 11.3551 3.36002 11.1069 3.66797 11.1069H19.3322C19.6402 11.1069 19.8884 11.3551 19.8884 11.6631C19.8884 11.971 19.6402 12.2192 19.3322 12.2192Z" fill="#555569"/>
<path d="M13.0077 16.4064H3.66797C3.36002 16.4064 3.11182 16.1582 3.11182 15.8503C3.11182 15.5423 3.36002 15.2941 3.66797 15.2941H13.0077C13.3157 15.2941 13.5639 15.5423 13.5639 15.8503C13.5639 16.1582 13.3157 16.4064 13.0077 16.4064Z" fill="#555569"/>
<path d="M19.3323 16.4064H15.1221C14.8141 16.4064 14.5659 16.1582 14.5659 15.8503C14.5659 15.5423 14.8141 15.2941 15.1221 15.2941H19.3323C19.6403 15.2941 19.8885 15.5423 19.8885 15.8503C19.8885 16.1582 19.6403 16.4064 19.3323 16.4064Z" fill="#555569"/>
<path d="M16.6709 17.9554V13.7452C16.6709 13.4372 16.9191 13.189 17.2271 13.189C17.535 13.189 17.7832 13.4372 17.7832 13.7452V17.9554C17.7832 18.2634 17.535 18.5116 17.2271 18.5116C16.9191 18.5116 16.6709 18.2634 16.6709 17.9554Z" fill="#555569"/>
</svg>
