<svg width="25" height="24" viewBox="0 0 25 24" fill="none" xmlns="http://www.w3.org/2000/svg">
<g clip-path="url(#clip0)">
<path d="M12.486 23.9963C10.3417 23.9963 8.20109 24 6.05676 23.9963C3.55629 23.9888 1.40071 22.3728 0.725924 19.9731C0.594715 19.5082 0.51599 19.0133 0.51599 18.5334C0.500995 14.1765 0.497246 9.82347 0.508492 5.46665C0.51599 2.69958 2.64532 0.352445 5.39696 0.0412436C5.63689 0.0149977 5.88431 0.00374941 6.12424 0C10.3754 0 14.6228 0 18.874 0C21.6931 0 23.9499 1.8972 24.4298 4.67927C24.4823 4.97172 24.4972 5.27543 24.4972 5.57538C24.501 9.85721 24.501 14.1353 24.501 18.4171C24.4972 21.2067 22.5291 23.5088 19.7775 23.9363C19.4813 23.9813 19.1814 23.9963 18.8815 23.9963C16.7447 24 14.6153 23.9963 12.486 23.9963ZM15.6688 13.033C16.2611 13.033 16.8571 13.0405 17.4494 13.033C18.233 13.0255 18.739 12.1856 18.3829 11.4882C18.158 11.0495 17.7718 10.8883 17.2995 10.892C16.1861 10.8958 15.0764 10.892 13.963 10.8958C13.6032 10.8958 13.5769 10.8696 13.5769 10.5171C13.5769 9.36604 13.5807 8.21872 13.5732 7.06765C13.5694 6.33276 12.9471 5.84159 12.2498 5.99906C11.7662 6.11155 11.4326 6.53898 11.4288 7.07515C11.4251 8.22622 11.4288 9.37354 11.4288 10.5246C11.4288 10.8583 11.3988 10.892 11.0652 10.892C9.9293 10.892 8.78965 10.892 7.65376 10.892C7.26763 10.892 6.94148 11.0195 6.7128 11.342C6.46913 11.6869 6.43164 12.0619 6.61908 12.4406C6.81402 12.8342 7.14767 13.033 7.58628 13.0367C8.70343 13.0442 9.82433 13.0405 10.9415 13.0405C11.4326 13.0405 11.4326 13.0405 11.4288 13.5279C11.4288 14.634 11.4251 15.74 11.4288 16.8461C11.4326 17.4798 11.8674 17.9484 12.4523 17.9709C13.0933 17.9934 13.5732 17.5173 13.5769 16.8574C13.5807 15.7025 13.5769 14.544 13.5769 13.3892C13.5769 13.0892 13.6219 13.0442 13.9293 13.0442C14.5066 13.033 15.0877 13.033 15.6688 13.033Z" fill="white"/>
</g>
<defs>
<clipPath id="clip0">
<rect width="24" height="24" fill="white" transform="translate(0.5)"/>
</clipPath>
</defs>
</svg>
