<svg width="34" height="34" viewBox="0 0 34 34" fill="none" xmlns="http://www.w3.org/2000/svg">
<path d="M4.72228 6.61111C4.47179 6.61111 4.23157 6.71062 4.05445 6.88774C3.87734 7.06485 3.77783 7.30508 3.77783 7.55556V28.3333C3.77783 28.5838 3.87734 28.824 4.05445 29.0012C4.23157 29.1783 4.47179 29.2778 4.72228 29.2778C4.97276 29.2778 5.21298 29.1783 5.3901 29.0012C5.56722 28.824 5.66672 28.5838 5.66672 28.3333V7.55556C5.66672 7.30508 5.56722 7.06485 5.3901 6.88774C5.21298 6.71062 4.97276 6.61111 4.72228 6.61111Z" fill="white"/>
<path d="M8.50011 6.61111C8.24963 6.61111 8.0094 6.71062 7.83229 6.88774C7.65517 7.06485 7.55566 7.30508 7.55566 7.55556V24.5556C7.55566 24.806 7.65517 25.0463 7.83229 25.2234C8.0094 25.4005 8.24963 25.5 8.50011 25.5C8.75059 25.5 8.99081 25.4005 9.16793 25.2234C9.34505 25.0463 9.44455 24.806 9.44455 24.5556V7.55556C9.44455 7.30508 9.34505 7.06485 9.16793 6.88774C8.99081 6.71062 8.75059 6.61111 8.50011 6.61111Z" fill="white"/>
<path d="M12.2779 6.61111C12.0275 6.61111 11.7872 6.71062 11.6101 6.88774C11.433 7.06485 11.3335 7.30508 11.3335 7.55556V24.5556C11.3335 24.806 11.433 25.0463 11.6101 25.2234C11.7872 25.4005 12.0275 25.5 12.2779 25.5C12.5284 25.5 12.7686 25.4005 12.9458 25.2234C13.1229 25.0463 13.2224 24.806 13.2224 24.5556V7.55556C13.2224 7.30508 13.1229 7.06485 12.9458 6.88774C12.7686 6.71062 12.5284 6.61111 12.2779 6.61111Z" fill="white"/>
<path d="M16.0553 6.61111C15.8048 6.61111 15.5646 6.71062 15.3875 6.88774C15.2103 7.06485 15.1108 7.30508 15.1108 7.55556V24.5556C15.1108 24.806 15.2103 25.0463 15.3875 25.2234C15.5646 25.4005 15.8048 25.5 16.0553 25.5C16.3058 25.5 16.546 25.4005 16.7231 25.2234C16.9002 25.0463 16.9997 24.806 16.9997 24.5556V7.55556C16.9997 7.30508 16.9002 7.06485 16.7231 6.88774C16.546 6.71062 16.3058 6.61111 16.0553 6.61111Z" fill="white"/>
<path d="M19.8336 6.61111C19.5831 6.61111 19.3429 6.71062 19.1658 6.88774C18.9887 7.06485 18.8892 7.30508 18.8892 7.55556V24.5556C18.8892 24.806 18.9887 25.0463 19.1658 25.2234C19.3429 25.4005 19.5831 25.5 19.8336 25.5C20.0841 25.5 20.3243 25.4005 20.5014 25.2234C20.6785 25.0463 20.778 24.806 20.778 24.5556V7.55556C20.778 7.30508 20.6785 7.06485 20.5014 6.88774C20.3243 6.71062 20.0841 6.61111 19.8336 6.61111Z" fill="white"/>
<path d="M23.6109 6.61111C23.3605 6.61111 23.1202 6.71062 22.9431 6.88774C22.766 7.06485 22.6665 7.30508 22.6665 7.55556V24.5556C22.6665 24.806 22.766 25.0463 22.9431 25.2234C23.1202 25.4005 23.3605 25.5 23.6109 25.5C23.8614 25.5 24.1017 25.4005 24.2788 25.2234C24.4559 25.0463 24.5554 24.806 24.5554 24.5556V7.55556C24.5554 7.30508 24.4559 7.06485 24.2788 6.88774C24.1017 6.71062 23.8614 6.61111 23.6109 6.61111Z" fill="white"/>
<path d="M27.3888 6.61111C27.1383 6.61111 26.8981 6.71062 26.721 6.88774C26.5438 7.06485 26.4443 7.30508 26.4443 7.55556V24.5556C26.4443 24.806 26.5438 25.0463 26.721 25.2234C26.8981 25.4005 27.1383 25.5 27.3888 25.5C27.6393 25.5 27.8795 25.4005 28.0566 25.2234C28.2337 25.0463 28.3332 24.806 28.3332 24.5556V7.55556C28.3332 7.30508 28.2337 7.06485 28.0566 6.88774C27.8795 6.71062 27.6393 6.61111 27.3888 6.61111Z" fill="white"/>
<path d="M31.1666 6.61111C30.9161 6.61111 30.6759 6.71062 30.4988 6.88774C30.3217 7.06485 30.2222 7.30508 30.2222 7.55556V28.3333C30.2222 28.5838 30.3217 28.824 30.4988 29.0012C30.6759 29.1783 30.9161 29.2778 31.1666 29.2778C31.4171 29.2778 31.6573 29.1783 31.8344 29.0012C32.0116 28.824 32.1111 28.5838 32.1111 28.3333V7.55556C32.1111 7.30508 32.0116 7.06485 31.8344 6.88774C31.6573 6.71062 31.4171 6.61111 31.1666 6.61111Z" fill="white"/>
</svg>
