<svg width="28" height="28" viewBox="0 0 28 28" fill="none" xmlns="http://www.w3.org/2000/svg">
<circle cx="13.7909" cy="14.2822" r="13.0556" fill="#1A518E"/>
<path d="M13.7798 27.9655C6.21976 27.9655 0.079367 21.8194 0.0964712 14.2651C0.113575 6.71646 6.23686 0.598877 13.7798 0.598877C21.3341 0.598877 27.4745 6.74497 27.4631 14.2993C27.4517 21.8479 21.3227 27.9655 13.7798 27.9655ZM25.7527 14.2879C25.7584 7.6857 20.3934 2.31499 13.7855 2.30929C7.1833 2.30359 1.81259 7.6686 1.80689 14.2765C1.80119 20.8787 7.16619 26.2494 13.7741 26.2551C20.3763 26.2608 25.747 20.9015 25.7527 14.2879Z" fill="#1A518E"/>
<path d="M16.3796 12.167C16.8072 11.7565 17.2463 11.3289 17.7138 10.8785H8.66567V12.5433C8.66567 13.0222 8.27797 13.4042 7.80476 13.4042C7.32584 13.4042 6.94385 13.0165 6.94385 12.5433C6.94385 12.224 6.94385 11.9047 6.94385 11.5855C6.94385 11.3688 6.94385 11.1464 6.94385 10.9298C6.96095 9.88074 7.67363 9.15666 8.72268 9.15096C9.79454 9.13956 10.8664 9.15096 11.944 9.15096C13.7399 9.15096 15.5358 9.15096 17.3261 9.15096C17.4287 9.15096 17.5256 9.15096 17.6853 9.15096C17.2348 8.70055 16.8015 8.26725 16.3853 7.85104C16.049 7.52036 16.049 6.97873 16.3853 6.64235C16.391 6.63665 16.391 6.63665 16.3967 6.63095C16.7274 6.29457 17.2691 6.29457 17.6054 6.63095C18.1756 7.19539 18.9453 7.96507 18.9966 8.01068C20.0171 9.03123 19.2417 8.25584 20.2623 9.27639C20.764 9.77811 20.764 10.2228 20.2566 10.7245C19.236 11.7451 20.0399 10.9469 19.0194 11.9674C18.9738 12.0131 18.1756 12.8113 17.5883 13.3871C17.2577 13.7178 16.7217 13.7178 16.391 13.3871L16.3796 13.3757C16.0376 13.0393 16.0376 12.4977 16.3796 12.167Z" fill="white"/>
<path d="M18.9111 17.6746V16.0155C18.9111 15.5423 19.2931 15.1603 19.7663 15.1603C20.2395 15.1603 20.6215 15.5423 20.6215 16.0155C20.6215 16.2948 20.6215 16.5457 20.6215 16.5799C20.6215 17.3211 20.6272 16.8536 20.6215 17.5948C20.6158 18.6951 19.8974 19.4135 18.7914 19.4135C15.9407 19.4192 13.09 19.4135 10.2393 19.4135C10.1367 19.4135 10.0398 19.4135 9.85161 19.4135C10.3134 19.8582 10.7467 20.2801 11.1686 20.6792C11.5164 21.0099 11.5221 21.5629 11.18 21.905L11.1686 21.9164C10.8322 22.2528 10.2849 22.2585 9.94853 21.9221C9.35559 21.3349 8.54029 20.5253 8.50038 20.4797C7.45703 19.4363 8.31223 20.2972 7.27458 19.2539C6.81277 18.7864 6.81277 18.3302 7.27458 17.8627C8.31223 16.8194 7.55965 17.5777 8.603 16.5343C8.64291 16.4944 9.4183 15.7247 9.97704 15.166C10.2963 14.8467 10.8151 14.8467 11.1401 15.166C11.1458 15.1717 11.1458 15.1717 11.1515 15.1774C11.4822 15.5024 11.4765 16.0326 11.1401 16.3576C10.7239 16.7624 10.2906 17.1729 9.86301 17.5834C9.88011 17.6233 9.88011 17.629 9.89722 17.6689L18.9111 17.6746Z" fill="white"/>
</svg>
