<svg width="22" height="22" viewBox="0 0 22 22" fill="none" xmlns="http://www.w3.org/2000/svg">
<path d="M12.1432 6.28559C12.0348 6.28559 11.9264 6.28638 11.8181 6.28559C11.1353 6.2824 11.1353 6.2824 11.0937 5.5956C11.0726 5.23865 10.8477 5.11595 10.5291 5.28566C9.94005 5.59958 9.90257 5.58922 9.56119 5.01078C9.41861 4.76936 9.27277 4.53113 9.13344 4.28812C8.91509 3.90568 8.9542 3.76625 9.33062 3.54475C9.81702 3.25871 9.8211 3.04996 9.34528 2.76632C8.94116 2.5249 8.90694 2.40539 9.14322 1.99506C9.31595 1.69468 9.50334 1.40227 9.67281 1.1003C9.8431 0.795943 10.0492 0.729015 10.3702 0.912269C10.9284 1.23177 11.0937 1.13377 11.0986 0.495566C11.1011 0.166506 11.2437 -1.55828e-05 11.5859 0.00317144C11.9655 0.00635846 12.3452 0.011139 12.7249 0.00157793C13.1103 -0.00798313 13.2537 0.174474 13.2553 0.537794C13.2569 1.11385 13.459 1.22778 13.956 0.928204C14.2843 0.730609 14.5019 0.780804 14.6827 1.11146C14.8612 1.43892 15.0543 1.75922 15.2547 2.07394C15.438 2.36236 15.3777 2.57111 15.0763 2.72568C15.016 2.75676 14.9581 2.79102 14.9011 2.82607C14.5613 3.03721 14.5646 3.27863 14.9076 3.47941C15.4657 3.80529 15.4779 3.85309 15.148 4.40524C14.9834 4.68012 14.8156 4.95182 14.6583 5.23068C14.5011 5.50875 14.2982 5.54699 14.0155 5.40358C13.3954 5.08966 13.2716 5.15658 13.2545 5.8147C13.2455 6.14775 13.0964 6.30311 12.755 6.28877C12.5522 6.2808 12.3485 6.28718 12.1448 6.28718C12.1432 6.28638 12.1432 6.28559 12.1432 6.28559ZM14.1703 1.67078C13.4297 2.0596 12.5408 1.62218 12.4764 0.733796C12.2678 0.733796 12.0592 0.733796 11.8507 0.733796C11.845 1.57119 10.9862 2.05163 10.1641 1.68353C10.0663 1.862 9.96775 2.04207 9.84961 2.25639C10.3311 2.41256 10.4118 2.71373 10.4273 3.15593C10.4436 3.63319 10.2668 3.89691 9.84391 4.07778C9.97101 4.28414 10.0737 4.45066 10.1739 4.61399C10.9789 4.23474 11.7961 4.71438 11.8702 5.55257C12.0804 5.55257 12.2898 5.55257 12.4951 5.55257C12.619 4.65781 13.2186 4.3184 14.176 4.61001C14.2762 4.44428 14.3813 4.27059 14.4831 4.10248C13.6847 3.51128 13.6896 2.82289 14.4831 2.19664C14.3813 2.02374 14.2754 1.84607 14.1703 1.67078Z" fill="#555569"/>
<path d="M13.6195 3.12648C13.6252 3.89933 12.9987 4.52319 12.21 4.53116C11.4205 4.53992 10.7801 3.93439 10.7614 3.16154C10.7426 2.38231 11.3928 1.73614 12.1962 1.73773C12.9897 1.73853 13.6147 2.34805 13.6195 3.12648ZM12.1921 3.82125C12.5742 3.82683 12.8936 3.52247 12.9009 3.14799C12.9074 2.76794 12.6109 2.46517 12.219 2.45242C11.8108 2.43888 11.4865 2.74483 11.489 3.14002C11.4906 3.51211 11.8051 3.81647 12.1921 3.82125Z" fill="#555569"/>
<path d="M18.3231 12.611C13.4044 11.043 9.56122 8.74038 7.20332 7.08472C4.64417 5.28724 3.26724 3.88017 3.21021 3.82121L3.68276 3.3822C3.73735 3.43877 9.27605 9.05669 18.5251 12.0055L18.3231 12.611Z" fill="#555569"/>
<path d="M17.4642 13.6883L18.4444 10.7251C18.5128 10.5188 18.7915 10.4758 18.9218 10.651L20.5701 12.8732C20.6801 13.0222 20.6059 13.2325 20.4259 13.2835L17.7975 14.0245C17.5889 14.0835 17.3974 13.8898 17.4642 13.6883ZM18.8338 11.6183L18.3042 13.2182L19.7235 12.8182L18.8338 11.6183Z" fill="#555569"/>
<path d="M5.73424 22H0.554848C0.249315 22 0 21.757 0 21.4574V11.2255C0 10.9267 0.2485 10.6829 0.554848 10.6829H5.73424C6.03977 10.6829 6.28909 10.9259 6.28909 11.2255V21.4574C6.28909 21.757 6.04059 22 5.73424 22ZM0.651804 21.3626H5.63729V11.3203H0.651804V21.3626Z" fill="#555569"/>
<path d="M4.14714 22H2.12085C1.88783 22 1.70532 21.8375 1.70532 21.6295V19.2711C1.70532 19.0632 1.88783 18.9006 2.12085 18.9006H4.14714C4.38016 18.9006 4.56267 19.0632 4.56267 19.2711V21.6295C4.56267 21.8375 4.38016 22 4.14714 22ZM2.35794 21.3626H3.91086V19.5388H2.35794V21.3626Z" fill="#555569"/>
<path d="M2.09397 11.9171H1.34521V12.6493H2.09397V11.9171Z" fill="#555569"/>
<path d="M3.47898 11.9171H2.73022V12.6493H3.47898V11.9171Z" fill="#555569"/>
<path d="M4.94554 11.9171H4.19678V12.6493H4.94554V11.9171Z" fill="#555569"/>
<path d="M2.09397 13.2715H1.34521V14.0038H2.09397V13.2715Z" fill="#555569"/>
<path d="M3.47898 13.2715H2.73022V14.0038H3.47898V13.2715Z" fill="#555569"/>
<path d="M4.94554 13.2715H4.19678V14.0038H4.94554V13.2715Z" fill="#555569"/>
<path d="M2.09397 14.7057H1.34521V15.4379H2.09397V14.7057Z" fill="#555569"/>
<path d="M3.47898 14.7057H2.73022V15.4379H3.47898V14.7057Z" fill="#555569"/>
<path d="M4.94554 14.7057H4.19678V15.4379H4.94554V14.7057Z" fill="#555569"/>
<path d="M2.09397 16.0602H1.34521V16.7924H2.09397V16.0602Z" fill="#555569"/>
<path d="M3.47898 16.0602H2.73022V16.7924H3.47898V16.0602Z" fill="#555569"/>
<path d="M4.94554 16.0602H4.19678V16.7924H4.94554V16.0602Z" fill="#555569"/>
<path d="M2.09397 17.4944H1.34521V18.2266H2.09397V17.4944Z" fill="#555569"/>
<path d="M3.47898 17.4944H2.73022V18.2266H3.47898V17.4944Z" fill="#555569"/>
<path d="M4.94554 17.4944H4.19678V18.2266H4.94554V17.4944Z" fill="#555569"/>
<path d="M13.6788 22H8.49943C8.18819 22 7.94458 21.7936 7.94458 21.5299V14.6172C7.94458 14.3535 8.18819 14.1472 8.49943 14.1472H13.6788C13.9901 14.1472 14.2337 14.3535 14.2337 14.6172V21.5299C14.2337 21.7936 13.9901 22 13.6788 22ZM8.59638 21.3626H13.5819V14.7854H8.59638V21.3626Z" fill="#555569"/>
<path d="M14.0642 14.8005H7.94625C7.76782 14.8005 7.34985 14.8005 7.34985 14.4468V12.8293C7.34985 12.4756 7.76782 12.4756 7.94625 12.4756H14.0642C14.2427 12.4756 14.6606 12.4756 14.6606 12.8293V14.4468C14.6606 14.8005 14.2427 14.8005 14.0642 14.8005ZM8.00166 14.1631H14.008V13.1122H8.00166V14.1631Z" fill="#555569"/>
<path d="M12.0917 22H10.0654C9.82833 22 9.6499 21.847 9.6499 21.6438V19.9284C9.6499 19.7252 9.82833 19.5723 10.0654 19.5723H12.0917C12.3288 19.5723 12.5072 19.7252 12.5072 19.9284V21.6438C12.5072 21.847 12.3288 22 12.0917 22ZM10.3025 21.3626H11.8554V20.2097H10.3025V21.3626Z" fill="#555569"/>
<path d="M10.0386 15.4228H9.28979V16.155H10.0386V15.4228Z" fill="#555569"/>
<path d="M11.4238 15.4228H10.675V16.155H11.4238V15.4228Z" fill="#555569"/>
<path d="M12.8901 15.4228H12.1414V16.155H12.8901V15.4228Z" fill="#555569"/>
<path d="M10.0386 16.7773H9.28979V17.5095H10.0386V16.7773Z" fill="#555569"/>
<path d="M11.4238 16.7773H10.675V17.5095H11.4238V16.7773Z" fill="#555569"/>
<path d="M12.8901 16.7773H12.1414V17.5095H12.8901V16.7773Z" fill="#555569"/>
<path d="M10.0386 18.1318H9.28979V18.864H10.0386V18.1318Z" fill="#555569"/>
<path d="M11.4238 18.1318H10.675V18.864H11.4238V18.1318Z" fill="#555569"/>
<path d="M12.8901 18.1318H12.1414V18.864H12.8901V18.1318Z" fill="#555569"/>
<path d="M21.4452 22H16.2658C15.9497 22 15.7109 21.8128 15.7109 21.5642V16.2108C15.7109 15.9622 15.9497 15.775 16.2658 15.775H21.4452C21.7613 15.775 22 15.9622 22 16.2108V21.5642C22 21.8128 21.7613 22 21.4452 22ZM16.3627 21.3626H21.3482V16.4132H16.3627V21.3626Z" fill="#555569"/>
<path d="M19.8581 22H17.8318C17.5588 22 17.4163 21.8247 17.4163 21.6526V20.3276C17.4163 20.1547 17.5588 19.9802 17.8318 19.9802H19.8581C20.131 19.9802 20.2736 20.1555 20.2736 20.3276V21.6526C20.2736 21.8255 20.131 22 19.8581 22ZM18.0689 21.3626H19.6218V20.6168H18.0689V21.3626Z" fill="#555569"/>
<path d="M17.8047 17.1757H17.0559V17.9079H17.8047V17.1757Z" fill="#555569"/>
<path d="M19.1899 17.1757H18.4412V17.9079H19.1899V17.1757Z" fill="#555569"/>
<path d="M20.6565 17.1757H19.9077V17.9079H20.6565V17.1757Z" fill="#555569"/>
<path d="M17.8047 18.5302H17.0559V19.2624H17.8047V18.5302Z" fill="#555569"/>
<path d="M19.1899 18.5302H18.4412V19.2624H19.1899V18.5302Z" fill="#555569"/>
<path d="M20.6565 18.5302H19.9077V19.2624H20.6565V18.5302Z" fill="#555569"/>
<path d="M5.42549 11.1036L4.97982 9.80965H1.23847L0.868572 11.0892L0.241211 10.9155L0.688511 9.36665C0.721916 9.25192 0.829464 9.17224 0.951677 9.17224H5.25195C5.36928 9.17224 5.47356 9.24554 5.51104 9.3539L6.04308 10.9004L5.42549 11.1036Z" fill="#555569"/>
</svg>
