<svg width="73" height="73" viewBox="0 0 73 73" fill="none" xmlns="http://www.w3.org/2000/svg">
<path d="M51.0743 10.8003H48.0117C47.718 10.1801 47.3772 9.58838 46.9894 9.02662L48.5193 6.3761C49.0226 5.50495 48.7232 4.38998 47.852 3.88668L41.5429 0.243812C41.1252 0.00142962 40.6276 -0.0627305 40.1599 0.0613124C39.6937 0.186781 39.2959 0.491898 39.0535 0.909652L37.5265 3.55733C36.8379 3.49887 36.162 3.49887 35.4734 3.55733L33.9464 0.911078C33.704 0.493324 33.3062 0.186781 32.84 0.0627382C32.3737 -0.0627305 31.8761 0.0028554 31.457 0.245238L25.1465 3.88954C24.2753 4.39284 23.9759 5.50637 24.4792 6.37895L26.0091 9.02948C25.6212 9.59123 25.2805 10.1844 24.9868 10.8031H21.9242C20.9176 10.8031 20.1021 11.6187 20.1021 12.6253V19.9125C20.1021 20.9191 20.9176 21.7346 21.9242 21.7346H24.9868C25.2805 22.3534 25.6212 22.9465 26.0091 23.5083L24.4792 26.1588C23.9759 27.03 24.2753 28.1449 25.1465 28.6482L31.457 32.2925C31.8747 32.5349 32.3723 32.5991 32.84 32.475C33.3062 32.3496 33.704 32.0444 33.9464 31.6267L35.4734 28.9804C36.1635 29.0389 36.8379 29.0389 37.5265 28.9804L39.0535 31.6267C39.2959 32.0444 39.6937 32.351 40.1599 32.475C40.3153 32.5164 40.4736 32.5363 40.6319 32.5363C40.9484 32.5363 41.2635 32.4536 41.5429 32.2925L47.8534 28.6482C48.7246 28.1449 49.024 27.0314 48.5207 26.1588L46.9908 23.5083C47.3787 22.9465 47.7194 22.3534 48.0131 21.7346H51.0757C52.0823 21.7346 52.8979 20.9191 52.8979 19.9125V18.0903V14.4432V12.6224C52.8964 11.6158 52.0809 10.8003 51.0743 10.8003ZM36.5 21.612C33.5514 21.612 31.1533 19.2138 31.1533 16.2653C31.1533 13.3168 33.5514 10.9186 36.5 10.9186C39.4485 10.9186 41.8466 13.3168 41.8466 16.2653C41.8466 19.2138 39.4485 21.612 36.5 21.612Z" fill="#5CABF9"/>
<path d="M11.4062 23.0834V18.404H15.8262V14.1266H9.26758C8.08703 14.1266 7.12891 15.0848 7.12891 16.2653V23.0834C5.47072 23.4726 3.94941 24.3139 2.71469 25.5486C0.963828 27.2994 0 29.6277 0 32.1029C0 34.5781 0.963828 36.9063 2.71469 38.6558C3.5502 39.4913 4.90326 39.4913 5.73877 38.6558C6.57428 37.8203 6.57428 36.4658 5.73877 35.6317C3.79258 33.6855 3.79258 30.5203 5.73877 28.5741C6.68121 27.6316 7.93447 27.1127 9.26758 27.1127C10.6007 27.1127 11.8539 27.6316 12.7964 28.5741C14.7426 30.5203 14.7426 33.6855 12.7964 35.6317C11.9609 36.4672 11.9609 37.8217 12.7964 38.6558C13.2141 39.0735 13.7616 39.2817 14.3091 39.2817C14.8566 39.2817 15.4041 39.0735 15.8219 38.6558C17.5728 36.9049 18.5366 34.5781 18.5366 32.1029C18.5366 29.6277 17.5728 27.2994 15.8219 25.55C14.5857 24.3153 13.0644 23.4741 11.4062 23.0834Z" fill="#555569"/>
<path d="M70.2853 25.55C69.0506 24.3153 67.5293 23.474 65.8711 23.0848V16.2667C65.8711 15.0862 64.913 14.1281 63.7324 14.1281H57.1738V18.4054H61.5938V23.0848C59.9356 23.474 58.4143 24.3153 57.1795 25.55C55.4287 27.2994 54.4648 29.6277 54.4648 32.1029C54.4648 34.578 55.4287 36.9063 57.1795 38.6558C58.015 39.4913 59.3695 39.4913 60.2036 38.6558C61.0377 37.8203 61.0391 36.4658 60.2036 35.6317C58.2574 33.6855 58.2574 30.5203 60.2036 28.5741C61.1461 27.6316 62.3993 27.1126 63.7324 27.1126C65.0655 27.1126 66.3188 27.6316 67.2612 28.5741C69.2074 30.5203 69.2074 33.6855 67.2612 35.6317C66.4257 36.4672 66.4257 37.8217 67.2612 38.6558C67.679 39.0735 68.2265 39.2817 68.774 39.2817C69.3215 39.2817 69.869 39.0735 70.2867 38.6558C72.0376 36.9049 73.0014 34.578 73.0014 32.1029C73.0014 29.6277 72.0362 27.2994 70.2853 25.55Z" fill="#555569"/>
<path d="M5.8457 73C8.99545 73 11.5488 70.4466 11.5488 67.2969C11.5488 64.1471 8.99545 61.5938 5.8457 61.5938C2.69595 61.5938 0.142578 64.1471 0.142578 67.2969C0.142578 70.4466 2.69595 73 5.8457 73Z" fill="#555569"/>
<path d="M36.5 73C39.6497 73 42.2031 70.4466 42.2031 67.2969C42.2031 64.1471 39.6497 61.5938 36.5 61.5938C33.3503 61.5938 30.7969 64.1471 30.7969 67.2969C30.7969 70.4466 33.3503 73 36.5 73Z" fill="#555569"/>
<path d="M44.6841 61.5938C45.8147 63.212 46.4806 65.1782 46.4806 67.2969C46.4806 69.4156 45.8147 71.3817 44.6841 73H58.9704C57.8398 71.3817 57.1739 69.4156 57.1739 67.2969C57.1739 65.1782 57.8398 63.212 58.9704 61.5938H44.6841Z" fill="#555569"/>
<path d="M14.0298 61.5938C15.1604 63.212 15.8263 65.1782 15.8263 67.2969C15.8263 69.4156 15.1604 71.3817 14.0298 73H28.3161C27.1855 71.3817 26.5196 69.4156 26.5196 67.2969C26.5196 65.1782 27.1855 63.212 28.3161 61.5938H14.0298Z" fill="#555569"/>
<path d="M67.1543 73C70.304 73 72.8574 70.4466 72.8574 67.2969C72.8574 64.1471 70.304 61.5938 67.1543 61.5938C64.0045 61.5938 61.4512 64.1471 61.4512 67.2969C61.4512 70.4466 64.0045 73 67.1543 73Z" fill="#555569"/>
<path d="M41.8467 44.4844H31.1533C29.9728 44.4844 29.0146 45.4425 29.0146 46.623V57.3164H43.9854V46.623C43.9854 45.4425 43.0272 44.4844 41.8467 44.4844Z" fill="#FFB900"/>
<path d="M20.46 44.4844H9.7666C8.58605 44.4844 7.62793 45.4425 7.62793 46.623V57.3164H22.5986V46.623C22.5986 45.4425 21.6405 44.4844 20.46 44.4844Z" fill="#FFB900"/>
<path d="M52.54 44.4844C51.3595 44.4844 50.4014 45.4425 50.4014 46.623V57.3164H65.3721V46.623C65.3721 45.4425 64.4139 44.4844 63.2334 44.4844H52.54Z" fill="#FFB900"/>
</svg>
