<svg width="76" height="60" viewBox="0 0 76 60" fill="none" xmlns="http://www.w3.org/2000/svg">
<path d="M75.3102 44.5077C75.1271 51.4223 70.4096 56.4256 64.5655 57.3531C57.5667 58.4634 51.2297 54.0364 49.8355 47.0796C47.3993 34.9509 44.9772 22.8081 42.5691 10.6794C41.2877 4.22854 47.174 -1.11202 53.4828 0.799339C55.9472 1.54421 57.6793 3.2307 58.7355 5.56369C63.8755 16.8351 69.0014 28.1065 74.1273 39.392C74.9441 41.1487 75.3243 43.0179 75.3102 44.5077ZM69.5788 44.8169C69.6351 40.9801 66.4807 37.6633 62.7067 37.6071C58.7073 37.5509 55.4121 40.6568 55.3417 44.5498C55.2713 48.4569 58.4257 51.7455 62.2983 51.8299C66.2554 51.9142 69.5083 48.7801 69.5788 44.8169ZM48.1316 8.92262C48.1316 10.4405 49.399 11.7194 50.8917 11.7194C52.3985 11.7194 53.7081 10.3843 53.6941 8.85235C53.68 7.37667 52.4407 6.15396 50.9339 6.12585C49.3708 6.1118 48.1316 7.33451 48.1316 8.92262Z" fill="white"/>
<path d="M39.4006 9.11938C40.0203 12.3378 40.7103 15.9356 41.4144 19.5335C41.9214 22.1476 42.4424 24.7616 43.0057 27.3757C43.1747 28.1627 43.062 28.6968 42.4565 29.273C37.4573 34.1498 32.5285 39.0968 27.5294 43.9736C25.3325 46.1098 22.6006 46.6861 19.6997 45.8006C16.5312 44.8309 14.6301 42.5541 14.1231 39.2936C13.757 36.8903 14.3625 34.6417 16.0805 32.8568C22.6569 25.9843 29.2474 19.1259 35.866 12.2956C37.0348 11.087 38.3726 10.047 39.4006 9.11938ZM24.3609 38.2114C24.375 36.8903 23.3751 35.8784 22.0655 35.8644C20.8403 35.8503 19.7842 36.9044 19.7701 38.1411C19.756 39.4201 20.7981 40.5022 22.0655 40.5163C23.2625 40.5303 24.3609 39.4341 24.3609 38.2114Z" fill="white"/>
<path d="M8.87037 43.4114C12.7993 43.327 16.4184 46.4189 16.8972 50.2838C17.4182 54.5703 14.813 58.4071 10.7433 59.1942C9.65897 59.405 8.50423 59.3206 7.40582 59.2363C6.44823 59.166 5.94127 58.4352 6.09618 57.606C6.26516 56.7487 6.99744 56.2849 7.95503 56.4676C9.60264 56.7768 11.0672 56.3974 12.3627 55.3293C14.2075 53.7833 14.6863 50.9725 13.4471 48.8784C12.1656 46.7 9.4759 45.7303 7.16642 46.6016C4.85695 47.473 3.46281 49.9044 3.89936 52.2795C4.09651 53.3617 3.92752 53.9239 3.29383 54.2612C2.37848 54.739 1.40681 54.2611 1.15334 53.179C0.28024 49.3563 2.30807 45.4914 5.94128 44.0297C6.42007 43.833 6.91295 43.6784 7.4199 43.58C7.88461 43.4816 8.39157 43.4676 8.87037 43.4114Z" fill="white"/>
<path d="M62.467 40.4882C64.8328 40.4882 66.7198 42.3714 66.7339 44.7044C66.748 47.0795 64.8328 48.9628 62.4388 48.9769C60.1012 48.9769 58.2283 47.0936 58.2142 44.7184C58.1719 42.3995 60.1153 40.4882 62.467 40.4882Z" fill="white"/>
</svg>
