<svg width="38" height="38" viewBox="0 0 38 38" fill="none" xmlns="http://www.w3.org/2000/svg">
<path d="M13.9329 21.5331C13.8357 21.5331 13.7392 21.5108 13.6501 21.4663L8.58322 18.9332C8.36873 18.8256 8.23291 18.6066 8.23291 18.3662V13.3C8.23291 13.0803 8.34721 12.877 8.53275 12.7612C8.71979 12.6447 8.95357 12.6358 9.14877 12.733L14.2157 15.2661C14.4302 15.3737 14.566 15.5926 14.566 15.8331V20.9C14.566 21.1197 14.4517 21.323 14.2662 21.4388C14.1645 21.5019 14.0487 21.5331 13.9329 21.5331ZM9.49982 17.975L13.2998 19.875V16.2242L9.49982 14.3242V17.975Z" fill="#555569"/>
<path d="M13.9331 21.5331C13.8174 21.5331 13.7023 21.5012 13.5999 21.4388C13.4136 21.323 13.3 21.1197 13.3 20.9V15.8331C13.3 15.5934 13.4359 15.3737 13.6504 15.2661L18.7173 12.733C18.914 12.6358 19.147 12.6447 19.3333 12.7612C19.5196 12.877 19.6331 13.0803 19.6331 13.3V18.3669C19.6331 18.6066 19.4973 18.8263 19.2828 18.9339L14.2159 21.467C14.1268 21.5108 14.0304 21.5331 13.9331 21.5331ZM14.567 16.225V19.8758L18.367 17.9758V14.325L14.567 16.225Z" fill="#555569"/>
<path d="M13.9329 16.4669C13.8357 16.4669 13.7385 16.4446 13.6501 16.4001L8.58322 13.867C8.36873 13.7594 8.23291 13.5404 8.23291 13.3C8.23291 13.0595 8.36873 12.8406 8.58322 12.7329L13.6501 10.1999C13.8283 10.1108 14.0383 10.1108 14.2172 10.1999L19.2841 12.7329C19.4986 12.8406 19.6344 13.0595 19.6344 13.3C19.6344 13.5404 19.4986 13.7594 19.2841 13.867L14.2172 16.4001C14.1266 16.4446 14.0301 16.4669 13.9329 16.4669ZM10.2828 13.3L13.9337 15.125L17.5845 13.3L13.9337 11.4749L10.2828 13.3Z" fill="#555569"/>
<path d="M24.0667 21.5331C23.9695 21.5331 23.873 21.5108 23.7839 21.4663L18.717 18.9332C18.5025 18.8256 18.3667 18.6066 18.3667 18.3662V13.3C18.3667 13.0803 18.481 12.877 18.6665 12.7612C18.8536 12.6447 19.0874 12.6358 19.2826 12.733L24.3495 15.2661C24.564 15.3737 24.6998 15.5926 24.6998 15.8331V20.9C24.6998 21.1197 24.5855 21.323 24.3999 21.4388C24.2975 21.5019 24.1817 21.5331 24.0667 21.5331ZM19.6329 17.975L23.4329 19.875V16.2242L19.6329 14.3242V17.975Z" fill="#555569"/>
<path d="M24.0669 21.5331C23.9511 21.5331 23.8361 21.5012 23.7337 21.4388C23.5474 21.323 23.4338 21.1197 23.4338 20.9V15.8331C23.4338 15.5934 23.5697 15.3737 23.7842 15.2661L28.8511 12.733C29.0478 12.6358 29.2808 12.6447 29.4671 12.7612C29.6534 12.877 29.7669 13.0803 29.7669 13.3V18.3669C29.7669 18.6066 29.6311 18.8263 29.4166 18.9339L24.3497 21.467C24.2606 21.5108 24.1634 21.5331 24.0669 21.5331ZM24.7 16.225V19.8758L28.5 17.9758V14.325L24.7 16.225Z" fill="#555569"/>
<path d="M24.0667 16.4669C23.9695 16.4669 23.8722 16.4446 23.7839 16.4001L18.717 13.867C18.5025 13.7594 18.3667 13.5404 18.3667 13.3C18.3667 13.0595 18.5025 12.8406 18.717 12.7329L23.7839 10.1999C23.962 10.1108 24.1721 10.1108 24.351 10.1999L29.4179 12.7329C29.6324 12.8406 29.7682 13.0595 29.7682 13.3C29.7682 13.5404 29.6324 13.7594 29.4179 13.867L24.351 16.4001C24.2604 16.4446 24.1632 16.4669 24.0667 16.4669ZM20.4159 13.3L24.0667 15.125L27.7175 13.3L24.0667 11.4749L20.4159 13.3Z" fill="#555569"/>
<path d="M19 29.1331C18.9028 29.1331 18.8063 29.1108 18.7173 29.0663L13.6504 26.5332C13.4359 26.4256 13.3 26.2066 13.3 25.9662V20.9C13.3 20.6803 13.4143 20.4769 13.5999 20.3612C13.7869 20.2446 14.02 20.2357 14.2159 20.333L19.2828 22.866C19.4973 22.9737 19.6331 23.1926 19.6331 23.4331V28.5C19.6331 28.7197 19.5188 28.923 19.3333 29.0388C19.2309 29.1019 19.1151 29.1331 19 29.1331ZM14.567 25.575L18.367 27.475V23.8242L14.567 21.9242V25.575Z" fill="#555569"/>
<path d="M18.9998 29.1331C18.884 29.1331 18.769 29.1012 18.6665 29.0388C18.4803 28.923 18.3667 28.7197 18.3667 28.5V23.4331C18.3667 23.1933 18.5025 22.9737 18.717 22.866L23.7839 20.333C23.9806 20.2357 24.2137 20.2446 24.3999 20.3612C24.5862 20.4769 24.6998 20.6803 24.6998 20.9V25.9669C24.6998 26.2066 24.564 26.4263 24.3495 26.5339L19.2826 29.067C19.1935 29.1108 19.097 29.1331 18.9998 29.1331ZM19.6329 23.8249V27.4758L23.4329 25.5758V21.9249L19.6329 23.8249Z" fill="#555569"/>
<path d="M19 24.0669C18.9028 24.0669 18.8056 24.0447 18.7173 24.0001L13.6504 21.467C13.4359 21.3594 13.3 21.1405 13.3 20.9C13.3 20.6603 13.4359 20.4406 13.6504 20.333L18.7173 17.7999C18.8954 17.7108 19.1054 17.7108 19.2843 17.7999L24.3512 20.333C24.5657 20.4406 24.7015 20.6595 24.7015 20.9C24.7015 21.1397 24.5657 21.3594 24.3512 21.467L19.2843 24.0001C19.1938 24.0447 19.0973 24.0669 19 24.0669ZM15.3492 20.9L19 22.725L22.6509 20.9L19 19.075L15.3492 20.9Z" fill="#555569"/>
</svg>
