<svg width="39" height="44" viewBox="0 0 39 44" fill="none" xmlns="http://www.w3.org/2000/svg">
<circle cx="14.5437" cy="42.5001" r="1.33587" fill="#1A518E"/>
<circle cx="20.9708" cy="42.5001" r="1.33587" fill="#1A518E"/>
<path d="M6.36139 4.28723C6.36139 7.12114 6.36139 9.89523 6.36139 12.6992C7.66811 12.445 8.95243 12.2057 10.2517 11.9515C10.2517 11.7795 10.2517 11.63 10.2517 11.4804C10.2517 8.81102 10.2592 6.14909 10.2442 3.47968C10.2442 3.19554 10.3264 3.0759 10.6026 2.99365C12.8203 2.3506 15.038 1.68512 17.2632 1.04954C17.5693 0.959817 17.9427 0.95234 18.2488 1.04207C20.3545 1.64773 22.4453 2.28331 24.5435 2.9114C24.6256 2.93383 24.7003 2.97122 24.7152 2.9787C24.0581 3.95823 23.4085 4.93776 22.7215 5.96215C21.6986 5.66306 20.5934 5.34154 19.4659 5.01253C19.4659 13.5741 19.4659 22.0982 19.4659 30.6747C20.1828 30.4579 20.8847 30.256 21.5866 30.0467C24.8571 29.0671 28.1276 28.0876 31.4056 27.123C31.7416 27.0258 31.8312 26.8688 31.8312 26.5323C31.8163 24.3414 31.8238 22.1431 31.8238 19.9522C31.8238 19.8177 31.8238 19.6831 31.8238 19.5933C32.9886 19.384 34.1161 19.1746 35.2735 18.9727C35.2735 19.0325 35.2735 19.1522 35.2735 19.2793C35.2735 22.1954 35.2735 25.1116 35.2735 28.0278C35.2735 29.0447 34.8255 29.6728 33.8548 29.9719C28.7101 31.5272 23.5653 33.0899 18.4131 34.6153C18.0323 34.7275 17.5544 34.7275 17.1736 34.6153C11.9915 33.06 6.82434 31.4973 1.65719 29.942C0.738753 29.6653 0.328069 29.1419 0.268333 28.1848C0.260866 28.0876 0.268333 27.9829 0.268333 27.8857C0.268333 21.1785 0.268333 14.4714 0.2758 7.77167C0.2758 7.42771 0.320602 7.0688 0.42514 6.74727C0.552078 6.32107 0.850758 5.97711 1.26891 5.84252C2.94151 5.3191 4.62158 4.81812 6.36139 4.28723Z" fill="#1A518E"/>
<path d="M31.8469 16.7004C28.0462 16.7004 24.8952 13.5524 24.8952 9.74649C24.8877 5.90314 28.0388 2.76266 31.8618 2.79257C35.7148 2.82248 38.7837 5.90314 38.7837 9.74649C38.7837 13.5749 35.67 16.6929 31.8469 16.7004ZM30.9359 12.5056C32.392 11.055 33.8406 9.60442 35.2743 8.16877C34.8636 7.75752 34.4454 7.33131 34.0198 6.9051C33.0118 7.91454 32.0037 8.92398 30.9658 9.97081C30.5103 9.50721 30.0996 9.08101 29.7487 8.72209C29.3007 9.1483 28.8527 9.56703 28.4196 9.98576C29.2559 10.8232 30.1146 11.6756 30.9359 12.5056Z" fill="#1A518E"/>
</svg>
