<svg width="66" height="57" viewBox="0 0 66 57" fill="none" xmlns="http://www.w3.org/2000/svg">
<path d="M11.127 6.19216C11.127 10.9013 11.127 15.511 11.127 20.1704C13.2983 19.748 15.4325 19.3504 17.5915 18.9279C17.5915 18.6421 17.5915 18.3936 17.5915 18.1451C17.5915 13.7094 17.6039 9.28601 17.5791 4.85024C17.5791 4.37809 17.7156 4.17929 18.1746 4.04261C21.8598 2.97405 25.5449 1.86822 29.2425 0.81208C29.7512 0.662979 30.3716 0.650554 30.8803 0.799655C34.3794 1.80609 37.8536 2.86223 41.3402 3.90594C41.4767 3.94321 41.6008 4.00534 41.6256 4.01776C40.5337 5.64545 39.4542 7.27314 38.3127 8.97538C36.6128 8.47838 34.7764 7.9441 32.9028 7.39739C32.9028 21.6242 32.9028 35.7888 32.9028 50.0404C34.094 49.6801 35.2603 49.3446 36.4267 48.9967C41.8613 47.369 47.296 45.7413 52.7431 44.1385C53.3014 43.977 53.4503 43.716 53.4503 43.1569C53.4255 39.5163 53.4379 35.8633 53.4379 32.2228C53.4379 31.9991 53.4379 31.7755 53.4379 31.6264C55.3736 31.2785 57.2472 30.9306 59.1704 30.5951C59.1704 30.6945 59.1704 30.8933 59.1704 31.1045C59.1704 35.9503 59.1704 40.7961 59.1704 45.6419C59.1704 47.3317 58.4259 48.3755 56.8129 48.8725C48.2638 51.4569 39.7148 54.0537 31.1533 56.5885C30.5205 56.7748 29.7264 56.7748 29.0936 56.5885C20.4825 54.004 11.8962 51.4072 3.30997 48.8228C1.7838 48.363 1.10136 47.4933 1.0021 45.9028C0.989689 45.7413 1.0021 45.5674 1.0021 45.4058C1.0021 34.2605 1.0021 23.1152 1.0145 11.9823C1.0145 11.4107 1.08895 10.8143 1.26266 10.28C1.4736 9.57179 1.96991 9.00024 2.66476 8.77658C5.44413 7.90682 8.23591 7.07434 11.127 6.19216Z" fill="white"/>
<path d="M53.4763 26.8192C47.1607 26.8192 41.9246 21.5882 41.9246 15.2638C41.9122 8.87733 47.1483 3.65878 53.5012 3.70848C59.9036 3.75818 65.0033 8.87733 65.0033 15.2638C65.0033 21.6255 59.8292 26.8068 53.4763 26.8192ZM51.9626 19.8487C54.3821 17.4382 56.7893 15.0278 59.1716 12.6421C58.4891 11.9588 57.7943 11.2505 57.087 10.5423C55.412 12.2197 53.7369 13.8971 52.0122 15.6366C51.2553 14.8662 50.5729 14.158 49.9897 13.5616C49.2452 14.2698 48.5008 14.9656 47.7811 15.6614C49.1708 17.0531 50.5977 18.4695 51.9626 19.8487Z" fill="white"/>
</svg>
