<svg width="65" height="66" viewBox="0 0 65 66" fill="none" xmlns="http://www.w3.org/2000/svg">
<path d="M21.2913 25.3332H17.4827V21.6337H12.5505V35.3081H26.2247V21.6337H21.2913V25.3332Z" fill="#555569"/>
<path d="M52.1498 26.0428C59.235 26.0428 64.9999 20.2778 64.9999 13.1924C64.9999 6.10697 59.235 0.341919 52.1498 0.341919C45.0645 0.341919 39.2996 6.10697 39.2996 13.1924C39.2996 20.2778 45.0632 26.0428 52.1498 26.0428ZM46.6692 10.8602L50.0601 14.2499L57.2355 7.07564L59.9282 9.76837L50.0601 19.6366L43.9765 13.5529L46.6692 10.8602Z" fill="#FFB900"/>
<path d="M56.258 42.9572V29.3386C54.2014 29.8617 51.9937 30.0039 49.7136 29.6776C42.4493 28.6378 36.6996 22.8855 35.6637 15.6211C35.3387 13.3447 35.4809 11.1383 36.0039 9.08411H1.08545C0.486231 9.08284 0 9.56908 0 10.1683V42.9635C0 43.5627 0.486231 44.049 1.08545 44.049H55.1649C55.768 44.049 56.258 43.5602 56.258 42.9572ZM34.9654 26.5659H38.774V30.3746H34.9654V26.5659ZM34.9654 35.3081H47.516V39.1167H34.9654V35.3081ZM8.74199 17.825H30.0333V39.1167H8.74199V17.825Z" fill="#555569"/>
<path d="M56.258 55.7149V48.7425C56.258 48.2537 55.8619 47.8576 55.3731 47.8576H0.884863C0.396094 47.8576 0 48.2537 0 48.7425V55.7149C0 56.2037 0.396094 56.5998 0.884863 56.5998H21.8537V59.0665C21.8537 60.4288 20.7492 61.5333 19.387 61.5333H12.5074C12.0161 61.5333 11.6187 61.9319 11.6187 62.422V64.452C11.6187 64.9433 12.0174 65.3407 12.5074 65.3407H43.7493C44.2406 65.3407 44.638 64.942 44.638 64.452V62.422C44.638 61.9306 44.2394 61.5333 43.7493 61.5333H36.8697C35.5075 61.5333 34.403 60.4288 34.403 59.0665V56.5998H55.3719C55.8619 56.5998 56.258 56.2037 56.258 55.7149Z" fill="#555569"/>
</svg>
