<svg width="78" height="56" viewBox="0 0 78 56" fill="none" xmlns="http://www.w3.org/2000/svg">
<path d="M14.6534 42.118C10.7733 45.939 7.01711 49.6504 3.31593 53.307C2.21521 52.2114 1.08696 51.0884 0 50.0065C4.77439 45.2269 9.65885 40.3377 14.6534 35.3389C19.1801 39.872 23.7206 44.4188 28.3161 49.0341C32.664 44.6653 36.9843 40.324 41.3322 35.9415C45.6112 40.2007 49.8215 44.3914 53.9767 48.5274C60.1408 42.3919 66.2498 36.3113 72.4001 30.1895C71.7809 29.628 71.0792 28.9843 70.3775 28.3543C70.4325 28.2859 70.4738 28.2174 70.5288 28.1626C73.0055 28.1626 75.4821 28.1626 78.0138 28.1626C78.0138 30.6414 78.0138 33.1203 78.0138 35.6539C77.3396 34.9691 76.6929 34.3254 75.9774 33.6133C68.6439 40.9129 61.3791 48.1439 54.1143 55.375C49.8903 51.1706 45.6938 46.9935 41.5248 42.8439C37.1219 47.24 32.7603 51.5677 28.4399 55.868C23.7756 51.198 19.2214 46.6648 14.6534 42.118Z" fill="white"/>
<path d="M53.4539 0.826904C56.5085 0.826904 59.4804 0.826904 62.5349 0.826904C62.5349 1.10081 62.5349 1.34732 62.5349 1.58014C62.5349 13.6045 62.5349 25.6426 62.5211 37.667C62.5211 37.9957 62.4111 38.4066 62.1909 38.6394C59.6042 41.2552 56.99 43.8573 54.3758 46.4457C54.2932 46.5279 54.2107 46.5963 54.1281 46.6648C53.5365 46.4046 53.4402 45.9526 53.4402 45.3774C53.4539 30.7647 53.4539 16.1655 53.4539 1.55275C53.4539 1.33363 53.4539 1.10081 53.4539 0.826904Z" fill="white"/>
<path d="M27.752 46.6922C26.5549 45.487 25.4817 44.4051 24.3948 43.3231C22.6336 41.5564 20.8587 39.8172 19.1113 38.0368C18.9049 37.8177 18.726 37.4616 18.726 37.1603C18.7123 27.2586 18.7123 17.357 18.7123 7.45536C18.7123 7.31841 18.726 7.18146 18.7398 7.00342C21.7393 7.00342 24.7387 7.00342 27.752 7.00342C27.752 20.1645 27.752 33.3393 27.752 46.6922Z" fill="white"/>
<path d="M36.1449 12.1666C36.4063 12.1529 36.599 12.1392 36.8054 12.1392C39.3508 12.1392 41.8962 12.1529 44.4416 12.1255C44.9507 12.1255 45.1571 12.2214 45.1571 12.7966C45.1296 20.9178 45.1296 29.0391 45.1296 37.1603C45.1296 37.2836 45.1158 37.4206 45.0883 37.7492C43.7949 36.4619 42.6117 35.2978 41.3596 34.0652C39.6122 35.8182 37.9198 37.5164 36.1312 39.2968C36.1449 30.1895 36.1449 21.2191 36.1449 12.1666Z" fill="white"/>
<path d="M1.3208 46.6785C1.3208 37.0782 1.3208 27.6422 1.3208 18.1514C4.30651 18.1514 7.29222 18.1514 10.3467 18.1514C10.3605 18.3979 10.3742 18.6444 10.3742 18.8772C10.3742 24.9168 10.3742 30.9701 10.3605 37.0097C10.3605 37.2973 10.3055 37.6944 10.1128 37.8725C7.25095 40.7896 4.34779 43.6656 1.3208 46.6785Z" fill="white"/>
</svg>
