<svg width="72" height="66" viewBox="0 0 72 66" fill="none" xmlns="http://www.w3.org/2000/svg">
<path d="M51.7966 12.2886L45.4744 1.56353C45.1743 1.05347 44.6788 0.681633 44.1022 0.533729C43.5271 0.392737 42.9115 0.474291 42.3992 0.778393L23.071 12.2624L51.7966 12.2886Z" fill="#5CABF9"/>
<path d="M9.29972 15.2108C7.66229 15.2108 6.32219 13.8838 6.32219 12.2624C6.32219 10.641 7.66229 9.31396 9.29972 9.31396H19.3351L29.2812 3.41577H9.29972C4.89275 3.41577 1.22981 6.60055 0.515088 10.7875C0.455063 11.0238 0.365723 11.2602 0.365723 11.5256V56.4954C0.365723 61.361 4.38602 65.342 9.29972 65.342H59.9262C63.2024 65.342 65.8826 62.688 65.8826 59.4438V53.547H58.4367C51.0508 53.547 45.0357 47.5907 45.0357 40.2771C45.0357 32.9634 51.0508 27.0072 58.4367 27.0072H65.8812V21.109C65.8812 17.8648 63.201 15.2108 59.9248 15.2108H9.29972ZM56.9473 9.31396C56.9473 6.33515 54.7138 3.8581 51.7948 3.47521L56.9473 12.2624V9.31396Z" fill="#555569"/>
<path d="M69.6042 31.4305H58.4367C53.5104 31.4305 49.5027 35.399 49.5027 40.2771C49.5027 45.1551 53.5104 49.1237 58.4367 49.1237H69.6042C70.8368 49.1237 71.8377 48.1326 71.8377 46.912V33.6421C71.8377 32.4202 70.8368 31.4305 69.6042 31.4305ZM58.4367 43.2255C56.7923 43.2255 55.4592 41.904 55.4592 40.2771C55.4592 38.6501 56.7937 37.3287 58.4367 37.3287C60.0797 37.3287 61.4142 38.6501 61.4142 40.2771C61.4142 41.904 60.0811 43.2255 58.4367 43.2255Z" fill="#555569"/>
</svg>
