<svg width="44" height="41" viewBox="0 0 44 41" fill="none" xmlns="http://www.w3.org/2000/svg">
<g clip-path="url(#clip0)">
<path d="M8.26601 24.2226C6.07726 26.4457 3.95837 28.605 1.87052 30.7325C1.2496 30.0951 0.613159 29.4417 0 28.8122C2.69324 26.0313 5.44858 23.1867 8.26601 20.2783C10.8195 22.9158 13.3808 25.5612 15.9732 28.2465C18.4258 25.7046 20.8629 23.1787 23.3156 20.6289C25.7294 23.107 28.1044 25.5453 30.4484 27.9516C33.9256 24.3819 37.3717 20.8441 40.8411 17.2823C40.4918 16.9556 40.096 16.5811 39.7001 16.2146C39.7312 16.1747 39.7545 16.1349 39.7855 16.103C41.1826 16.103 42.5796 16.103 44.0078 16.103C44.0078 17.5453 44.0078 18.9875 44.0078 20.4616C43.6274 20.0632 43.2627 19.6887 42.8591 19.2743C38.7222 23.5214 34.6241 27.7285 30.526 31.9357C28.1432 29.4895 25.776 27.0592 23.4242 24.6449C20.9406 27.2026 18.4802 29.7206 16.043 32.2226C13.4119 29.5054 10.8428 26.868 8.26601 24.2226Z" fill="#1A518E"/>
<path d="M30.1535 0.198608C31.8766 0.198608 33.5531 0.198608 35.2761 0.198608C35.2761 0.357971 35.2761 0.501397 35.2761 0.636855C35.2761 7.63287 35.2761 14.6369 35.2683 21.6329C35.2683 21.8241 35.2063 22.0631 35.0821 22.1986C33.6229 23.7205 32.1482 25.2345 30.6735 26.7404C30.627 26.7882 30.5804 26.8281 30.5338 26.8679C30.2001 26.7165 30.1458 26.4536 30.1458 26.1189C30.1535 17.6169 30.1535 9.12291 30.1535 0.620919C30.1535 0.493429 30.1535 0.357971 30.1535 0.198608Z" fill="#1A518E"/>
<path d="M15.655 26.8839C14.9797 26.1827 14.3743 25.5532 13.7612 24.9237C12.7677 23.8958 11.7665 22.8839 10.7807 21.848C10.6643 21.7205 10.5634 21.5133 10.5634 21.338C10.5557 15.5771 10.5557 9.81614 10.5557 4.05518C10.5557 3.9755 10.5634 3.89582 10.5712 3.79224C12.2632 3.79224 13.9552 3.79224 15.655 3.79224C15.655 11.4496 15.655 19.1149 15.655 26.8839Z" fill="#1A518E"/>
<path d="M20.3895 6.79624C20.5369 6.78828 20.6456 6.78031 20.762 6.78031C22.1979 6.78031 23.6338 6.78828 25.0697 6.77234C25.3568 6.77234 25.4733 6.82812 25.4733 7.16278C25.4577 11.8879 25.4577 16.613 25.4577 21.3381C25.4577 21.4098 25.45 21.4895 25.4345 21.6807C24.7049 20.9317 24.0374 20.2544 23.3311 19.5373C22.3454 20.5572 21.3907 21.5452 20.3817 22.5811C20.3895 17.2823 20.3895 12.0632 20.3895 6.79624Z" fill="#1A518E"/>
<path d="M0.745056 26.8759C0.745056 21.2903 0.745056 15.8002 0.745056 10.2783C2.4293 10.2783 4.11355 10.2783 5.83661 10.2783C5.84437 10.4217 5.85213 10.5652 5.85213 10.7006C5.85213 14.2146 5.85213 17.7365 5.84437 21.2504C5.84437 21.4178 5.81332 21.6488 5.70466 21.7524C4.09027 23.4496 2.45259 25.1229 0.745056 26.8759Z" fill="#1A518E"/>
</g>
<circle cx="16.5437" cy="38.7266" r="1.33587" fill="#1A518E"/>
<circle cx="22.9708" cy="38.7266" r="1.33587" fill="#1A518E"/>
<defs>
<clipPath id="clip0">
<rect width="44" height="32" fill="white" transform="translate(0 0.198608)"/>
</clipPath>
</defs>
</svg>
