<svg width="24" height="24" viewBox="0 0 24 24" fill="none" xmlns="http://www.w3.org/2000/svg">
<path d="M16.7994 0.00893787C17.3888 0.00893787 17.9507 -0.0138932 18.5127 0.0226365C18.6955 0.0363351 18.8965 0.173321 19.0381 0.310308C20.4042 1.65734 21.7566 3.01807 23.1135 4.37423C23.3008 4.56145 23.4881 4.7578 23.68 4.93588C23.9085 5.14592 24.0044 5.39707 24.0044 5.70757C23.9999 8.41533 24.0044 11.1277 24.0044 13.8354C24.0044 16.3834 24.0044 18.9359 23.9999 21.4838C23.9999 22.6665 23.3237 23.5797 22.2363 23.8902C22.1906 23.9039 22.1495 23.9222 22.1038 23.9222C21.4139 23.9496 20.724 23.977 20.0021 23.9998C20.0021 23.8719 20.0021 23.7898 20.0021 23.7121C20.0021 21.4519 20.0021 19.1916 20.0021 16.9313C20.0021 15.4108 18.9924 14.3879 17.4756 14.3879C13.8297 14.3879 10.1792 14.3879 6.53326 14.3879C5.03469 14.3879 4.01127 15.4153 4.01127 16.9176C4.01127 19.1688 4.01127 21.4245 4.01127 23.6756C4.01127 23.7669 4.01127 23.8583 4.01127 23.9815C3.22544 23.9359 2.44417 24.0866 1.68575 23.8583C0.730863 23.5751 0.0546777 22.703 0.0135583 21.703C-0.0092858 21.0957 -0.00014816 20.4838 -0.00014816 19.8765C-0.00014816 14.0911 0.00442066 8.30574 -0.00014816 2.52492C-0.00014816 1.77606 0.232862 1.13679 0.790257 0.625376C1.20145 0.250947 1.68118 0.0180703 2.234 0.0135041C3.85593 -0.00476076 5.47786 -0.000194548 7.09979 -0.000194548C7.12721 -0.000194548 7.15919 0.0135041 7.20488 0.0226365C7.20488 0.113961 7.20488 0.205285 7.20488 0.296609C7.20488 2.28291 7.20488 4.26921 7.20488 6.25551C7.20488 7.32857 7.86736 7.99067 8.9456 7.99067C10.9787 7.99067 13.0118 7.99067 15.045 7.99067C16.1369 7.99067 16.7994 7.33314 16.7994 6.24638C16.7994 4.26921 16.7994 2.28748 16.7994 0.310308C16.7994 0.218984 16.7994 0.127659 16.7994 0.00893787Z" fill="white"/>
<path d="M18.3854 23.9635C14.1273 23.9635 9.87829 23.9635 5.61558 23.9635C5.61101 23.8767 5.60645 23.8036 5.60645 23.7306C5.60645 21.4475 5.60645 19.1644 5.60645 16.8813C5.60645 16.2968 5.92169 15.9772 6.51107 15.9772C10.1524 15.9772 13.7892 15.9772 17.4305 15.9726C17.6955 15.9726 17.9697 15.9863 18.1433 16.2055C18.2666 16.3653 18.39 16.5799 18.39 16.7671C18.4083 19.1324 18.4037 21.5023 18.3991 23.8676C18.3991 23.895 18.39 23.9178 18.3854 23.9635Z" fill="white"/>
<path d="M8.80957 6.37443C8.80957 4.25115 8.80957 2.14156 8.80957 0.0137024C10.9341 0.0137024 13.054 0.0137024 15.1876 0.0137024C15.1876 2.12786 15.1876 4.24201 15.1876 6.37443C13.0677 6.37443 10.9478 6.37443 8.80957 6.37443Z" fill="white"/>
</svg>
