<svg width="22" height="21" viewBox="0 0 22 21" fill="none" xmlns="http://www.w3.org/2000/svg">
<g clip-path="url(#clip0)">
<path d="M-0.000281272 10.3945C-0.0290298 6.03134 2.93946 1.97179 7.10142 0.586955C9.89413 -0.342814 12.6064 -0.166027 15.2216 1.10668C17.7244 2.32454 19.4271 4.31585 20.4399 6.89318C20.5549 7.18537 20.5147 7.4841 20.1713 7.60523C19.851 7.71736 19.6522 7.52584 19.5421 7.24348C18.8867 5.57055 17.8805 4.1538 16.4603 3.03824C14.6146 1.58875 12.5168 0.911064 10.1668 1.01255C7.03735 1.1476 4.54938 2.49642 2.72836 5.01481C1.18498 7.15017 0.662577 9.55153 1.11927 12.1452C1.62935 15.0426 3.19327 17.2524 5.71492 18.7346C7.97538 20.0638 10.4313 20.4493 12.9842 19.7397C16.0742 18.8803 18.2534 16.9602 19.4707 13.9835C19.4912 13.9327 19.5167 13.8844 19.5356 13.8329C19.6473 13.5301 19.8296 13.3303 20.1828 13.4417C20.4719 13.5333 20.5886 13.8312 20.3956 14.1963C19.9011 15.1326 19.4633 16.1221 18.8242 16.9537C16.9753 19.3608 14.4594 20.7112 11.4482 20.9576C7.97291 21.2424 4.98635 20.0769 2.6413 17.4644C0.870388 15.4911 0.0177892 13.1208 -0.000281272 10.3945Z" fill="#555569"/>
<path d="M10.4693 14.2903L7.08767 10.8503C6.89793 10.6579 6.89547 10.3502 7.0811 10.1538L10.4693 6.58202C10.641 6.40114 10.9268 6.39296 11.1084 6.56401C11.2899 6.73507 11.2981 7.01989 11.1264 7.20077L8.0027 10.4934L11.1149 13.6592C11.2899 13.8368 11.2866 14.1217 11.1084 14.296C10.9301 14.4711 10.6435 14.4679 10.4693 14.2903Z" fill="#555569"/>
<path d="M21.5484 10.8814H8.10801C7.85831 10.8814 7.65625 10.68 7.65625 10.4312C7.65625 10.1824 7.85831 9.98108 8.10801 9.98108H21.5484C21.7981 9.98108 22.0001 10.1824 22.0001 10.4312C22.0001 10.68 21.7981 10.8814 21.5484 10.8814Z" fill="#555569"/>
</g>
<defs>
<clipPath id="clip0">
<rect width="22" height="21" fill="white"/>
</clipPath>
</defs>
</svg>
