<svg width="24" height="24" viewBox="0 0 24 24" fill="none" xmlns="http://www.w3.org/2000/svg">
<path d="M11.9885 0.333336C5.5485 0.333336 0.333496 5.56 0.333496 12C0.333496 18.44 5.5485 23.6667 11.9885 23.6667C18.4402 23.6667 23.6668 18.44 23.6668 12C23.6668 5.56 18.4402 0.333336 11.9885 0.333336ZM16.6668 16.6667C16.5589 16.7748 16.4307 16.8606 16.2896 16.9192C16.1484 16.9777 15.9971 17.0079 15.8443 17.0079C15.6915 17.0079 15.5402 16.9777 15.3991 16.9192C15.258 16.8606 15.1298 16.7748 15.0218 16.6667L11.1835 12.8283C11.0733 12.7203 10.9856 12.5914 10.9255 12.4492C10.8654 12.3071 10.8341 12.1544 10.8335 12V7.33334C10.8335 6.69167 11.3585 6.16667 12.0002 6.16667C12.6418 6.16667 13.1668 6.69167 13.1668 7.33334V11.5217L16.6668 15.0217C17.1218 15.4767 17.1218 16.2117 16.6668 16.6667Z" fill="#FFB900"/>
</svg>
