<svg width="41" height="35" viewBox="0 0 41 35" fill="none" xmlns="http://www.w3.org/2000/svg">
<circle cx="17.5437" cy="32.8953" r="1.33587" fill="#1A518E"/>
<circle cx="23.9708" cy="32.8953" r="1.33587" fill="#1A518E"/>
<path d="M40.758 13.975C40.758 17.9784 40.758 21.938 40.758 25.9487C40.6272 25.9487 40.4963 25.9487 40.3728 25.9487C29.0925 25.9487 17.8195 25.9487 6.53919 25.9487C3.79907 25.9487 1.60406 24.4392 0.71007 21.9453C-0.554601 18.4305 1.75669 14.5802 5.44168 14.0552C5.81236 14.0041 6.19031 13.975 6.56099 13.975C17.8267 13.9677 29.0925 13.975 40.3582 13.975C40.4745 13.975 40.5981 13.975 40.758 13.975ZM27.6606 21.8724C28.7 21.8651 29.5795 20.9682 29.5649 19.9327C29.5504 18.9045 28.6637 18.0367 27.6461 18.044C26.614 18.0513 25.7491 18.9191 25.7491 19.9473C25.7418 20.9973 26.614 21.8797 27.6606 21.8724ZM9.54096 19.9983C9.57004 18.9409 8.72692 18.0659 7.66576 18.0513C6.65548 18.0367 5.77602 18.8753 5.73968 19.8889C5.70334 20.9463 6.52465 21.8359 7.58581 21.8724C8.6397 21.9088 9.51189 21.0702 9.54096 19.9983ZM19.0841 19.9108C19.0551 20.9682 19.8909 21.8505 20.9448 21.8724C21.9769 21.8943 22.8491 21.0557 22.8854 20.0129C22.9145 18.9628 22.0787 18.0805 21.0175 18.0513C19.9854 18.0221 19.1132 18.8607 19.0841 19.9108ZM34.3111 18.0513C33.2645 18.0586 32.3995 18.9409 32.4141 19.9837C32.4286 21.0338 33.2717 21.8651 34.3183 21.8651C35.3795 21.8651 36.2299 21.0046 36.2153 19.94C36.2081 18.9045 35.3359 18.044 34.3111 18.0513ZM12.4192 19.9618C12.4192 21.0265 13.2841 21.887 14.338 21.8724C15.3773 21.8578 16.2132 21.0046 16.2132 19.9545C16.2132 18.8899 15.3483 18.0294 14.2944 18.0513C13.2478 18.0732 12.4119 18.9191 12.4192 19.9618Z" fill="#1A518E"/>
<path d="M38.8899 12.7426C33.6932 12.7426 28.5182 12.7426 23.3214 12.7426C23.3214 8.67359 23.3214 4.61186 23.3214 0.520964C25.5164 0.520964 27.7114 0.520964 29.95 0.520964C29.95 1.47624 29.95 2.43151 29.95 3.41595C30.7277 3.41595 31.4764 3.41595 32.2613 3.41595C32.2613 2.46068 32.2613 1.49811 32.2613 0.513672C34.4927 0.513672 36.6804 0.513672 38.8972 0.513672C38.8899 4.58269 38.8899 8.64442 38.8899 12.7426Z" fill="#1A518E"/>
<path d="M21.8606 12.7426C16.6566 12.7426 11.4743 12.7426 6.27026 12.7426C6.27026 8.6663 6.27026 4.60457 6.27026 0.520964C8.47253 0.520964 10.6675 0.520964 12.9207 0.520964C12.9207 1.48353 12.9207 2.44609 12.9207 3.43053C13.6984 3.43053 14.4325 3.43053 15.2174 3.43053C15.2174 2.45338 15.2174 1.49082 15.2174 0.513672C17.4561 0.513672 19.6438 0.513672 21.8606 0.513672C21.8606 4.58269 21.8606 8.64442 21.8606 12.7426Z" fill="#1A518E"/>
</svg>
