<svg width="62" height="73" viewBox="0 0 62 73" fill="none" xmlns="http://www.w3.org/2000/svg">
<g clip-path="url(#clip0)">
<path d="M56.2618 73H4.91498C2.24905 73 0.0883789 70.8489 0.0883789 68.1947V4.80532C0.0883789 2.15115 2.24905 0 4.91498 0H56.2618C58.9277 0 61.0884 2.15115 61.0884 4.80532V68.1947C61.0884 70.8489 58.9277 73 56.2618 73Z" fill="#555569"/>
<path d="M54.9102 60.1177H6.26633C5.57623 60.1177 5.01758 59.5615 5.01758 58.8744V7.14053C5.01758 6.45347 5.57623 5.89728 6.26633 5.89728H54.9123C55.6024 5.89728 56.161 6.45347 56.161 7.14053V58.8744C56.159 59.5615 55.6003 60.1177 54.9102 60.1177Z" fill="white"/>
<path d="M26.5321 32.5126H25.3511V34.8641H24.1701V32.5126H22.9892C21.6849 32.5126 20.6272 33.5657 20.6272 34.8641V38.3914C20.6272 39.6899 21.6849 40.743 22.9892 40.743H26.5321C27.8363 40.743 28.894 39.6899 28.894 38.3914V34.8641C28.894 33.5657 27.8363 32.5126 26.5321 32.5126Z" fill="#FFB900"/>
<path d="M37.161 32.5126H35.98V34.8641H34.799V32.5126H33.6181C32.3138 32.5126 31.2561 33.5657 31.2561 34.8641V38.3914C31.2561 39.6899 32.3138 40.743 33.6181 40.743H37.161C38.4652 40.743 39.5229 39.6899 39.5229 38.3914V34.8641C39.5229 33.5657 38.4652 32.5126 37.161 32.5126Z" fill="#FFB900"/>
<path d="M26.5321 43.0945H25.3511V45.4461H24.1701V43.0945H22.9892C21.6849 43.0945 20.6272 44.1476 20.6272 45.4461V48.9734C20.6272 50.2719 21.6849 51.3249 22.9892 51.3249H26.5321C27.8363 51.3249 28.894 50.2719 28.894 48.9734V45.4461C28.894 44.1476 27.8363 43.0945 26.5321 43.0945Z" fill="#FFB900"/>
<path d="M37.161 43.0945H35.98V45.4461H34.799V43.0945H33.6181C32.3138 43.0945 31.2561 44.1476 31.2561 45.4461V48.9734C31.2561 50.2719 32.3138 51.3249 33.6181 51.3249H37.161C38.4652 51.3249 39.5229 50.2719 39.5229 48.9734V45.4461C39.5229 44.1476 38.4652 43.0945 37.161 43.0945Z" fill="#FFB900"/>
<path d="M47.6644 22.1801L31.1307 13.9497C30.4652 13.6185 29.6827 13.6185 29.0173 13.9497L12.4836 22.1801C11.5039 22.6688 10.9904 23.7628 11.241 24.8241C11.4916 25.8853 12.4322 26.6358 13.5393 26.6358V48.9734C13.5393 50.2718 14.597 51.3249 15.9012 51.3249C17.2054 51.3249 18.2632 50.2718 18.2632 48.9734V30.1611H41.8827V48.9734C41.8827 50.2718 42.9404 51.3249 44.2447 51.3249C45.5489 51.3249 46.6066 50.2718 46.6066 48.9734V26.6337C47.7136 26.6337 48.6543 25.8833 48.9049 24.822C49.1596 23.7608 48.644 22.6668 47.6644 22.1801ZM25.3511 25.458H22.9891V23.1064H25.3511V25.458ZM32.4369 25.458H27.713V23.1064H32.4369V25.458ZM37.1609 25.458H34.7989V23.1064H37.1609V25.458Z" fill="#555569"/>
<path d="M30.075 70.1373C31.8899 70.1373 33.3612 68.6725 33.3612 66.8656C33.3612 65.0587 31.8899 63.5939 30.075 63.5939C28.2601 63.5939 26.7888 65.0587 26.7888 66.8656C26.7888 68.6725 28.2601 70.1373 30.075 70.1373Z" fill="white"/>
</g>
<defs>
<clipPath id="clip0">
<rect width="61" height="73" fill="white" transform="translate(0.0883789)"/>
</clipPath>
</defs>
</svg>
