<svg width="77" height="49" viewBox="0 0 77 49" fill="none" xmlns="http://www.w3.org/2000/svg">
<path d="M76.2426 26.0463C76.2426 33.5096 76.2426 40.8912 76.2426 48.3681C75.9987 48.3681 75.7548 48.3681 75.5245 48.3681C54.4954 48.3681 33.48 48.3681 12.4509 48.3681C7.34269 48.3681 3.2507 45.5541 1.5841 40.9048C-0.773543 34.3524 3.53524 27.1746 10.4049 26.1959C11.0959 26.1007 11.8005 26.0463 12.4916 26.0463C33.4935 26.0327 54.4954 26.0463 75.4974 26.0463C75.7142 26.0463 75.9445 26.0463 76.2426 26.0463ZM51.8262 40.7689C53.7638 40.7553 55.4033 39.0832 55.3762 37.1528C55.3491 35.236 53.696 33.6183 51.7991 33.6319C49.875 33.6455 48.2626 35.2632 48.2626 37.18C48.2491 39.1376 49.875 40.7825 51.8262 40.7689ZM18.0469 37.2752C18.1011 35.304 16.5294 33.6727 14.5511 33.6455C12.6677 33.6183 11.0282 35.1817 10.9604 37.0713C10.8927 39.0424 12.4238 40.7009 14.4021 40.7689C16.3668 40.8369 17.9927 39.2735 18.0469 37.2752ZM35.8376 37.112C35.7834 39.0832 37.3416 40.7281 39.3063 40.7689C41.2304 40.8097 42.8563 39.2463 42.9241 37.3024C42.9783 35.3448 41.42 33.6999 39.4418 33.6455C37.5177 33.5911 35.8918 35.1545 35.8376 37.112ZM64.2241 33.6455C62.2729 33.6591 60.6605 35.304 60.6876 37.248C60.7147 39.2056 62.2865 40.7553 64.2376 40.7553C66.2159 40.7553 67.8012 39.1512 67.7741 37.1664C67.7605 35.236 66.1346 33.6319 64.2241 33.6455ZM23.4126 37.2072C23.4126 39.192 25.025 40.7961 26.9897 40.7689C28.9273 40.7417 30.4855 39.1512 30.4855 37.1936C30.4855 35.2088 28.8731 33.6047 26.9084 33.6455C24.9572 33.6863 23.399 35.2632 23.4126 37.2072Z" fill="white"/>
<path d="M72.7602 23.749C63.0723 23.749 53.4249 23.749 43.7369 23.749C43.7369 16.1634 43.7369 8.59138 43.7369 0.96501C47.8289 0.96501 51.9209 0.96501 56.0942 0.96501C56.0942 2.74586 56.0942 4.5267 56.0942 6.36193C57.544 6.36193 58.9396 6.36193 60.403 6.36193C60.403 4.58108 60.403 2.78664 60.403 0.951416C64.5627 0.951416 68.6412 0.951416 72.7738 0.951416C72.7603 8.537 72.7602 16.109 72.7602 23.749Z" fill="white"/>
<path d="M41.0135 23.749C31.312 23.749 21.6511 23.749 11.9496 23.749C11.9496 16.1498 11.9496 8.57779 11.9496 0.96501C16.0551 0.96501 20.1471 0.96501 24.3475 0.96501C24.3475 2.75945 24.3475 4.55389 24.3475 6.38911C25.7973 6.38911 27.1658 6.38911 28.6292 6.38911C28.6292 4.56749 28.6292 2.77304 28.6292 0.951416C32.8025 0.951416 36.8809 0.951416 41.0135 0.951416C41.0135 8.537 41.0135 16.109 41.0135 23.749Z" fill="white"/>
</svg>
