<svg width="10" height="19" viewBox="0 0 10 19" fill="none" xmlns="http://www.w3.org/2000/svg">
<path d="M8.20522 18.0995C8.01319 18.1002 7.82346 18.0578 7.64996 17.9755C7.47647 17.8932 7.32361 17.7731 7.20264 17.624L0.99431 9.91175C0.805256 9.68175 0.701904 9.39326 0.701904 9.09554C0.701904 8.79782 0.805256 8.50932 0.99431 8.27933L7.42115 0.567125C7.63932 0.304632 7.95284 0.139559 8.29272 0.108222C8.63261 0.0768853 8.97102 0.181851 9.23352 0.400027C9.49601 0.618204 9.66108 0.93172 9.69242 1.2716C9.72376 1.61149 9.61879 1.9499 9.40061 2.2124L3.65502 9.10196L9.20781 15.9915C9.36499 16.1802 9.46483 16.41 9.49552 16.6536C9.52622 16.8972 9.48648 17.1446 9.38101 17.3663C9.27554 17.5881 9.10875 17.775 8.90037 17.9049C8.692 18.0349 8.45077 18.1024 8.20522 18.0995Z" fill="#484A51"/>
</svg>
