<svg width="39" height="39" viewBox="0 0 39 39" fill="none" xmlns="http://www.w3.org/2000/svg">
<path d="M37.4833 31.6413L22.4358 4.66127C22.1363 4.12357 21.6933 3.67462 21.1537 3.36177C20.6141 3.04892 19.9979 2.88379 19.37 2.88379C18.7421 2.88379 18.1258 3.04892 17.5862 3.36177C17.0466 3.67462 16.6037 4.12357 16.3041 4.66127L1.26748 31.6413C0.970131 32.16 0.817554 32.7457 0.824965 33.3399C0.832376 33.934 0.999515 34.5159 1.30972 35.0275C1.61992 35.539 2.06234 35.9624 2.59287 36.2555C3.1234 36.5485 3.72349 36.7008 4.33331 36.6974H34.4175C35.0211 36.6968 35.6142 36.5436 36.1389 36.2528C36.6635 35.9619 37.1017 35.5434 37.4107 35.0382C37.7197 34.5329 37.8888 33.9582 37.9015 33.3702C37.9142 32.7822 37.7701 32.201 37.4833 31.6835V31.6413ZM17.9833 11.3641C17.9833 10.9721 18.1431 10.5962 18.4275 10.3191C18.712 10.042 19.0977 9.88628 19.5 9.88628C19.9022 9.88628 20.288 10.042 20.5724 10.3191C20.8569 10.5962 21.0166 10.9721 21.0166 11.3641V24.0307C21.0166 24.4227 20.8569 24.7985 20.5724 25.0757C20.288 25.3528 19.9022 25.5085 19.5 25.5085C19.0977 25.5085 18.712 25.3528 18.4275 25.0757C18.1431 24.7985 17.9833 24.4227 17.9833 24.0307V11.3641ZM19.5 32.3168C19.1143 32.3168 18.7373 32.2054 18.4166 31.9966C18.0959 31.7878 17.846 31.4911 17.6984 31.1439C17.5508 30.7968 17.5122 30.4147 17.5875 30.0462C17.6627 29.6776 17.8484 29.339 18.1211 29.0733C18.3938 28.8076 18.7413 28.6266 19.1196 28.5533C19.4978 28.48 19.8899 28.5177 20.2462 28.6615C20.6025 28.8053 20.9071 29.0488 21.1213 29.3612C21.3356 29.6737 21.45 30.041 21.45 30.4168C21.45 30.6663 21.3995 30.9134 21.3015 31.1439C21.2036 31.3744 21.0599 31.5839 20.8788 31.7603C20.6978 31.9368 20.4828 32.0767 20.2462 32.1722C20.0096 32.2677 19.7561 32.3168 19.5 32.3168Z" fill="#FFB900"/>
</svg>
