<svg width="39" height="39" viewBox="0 0 39 39" fill="none" xmlns="http://www.w3.org/2000/svg">
<path d="M19.4744 38.3491C29.8284 38.3569 38.2597 29.9102 38.2284 19.5637C38.1972 9.22584 29.7818 0.833514 19.4511 0.849143C9.113 0.864771 0.712894 9.27245 0.720709 19.6109C0.728523 29.9413 9.13617 38.349 19.4744 38.3491ZM19.4744 38.3491L19.4746 38.0991V38.3491C19.4745 38.3491 19.4744 38.3491 19.4744 38.3491ZM19.4667 2.76006H19.4669C28.7658 2.76006 36.3175 10.3119 36.3175 19.603C36.3175 28.8941 28.7658 36.4459 19.4669 36.4459C10.1833 36.4459 2.62392 28.8941 2.62392 19.603C2.62392 10.3117 10.1834 2.75246 19.4667 2.76006Z" fill="#FF2638" stroke="#FF2638" stroke-width="0.5"/>
<path d="M14.1757 21.5102C14.1757 21.4228 14.1757 21.3416 14.1757 21.2542C14.1757 18.0196 14.1757 14.7912 14.1757 11.5566C14.1757 10.6012 14.95 9.98296 15.793 10.2827C16.2738 10.4513 16.5424 10.8072 16.6048 11.313C16.6173 11.4005 16.6173 11.4879 16.6173 11.5753C16.6173 13.4986 16.6173 15.4281 16.6173 17.3514C16.6173 17.4451 16.6235 17.545 16.6485 17.6324C16.6922 17.8135 16.8234 17.9197 17.0107 17.9259C17.2105 17.9322 17.3541 17.8323 17.4041 17.6449C17.4353 17.5388 17.4353 17.4264 17.4353 17.3202C17.4353 14.8474 17.4353 12.3683 17.4353 9.89554C17.4353 9.27734 17.7413 8.82774 18.2658 8.65289C19.0027 8.40936 19.7645 8.89018 19.8582 9.65825C19.8707 9.76441 19.8707 9.87681 19.8707 9.98921C19.8707 12.437 19.8707 14.8849 19.8707 17.3265C19.8707 17.4264 19.8707 17.5325 19.8956 17.6324C19.9456 17.826 20.083 17.9322 20.2828 17.9322C20.4826 17.9322 20.6137 17.8198 20.6637 17.6262C20.6824 17.5513 20.6887 17.4638 20.6887 17.3889C20.6887 15.1659 20.6887 12.9366 20.6824 10.7136C20.6824 9.98921 21.157 9.44594 21.8377 9.40847C22.5433 9.37101 23.0678 9.85808 23.124 10.6012C23.1365 10.7385 23.124 10.8822 23.124 11.0195C23.124 13.3987 23.124 15.7778 23.124 18.1632C23.124 18.2506 23.124 18.3381 23.1365 18.4255C23.174 18.6253 23.3551 18.7627 23.5486 18.7502C23.7422 18.7377 23.8858 18.6066 23.9171 18.4005C23.9296 18.3068 23.9296 18.2132 23.9296 18.1133C23.9296 16.4585 23.9233 14.8099 23.9233 13.1552C23.9233 12.5619 24.2418 12.0873 24.7601 11.9063C25.2534 11.7377 25.7967 11.9 26.1214 12.3121C26.3087 12.5557 26.3774 12.8367 26.3774 13.1364C26.3774 16.7457 26.3774 20.3488 26.3711 23.9581C26.3711 25.0196 26.1588 26.0312 25.6468 26.9679C24.9786 28.1918 23.9733 29.0098 22.637 29.3845C20.6325 29.9528 18.6405 29.8591 16.6922 29.1098C15.4308 28.6227 14.4817 27.7422 13.7448 26.6182C12.5209 24.7511 11.2845 22.8903 10.0544 21.0232C9.62974 20.3737 9.60476 19.6369 9.99816 19.1249C10.5789 18.3568 11.7653 18.3755 12.3835 19.1811C12.9206 19.8804 13.4326 20.5985 13.9509 21.3104C14.0009 21.3791 14.0571 21.4478 14.107 21.5165C14.1445 21.5165 14.1632 21.5165 14.1757 21.5102Z" fill="#FF2638"/>
</svg>
