<svg width="37" height="37" viewBox="0 0 37 37" fill="none" xmlns="http://www.w3.org/2000/svg">
<circle cx="18.9736" cy="18.0303" r="15.1948" fill="#FF2638"/>
<path fill-rule="evenodd" clip-rule="evenodd" d="M31.7214 5.28064C24.6944 -1.74411 13.2515 -1.74637 6.22449 5.28064C-0.802521 12.3099 -0.800261 23.7505 6.22449 30.7798C13.2515 37.8045 24.6921 37.8068 31.7214 30.7798C38.7506 23.7483 38.7484 12.3099 31.7214 5.28064ZM9.0005 28.0038C3.49138 22.4969 3.48687 13.5409 8.98469 8.0431C14.4825 2.54302 23.4385 2.5498 28.9476 8.05665C34.4545 13.5635 34.4567 22.5218 28.9612 28.0196C23.4588 33.5174 14.5051 33.5106 9.0005 28.0038Z" fill="#FF2638"/>
<path fill-rule="evenodd" clip-rule="evenodd" d="M23.8563 24.9138C23.5342 24.9238 23.2205 24.8098 22.9799 24.5953L18.9887 20.6086L15.1601 24.4372C14.8935 24.6618 14.553 24.7794 14.2046 24.767C13.949 24.7638 13.6967 24.7092 13.4626 24.6064C13.2286 24.5035 13.0177 24.3546 12.8426 24.1684C12.3434 23.6715 12.2327 23.179 12.2305 22.8583C12.212 22.5271 12.3257 22.2022 12.5467 21.9548L16.4408 18.0584L12.6461 14.2682C12.3027 13.9226 12.0159 12.852 12.9171 11.953C13.4254 11.4448 13.9245 11.3386 14.2566 11.3386C14.6699 11.3386 14.9794 11.5013 15.1307 11.6571L18.9887 15.5106L22.8195 11.6797C23.0869 11.4549 23.4282 11.3374 23.7773 11.3499C24.0334 11.3528 24.2864 11.4075 24.5209 11.5107C24.7554 11.614 24.9665 11.7637 25.1415 11.9507C25.9954 12.8068 25.8237 13.7803 25.4374 14.1643L21.5388 18.063L25.4623 21.9842C25.6136 22.1378 25.7921 22.4811 25.7921 22.9419C25.7897 23.1973 25.7354 23.4495 25.6325 23.6833C25.5296 23.917 25.3802 24.1274 25.1935 24.3017C24.6853 24.8076 24.1883 24.9138 23.8563 24.9138Z" fill="white"/>
</svg>
