<svg width="19" height="15" viewBox="0 0 19 15" fill="none" xmlns="http://www.w3.org/2000/svg">
<path d="M0.96875 0.702881H18.0312C18.3942 0.702881 18.6875 0.982178 18.6875 1.32788V13.8279C18.6875 14.1736 18.3942 14.4529 18.0312 14.4529H0.96875C0.605762 14.4529 0.3125 14.1736 0.3125 13.8279V1.32788C0.3125 0.982178 0.605762 0.702881 0.96875 0.702881ZM2.62578 2.82983L9.096 7.62476C9.25596 7.7439 9.47949 7.7439 9.63945 7.62476L16.1117 2.82983C16.1361 2.8119 16.154 2.78715 16.1629 2.75904C16.1718 2.73094 16.1712 2.70089 16.1613 2.67311C16.1513 2.64533 16.1325 2.62121 16.1074 2.60413C16.0824 2.58706 16.0523 2.57788 16.0215 2.57788H2.71602C2.6852 2.57788 2.65515 2.58706 2.63008 2.60413C2.60502 2.62121 2.58619 2.64533 2.57624 2.67311C2.56629 2.70089 2.56572 2.73094 2.5746 2.75904C2.58349 2.78715 2.60138 2.8119 2.62578 2.82983Z" fill="#1A518E"/>
</svg>
