<svg width="33" height="33" viewBox="0 0 33 33" fill="none" xmlns="http://www.w3.org/2000/svg">
<path d="M24.4918 24.3222L8.35383 8.18425C8.14538 7.97244 7.80581 7.97244 7.594 8.18425C7.38219 8.39606 7.38555 8.73563 7.594 8.94408L9.25823 10.6083C8.72366 10.8537 8.19918 11.1227 7.6915 11.4287C7.57047 11.5026 7.47969 11.6237 7.44607 11.7649C7.41245 11.9061 7.43599 12.054 7.51331 12.175L8.95228 14.4613C9.80962 13.8964 10.7443 13.4358 11.726 13.0828L12.5833 13.9401C11.4907 14.2763 10.4585 14.7504 9.52384 15.369L10.6669 17.1879C11.763 16.455 13.0305 15.9708 14.382 15.7388L15.3302 16.687C13.8273 16.8114 12.4287 17.2989 11.2419 18.099L12.3883 19.9213C13.4339 19.2052 14.6914 18.7849 16.0429 18.7849C16.5977 18.7849 17.1322 18.8622 17.6433 18.9933L23.732 25.0821C23.8362 25.1863 23.9741 25.2401 24.1119 25.2401C24.2498 25.2401 24.3876 25.1863 24.4918 25.0821C24.7036 24.8736 24.7036 24.5341 24.4918 24.3222Z" fill="#1A518E"/>
<path d="M24.6364 11.7648C24.6028 11.6236 24.5154 11.5026 24.391 11.4286C21.8863 9.90559 18.9982 9.10205 16.043 9.10205C14.4796 9.10205 12.9398 9.33403 11.4604 9.77111L14.1602 12.4709C14.7755 12.3801 15.4042 12.333 16.043 12.333C18.6587 12.333 21.0928 13.1197 23.1302 14.4646L24.5692 12.1817C24.6432 12.054 24.6701 11.906 24.6364 11.7648Z" fill="#1A518E"/>
<path d="M16.0434 13.4056C15.7375 13.4056 15.4349 13.419 15.1323 13.4426L17.3479 15.6582C18.834 15.8599 20.2158 16.3911 21.4127 17.1913L22.5558 15.3724C20.6865 14.1318 18.4507 13.4056 16.0434 13.4056Z" fill="#1A518E"/>
<path d="M18.7866 17.0971L20.4307 18.7412L20.8375 18.0956C20.2121 17.6754 19.5196 17.3425 18.7866 17.0971Z" fill="#1A518E"/>
<path d="M16.0432 19.8607C14.9 19.8607 13.8444 20.2238 12.9702 20.8357L15.5859 24.9912C15.6834 25.1458 15.8582 25.2433 16.0432 25.2433C16.2281 25.2433 16.3995 25.1492 16.497 24.9912L19.1127 20.8357C18.242 20.2238 17.1863 19.8607 16.0432 19.8607Z" fill="#1A518E"/>
<circle cx="16.0406" cy="16.6344" r="15.2906" stroke="#1A518E" stroke-width="1.5"/>
</svg>
