<svg xmlns="http://www.w3.org/2000/svg" width="43" height="34" viewBox="0 0 43 34">
  <g id="outline" transform="translate(43 34) rotate(180)">
    <path id="Icon" d="M5.375,34A5.391,5.391,0,0,1,0,28.68V5.409A5.393,5.393,0,0,1,5.286,0H23.8a5.391,5.391,0,0,1,5.374,5.32V9.273a1.536,1.536,0,0,1-3.071.03V5.409a2.311,2.311,0,0,0-2.265-2.318H5.375a2.311,2.311,0,0,0-2.3,2.28v23.22a2.311,2.311,0,0,0,2.265,2.318H23.8a2.311,2.311,0,0,0,2.3-2.28v-3.9a1.536,1.536,0,0,1,3.071-.03v3.894A5.393,5.393,0,0,1,23.892,34H5.375ZM32.7,25.82a1.553,1.553,0,0,1-.025-2.16l.025-.025,5.057-5.089h-22.5a1.546,1.546,0,0,1-.03-3.091H37.757L32.7,10.365a1.552,1.552,0,0,1-.025-2.16L32.7,8.18a1.529,1.529,0,0,1,2.147-.025l.025.025,7.679,7.727a1.541,1.541,0,0,1,.329.491v0l0,.005,0,.006h0a1.559,1.559,0,0,1-.011,1.2l0,0h0a1.541,1.541,0,0,1-.285.435h0l-.005.006,0,0,0,0h0l-.031.031L34.872,25.82a1.529,1.529,0,0,1-2.172,0Z" fill="#921919"/>
  </g>
</svg>
