<svg width="41" height="41" viewBox="0 0 41 41" fill="none" xmlns="http://www.w3.org/2000/svg">
<path fill-rule="evenodd" clip-rule="evenodd" d="M20.5 2.43274C10.1219 2.43274 1.70833 10.6411 1.70833 20.7661C1.70833 30.8911 10.1219 39.0994 20.5 39.0994C30.8781 39.0994 39.2917 30.8911 39.2917 20.7661C39.2917 10.6411 30.8781 2.43274 20.5 2.43274ZM28.6453 17.6661C28.7953 17.4988 28.9095 17.304 28.9812 17.093C29.0528 16.8821 29.0805 16.6593 29.0626 16.4377C29.0447 16.2162 28.9816 16.0003 28.8769 15.803C28.7723 15.6056 28.6282 15.4306 28.4532 15.2883C28.2782 15.146 28.0758 15.0393 27.858 14.9745C27.6401 14.9097 27.4111 14.888 27.1845 14.9108C26.9579 14.9336 26.7383 15.0003 26.5385 15.1071C26.3388 15.2139 26.1629 15.3586 26.0213 15.5327L18.6755 24.1311L14.8745 20.4211C14.5523 20.1175 14.1207 19.9495 13.6728 19.9533C13.2249 19.9571 12.7964 20.1324 12.4797 20.4414C12.1629 20.7504 11.9833 21.1684 11.9794 21.6054C11.9755 22.0424 12.1477 22.4634 12.4589 22.7777L17.5839 27.7777C17.7517 27.9414 17.9527 28.0691 18.174 28.1528C18.3952 28.2365 18.6319 28.2743 18.869 28.2638C19.1061 28.2533 19.3383 28.1947 19.5509 28.0918C19.7634 27.9889 19.9517 27.8439 20.1037 27.6661L28.6453 17.6661Z" fill="#2DD36F"/>
</svg>
