<svg width="22" height="34" viewBox="0 0 22 34" fill="none" xmlns="http://www.w3.org/2000/svg">
<g clip-path="url(#clip0)">
<path d="M7.47009 24.01V24.0141C7.47415 24.01 7.47822 24.0059 7.48228 23.9976L7.48634 23.9894L7.47009 24.01ZM7.47009 24.01V24.0141C7.47415 24.01 7.47822 24.0059 7.48228 23.9976L7.48634 23.9894L7.47009 24.01ZM7.47009 24.01V24.0141C7.47415 24.01 7.47822 24.0059 7.48228 23.9976L7.48634 23.9894L7.47009 24.01ZM7.47009 24.01V24.0141C7.47415 24.01 7.47822 24.0059 7.48228 23.9976L7.48634 23.9894L7.47009 24.01Z" fill="#555569"/>
<path d="M21.9827 8.91309C21.8974 7.85926 21.4871 7.11564 20.8209 6.80969C20.3619 6.60147 19.9151 6.58872 19.4845 6.76719C19.2286 5.69637 18.534 4.85076 17.7378 4.65105C17.6607 4.48957 17.5754 4.3281 17.486 4.17088C17.0351 3.38051 16.4583 2.69212 15.7718 2.12696C15.7556 2.10147 15.7353 2.08022 15.7109 2.06323C14.5004 1.08589 13.0299 0.524981 11.4661 0.439995C9.90623 0.355009 8.35047 0.745944 6.97344 1.57881C6.93688 1.60005 6.90439 1.6213 6.86783 1.64255L6.84752 1.65529C4.86524 2.89184 3.48009 4.923 3.04139 7.23037C2.5905 7.38759 2.22086 7.77003 1.99338 8.30969C1.84309 8.67088 1.76185 9.09581 1.76185 9.53348C1.76185 9.57173 1.76185 9.60997 1.76185 9.64821V9.65246C1.76997 9.86493 1.79434 10.0774 1.83496 10.2899C1.90808 10.6553 2.02994 10.9995 2.20055 11.3097C2.20055 11.3097 2.20055 11.3139 2.20461 11.3139C2.20461 11.3182 2.20867 11.3182 2.20867 11.3224C2.61894 12.0703 3.24043 12.542 3.88223 12.5887C3.89035 12.6057 3.89848 12.6185 3.9066 12.6355C4.51185 13.6935 5.36487 14.5901 6.38038 15.2275C6.23009 15.3465 6.09198 15.4825 5.97824 15.5972C5.65328 15.9202 5.36487 16.2644 5.12521 16.5533C4.57684 17.2162 4.00815 17.9768 3.33792 18.9329L3.25668 19.0519C2.91546 19.5321 2.56613 20.0335 2.25741 20.5477C2.14368 20.7346 2.02994 20.9216 1.9162 21.1001C1.74966 21.3678 1.57499 21.6482 1.41251 21.9287C1.02662 22.5916 0.547297 23.4754 0.238582 24.44C-0.0985675 25.4938 -0.0863814 26.263 0.279202 26.7899C0.486366 27.0916 0.774771 27.2828 1.09161 27.338C1.17285 27.3508 1.25409 27.3593 1.33939 27.3593C1.55874 27.3593 1.79434 27.3168 2.04213 27.2275C2.7936 26.9598 3.4679 26.4457 4.08127 25.9315C4.65402 25.4513 5.24708 24.8862 5.89294 24.202C6.20572 23.8706 6.49006 23.5562 6.75409 23.2502C6.78253 23.3309 6.81502 23.4117 6.83533 23.4584L6.85564 23.5179C7.07499 24.0873 7.29028 24.6525 7.50557 25.2219C7.51369 25.2389 7.52182 25.2601 7.52588 25.2771C7.84678 26.1227 8.26923 27.236 8.67544 28.3706C9.06945 29.4797 9.44316 30.4825 9.95904 31.4258C9.95904 31.4301 9.9631 31.4301 9.9631 31.4343C10.0118 31.5278 10.0606 31.6171 10.1093 31.702C10.3531 32.1185 10.7146 32.3819 11.1817 32.4754C11.2873 32.4967 11.3929 32.5094 11.4986 32.5094C11.8032 32.5094 12.1079 32.4159 12.4003 32.2332C12.4044 32.229 12.4084 32.229 12.4125 32.2247C12.4694 32.1907 12.5262 32.1482 12.5831 32.1057C15.4306 29.9598 16.9173 19.1666 17.092 17.7984C19.0864 16.4088 20.2522 14.6539 20.8778 13.4301C21.5927 12.0278 21.9908 10.5576 21.9908 9.32952C21.9989 9.18929 21.9908 9.04906 21.9827 8.91309ZM18.9768 7.02215C19.1677 7.96125 18.924 8.89184 18.4 9.28277C18.6031 7.96974 18.4812 6.63971 18.0547 5.42017C18.4893 5.73886 18.8387 6.33377 18.9768 7.02215ZM7.0953 2.16946C7.10749 2.16096 7.11967 2.15246 7.1278 2.14821L7.13186 2.14396C7.39589 1.97824 7.66805 1.83376 7.94021 1.70204C7.98489 1.68079 8.02551 1.66379 8.07019 1.64255C9.71126 0.915916 11.5432 0.822432 13.1884 1.34085C13.2005 1.34509 13.2087 1.34934 13.2209 1.34934C13.9073 1.57456 14.5573 1.91025 15.1584 2.36068C14.7563 2.95558 14.2242 3.46974 13.6149 3.84793C11.332 5.27144 8.43171 4.60855 7.15217 2.36493C7.11968 2.30968 7.09124 2.25444 7.05874 2.1907C7.07093 2.18221 7.08312 2.17371 7.0953 2.16946ZM8.7973 11.6964C8.88666 12.1298 9.26037 12.457 9.70313 12.457H11.1492C11.4051 12.457 11.6367 12.3465 11.8032 12.1723C11.9697 11.9981 12.0754 11.7559 12.0754 11.4882C12.0754 10.9527 11.661 10.5193 11.1492 10.5193H9.70313C9.44722 10.5193 9.21569 10.6298 9.04914 10.804C8.95978 10.9018 8.88666 11.0165 8.83792 11.144C8.50077 11.076 8.14331 10.9485 7.86303 10.7148C7.54213 10.4471 7.36746 10.0774 7.32278 9.59297C7.24966 8.77711 6.81502 8.13972 6.26665 7.6468C6.34789 7.28136 6.47381 6.92442 6.63223 6.57598C7.03031 5.71337 7.62337 4.97399 8.36672 4.41733C9.16288 4.9145 10.085 5.17371 11.0395 5.17371C12.0347 5.17371 13.0218 4.88476 13.8911 4.3451C14.1023 4.21337 14.3014 4.06889 14.4882 3.91592C15.5403 4.45133 16.2918 5.30969 16.6655 6.406C17.0676 7.58731 16.9945 8.8366 16.4542 10.0094C15.7962 11.4414 14.4801 12.627 12.9365 13.1836C10.2393 14.1567 7.22935 12.8522 6.3682 10.3366C6.15291 9.69921 6.07979 9.00232 6.15291 8.30119C6.49818 8.67088 6.74597 9.11705 6.79065 9.64396C6.84752 10.2771 7.0953 10.7828 7.52994 11.144C7.90771 11.4584 8.37078 11.6199 8.7973 11.6964ZM6.59973 2.5094C6.62411 2.56039 6.65254 2.61138 6.68097 2.66238C6.99375 3.21478 7.39996 3.69071 7.88334 4.07739C7.13999 4.67229 6.5388 5.44566 6.1326 6.32952C5.99043 6.63547 5.87669 6.95416 5.78733 7.27711C5.03991 6.75445 4.21938 6.46124 3.83349 6.33802C4.34124 4.80827 5.29988 3.47399 6.59973 2.5094ZM3.68319 6.86493C4.06502 6.98816 4.93836 7.3026 5.66546 7.85501C5.6086 8.17796 5.58016 8.50515 5.58016 8.8281C5.58016 8.95133 5.58422 9.07456 5.59235 9.19354C5.42987 8.59864 5.1374 8.07173 4.74744 7.69779C4.40217 7.36634 4.01222 7.17513 3.61414 7.14538C3.63851 7.05615 3.65882 6.96266 3.68319 6.86493ZM3.36229 11.3734C3.30948 11.4372 3.25261 11.4669 3.18762 11.4627C3.03326 11.4584 2.83016 11.2842 2.66768 11.0122C2.50926 10.753 2.39552 10.4216 2.34272 10.0816C2.32241 9.94991 2.31022 9.81819 2.31022 9.69496C2.31022 9.68221 2.31022 9.67371 2.31022 9.66096V9.65671C2.31428 9.33802 2.3874 9.07031 2.5052 8.93008C2.55801 8.86635 2.61081 8.84085 2.67174 8.84085H2.67987C2.9439 8.84935 3.39479 9.38051 3.52477 10.2261C3.59789 10.7148 3.53696 11.1652 3.36229 11.3734ZM4.1747 11.9981C3.97972 12.0406 3.76849 12.0193 3.56539 11.9301C3.56539 11.9301 3.56945 11.9301 3.56945 11.9258C3.64257 11.8791 3.71162 11.8196 3.76849 11.7474C4.0569 11.4074 4.16251 10.7998 4.06096 10.1284C3.90254 9.10006 3.30136 8.27994 2.69205 8.26294C2.67174 8.26294 2.65143 8.26294 2.63112 8.26294C2.80985 7.97824 3.04545 7.79977 3.31354 7.74028C3.66288 7.66379 4.04065 7.79977 4.37374 8.12272C4.73526 8.47116 4.99523 8.98108 5.11303 9.56748C5.31207 10.5491 5.03585 11.5179 4.4631 11.8748C4.3778 11.9343 4.27625 11.9768 4.1747 11.9981ZM4.47529 12.5037C4.56871 12.4697 4.65808 12.4273 4.74338 12.372C5.39331 11.9683 5.76295 11.0717 5.73046 10.0774C5.76702 10.2304 5.8117 10.3791 5.86044 10.5236C6.32758 11.8876 7.34715 12.9754 8.73637 13.5873C9.48378 13.9145 10.2799 14.0802 11.0842 14.0802C11.7707 14.0802 12.4613 13.9612 13.1234 13.719C13.5661 13.5576 13.9967 13.3493 14.407 13.0944C15.5281 12.3933 16.4339 11.3862 16.9579 10.2516C17.3032 9.49524 17.4779 8.71337 17.4779 7.93575C17.4779 7.35785 17.3804 6.77994 17.1895 6.21054C16.7955 5.05473 16.0196 4.12838 14.935 3.51223C15.1788 3.26578 15.4022 2.99807 15.5971 2.70912C16.1618 3.20629 16.637 3.79269 17.0189 4.45558C18.9849 7.906 17.75 12.4782 14.2689 14.6496C10.8527 16.7828 6.48193 15.8139 4.47529 12.5037ZM4.25594 25.0477C4.09346 25.1964 3.93097 25.3366 3.77662 25.4726L3.76443 25.4811C3.72787 25.5108 3.69538 25.5406 3.65882 25.5661C3.64257 25.5788 3.62226 25.5958 3.60601 25.6086L3.59383 25.6213C3.58976 25.6256 3.58164 25.6298 3.57758 25.6341H3.57351L3.55727 25.6511C3.47196 25.719 3.39072 25.7828 3.31354 25.8423C2.96015 26.11 2.65549 26.3139 2.35084 26.4754C2.27366 26.5179 2.19648 26.5562 2.11931 26.5902L2.11524 26.5944C2.11118 26.5944 2.10712 26.5986 2.099 26.6029L2.08681 26.6071H2.07462L2.0665 26.6156L2.04213 26.6284C2.00557 26.6454 1.96901 26.6581 1.93245 26.6709C1.79434 26.7219 1.65217 26.7601 1.51406 26.7856H1.49375L1.48969 26.7899L1.45719 26.7941C1.4247 26.7984 1.3922 26.7984 1.36377 26.7984C1.32721 26.7984 1.29877 26.7984 1.27034 26.7984C1.26628 26.7984 1.25815 26.7984 1.25003 26.7984C1.24191 26.7984 1.23378 26.7984 1.22972 26.7984L1.20128 26.7941C1.15254 26.7856 1.1038 26.7729 1.05911 26.7559L1.03068 26.7431C1.02662 26.7431 1.02662 26.7389 1.02662 26.7389C0.998183 26.7261 0.973811 26.7091 0.949438 26.6964C0.937252 26.6879 0.925066 26.6794 0.91288 26.6709V26.6666L0.888508 26.6496C0.884446 26.6454 0.876322 26.6411 0.87226 26.6369C0.856012 26.6241 0.839763 26.6071 0.827577 26.5944C0.803205 26.5689 0.778833 26.5434 0.758523 26.5179C0.754461 26.5137 0.750399 26.5094 0.750399 26.5052L0.738212 26.4882C0.730088 26.4797 0.726026 26.4669 0.717902 26.4584C0.697592 26.4244 0.681344 26.3989 0.669158 26.3692C0.665096 26.3607 0.661034 26.3522 0.656972 26.3437C0.65291 26.3352 0.648848 26.3267 0.644786 26.3182L0.640723 26.3012C0.612289 26.2205 0.591979 26.1482 0.579793 26.076C0.575731 26.059 0.571669 26.042 0.571669 26.0207V26.0165C0.571669 26.0122 0.571669 26.008 0.571669 26.008C0.571669 25.9825 0.567607 25.957 0.567607 25.9358C0.563545 25.9188 0.563545 25.8975 0.563545 25.8805C0.559483 25.7998 0.559483 25.7105 0.563545 25.6171C0.567607 25.5746 0.567607 25.5363 0.571669 25.4938L0.587917 25.3791C0.604165 25.2856 0.620413 25.1879 0.640723 25.0944C0.685406 24.9032 0.742274 24.7035 0.815391 24.4825C0.847887 24.389 0.884446 24.2828 0.929128 24.1681C0.937252 24.1426 0.949438 24.1171 0.961625 24.0873L0.973811 24.0746V24.0618L0.977873 24.0576C1.00224 24.0023 1.02255 23.9471 1.04693 23.8918C1.20941 23.5137 1.40439 23.1185 1.64405 22.6808C1.65623 22.6596 1.66842 22.6341 1.68061 22.6128C1.69279 22.6213 1.70498 22.6256 1.72123 22.6298C2.13149 22.7658 2.51739 22.9358 2.86672 23.144C3.02514 23.2375 3.18356 23.3394 3.32979 23.4499C3.39072 23.4924 3.44759 23.5392 3.50446 23.5859C3.51258 23.5944 3.52477 23.6071 3.54102 23.6156C3.55727 23.6284 3.56945 23.6411 3.5857 23.6539C3.6182 23.6794 3.64663 23.7049 3.67507 23.7304C3.88629 23.9173 4.07721 24.1171 4.24781 24.3253C4.28031 24.3635 4.31281 24.406 4.34124 24.4485L4.36561 24.4825L4.3778 24.4995C4.38999 24.5165 4.40217 24.5335 4.41436 24.5462C4.45904 24.6142 4.50372 24.678 4.54434 24.7417C4.55653 24.7587 4.56465 24.7757 4.57684 24.7927C4.4631 24.8564 4.36155 24.9542 4.25594 25.0477ZM12.8756 31.0137C12.8471 31.0519 12.8187 31.0859 12.7943 31.1199C12.7943 31.1199 12.7943 31.1241 12.7903 31.1241C12.7903 31.1241 12.7903 31.1284 12.7862 31.1284C12.7822 31.1326 12.7822 31.1326 12.7781 31.1369C12.7781 31.1369 12.7781 31.1369 12.774 31.1411C12.774 31.1411 12.774 31.1454 12.77 31.1454C12.77 31.1496 12.7659 31.1496 12.7618 31.1539C12.7578 31.1581 12.7578 31.1624 12.7537 31.1624C12.7497 31.1666 12.7497 31.1709 12.7456 31.1709C12.7415 31.1794 12.7334 31.1836 12.7293 31.1921C12.7172 31.2091 12.7009 31.2261 12.6847 31.2431C12.5506 31.3961 12.4166 31.5236 12.2825 31.6256C12.2785 31.6298 12.2703 31.6341 12.2663 31.6383C12.1079 31.7573 11.9535 31.838 11.7951 31.8848C11.791 31.8848 11.791 31.8848 11.791 31.8848C11.726 31.9018 11.657 31.9145 11.592 31.923C11.4945 31.9315 11.3929 31.9273 11.2914 31.906C10.9745 31.8423 10.743 31.6723 10.5805 31.3919C10.4952 31.2474 10.414 31.0944 10.3165 30.8989C9.98747 30.2488 9.70313 29.5647 9.4391 28.8975C9.34567 28.6298 9.24818 28.3239 9.23193 28.2261C11.1289 27.0873 12.5547 27.1596 14.1348 28.4811C13.7205 29.5944 13.298 30.4358 12.8756 31.0137ZM17.1773 17.042C17.1813 16.991 17.1813 16.9443 17.1854 16.8975C17.1976 16.6468 17.1935 16.4003 17.1895 16.1284C17.1854 15.8777 17.1732 15.6185 17.157 15.355C17.1407 15.1213 17.1164 14.8493 17.0676 14.5816C17.0595 14.5392 17.031 14.5094 16.9904 14.5052C16.9661 14.5009 16.9417 14.5094 16.9214 14.5222C16.9011 14.5392 16.8889 14.5604 16.8848 14.5859L16.7792 15.3423C16.7426 15.6355 16.7101 15.8734 16.6817 16.0986L16.6695 16.1879C16.6452 16.4088 16.6167 16.6341 16.6005 16.8593C16.5802 17.0972 16.5639 17.3522 16.568 17.6029C16.5477 17.7431 16.4096 18.8224 16.1496 20.3224C15.8165 20.3394 15.126 20.4074 14.7563 20.6709C14.4313 20.9046 14.3988 21.1468 14.3745 21.3423C14.3542 21.508 14.3379 21.6397 14.1308 21.8182C13.6596 22.2261 11.3564 22.3961 11.0477 22.0434C10.8892 21.8649 10.8689 21.7375 10.8486 21.6057C10.8243 21.4443 10.7877 21.2403 10.4952 21.1001C9.75594 20.7516 8.72418 21.1128 7.72086 21.4655C7.48526 21.5462 7.26591 21.627 7.05062 21.695C7.00188 21.7077 6.96532 21.7417 6.94094 21.7884C6.91657 21.8352 6.91251 21.8862 6.92876 21.9372C6.94501 21.9882 6.97344 22.0264 7.01812 22.0519C7.06281 22.0774 7.11155 22.0816 7.1603 22.0647C7.38371 21.9924 7.61524 21.9117 7.84272 21.8309C8.77292 21.5037 9.73563 21.1638 10.3449 21.4528C10.4627 21.508 10.4668 21.5377 10.4871 21.6695C10.5115 21.8267 10.548 22.0392 10.7796 22.3026C10.9786 22.5278 11.4945 22.6213 12.0835 22.6213C12.904 22.6213 13.8627 22.4386 14.2648 22.1879C14.3054 22.1624 14.3379 22.1369 14.3704 22.1114C14.6873 21.8352 14.7197 21.5802 14.7441 21.3933C14.7644 21.2275 14.7807 21.1256 14.9716 20.9896C15.2356 20.7984 15.7678 20.7346 16.0887 20.7134C15.9221 21.6652 15.7109 22.7573 15.459 23.8749C15.1097 25.4386 14.736 26.7899 14.346 27.9159C13.1965 27.0151 12.0794 26.8664 11.3239 26.9088C10.9786 26.9301 10.6374 26.9896 10.3124 27.0916C9.97123 27.1978 9.60564 27.3848 9.19944 27.6695C9.18725 27.678 9.171 27.6865 9.15476 27.6992C9.11414 27.7247 9.06539 27.7545 9.02477 27.7885C9.00852 27.7417 8.99227 27.695 8.97603 27.6525C8.89885 27.4315 8.81761 27.2063 8.7323 26.9853L7.35121 23.3777C7.24966 23.11 7.14811 22.8465 7.04656 22.5788L7.03843 22.5661C6.96126 22.4471 6.81096 22.4088 6.6891 22.4726C6.67691 22.4768 6.67285 22.4811 6.60786 22.5448L6.57942 22.5746L6.56318 22.5916H6.55911C6.55505 22.5916 6.55505 22.5958 6.55099 22.6001L6.54693 22.6043L6.54287 22.6128C6.5388 22.6171 6.53474 22.6213 6.53068 22.6298C6.47787 22.6935 6.42507 22.7573 6.37226 22.821C6.20978 23.0165 6.05948 23.2035 5.88888 23.3904C5.56798 23.7389 5.26739 24.0576 4.96679 24.3593C4.87337 24.2105 4.76775 24.0746 4.67027 23.9513C4.28031 23.4584 3.79693 23.0335 3.22824 22.6808C2.84235 22.4428 2.41177 22.2431 1.95276 22.0816C2.13149 21.7799 2.31835 21.474 2.50114 21.1808L2.64331 20.9556C2.89922 20.5434 3.16731 20.1312 3.4679 19.6935C4.05284 18.8394 4.57278 18.1298 5.09678 17.4584C5.4258 17.0377 5.70609 16.702 5.97012 16.4003C6.11229 16.2389 6.24227 16.1029 6.3682 15.9754C6.43319 15.9117 6.49412 15.8522 6.55099 15.8012L6.56724 15.7842C6.59161 15.7629 6.61192 15.7417 6.63629 15.7205L6.64848 15.7077C6.6566 15.6992 6.66473 15.695 6.67285 15.6865L6.6891 15.6695C6.69316 15.6695 6.69316 15.6652 6.69722 15.6652L6.70535 15.6567C6.78253 15.5972 6.85158 15.5462 6.9247 15.508C7.98083 16.0519 9.16288 16.3366 10.3612 16.3366C10.4627 16.3366 10.5602 16.3366 10.6618 16.3324C12.0185 16.2771 13.359 15.8607 14.541 15.1213C15.918 14.2629 17.0107 13.0264 17.7013 11.5476C17.9937 11.8833 18.5502 12.389 19.3058 12.5292C19.4398 12.5547 19.5739 12.5675 19.7079 12.5675C20.0654 12.5675 20.4228 12.4825 20.7803 12.3083C20.0857 14.0122 18.863 15.7502 17.1773 17.042ZM21.0931 11.4797C20.5163 11.9173 19.9476 12.0916 19.4073 11.9938C18.6559 11.8578 18.1237 11.229 17.9491 10.9952C18.075 10.668 18.1806 10.3281 18.2618 9.98391C18.3796 9.94567 18.4934 9.89467 18.599 9.82668C19.2814 9.40176 19.6632 8.43292 19.5739 7.35785C19.907 7.18362 20.2441 7.17938 20.6016 7.34085C21.0768 7.55756 21.3734 8.13547 21.4384 8.96833C21.4952 9.69921 21.3774 10.5661 21.0931 11.4797Z" fill="#555569"/>
</g>
<defs>
<clipPath id="clip0">
<rect width="22" height="33" fill="white" transform="translate(0 0.427002)"/>
</clipPath>
</defs>
</svg>
