<svg id="Capa_1" data-name="Capa 1" xmlns="http://www.w3.org/2000/svg" viewBox="0 0 18.21 16.23"><defs><style>.cls-1{fill:#fff;}</style></defs><path class="cls-1" d="M17.91,7l0-.17h0v0a0,0,0,0,1,0,0s0,0,0,0h0v0h0a2.73,2.73,0,0,0-1.74-2.12l-.25-.48A7.57,7.57,0,0,0,14.14,2L14.08,2A7.29,7.29,0,0,0,9.84.34a7.77,7.77,0,0,0-4.5,1.14l-.1.06h0A8.43,8.43,0,0,0,1.41,7.13a1.86,1.86,0,0,0-1,1.08A3.19,3.19,0,0,0,.13,9.43v.12a4.64,4.64,0,0,0,.07.64,3.88,3.88,0,0,0,.37,1h0a2.22,2.22,0,0,0,1.67,1.27l0,0a7.33,7.33,0,0,0,2.47,2.6h0l.31.17.23.11h0a7.58,7.58,0,0,0,3.44.82H9A7.86,7.86,0,0,0,12.91,15a8.4,8.4,0,0,0,3.16-3.57h0l.06-.15h0l0,0v0l.14-.33h0a7.92,7.92,0,0,0,.31-1A1.5,1.5,0,0,0,17,9.72a2.6,2.6,0,0,0,1-2.46h0l0-.29ZM5.46,2.07l0,0h0a9.1,9.1,0,0,1,.81-.44l.13-.06a7.26,7.26,0,0,1,5.12-.3h0a6.54,6.54,0,0,1,1.94,1A5.25,5.25,0,0,1,12,3.75,4.57,4.57,0,0,1,5.52,2.26l-.09-.17Zm4.06,8.35H8.07a.91.91,0,0,0-.65.28,1.08,1.08,0,0,0-.21.34,2.16,2.16,0,0,1-1-.43,1.56,1.56,0,0,1-.54-1.12A3,3,0,0,0,4.64,7.54,5.39,5.39,0,0,1,5,6.47,5.55,5.55,0,0,1,6.74,4.32a5,5,0,0,0,2.67.75,5.42,5.42,0,0,0,2.85-.83,5,5,0,0,0,.6-.43A4.32,4.32,0,0,1,15,6.3a4.77,4.77,0,0,1-.21,3.61,6.23,6.23,0,0,1-3.51,3.17,5.08,5.08,0,0,1-6.57-2.85,4.75,4.75,0,0,1-.22-2,2.23,2.23,0,0,1,.64,1.34A2.09,2.09,0,0,0,5.9,11a2.61,2.61,0,0,0,1.27.55.93.93,0,0,0,.9.76H9.52a.91.91,0,0,0,.65-.28,1,1,0,0,0,.27-.68A.94.94,0,0,0,9.52,10.42ZM5,2.41a1.09,1.09,0,0,0,.08.15A5,5,0,0,0,6.25,4,6.17,6.17,0,0,0,4.5,6.23a5.94,5.94,0,0,0-.34.95,7.18,7.18,0,0,0-2-.94A7.83,7.83,0,0,1,5,2.41ZM2.05,6.76a7.15,7.15,0,0,1,2,1,6.48,6.48,0,0,0-.08,1C4,8.85,4,9,4,9.09A3.22,3.22,0,0,0,3.12,7.6,1.84,1.84,0,0,0,2,7,2.29,2.29,0,0,0,2.05,6.76Zm-.32,4.51a.2.2,0,0,1-.17.09c-.16,0-.36-.18-.52-.45A2.51,2.51,0,0,1,.71,10a2.56,2.56,0,0,1,0-.39v0a1.24,1.24,0,0,1,.19-.72A.21.21,0,0,1,1,8.74h0c.26,0,.71.54.84,1.38A1.54,1.54,0,0,1,1.73,11.27Zm.81.63a1,1,0,0,1-.61-.07h0a.79.79,0,0,0,.2-.17A2.1,2.1,0,0,0,2.43,10c-.16-1-.76-1.85-1.37-1.87H1a1.1,1.1,0,0,1,.68-.52A1.17,1.17,0,0,1,2.74,8a2.79,2.79,0,0,1,.74,1.45,2.23,2.23,0,0,1-.65,2.3A.86.86,0,0,1,2.54,11.9Zm10.1,2.65a7,7,0,0,1-9.8-2.15.84.84,0,0,0,.27-.13A2.56,2.56,0,0,0,4.1,10c0,.15.08.3.13.44a5.21,5.21,0,0,0,2.88,3.07,5.89,5.89,0,0,0,4.38.13A6.42,6.42,0,0,0,12.78,13a6.82,6.82,0,0,0,2.55-2.84,5.67,5.67,0,0,0,.52-2.32,5.45,5.45,0,0,0-.29-1.72,4.88,4.88,0,0,0-2.26-2.7,5.68,5.68,0,0,0,.67-.8,6.85,6.85,0,0,1,1.42,1.74A7.71,7.71,0,0,1,12.64,14.55Zm4.13-5.37a8,8,0,0,0-.35-3.86,2.64,2.64,0,0,1,.93,1.6A2.33,2.33,0,0,1,16.77,9.18Z"/></svg>