<svg width="21" height="21" viewBox="0 0 21 21" fill="none" xmlns="http://www.w3.org/2000/svg">
<path d="M15.9135 8.03894C16.1596 8.03894 16.3979 8.07468 16.6202 8.14615L18.6531 6.11325L17.7042 5.16431L14.8335 8.03497H15.9135V8.03894Z" fill="#1A518E"/>
<path d="M20.019 7.47906L19.4949 6.95496L17.6526 8.79727C18.0496 9.22211 18.2958 9.79386 18.2958 10.4212V10.8897L20.019 9.16652C20.4835 8.69801 20.4835 7.94361 20.019 7.47906Z" fill="#1A518E"/>
<path d="M16.8624 4.32248L13.4557 0.915794C12.9912 0.451246 12.2368 0.451246 11.7722 0.915794L4.64917 8.03886H13.15L16.8624 4.32248Z" fill="#1A518E"/>
<path d="M3.16431 13.006H4.97882V14.344H3.16431V13.006Z" fill="#1A518E"/>
<path d="M15.9136 9.22998H1.2307C0.571597 9.22998 0.0395508 9.76203 0.0395508 10.4211V19.7041C0.0395508 20.3632 0.571597 20.8953 1.2307 20.8953H15.9136C16.5727 20.8953 17.1047 20.3632 17.1047 19.7041V10.4211C17.1047 9.76203 16.5727 9.22998 15.9136 9.22998ZM1.97318 11.8148H6.17V15.5351H1.97318V11.8148ZM4.29195 18.3105H1.93745V17.1194H4.29195V18.3105ZM7.92892 18.3105H5.57442V17.1194H7.92892V18.3105ZM11.5699 18.3105H9.21537V17.1194H11.5699V18.3105ZM15.2068 18.3105H12.8523V17.1194H15.2068V18.3105Z" fill="#1A518E"/>
</svg>
