<svg width="30" height="29" viewBox="0 0 30 29" fill="none" xmlns="http://www.w3.org/2000/svg">
<circle cx="15.4234" cy="14.5" r="14.4986" fill="white"/>
<g clip-path="url(#clip0)">
<path d="M9.39828 11.4256C9.39828 11.11 9.39292 10.8216 9.39828 10.5333C9.40899 10.1687 9.57512 10 9.92882 10C12.5012 10 15.0735 10 17.6459 10C17.6887 10 17.7316 10.0054 17.812 10.0109C17.812 10.2775 17.812 10.5387 17.812 10.7999C17.812 11.3821 17.812 11.9589 17.812 12.5411C17.812 12.9764 17.946 13.1125 18.3693 13.1125C19.3983 13.1125 20.4219 13.0907 21.4508 13.1233C21.767 13.1342 22.0992 13.2485 22.3833 13.39C22.7906 13.5913 22.9888 13.9722 22.9942 14.4347C23.0049 15.3325 22.9996 16.2304 22.9996 17.1282C22.9996 17.4601 22.8281 17.6669 22.5065 17.6342C22.0296 17.5852 21.7723 17.7267 21.5473 18.2001C21.2418 18.8476 20.6148 19.0653 19.9181 18.9837C19.2536 18.9021 18.8088 18.5157 18.573 17.89C18.5033 17.6995 18.4176 17.6451 18.23 17.6451C16.9063 17.6505 15.588 17.6505 14.2643 17.6451C14.1035 17.6451 14.0124 17.6778 13.9588 17.8573C13.7391 18.5593 13.1067 19.0054 12.3726 19.0054C11.6491 19.0054 11.0221 18.5647 10.797 17.8736C10.738 17.6832 10.6523 17.6342 10.4754 17.6451C10.2986 17.656 10.1164 17.6505 9.93954 17.6451C9.56977 17.6342 9.40364 17.4655 9.39828 17.0846C9.39292 16.6874 9.39828 16.2902 9.39828 15.8386C9.04994 15.8386 8.72303 15.8495 8.40149 15.8331C8.16569 15.8222 7.98884 15.6155 8.00492 15.4033C8.021 15.1747 8.1389 15.0115 8.3747 14.968C8.46044 14.9516 8.55154 14.9571 8.64265 14.9571C9.76805 14.9571 10.8935 14.9571 12.0189 14.9571C12.0832 14.9571 12.1421 14.9571 12.2064 14.9571C12.6137 14.9571 12.8174 14.8102 12.8227 14.5218C12.8281 14.2279 12.6191 14.0701 12.2171 14.0701C11.5633 14.0701 10.9149 14.0701 10.2611 14.0701C9.68766 14.0701 9.1196 14.081 8.54619 14.0593C8.39613 14.0538 8.19785 13.9831 8.10674 13.8742C8.02636 13.7763 7.99956 13.5369 8.06387 13.4335C8.14426 13.3083 8.34254 13.1941 8.4926 13.1886C9.26966 13.1669 10.0467 13.1778 10.8238 13.1778C10.9202 13.1778 11.0221 13.1778 11.1185 13.1669C11.3704 13.1288 11.5365 12.9383 11.5258 12.7098C11.5151 12.4758 11.3758 12.3235 11.0971 12.318C10.454 12.3017 9.81092 12.3126 9.16784 12.3071C9.06066 12.3071 8.95347 12.3071 8.84629 12.2963C8.58906 12.269 8.44436 12.1167 8.43365 11.8773C8.42293 11.6378 8.57834 11.4583 8.83557 11.4202C8.92132 11.4093 9.01242 11.4148 9.10353 11.4093C9.18927 11.4202 9.26966 11.4256 9.39828 11.4256ZM12.3565 18.1076C12.7906 18.1239 13.1657 17.7648 13.1764 17.3186C13.1871 16.8942 12.8334 16.5024 12.4261 16.4861C11.9706 16.4698 11.5901 16.818 11.5794 17.2751C11.5687 17.7267 11.9117 18.0913 12.3565 18.1076ZM19.35 17.3077C19.35 17.7594 19.6984 18.1076 20.1539 18.1076C20.5773 18.1131 20.9578 17.7213 20.9524 17.2914C20.947 16.8724 20.5719 16.4861 20.1646 16.4861C19.7037 16.4861 19.35 16.8452 19.35 17.3077Z" fill="#1A518E"/>
<path d="M18.6963 12.2092C18.6963 11.5073 18.6963 10.8162 18.6963 10.1034C19.8967 10.3319 20.5344 11.1917 21.0811 12.2092C20.2826 12.2092 19.5055 12.2092 18.6963 12.2092Z" fill="#1A518E"/>
</g>
<defs>
<clipPath id="clip0">
<rect width="15" height="9" fill="white" transform="translate(8 10)"/>
</clipPath>
</defs>
</svg>
