<svg width="16" height="16" viewBox="0 0 16 16" fill="none" xmlns="http://www.w3.org/2000/svg">
<path d="M14.1501 3.34322L12.8187 1.86938C12.3243 1.86938 5.73459 8.36704 2.50154 11.6159L1.78857 14.516L4.21324 13.9455L14.1501 3.34322Z" fill="white"/>
<path d="M8.16553 14.632H14.9147" stroke="white" stroke-width="2" stroke-linecap="round" stroke-linejoin="round"/>
<path d="M11.5398 2.2585C11.8381 1.96017 12.2427 1.79257 12.6646 1.79257C12.8735 1.79257 13.0804 1.83372 13.2734 1.91366C13.4664 1.99361 13.6418 2.11079 13.7895 2.2585C13.9372 2.40622 14.0544 2.58159 14.1343 2.7746C14.2143 2.9676 14.2554 3.17446 14.2554 3.38337C14.2554 3.59227 14.2143 3.79913 14.1343 3.99214C14.0544 4.18514 13.9372 4.36051 13.7895 4.50823L4.41565 13.8821L1.41602 14.632L2.16592 11.6324L11.5398 2.2585Z" stroke="white" stroke-width="2" stroke-linecap="round" stroke-linejoin="round"/>
</svg>
