<svg width="30" height="30" viewBox="0 0 30 30" fill="none" xmlns="http://www.w3.org/2000/svg">
<circle cx="15.4234" cy="14.8393" r="14.4986" fill="white"/>
<g clip-path="url(#clip0)">
<path d="M15.355 6.9997C19.44 6.92468 22.9086 10.1294 22.9997 14.3523C23.0855 18.4359 19.8689 21.9032 15.6498 21.9943C11.5755 22.0801 8.09086 18.8807 7.99973 14.6471C7.91395 10.5742 11.1198 7.10688 15.355 6.9997ZM15.5105 20.526C18.8396 20.5045 21.5255 17.8196 21.5255 14.5024C21.5255 11.1691 18.786 8.44665 15.4622 8.47344C12.1491 8.5056 9.45791 11.2119 9.474 14.497C9.49008 17.8411 12.2027 20.542 15.5105 20.526Z" fill="#1A518E"/>
<path d="M15.0659 19.5884C12.9751 19.5348 10.568 17.6377 10.3911 14.9421C10.7503 14.8939 11.2918 15.0493 11.2864 14.4651C11.281 13.9453 10.7878 14.0471 10.4394 14.0203C10.4126 12.016 12.38 9.59376 14.9694 9.40619C15.0444 9.73845 14.8729 10.2797 15.4626 10.2529C16.0309 10.2261 15.8379 9.71166 15.9022 9.37939C18.6845 9.57768 20.5126 11.9625 20.5823 13.9775C20.4215 13.9775 20.266 13.9667 20.1052 13.9775C19.8211 13.9989 19.6549 14.1543 19.6442 14.4008C19.6334 14.6366 19.805 14.8188 20.0784 14.8563C20.1642 14.8671 20.2553 14.8617 20.3464 14.8617C20.4322 14.8617 20.5234 14.8617 20.6091 14.8617C20.5341 17.4126 18.186 19.5509 15.9397 19.5777C15.9397 19.4115 15.9451 19.2401 15.9397 19.0739C15.929 18.806 15.7521 18.6238 15.5108 18.6184C15.2589 18.613 15.0766 18.8006 15.0659 19.0846C15.0605 19.2454 15.0659 19.4062 15.0659 19.5884ZM15.4787 13.9132C15.3929 13.8006 15.3393 13.7149 15.275 13.6452C14.6209 12.986 13.9669 12.3322 13.3075 11.6784C13.0716 11.4426 12.8089 11.4266 12.6213 11.6141C12.4283 11.807 12.439 12.0643 12.6695 12.3001C13.5005 13.1307 14.3368 13.9614 15.1731 14.7867C15.3768 14.9903 15.6073 15.001 15.8111 14.8081C16.2989 14.3365 16.7868 13.8649 17.2532 13.3719C17.355 13.2647 17.4193 13.0611 17.3979 12.9217C17.3336 12.5573 16.9261 12.4716 16.6313 12.7556C16.2507 13.1093 15.8968 13.4844 15.4787 13.9132Z" fill="#1A518E"/>
</g>
<defs>
<clipPath id="clip0">
<rect width="15" height="15" fill="white" transform="translate(8 7)"/>
</clipPath>
</defs>
</svg>
