<svg width="21" height="21" viewBox="0 0 21 21" fill="none" xmlns="http://www.w3.org/2000/svg">
<path fill-rule="evenodd" clip-rule="evenodd" d="M8.74239 3.02978L10.1241 3.73255V0.171021H6.82861V3.73255L8.20638 3.02978C8.36917 2.9464 8.56769 2.94243 8.74239 3.02978Z" fill="#1A518E"/>
<path fill-rule="evenodd" clip-rule="evenodd" d="M16.9137 7.36556V0.766595C16.9137 0.437044 16.6476 0.171021 16.3181 0.171021H11.3153V4.70136C11.3153 5.13017 10.8587 5.45972 10.414 5.20958L8.47637 4.2249L6.49906 5.22943C6.10201 5.43193 5.63746 5.13811 5.63746 4.69739V0.171021H0.634637C0.305086 0.171021 0.0390625 0.437044 0.0390625 0.766595V16.4501C0.0390625 16.7796 0.305086 17.0456 0.634637 17.0456H7.2336C6.49906 15.2351 6.507 13.222 7.25345 11.4155C8.81783 7.64349 13.1298 5.83295 16.9137 7.36556Z" fill="#1A518E"/>
<path fill-rule="evenodd" clip-rule="evenodd" d="M18.5377 9.84322C17.4061 8.71162 15.8457 8.01282 14.1225 8.01282C12.3993 8.01282 10.8389 8.71162 9.70735 9.84322C8.57576 10.9748 7.87695 12.5352 7.87695 14.2584C7.87695 15.9816 8.57576 17.542 9.70735 18.6736C10.8389 19.8052 12.3993 20.5 14.1265 20.5C15.8537 20.5 17.4101 19.8012 18.5417 18.6696C19.6733 17.538 20.3681 15.9816 20.3681 14.2584C20.3681 12.5352 19.6693 10.9708 18.5377 9.84322ZM16.6359 16.2119C16.219 16.6288 15.6432 16.8869 15.008 16.8869H12.2286C11.8991 16.8869 11.633 16.6209 11.633 16.2913C11.633 15.9617 11.8991 15.6957 12.2286 15.6957H15.008C15.6194 15.6957 16.1197 15.1954 16.1197 14.584C16.1197 14.2544 16.0165 13.9844 15.7941 13.7581C15.5916 13.5556 15.3137 13.4325 15.008 13.4325H13.3483L13.7017 13.7859C13.9359 14.0162 13.9359 14.3934 13.7056 14.6277C13.4754 14.8619 13.0982 14.8619 12.8639 14.6316L11.4941 13.2658C11.2598 13.0355 11.2598 12.6583 11.4901 12.424L12.856 11.0542C13.0862 10.82 13.4634 10.82 13.6977 11.0502C13.932 11.2805 13.932 11.6577 13.7017 11.892L13.3523 12.2414H15.008C16.2785 12.2414 17.3109 13.2737 17.3109 14.5443C17.3109 15.2074 17.0726 15.7712 16.6359 16.2119Z" fill="#1A518E"/>
</svg>
