<svg width="15" height="20" viewBox="0 0 15 20" fill="none" xmlns="http://www.w3.org/2000/svg">
<g clip-path="url(#clip0)">
<path d="M0 10.377C0 7.94134 0 5.5057 0 3.06667C0 2.03543 0.721257 1.17379 1.77458 0.939729C1.94597 0.902414 2.12806 0.882061 2.30302 0.882061C5.76648 0.878669 9.22995 0.878669 12.6934 0.882061C13.9824 0.882061 14.9964 1.84546 14.9964 3.07006C15 7.94473 15 12.816 14.9964 17.6907C14.9964 18.9153 13.9824 19.8787 12.6934 19.8787C9.22995 19.8821 5.76648 19.8821 2.30302 19.8787C1.01761 19.8787 0.00357058 18.9119 0 17.6907C0 15.2516 0 12.816 0 10.377ZM3.95977 10.377C3.95977 10.5839 3.9562 10.7637 3.95977 10.9435C3.96691 11.2997 4.23113 11.5609 4.57748 11.5609C4.92383 11.5643 5.19519 11.3031 5.2059 10.9503C5.20947 10.8078 5.21661 10.6653 5.2059 10.5262C5.19162 10.3871 5.24875 10.3363 5.388 10.299C6.20566 10.0818 6.74839 9.31859 6.65556 8.53159C6.55201 7.64282 5.83432 7.02882 4.88455 7.01186C4.66318 7.00847 4.4418 7.01864 4.22399 7.00168C3.94192 6.98133 3.74554 6.76083 3.75268 6.49624C3.75982 6.24182 3.96334 6.04168 4.24185 6.02471C4.31326 6.02132 4.38467 6.02132 4.45608 6.02132C4.98096 6.02132 5.50226 6.02811 6.02714 6.01793C6.39848 6.01114 6.67341 5.74655 6.66984 5.42089C6.66627 5.09184 6.39134 4.84082 6.02 4.83743C5.81647 4.83403 5.61652 4.82725 5.413 4.84082C5.25946 4.85099 5.19519 4.81029 5.20947 4.65424C5.22376 4.51855 5.21661 4.38286 5.20947 4.24717C5.19519 3.89777 4.93811 3.65353 4.59176 3.65014C4.24185 3.65014 3.98119 3.89099 3.96691 4.24039C3.95977 4.40322 3.95977 4.56944 3.96691 4.73227C3.97048 4.82725 3.93835 4.86456 3.8348 4.8917C2.96001 5.12577 2.39943 5.90598 2.51726 6.70995C2.64223 7.57836 3.35634 8.17879 4.29183 8.19575C4.49536 8.19915 4.69531 8.19236 4.89883 8.19915C5.11307 8.20593 5.27731 8.29413 5.37015 8.4807C5.5344 8.81654 5.29517 9.17951 4.89526 9.1829C4.32397 9.18968 3.75268 9.1829 3.18139 9.18629C2.78505 9.18629 2.50655 9.43732 2.50655 9.78333C2.51012 10.1192 2.78862 10.3702 3.17424 10.3702C3.42418 10.3804 3.6777 10.377 3.95977 10.377ZM7.49821 16.3134C6.85551 16.3134 6.21281 16.3134 5.5701 16.3134C4.75958 16.3134 3.95263 16.31 3.14211 16.3134C2.66365 16.3168 2.35658 16.7544 2.55653 17.1513C2.6815 17.4023 2.90288 17.5007 3.19567 17.5007C5.89145 17.4973 8.58367 17.5007 11.2795 17.5007C11.483 17.5007 11.6829 17.5041 11.8865 17.4973C12.1471 17.4905 12.3721 17.3311 12.4577 17.1072C12.6077 16.7103 12.3006 16.3168 11.8329 16.3134C10.3904 16.3134 8.9443 16.3134 7.49821 16.3134ZM7.49821 13.1518C6.10212 13.1518 4.70245 13.1518 3.30636 13.1518C3.23494 13.1518 3.16353 13.1518 3.09212 13.1552C2.81005 13.1688 2.5851 13.3486 2.51726 13.6098C2.45299 13.854 2.56368 14.1254 2.81005 14.2441C2.93502 14.3052 3.09212 14.3357 3.23494 14.3357C6.07712 14.3425 8.92288 14.3391 11.7651 14.3391C11.8436 14.3391 11.9186 14.3357 11.9936 14.3222C12.2435 14.2747 12.4042 14.1254 12.472 13.8947C12.5399 13.6675 12.4649 13.4707 12.2899 13.3079C12.1471 13.1756 11.9686 13.1518 11.7793 13.1518C10.3547 13.1518 8.92645 13.1518 7.49821 13.1518ZM10.4154 8.0024C10.8903 8.0024 11.3652 8.00579 11.84 8.0024C12.2185 7.999 12.497 7.74459 12.497 7.40536C12.4935 7.06953 12.2149 6.8185 11.8329 6.81511C10.8867 6.81172 9.94406 6.81172 8.99786 6.81511C8.61581 6.81511 8.3373 7.06613 8.33016 7.40197C8.32659 7.74119 8.61224 7.999 9.005 7.999C9.47631 8.00579 9.94406 8.0024 10.4154 8.0024ZM10.4118 11.164C10.8867 11.164 11.3616 11.1674 11.8365 11.164C12.2221 11.1606 12.497 10.9129 12.497 10.5737C12.497 10.2379 12.2221 9.98008 11.8365 9.98008C10.8903 9.97669 9.94763 9.97669 9.00143 9.98347C8.87646 9.98347 8.74078 10.0208 8.63009 10.0751C8.38729 10.2006 8.28374 10.472 8.35515 10.7332C8.42299 10.9774 8.65151 11.1572 8.93002 11.1606C9.42633 11.1674 9.91907 11.164 10.4118 11.164Z" fill="#1A518E"/>
<path d="M3.95973 10.3764C3.67765 10.3764 3.42414 10.3764 3.17063 10.3764C2.78501 10.373 2.5065 10.1253 2.50293 9.7895C2.49936 9.44349 2.78144 9.19247 3.17777 9.19247C3.74906 9.18907 4.32035 9.19586 4.89165 9.18907C5.29155 9.18229 5.53078 8.81932 5.36653 8.48688C5.2737 8.3003 5.10945 8.21211 4.89522 8.20532C4.69169 8.19854 4.49174 8.20532 4.28822 8.20193C3.35273 8.18497 2.63861 7.58793 2.51364 6.71612C2.39581 5.91216 2.95639 5.13533 3.83119 4.89788C3.93473 4.87074 3.96687 4.83003 3.9633 4.73844C3.95973 4.57561 3.95616 4.40939 3.9633 4.24656C3.97758 3.90055 4.23823 3.65631 4.58815 3.65631C4.93449 3.65631 5.19515 3.90395 5.20586 4.25335C5.20943 4.38904 5.21657 4.52473 5.20586 4.66042C5.19157 4.81646 5.25584 4.85378 5.40938 4.84699C5.60933 4.83681 5.81285 4.84021 6.01638 4.8436C6.39129 4.85038 6.66265 5.09802 6.66622 5.42707C6.66979 5.75272 6.39486 6.02071 6.02352 6.0241C5.49864 6.03089 4.97734 6.0275 4.45247 6.0275C4.38105 6.0275 4.30964 6.0275 4.23823 6.03089C3.9633 6.04785 3.7562 6.24799 3.74906 6.50241C3.74192 6.76701 3.9383 6.9875 4.22038 7.00786C4.43818 7.02143 4.65956 7.01125 4.88093 7.01803C5.83071 7.03499 6.54839 7.65238 6.65194 8.53776C6.74477 9.32476 6.20205 10.088 5.38439 10.3051C5.24156 10.3424 5.188 10.3933 5.20229 10.5324C5.21657 10.6715 5.20943 10.814 5.20229 10.9564C5.19157 11.3092 4.92378 11.567 4.57387 11.567C4.22752 11.5637 3.9633 11.3024 3.95616 10.9497C3.95616 10.7665 3.95973 10.5833 3.95973 10.3764Z" fill="white"/>
</g>
<defs>
<clipPath id="clip0">
<rect width="15" height="19" fill="white" transform="translate(0 0.878052)"/>
</clipPath>
</defs>
</svg>
