<svg width="22" height="16" viewBox="0 0 22 16" fill="none" xmlns="http://www.w3.org/2000/svg">
<rect x="0.914062" y="0.0634766" width="16.5203" height="14.9671" rx="1" fill="#1A518E"/>
<path d="M19.2112 11.7971L19.2112 3.09644L21.4927 3.09644L21.4927 11.7971L19.2112 11.7971Z" fill="#1A518E"/>
<path d="M20.3501 15.0307L19.2112 12.513L21.4927 12.513L20.3501 15.0307Z" fill="#1A518E"/>
<path d="M19.2112 2.38049L19.2112 1.20431C19.2112 0.574278 19.7219 0.0635371 20.352 0.0635371C20.982 0.063537 21.4927 0.574278 21.4927 1.20431L21.4927 2.38049L19.2112 2.38049Z" fill="#1A518E"/>
<rect x="2.15649" y="3.13879" width="14.0359" height="1.53824" rx="0.769122" fill="white"/>
<rect x="2.15649" y="6.61487" width="14.0359" height="1.53824" rx="0.769122" fill="white"/>
<rect x="2.15649" y="10.0908" width="14.0359" height="1.53824" rx="0.769122" fill="white"/>
</svg>
