<svg width="22" height="23" viewBox="0 0 22 23" fill="none" xmlns="http://www.w3.org/2000/svg">
<path d="M13.1351 11.3883C15.9912 11.3883 18.3154 9.02238 18.3154 6.11084C18.3154 3.19931 15.9912 0.837585 13.1351 0.837585C10.279 0.837585 7.95068 3.20347 7.95068 6.11501C7.95068 9.02655 10.2749 11.3883 13.1351 11.3883ZM12.5213 3.01187V2.87025C12.5213 2.52453 12.7955 2.24545 13.1351 2.24545C13.4747 2.24545 13.7489 2.52453 13.7489 2.87025V3.01603C14.4813 3.17431 15.0296 3.8366 15.0296 4.628C15.0296 4.97372 14.7555 5.25279 14.4158 5.25279C14.0762 5.25279 13.8021 4.97372 13.8021 4.628C13.8021 4.40724 13.6261 4.22813 13.4092 4.22813H12.8568C12.64 4.22813 12.464 4.40724 12.464 4.628C12.464 4.75296 12.5254 4.87375 12.6236 4.94873L13.1351 5.33194L14.3749 6.26496C14.7841 6.57319 15.0296 7.0647 15.0296 7.58119V7.58536C15.0337 8.02688 14.8659 8.44341 14.5631 8.75581C14.3381 8.98906 14.0557 9.14318 13.7489 9.20982V9.35561C13.7489 9.70133 13.4747 9.9804 13.1351 9.9804C12.7955 9.9804 12.5213 9.70133 12.5213 9.35561V9.20982C12.2226 9.14318 11.9484 8.99323 11.7234 8.77247C11.4165 8.46423 11.2446 8.04771 11.2405 7.61035C11.2405 7.26463 11.5106 6.98556 11.8502 6.98139H11.8543C12.1899 6.98139 12.4681 7.26047 12.4681 7.60202C12.4681 7.81861 12.64 7.99772 12.8609 7.99772C13.2005 7.99356 13.0737 7.99772 13.4092 7.99356C13.6261 7.99356 13.8021 7.81028 13.798 7.58952V7.58536C13.798 7.4604 13.7366 7.33961 13.6384 7.2688L13.1269 6.88559L11.8871 5.95256C11.4779 5.64433 11.2324 5.14866 11.2324 4.628C11.2365 3.83243 11.7889 3.17015 12.5213 3.01187Z" fill="#1A518E"/>
<path d="M4.91882 14.8565C4.76332 14.5774 4.41142 14.4816 4.13727 14.644L1.2525 16.3393C0.978346 16.5017 0.884233 16.8558 1.04382 17.1349L3.99405 22.3373C4.15364 22.6164 4.50145 22.7122 4.7756 22.5497L7.66446 20.8545C7.93861 20.692 8.03273 20.338 7.87315 20.0589L4.91882 14.8565Z" fill="#1A518E"/>
<path d="M21.2779 13.3542C20.9996 12.9627 20.4636 12.8711 20.0749 13.1543C18.9046 14.0124 16.6582 15.6576 16.4822 15.7909C16.4004 15.8617 16.3144 15.9284 16.2244 15.9825C15.8725 16.2075 15.4633 16.3283 15.0337 16.3283H12.0916C11.752 16.3283 11.4778 16.0492 11.4778 15.7035C11.4778 15.3577 11.752 15.0787 12.0916 15.0787H15.2342C15.6966 15.0787 16.0648 14.6871 16.0485 14.2165C16.0321 13.7708 15.6556 13.425 15.2178 13.425H12.8241C12.6604 13.2501 12.4844 13.0918 12.2921 12.946C11.6374 12.4545 10.8272 12.163 9.95567 12.163C8.40076 12.163 6.84994 13.1626 6.20752 14.4914L8.71993 18.9191H13.4297C14.3544 18.9191 15.2669 18.6775 16.0648 18.211C16.3431 18.0485 16.6418 17.8528 16.9609 17.6195C18.3113 16.6323 21.0733 14.5788 21.0774 14.5788C21.4702 14.2956 21.5561 13.7458 21.2779 13.3542Z" fill="#1A518E"/>
</svg>
