<svg width="30" height="30" viewBox="0 0 30 30" fill="none" xmlns="http://www.w3.org/2000/svg">
<circle cx="15.4234" cy="14.5224" r="14.4986" fill="white"/>
<g clip-path="url(#clip0)">
<path d="M15.3413 5.52251C18.8593 5.50945 21.8607 8.09581 22.3576 11.5051C22.5342 12.7395 22.3249 13.902 21.8672 15.045C21.1022 16.9587 19.9251 18.6176 18.6239 20.1851C17.7346 21.2562 16.7668 22.262 15.8252 23.2874C15.544 23.5944 15.3217 23.6009 15.047 23.3266C13.0853 21.3672 11.2871 19.2707 9.86815 16.8803C9.20771 15.77 8.66498 14.6074 8.48842 13.3142C8.20725 11.3222 8.78922 9.5588 10.0578 8.03702C11.4441 6.3781 13.2554 5.56823 15.3413 5.52251ZM10.424 12.5044C10.3978 15.2409 12.6276 17.4942 15.3871 17.5269C18.1269 17.5595 20.409 15.3063 20.4221 12.5436C20.4352 9.80045 18.2185 7.56025 15.459 7.52759C12.7061 7.49493 10.4501 9.72861 10.424 12.5044Z" fill="#1A518E"/>
<path d="M15.4203 15.1365C16.8648 15.1365 18.0359 13.9668 18.0359 12.524C18.0359 11.0811 16.8648 9.9115 15.4203 9.9115C13.9757 9.9115 12.8047 11.0811 12.8047 12.524C12.8047 13.9668 13.9757 15.1365 15.4203 15.1365Z" fill="#1A518E"/>
</g>
<defs>
<clipPath id="clip0">
<rect width="14" height="18" fill="white" transform="translate(8.42334 5.52246)"/>
</clipPath>
</defs>
</svg>
