<svg width="30" height="29" viewBox="0 0 30 29" fill="none" xmlns="http://www.w3.org/2000/svg">
<circle cx="15.4234" cy="14.5" r="14.4986" fill="white"/>
<g clip-path="url(#clip0)">
<path d="M15.3413 5.49999C18.8593 5.48693 21.8607 8.07328 22.3576 11.4826C22.5342 12.717 22.3249 13.8795 21.8672 15.0225C21.1022 16.9361 19.9251 18.5951 18.6239 20.1625C17.7346 21.2337 16.7668 22.2395 15.8252 23.2649C15.544 23.5718 15.3217 23.5784 15.047 23.3041C13.0853 21.3447 11.2871 19.2482 9.86815 16.8578C9.20771 15.7475 8.66498 14.5849 8.48842 13.2917C8.20725 11.2997 8.78922 9.53627 10.0578 8.0145C11.4441 6.35558 13.2554 5.54571 15.3413 5.49999ZM10.424 12.4818C10.3978 15.2184 12.6276 17.4717 15.3871 17.5043C18.1269 17.537 20.409 15.2837 20.4221 12.521C20.4352 9.77793 18.2185 7.53772 15.459 7.50507C12.7061 7.47241 10.4501 9.70609 10.424 12.4818Z" fill="#5CABF9"/>
<path d="M15.4203 15.1139C16.8648 15.1139 18.0359 13.9443 18.0359 12.5014C18.0359 11.0586 16.8648 9.88895 15.4203 9.88895C13.9757 9.88895 12.8047 11.0586 12.8047 12.5014C12.8047 13.9443 13.9757 15.1139 15.4203 15.1139Z" fill="#5CABF9"/>
</g>
<defs>
<clipPath id="clip0">
<rect width="14" height="18" fill="white" transform="translate(8.42334 5.5)"/>
</clipPath>
</defs>
</svg>
